G04 #@! TF.GenerationSoftware,KiCad,Pcbnew,(6.0.7)*
G04 #@! TF.CreationDate,2023-01-17T09:05:59-08:00*
G04 #@! TF.ProjectId,mlx90640-breakout,6d6c7839-3036-4343-902d-627265616b6f,rev?*
G04 #@! TF.SameCoordinates,Original*
G04 #@! TF.FileFunction,Legend,Bot*
G04 #@! TF.FilePolarity,Positive*
%FSLAX46Y46*%
G04 Gerber Fmt 4.6, Leading zero omitted, Abs format (unit mm)*
G04 Created by KiCad (PCBNEW (6.0.7)) date 2023-01-17 09:05:59*
%MOMM*%
%LPD*%
G01*
G04 APERTURE LIST*
%ADD10C,0.100000*%
%ADD11C,0.250000*%
%ADD12C,0.010000*%
%ADD13C,0.127000*%
%ADD14C,0.120000*%
%ADD15C,0.200000*%
G04 APERTURE END LIST*
D10*
X107266999Y-62418001D02*
X114759999Y-62418001D01*
X114759999Y-62418001D02*
X114759999Y-66482001D01*
X114759999Y-66482001D02*
X107266999Y-66482001D01*
X107266999Y-66482001D02*
X107266999Y-62418001D01*
D11*
X115983332Y-75034572D02*
X115983332Y-73534572D01*
X115516665Y-74606001D01*
X115049999Y-73534572D01*
X115049999Y-75034572D01*
X113716665Y-75034572D02*
X114383332Y-75034572D01*
X114383332Y-73534572D01*
X113383332Y-73534572D02*
X112449999Y-75034572D01*
X112449999Y-73534572D02*
X113383332Y-75034572D01*
X111849999Y-75034572D02*
X111583332Y-75034572D01*
X111449999Y-74963143D01*
X111383332Y-74891715D01*
X111249999Y-74677429D01*
X111183332Y-74391715D01*
X111183332Y-73820286D01*
X111249999Y-73677429D01*
X111316665Y-73606001D01*
X111449999Y-73534572D01*
X111716665Y-73534572D01*
X111849999Y-73606001D01*
X111916665Y-73677429D01*
X111983332Y-73820286D01*
X111983332Y-74177429D01*
X111916665Y-74320286D01*
X111849999Y-74391715D01*
X111716665Y-74463143D01*
X111449999Y-74463143D01*
X111316665Y-74391715D01*
X111249999Y-74320286D01*
X111183332Y-74177429D01*
X110316665Y-73534572D02*
X110183332Y-73534572D01*
X110049999Y-73606001D01*
X109983332Y-73677429D01*
X109916665Y-73820286D01*
X109849999Y-74106001D01*
X109849999Y-74463143D01*
X109916665Y-74748858D01*
X109983332Y-74891715D01*
X110049999Y-74963143D01*
X110183332Y-75034572D01*
X110316665Y-75034572D01*
X110449999Y-74963143D01*
X110516665Y-74891715D01*
X110583332Y-74748858D01*
X110649999Y-74463143D01*
X110649999Y-74106001D01*
X110583332Y-73820286D01*
X110516665Y-73677429D01*
X110449999Y-73606001D01*
X110316665Y-73534572D01*
X108649999Y-73534572D02*
X108916665Y-73534572D01*
X109049999Y-73606001D01*
X109116665Y-73677429D01*
X109249999Y-73891715D01*
X109316665Y-74177429D01*
X109316665Y-74748858D01*
X109249999Y-74891715D01*
X109183332Y-74963143D01*
X109049999Y-75034572D01*
X108783332Y-75034572D01*
X108649999Y-74963143D01*
X108583332Y-74891715D01*
X108516665Y-74748858D01*
X108516665Y-74391715D01*
X108583332Y-74248858D01*
X108649999Y-74177429D01*
X108783332Y-74106001D01*
X109049999Y-74106001D01*
X109183332Y-74177429D01*
X109249999Y-74248858D01*
X109316665Y-74391715D01*
X107316665Y-74034572D02*
X107316665Y-75034572D01*
X107649999Y-73463143D02*
X107983332Y-74534572D01*
X107116665Y-74534572D01*
X105849999Y-75034572D02*
X106649999Y-75034572D01*
X106249999Y-75034572D02*
X106249999Y-73534572D01*
X106383332Y-73748858D01*
X106516665Y-73891715D01*
X106649999Y-73963143D01*
D10*
X116449999Y-82682381D02*
X116449999Y-82015715D01*
X116449999Y-82110953D02*
X116414284Y-82063334D01*
X116342856Y-82015715D01*
X116235713Y-82015715D01*
X116164284Y-82063334D01*
X116128570Y-82158572D01*
X116128570Y-82682381D01*
X116128570Y-82158572D02*
X116092856Y-82063334D01*
X116021427Y-82015715D01*
X115914284Y-82015715D01*
X115842856Y-82063334D01*
X115807141Y-82158572D01*
X115807141Y-82682381D01*
X115342856Y-82682381D02*
X115414284Y-82634762D01*
X115449999Y-82539524D01*
X115449999Y-81682381D01*
X115128570Y-82682381D02*
X114735713Y-82015715D01*
X115128570Y-82015715D02*
X114735713Y-82682381D01*
X114414284Y-82682381D02*
X114271427Y-82682381D01*
X114199999Y-82634762D01*
X114164284Y-82587143D01*
X114092856Y-82444286D01*
X114057141Y-82253810D01*
X114057141Y-81872858D01*
X114092856Y-81777620D01*
X114128570Y-81730001D01*
X114199999Y-81682381D01*
X114342856Y-81682381D01*
X114414284Y-81730001D01*
X114449999Y-81777620D01*
X114485713Y-81872858D01*
X114485713Y-82110953D01*
X114449999Y-82206191D01*
X114414284Y-82253810D01*
X114342856Y-82301429D01*
X114199999Y-82301429D01*
X114128570Y-82253810D01*
X114092856Y-82206191D01*
X114057141Y-82110953D01*
X113592856Y-81682381D02*
X113521427Y-81682381D01*
X113449999Y-81730001D01*
X113414284Y-81777620D01*
X113378570Y-81872858D01*
X113342856Y-82063334D01*
X113342856Y-82301429D01*
X113378570Y-82491905D01*
X113414284Y-82587143D01*
X113449999Y-82634762D01*
X113521427Y-82682381D01*
X113592856Y-82682381D01*
X113664284Y-82634762D01*
X113699999Y-82587143D01*
X113735713Y-82491905D01*
X113771427Y-82301429D01*
X113771427Y-82063334D01*
X113735713Y-81872858D01*
X113699999Y-81777620D01*
X113664284Y-81730001D01*
X113592856Y-81682381D01*
X112699999Y-81682381D02*
X112842856Y-81682381D01*
X112914284Y-81730001D01*
X112949999Y-81777620D01*
X113021427Y-81920477D01*
X113057141Y-82110953D01*
X113057141Y-82491905D01*
X113021427Y-82587143D01*
X112985713Y-82634762D01*
X112914284Y-82682381D01*
X112771427Y-82682381D01*
X112699999Y-82634762D01*
X112664284Y-82587143D01*
X112628570Y-82491905D01*
X112628570Y-82253810D01*
X112664284Y-82158572D01*
X112699999Y-82110953D01*
X112771427Y-82063334D01*
X112914284Y-82063334D01*
X112985713Y-82110953D01*
X113021427Y-82158572D01*
X113057141Y-82253810D01*
X111985713Y-82015715D02*
X111985713Y-82682381D01*
X112164284Y-81634762D02*
X112342856Y-82349048D01*
X111878570Y-82349048D01*
X111449999Y-81682381D02*
X111378570Y-81682381D01*
X111307141Y-81730001D01*
X111271427Y-81777620D01*
X111235713Y-81872858D01*
X111199999Y-82063334D01*
X111199999Y-82301429D01*
X111235713Y-82491905D01*
X111271427Y-82587143D01*
X111307141Y-82634762D01*
X111378570Y-82682381D01*
X111449999Y-82682381D01*
X111521427Y-82634762D01*
X111557141Y-82587143D01*
X111592856Y-82491905D01*
X111628570Y-82301429D01*
X111628570Y-82063334D01*
X111592856Y-81872858D01*
X111557141Y-81777620D01*
X111521427Y-81730001D01*
X111449999Y-81682381D01*
X110878570Y-82301429D02*
X110307141Y-82301429D01*
X109949999Y-82682381D02*
X109949999Y-81682381D01*
X109949999Y-82063334D02*
X109878570Y-82015715D01*
X109735713Y-82015715D01*
X109664284Y-82063334D01*
X109628570Y-82110953D01*
X109592856Y-82206191D01*
X109592856Y-82491905D01*
X109628570Y-82587143D01*
X109664284Y-82634762D01*
X109735713Y-82682381D01*
X109878570Y-82682381D01*
X109949999Y-82634762D01*
X109271427Y-82682381D02*
X109271427Y-82015715D01*
X109271427Y-82206191D02*
X109235713Y-82110953D01*
X109199999Y-82063334D01*
X109128570Y-82015715D01*
X109057141Y-82015715D01*
X108521427Y-82634762D02*
X108592856Y-82682381D01*
X108735713Y-82682381D01*
X108807141Y-82634762D01*
X108842856Y-82539524D01*
X108842856Y-82158572D01*
X108807141Y-82063334D01*
X108735713Y-82015715D01*
X108592856Y-82015715D01*
X108521427Y-82063334D01*
X108485713Y-82158572D01*
X108485713Y-82253810D01*
X108842856Y-82349048D01*
X107842856Y-82682381D02*
X107842856Y-82158572D01*
X107878570Y-82063334D01*
X107949999Y-82015715D01*
X108092856Y-82015715D01*
X108164284Y-82063334D01*
X107842856Y-82634762D02*
X107914284Y-82682381D01*
X108092856Y-82682381D01*
X108164284Y-82634762D01*
X108199999Y-82539524D01*
X108199999Y-82444286D01*
X108164284Y-82349048D01*
X108092856Y-82301429D01*
X107914284Y-82301429D01*
X107842856Y-82253810D01*
X107485713Y-82682381D02*
X107485713Y-81682381D01*
X107414284Y-82301429D02*
X107199999Y-82682381D01*
X107199999Y-82015715D02*
X107485713Y-82396667D01*
X106771427Y-82682381D02*
X106842856Y-82634762D01*
X106878570Y-82587143D01*
X106914284Y-82491905D01*
X106914284Y-82206191D01*
X106878570Y-82110953D01*
X106842856Y-82063334D01*
X106771427Y-82015715D01*
X106664284Y-82015715D01*
X106592856Y-82063334D01*
X106557141Y-82110953D01*
X106521427Y-82206191D01*
X106521427Y-82491905D01*
X106557141Y-82587143D01*
X106592856Y-82634762D01*
X106664284Y-82682381D01*
X106771427Y-82682381D01*
X105878570Y-82015715D02*
X105878570Y-82682381D01*
X106199999Y-82015715D02*
X106199999Y-82539524D01*
X106164284Y-82634762D01*
X106092856Y-82682381D01*
X105985713Y-82682381D01*
X105914284Y-82634762D01*
X105878570Y-82587143D01*
X105628570Y-82015715D02*
X105342856Y-82015715D01*
X105521427Y-81682381D02*
X105521427Y-82539524D01*
X105485713Y-82634762D01*
X105414284Y-82682381D01*
X105342856Y-82682381D01*
D11*
X115983332Y-72621572D02*
X115983332Y-71121572D01*
X115516665Y-72193001D01*
X115049999Y-71121572D01*
X115049999Y-72621572D01*
X113716665Y-72621572D02*
X114383332Y-72621572D01*
X114383332Y-71121572D01*
X113383332Y-71121572D02*
X112449999Y-72621572D01*
X112449999Y-71121572D02*
X113383332Y-72621572D01*
X111849999Y-72621572D02*
X111583332Y-72621572D01*
X111449999Y-72550143D01*
X111383332Y-72478715D01*
X111249999Y-72264429D01*
X111183332Y-71978715D01*
X111183332Y-71407286D01*
X111249999Y-71264429D01*
X111316665Y-71193001D01*
X111449999Y-71121572D01*
X111716665Y-71121572D01*
X111849999Y-71193001D01*
X111916665Y-71264429D01*
X111983332Y-71407286D01*
X111983332Y-71764429D01*
X111916665Y-71907286D01*
X111849999Y-71978715D01*
X111716665Y-72050143D01*
X111449999Y-72050143D01*
X111316665Y-71978715D01*
X111249999Y-71907286D01*
X111183332Y-71764429D01*
X110316665Y-71121572D02*
X110183332Y-71121572D01*
X110049999Y-71193001D01*
X109983332Y-71264429D01*
X109916665Y-71407286D01*
X109849999Y-71693001D01*
X109849999Y-72050143D01*
X109916665Y-72335858D01*
X109983332Y-72478715D01*
X110049999Y-72550143D01*
X110183332Y-72621572D01*
X110316665Y-72621572D01*
X110449999Y-72550143D01*
X110516665Y-72478715D01*
X110583332Y-72335858D01*
X110649999Y-72050143D01*
X110649999Y-71693001D01*
X110583332Y-71407286D01*
X110516665Y-71264429D01*
X110449999Y-71193001D01*
X110316665Y-71121572D01*
X108649999Y-71121572D02*
X108916665Y-71121572D01*
X109049999Y-71193001D01*
X109116665Y-71264429D01*
X109249999Y-71478715D01*
X109316665Y-71764429D01*
X109316665Y-72335858D01*
X109249999Y-72478715D01*
X109183332Y-72550143D01*
X109049999Y-72621572D01*
X108783332Y-72621572D01*
X108649999Y-72550143D01*
X108583332Y-72478715D01*
X108516665Y-72335858D01*
X108516665Y-71978715D01*
X108583332Y-71835858D01*
X108649999Y-71764429D01*
X108783332Y-71693001D01*
X109049999Y-71693001D01*
X109183332Y-71764429D01*
X109249999Y-71835858D01*
X109316665Y-71978715D01*
X107316665Y-71621572D02*
X107316665Y-72621572D01*
X107649999Y-71050143D02*
X107983332Y-72121572D01*
X107116665Y-72121572D01*
X106316665Y-71121572D02*
X106183332Y-71121572D01*
X106049999Y-71193001D01*
X105983332Y-71264429D01*
X105916665Y-71407286D01*
X105849999Y-71693001D01*
X105849999Y-72050143D01*
X105916665Y-72335858D01*
X105983332Y-72478715D01*
X106049999Y-72550143D01*
X106183332Y-72621572D01*
X106316665Y-72621572D01*
X106449999Y-72550143D01*
X106516665Y-72478715D01*
X106583332Y-72335858D01*
X106649999Y-72050143D01*
X106649999Y-71693001D01*
X106583332Y-71407286D01*
X106516665Y-71264429D01*
X106449999Y-71193001D01*
X106316665Y-71121572D01*
G36*
X108962514Y-78188620D02*
G01*
X108963920Y-78263550D01*
X108810977Y-78263550D01*
X108813789Y-78113690D01*
X108961109Y-78113690D01*
X108962514Y-78188620D01*
G37*
D12*
X108962514Y-78188620D02*
X108963920Y-78263550D01*
X108810977Y-78263550D01*
X108813789Y-78113690D01*
X108961109Y-78113690D01*
X108962514Y-78188620D01*
G36*
X110243809Y-78451510D02*
G01*
X110167609Y-78451510D01*
X110167609Y-78375310D01*
X110243809Y-78375310D01*
X110243809Y-78451510D01*
G37*
X110243809Y-78451510D02*
X110167609Y-78451510D01*
X110167609Y-78375310D01*
X110243809Y-78375310D01*
X110243809Y-78451510D01*
G36*
X109959329Y-78248310D02*
G01*
X109847569Y-78248310D01*
X109847569Y-78136550D01*
X109959329Y-78136550D01*
X109959329Y-78248310D01*
G37*
X109959329Y-78248310D02*
X109847569Y-78248310D01*
X109847569Y-78136550D01*
X109959329Y-78136550D01*
X109959329Y-78248310D01*
G36*
X108338809Y-78380390D02*
G01*
X108232129Y-78380390D01*
X108232129Y-78278790D01*
X108338809Y-78278790D01*
X108338809Y-78380390D01*
G37*
X108338809Y-78380390D02*
X108232129Y-78380390D01*
X108232129Y-78278790D01*
X108338809Y-78278790D01*
X108338809Y-78380390D01*
G36*
X109293849Y-78395630D02*
G01*
X109116049Y-78395630D01*
X109116049Y-78217830D01*
X109293849Y-78217830D01*
X109293849Y-78395630D01*
G37*
X109293849Y-78395630D02*
X109116049Y-78395630D01*
X109116049Y-78217830D01*
X109293849Y-78217830D01*
X109293849Y-78395630D01*
G36*
X108627250Y-78054000D02*
G01*
X108625829Y-78118770D01*
X108561059Y-78120191D01*
X108496289Y-78121613D01*
X108496289Y-77989230D01*
X108628672Y-77989230D01*
X108627250Y-78054000D01*
G37*
X108627250Y-78054000D02*
X108625829Y-78118770D01*
X108561059Y-78120191D01*
X108496289Y-78121613D01*
X108496289Y-77989230D01*
X108628672Y-77989230D01*
X108627250Y-78054000D01*
G36*
X108658849Y-78837590D02*
G01*
X108613129Y-78837590D01*
X108613129Y-78791870D01*
X108658849Y-78791870D01*
X108658849Y-78837590D01*
G37*
X108658849Y-78837590D02*
X108613129Y-78837590D01*
X108613129Y-78791870D01*
X108658849Y-78791870D01*
X108658849Y-78837590D01*
G36*
X107835889Y-78431190D02*
G01*
X107774929Y-78431190D01*
X107774929Y-78370230D01*
X107835889Y-78370230D01*
X107835889Y-78431190D01*
G37*
X107835889Y-78431190D02*
X107774929Y-78431190D01*
X107774929Y-78370230D01*
X107835889Y-78370230D01*
X107835889Y-78431190D01*
G36*
X108110209Y-78629310D02*
G01*
X108034009Y-78629310D01*
X108034009Y-78553110D01*
X108110209Y-78553110D01*
X108110209Y-78629310D01*
G37*
X108110209Y-78629310D02*
X108034009Y-78629310D01*
X108034009Y-78553110D01*
X108110209Y-78553110D01*
X108110209Y-78629310D01*
G36*
X108912849Y-78634390D02*
G01*
X108821409Y-78634390D01*
X108821409Y-78537870D01*
X108912849Y-78537870D01*
X108912849Y-78634390D01*
G37*
X108912849Y-78634390D02*
X108821409Y-78634390D01*
X108821409Y-78537870D01*
X108912849Y-78537870D01*
X108912849Y-78634390D01*
G36*
X109633056Y-78013242D02*
G01*
X109631669Y-78103530D01*
X109543925Y-78104920D01*
X109510550Y-78105284D01*
X109486114Y-78105116D01*
X109469408Y-78104346D01*
X109459223Y-78102902D01*
X109454348Y-78100715D01*
X109453624Y-78099645D01*
X109452847Y-78092523D01*
X109452337Y-78077101D01*
X109452118Y-78055240D01*
X109452214Y-78028795D01*
X109452468Y-78009354D01*
X109453869Y-77925730D01*
X109544156Y-77924342D01*
X109634444Y-77922954D01*
X109633056Y-78013242D01*
G37*
X109633056Y-78013242D02*
X109631669Y-78103530D01*
X109543925Y-78104920D01*
X109510550Y-78105284D01*
X109486114Y-78105116D01*
X109469408Y-78104346D01*
X109459223Y-78102902D01*
X109454348Y-78100715D01*
X109453624Y-78099645D01*
X109452847Y-78092523D01*
X109452337Y-78077101D01*
X109452118Y-78055240D01*
X109452214Y-78028795D01*
X109452468Y-78009354D01*
X109453869Y-77925730D01*
X109544156Y-77924342D01*
X109634444Y-77922954D01*
X109633056Y-78013242D01*
G36*
X108623289Y-78517550D02*
G01*
X108511529Y-78517550D01*
X108511529Y-78400710D01*
X108623289Y-78400710D01*
X108623289Y-78517550D01*
G37*
X108623289Y-78517550D02*
X108511529Y-78517550D01*
X108511529Y-78400710D01*
X108623289Y-78400710D01*
X108623289Y-78517550D01*
G36*
X109161769Y-77953670D02*
G01*
X108983969Y-77953670D01*
X108983969Y-77775870D01*
X109161769Y-77775870D01*
X109161769Y-77953670D01*
G37*
X109161769Y-77953670D02*
X108983969Y-77953670D01*
X108983969Y-77775870D01*
X109161769Y-77775870D01*
X109161769Y-77953670D01*
G36*
X108420089Y-78791870D02*
G01*
X108318489Y-78791870D01*
X108318489Y-78690270D01*
X108420089Y-78690270D01*
X108420089Y-78791870D01*
G37*
X108420089Y-78791870D02*
X108318489Y-78791870D01*
X108318489Y-78690270D01*
X108420089Y-78690270D01*
X108420089Y-78791870D01*
D13*
X110542235Y-70134249D02*
X111342660Y-70134239D01*
X110542235Y-70134249D02*
X110542226Y-69134448D01*
X111342652Y-69134437D02*
X111342660Y-70134239D01*
D14*
X106249999Y-70225001D02*
X108374999Y-70225001D01*
X108374999Y-70225001D02*
X108374999Y-69175001D01*
X108374999Y-69175001D02*
X106249999Y-69175001D01*
X106249999Y-69175001D02*
X106249999Y-70225001D01*
G36*
X106249999Y-70225001D02*
G01*
X108374999Y-70225001D01*
X108374999Y-69175001D01*
X106249999Y-69175001D01*
X106249999Y-70225001D01*
G37*
D13*
X111342652Y-69134437D02*
G75*
G03*
X110542226Y-69134448I-400278J4708339D01*
G01*
D15*
X107449727Y-68295937D02*
G75*
G03*
X107449727Y-68295937I-100000J0D01*
G01*
M02*
