G04 #@! TF.GenerationSoftware,KiCad,Pcbnew,(6.0.7)*
G04 #@! TF.CreationDate,2023-01-17T09:05:59-08:00*
G04 #@! TF.ProjectId,mlx90640-breakout,6d6c7839-3036-4343-902d-627265616b6f,rev?*
G04 #@! TF.SameCoordinates,Original*
G04 #@! TF.FileFunction,Legend,Top*
G04 #@! TF.FilePolarity,Positive*
%FSLAX46Y46*%
G04 Gerber Fmt 4.6, Leading zero omitted, Abs format (unit mm)*
G04 Created by KiCad (PCBNEW (6.0.7)) date 2023-01-17 09:05:59*
%MOMM*%
%LPD*%
G01*
G04 APERTURE LIST*
%ADD10C,0.075000*%
%ADD11C,0.100000*%
%ADD12C,0.120000*%
%ADD13C,0.203200*%
G04 APERTURE END LIST*
D10*
X105530713Y-82535286D02*
X105494999Y-82499572D01*
X105459284Y-82428143D01*
X105459284Y-82249572D01*
X105494999Y-82178143D01*
X105530713Y-82142429D01*
X105602141Y-82106715D01*
X105673570Y-82106715D01*
X105780713Y-82142429D01*
X106209284Y-82571001D01*
X106209284Y-82106715D01*
X105459284Y-81642429D02*
X105459284Y-81571001D01*
X105494999Y-81499572D01*
X105530713Y-81463858D01*
X105602141Y-81428143D01*
X105744999Y-81392429D01*
X105923570Y-81392429D01*
X106066427Y-81428143D01*
X106137856Y-81463858D01*
X106173570Y-81499572D01*
X106209284Y-81571001D01*
X106209284Y-81642429D01*
X106173570Y-81713858D01*
X106137856Y-81749572D01*
X106066427Y-81785286D01*
X105923570Y-81821001D01*
X105744999Y-81821001D01*
X105602141Y-81785286D01*
X105530713Y-81749572D01*
X105494999Y-81713858D01*
X105459284Y-81642429D01*
X105530713Y-81106715D02*
X105494999Y-81071001D01*
X105459284Y-80999572D01*
X105459284Y-80821001D01*
X105494999Y-80749572D01*
X105530713Y-80713858D01*
X105602141Y-80678143D01*
X105673570Y-80678143D01*
X105780713Y-80713858D01*
X106209284Y-81142429D01*
X106209284Y-80678143D01*
X105459284Y-80428143D02*
X105459284Y-79963858D01*
X105744999Y-80213858D01*
X105744999Y-80106715D01*
X105780713Y-80035286D01*
X105816427Y-79999572D01*
X105887856Y-79963858D01*
X106066427Y-79963858D01*
X106137856Y-79999572D01*
X106173570Y-80035286D01*
X106209284Y-80106715D01*
X106209284Y-80321001D01*
X106173570Y-80392429D01*
X106137856Y-80428143D01*
X105923570Y-79642429D02*
X105923570Y-79071001D01*
X105459284Y-78571001D02*
X105459284Y-78499572D01*
X105494999Y-78428143D01*
X105530713Y-78392429D01*
X105602141Y-78356715D01*
X105744999Y-78321001D01*
X105923570Y-78321001D01*
X106066427Y-78356715D01*
X106137856Y-78392429D01*
X106173570Y-78428143D01*
X106209284Y-78499572D01*
X106209284Y-78571001D01*
X106173570Y-78642429D01*
X106137856Y-78678143D01*
X106066427Y-78713858D01*
X105923570Y-78749572D01*
X105744999Y-78749572D01*
X105602141Y-78713858D01*
X105530713Y-78678143D01*
X105494999Y-78642429D01*
X105459284Y-78571001D01*
X106209284Y-77606715D02*
X106209284Y-78035286D01*
X106209284Y-77821001D02*
X105459284Y-77821001D01*
X105566427Y-77892429D01*
X105637856Y-77963858D01*
X105673570Y-78035286D01*
D11*
X106449379Y-73688334D02*
X105782713Y-73688334D01*
X105877951Y-73688334D02*
X105830332Y-73640715D01*
X105782713Y-73545477D01*
X105782713Y-73402620D01*
X105830332Y-73307381D01*
X105925570Y-73259762D01*
X106449379Y-73259762D01*
X105925570Y-73259762D02*
X105830332Y-73212143D01*
X105782713Y-73116905D01*
X105782713Y-72974048D01*
X105830332Y-72878810D01*
X105925570Y-72831191D01*
X106449379Y-72831191D01*
X106449379Y-72212143D02*
X106401760Y-72307381D01*
X106306522Y-72355001D01*
X105449379Y-72355001D01*
X106449379Y-71926429D02*
X105782713Y-71402620D01*
X105782713Y-71926429D02*
X106449379Y-71402620D01*
X106449379Y-70974048D02*
X106449379Y-70783572D01*
X106401760Y-70688334D01*
X106354141Y-70640715D01*
X106211284Y-70545477D01*
X106020808Y-70497858D01*
X105639856Y-70497858D01*
X105544618Y-70545477D01*
X105496999Y-70593096D01*
X105449379Y-70688334D01*
X105449379Y-70878810D01*
X105496999Y-70974048D01*
X105544618Y-71021667D01*
X105639856Y-71069286D01*
X105877951Y-71069286D01*
X105973189Y-71021667D01*
X106020808Y-70974048D01*
X106068427Y-70878810D01*
X106068427Y-70688334D01*
X106020808Y-70593096D01*
X105973189Y-70545477D01*
X105877951Y-70497858D01*
X105449379Y-69878810D02*
X105449379Y-69783572D01*
X105496999Y-69688334D01*
X105544618Y-69640715D01*
X105639856Y-69593096D01*
X105830332Y-69545477D01*
X106068427Y-69545477D01*
X106258903Y-69593096D01*
X106354141Y-69640715D01*
X106401760Y-69688334D01*
X106449379Y-69783572D01*
X106449379Y-69878810D01*
X106401760Y-69974048D01*
X106354141Y-70021667D01*
X106258903Y-70069286D01*
X106068427Y-70116905D01*
X105830332Y-70116905D01*
X105639856Y-70069286D01*
X105544618Y-70021667D01*
X105496999Y-69974048D01*
X105449379Y-69878810D01*
X105449379Y-68688334D02*
X105449379Y-68878810D01*
X105496999Y-68974048D01*
X105544618Y-69021667D01*
X105687475Y-69116905D01*
X105877951Y-69164524D01*
X106258903Y-69164524D01*
X106354141Y-69116905D01*
X106401760Y-69069286D01*
X106449379Y-68974048D01*
X106449379Y-68783572D01*
X106401760Y-68688334D01*
X106354141Y-68640715D01*
X106258903Y-68593096D01*
X106020808Y-68593096D01*
X105925570Y-68640715D01*
X105877951Y-68688334D01*
X105830332Y-68783572D01*
X105830332Y-68974048D01*
X105877951Y-69069286D01*
X105925570Y-69116905D01*
X106020808Y-69164524D01*
X105782713Y-67735953D02*
X106449379Y-67735953D01*
X105401760Y-67974048D02*
X106116046Y-68212143D01*
X106116046Y-67593096D01*
X105449379Y-67021667D02*
X105449379Y-66926429D01*
X105496999Y-66831191D01*
X105544618Y-66783572D01*
X105639856Y-66735953D01*
X105830332Y-66688334D01*
X106068427Y-66688334D01*
X106258903Y-66735953D01*
X106354141Y-66783572D01*
X106401760Y-66831191D01*
X106449379Y-66926429D01*
X106449379Y-67021667D01*
X106401760Y-67116905D01*
X106354141Y-67164524D01*
X106258903Y-67212143D01*
X106068427Y-67259762D01*
X105830332Y-67259762D01*
X105639856Y-67212143D01*
X105544618Y-67164524D01*
X105496999Y-67116905D01*
X105449379Y-67021667D01*
X106068427Y-66259762D02*
X106068427Y-65497858D01*
X106449379Y-65021667D02*
X105449379Y-65021667D01*
X105830332Y-65021667D02*
X105782713Y-64926429D01*
X105782713Y-64735953D01*
X105830332Y-64640715D01*
X105877951Y-64593096D01*
X105973189Y-64545477D01*
X106258903Y-64545477D01*
X106354141Y-64593096D01*
X106401760Y-64640715D01*
X106449379Y-64735953D01*
X106449379Y-64926429D01*
X106401760Y-65021667D01*
X106449379Y-64116905D02*
X105782713Y-64116905D01*
X105973189Y-64116905D02*
X105877951Y-64069286D01*
X105830332Y-64021667D01*
X105782713Y-63926429D01*
X105782713Y-63831191D01*
X106401760Y-63116905D02*
X106449379Y-63212143D01*
X106449379Y-63402620D01*
X106401760Y-63497858D01*
X106306522Y-63545477D01*
X105925570Y-63545477D01*
X105830332Y-63497858D01*
X105782713Y-63402620D01*
X105782713Y-63212143D01*
X105830332Y-63116905D01*
X105925570Y-63069286D01*
X106020808Y-63069286D01*
X106116046Y-63545477D01*
X106449379Y-62212143D02*
X105925570Y-62212143D01*
X105830332Y-62259762D01*
X105782713Y-62355001D01*
X105782713Y-62545477D01*
X105830332Y-62640715D01*
X106401760Y-62212143D02*
X106449379Y-62307381D01*
X106449379Y-62545477D01*
X106401760Y-62640715D01*
X106306522Y-62688334D01*
X106211284Y-62688334D01*
X106116046Y-62640715D01*
X106068427Y-62545477D01*
X106068427Y-62307381D01*
X106020808Y-62212143D01*
X106449379Y-61735953D02*
X105449379Y-61735953D01*
X106068427Y-61640715D02*
X106449379Y-61355001D01*
X105782713Y-61355001D02*
X106163665Y-61735953D01*
X106449379Y-60783572D02*
X106401760Y-60878810D01*
X106354141Y-60926429D01*
X106258903Y-60974048D01*
X105973189Y-60974048D01*
X105877951Y-60926429D01*
X105830332Y-60878810D01*
X105782713Y-60783572D01*
X105782713Y-60640715D01*
X105830332Y-60545477D01*
X105877951Y-60497858D01*
X105973189Y-60450239D01*
X106258903Y-60450239D01*
X106354141Y-60497858D01*
X106401760Y-60545477D01*
X106449379Y-60640715D01*
X106449379Y-60783572D01*
X105782713Y-59593096D02*
X106449379Y-59593096D01*
X105782713Y-60021667D02*
X106306522Y-60021667D01*
X106401760Y-59974048D01*
X106449379Y-59878810D01*
X106449379Y-59735953D01*
X106401760Y-59640715D01*
X106354141Y-59593096D01*
X105782713Y-59259762D02*
X105782713Y-58878810D01*
X105449379Y-59116905D02*
X106306522Y-59116905D01*
X106401760Y-59069286D01*
X106449379Y-58974048D01*
X106449379Y-58878810D01*
D10*
X113402760Y-74431381D02*
X113474189Y-74455191D01*
X113593237Y-74455191D01*
X113640856Y-74431381D01*
X113664665Y-74407572D01*
X113688475Y-74359953D01*
X113688475Y-74312334D01*
X113664665Y-74264715D01*
X113640856Y-74240905D01*
X113593237Y-74217096D01*
X113497999Y-74193286D01*
X113450379Y-74169477D01*
X113426570Y-74145667D01*
X113402760Y-74098048D01*
X113402760Y-74050429D01*
X113426570Y-74002810D01*
X113450379Y-73979001D01*
X113497999Y-73955191D01*
X113617046Y-73955191D01*
X113688475Y-73979001D01*
X114188475Y-74407572D02*
X114164665Y-74431381D01*
X114093237Y-74455191D01*
X114045618Y-74455191D01*
X113974189Y-74431381D01*
X113926570Y-74383762D01*
X113902760Y-74336143D01*
X113878951Y-74240905D01*
X113878951Y-74169477D01*
X113902760Y-74074239D01*
X113926570Y-74026620D01*
X113974189Y-73979001D01*
X114045618Y-73955191D01*
X114093237Y-73955191D01*
X114164665Y-73979001D01*
X114188475Y-74002810D01*
X114640856Y-74455191D02*
X114402760Y-74455191D01*
X114402760Y-73955191D01*
X107521046Y-73979001D02*
X107473427Y-73955191D01*
X107401999Y-73955191D01*
X107330570Y-73979001D01*
X107282951Y-74026620D01*
X107259141Y-74074239D01*
X107235332Y-74169477D01*
X107235332Y-74240905D01*
X107259141Y-74336143D01*
X107282951Y-74383762D01*
X107330570Y-74431381D01*
X107401999Y-74455191D01*
X107449618Y-74455191D01*
X107521046Y-74431381D01*
X107544856Y-74407572D01*
X107544856Y-74240905D01*
X107449618Y-74240905D01*
X107759141Y-74455191D02*
X107759141Y-73955191D01*
X108044856Y-74455191D01*
X108044856Y-73955191D01*
X108282951Y-74455191D02*
X108282951Y-73955191D01*
X108401999Y-73955191D01*
X108473427Y-73979001D01*
X108521046Y-74026620D01*
X108544856Y-74074239D01*
X108568665Y-74169477D01*
X108568665Y-74240905D01*
X108544856Y-74336143D01*
X108521046Y-74383762D01*
X108473427Y-74431381D01*
X108401999Y-74455191D01*
X108282951Y-74455191D01*
X109267332Y-73955191D02*
X109433999Y-74455191D01*
X109600665Y-73955191D01*
X109767332Y-74455191D02*
X109767332Y-73955191D01*
X109886379Y-73955191D01*
X109957808Y-73979001D01*
X110005427Y-74026620D01*
X110029237Y-74074239D01*
X110053046Y-74169477D01*
X110053046Y-74240905D01*
X110029237Y-74336143D01*
X110005427Y-74383762D01*
X109957808Y-74431381D01*
X109886379Y-74455191D01*
X109767332Y-74455191D01*
X110267332Y-74455191D02*
X110267332Y-73955191D01*
X110386379Y-73955191D01*
X110457808Y-73979001D01*
X110505427Y-74026620D01*
X110529237Y-74074239D01*
X110553046Y-74169477D01*
X110553046Y-74240905D01*
X110529237Y-74336143D01*
X110505427Y-74383762D01*
X110457808Y-74431381D01*
X110386379Y-74455191D01*
X110267332Y-74455191D01*
X111358856Y-74431381D02*
X111430284Y-74455191D01*
X111549332Y-74455191D01*
X111596951Y-74431381D01*
X111620760Y-74407572D01*
X111644570Y-74359953D01*
X111644570Y-74312334D01*
X111620760Y-74264715D01*
X111596951Y-74240905D01*
X111549332Y-74217096D01*
X111454094Y-74193286D01*
X111406475Y-74169477D01*
X111382665Y-74145667D01*
X111358856Y-74098048D01*
X111358856Y-74050429D01*
X111382665Y-74002810D01*
X111406475Y-73979001D01*
X111454094Y-73955191D01*
X111573141Y-73955191D01*
X111644570Y-73979001D01*
X111858856Y-74455191D02*
X111858856Y-73955191D01*
X111977903Y-73955191D01*
X112049332Y-73979001D01*
X112096951Y-74026620D01*
X112120760Y-74074239D01*
X112144570Y-74169477D01*
X112144570Y-74240905D01*
X112120760Y-74336143D01*
X112096951Y-74383762D01*
X112049332Y-74431381D01*
X111977903Y-74455191D01*
X111858856Y-74455191D01*
X112335046Y-74312334D02*
X112573141Y-74312334D01*
X112287427Y-74455191D02*
X112454094Y-73955191D01*
X112620760Y-74455191D01*
D12*
X113620435Y-72224001D02*
X114074563Y-72224001D01*
X113620435Y-73694001D02*
X114074563Y-73694001D01*
X114697999Y-74672001D02*
X114697999Y-76072001D01*
X114697999Y-76072001D02*
X113297999Y-76072001D01*
X113297999Y-76072001D02*
X113297999Y-74672001D01*
X113297999Y-74672001D02*
X114697999Y-74672001D01*
X108601999Y-76072001D02*
X107201999Y-76072001D01*
X108601999Y-74672001D02*
X108601999Y-76072001D01*
X107201999Y-74672001D02*
X108601999Y-74672001D01*
X107201999Y-76072001D02*
X107201999Y-74672001D01*
X109730435Y-73694001D02*
X110184563Y-73694001D01*
X109730435Y-72224001D02*
X110184563Y-72224001D01*
X110627747Y-59143001D02*
X111150251Y-59143001D01*
X110627747Y-60613001D02*
X111150251Y-60613001D01*
D13*
X107943999Y-80428001D02*
X107943999Y-78778001D01*
X113943999Y-78778001D02*
X113943999Y-80428001D01*
X107943999Y-78778001D02*
X108693999Y-78778001D01*
X109443999Y-83028001D02*
X112443999Y-83028001D01*
X113193999Y-78778001D02*
X113943999Y-78778001D01*
X108545599Y-78128001D02*
G75*
G03*
X108545599Y-78128001I-101600J0D01*
G01*
D12*
X110633999Y-74672001D02*
X110633999Y-76072001D01*
X110633999Y-76072001D02*
X109233999Y-76072001D01*
X109233999Y-76072001D02*
X109233999Y-74672001D01*
X109233999Y-74672001D02*
X110633999Y-74672001D01*
X110688747Y-63715001D02*
X111211251Y-63715001D01*
X110688747Y-65185001D02*
X111211251Y-65185001D01*
X112665999Y-76072001D02*
X111265999Y-76072001D01*
X111265999Y-74672001D02*
X112665999Y-74672001D01*
X111265999Y-76072001D02*
X111265999Y-74672001D01*
X112665999Y-74672001D02*
X112665999Y-76072001D01*
X108503999Y-69673001D02*
X111303999Y-69673001D01*
X111303999Y-71673001D02*
X108503999Y-71673001D01*
X111953999Y-70373001D02*
X111953999Y-70973001D01*
X107853999Y-70973001D02*
X107853999Y-70373001D01*
X108553999Y-69673001D02*
G75*
G03*
X107853999Y-70373001I-1J-699999D01*
G01*
X111253999Y-71673001D02*
G75*
G03*
X111953999Y-70973001I0J700000D01*
G01*
X111953999Y-70373001D02*
G75*
G03*
X111253999Y-69673001I-700000J0D01*
G01*
X107853999Y-70973001D02*
G75*
G03*
X108553999Y-71673001I699999J-1D01*
G01*
M02*
