G04 #@! TF.GenerationSoftware,KiCad,Pcbnew,(6.0.7)*
G04 #@! TF.CreationDate,2023-01-17T09:05:59-08:00*
G04 #@! TF.ProjectId,mlx90640-breakout,6d6c7839-3036-4343-902d-627265616b6f,rev?*
G04 #@! TF.SameCoordinates,Original*
G04 #@! TF.FileFunction,Copper,L1,Top*
G04 #@! TF.FilePolarity,Positive*
%FSLAX46Y46*%
G04 Gerber Fmt 4.6, Leading zero omitted, Abs format (unit mm)*
G04 Created by KiCad (PCBNEW (6.0.7)) date 2023-01-17 09:05:59*
%MOMM*%
%LPD*%
G01*
G04 APERTURE LIST*
G04 Aperture macros list*
%AMRoundRect*
0 Rectangle with rounded corners*
0 $1 Rounding radius*
0 $2 $3 $4 $5 $6 $7 $8 $9 X,Y pos of 4 corners*
0 Add a 4 corners polygon primitive as box body*
4,1,4,$2,$3,$4,$5,$6,$7,$8,$9,$2,$3,0*
0 Add four circle primitives for the rounded corners*
1,1,$1+$1,$2,$3*
1,1,$1+$1,$4,$5*
1,1,$1+$1,$6,$7*
1,1,$1+$1,$8,$9*
0 Add four rect primitives between the rounded corners*
20,1,$1+$1,$2,$3,$4,$5,0*
20,1,$1+$1,$4,$5,$6,$7,0*
20,1,$1+$1,$6,$7,$8,$9,0*
20,1,$1+$1,$8,$9,$2,$3,0*%
%AMFreePoly0*
4,1,22,0.550000,-0.750000,0.000000,-0.750000,0.000000,-0.745033,-0.079941,-0.743568,-0.215256,-0.701293,-0.333266,-0.622738,-0.424486,-0.514219,-0.481581,-0.384460,-0.499164,-0.250000,-0.500000,-0.250000,-0.500000,0.250000,-0.499164,0.250000,-0.499963,0.256109,-0.478152,0.396186,-0.417904,0.524511,-0.324060,0.630769,-0.204165,0.706417,-0.067858,0.745374,0.000000,0.744959,0.000000,0.750000,
0.550000,0.750000,0.550000,-0.750000,0.550000,-0.750000,$1*%
%AMFreePoly1*
4,1,20,0.000000,0.744959,0.073905,0.744508,0.209726,0.703889,0.328688,0.626782,0.421226,0.519385,0.479903,0.390333,0.500000,0.250000,0.500000,-0.250000,0.499851,-0.262216,0.476331,-0.402017,0.414519,-0.529596,0.319384,-0.634700,0.198574,-0.708877,0.061801,-0.746166,0.000000,-0.745033,0.000000,-0.750000,-0.550000,-0.750000,-0.550000,0.750000,0.000000,0.750000,0.000000,0.744959,
0.000000,0.744959,$1*%
%AMFreePoly2*
4,1,21,0.108156,0.332870,0.205725,0.283156,0.283156,0.205725,0.332870,0.108156,0.350000,0.000000,0.332870,-0.108156,0.283156,-0.205725,0.205725,-0.283156,0.108156,-0.332870,0.000000,-0.350000,-0.108156,-0.332870,-0.205725,-0.283156,-0.283156,-0.205725,-0.332870,-0.108156,-0.350000,0.000000,-0.332870,0.108156,-0.283156,0.205725,-0.205725,0.283156,-0.108156,0.332870,0.000000,0.350000,
0.108156,0.332870,0.108156,0.332870,$1*%
G04 Aperture macros list end*
G04 #@! TA.AperFunction,EtchedComponent*
%ADD10C,1.600000*%
G04 #@! TD*
G04 #@! TA.AperFunction,SMDPad,CuDef*
%ADD11RoundRect,0.250000X-0.262500X-0.450000X0.262500X-0.450000X0.262500X0.450000X-0.262500X0.450000X0*%
G04 #@! TD*
G04 #@! TA.AperFunction,SMDPad,CuDef*
%ADD12R,1.000000X1.000000*%
G04 #@! TD*
G04 #@! TA.AperFunction,SMDPad,CuDef*
%ADD13RoundRect,0.250000X-0.250000X-0.475000X0.250000X-0.475000X0.250000X0.475000X-0.250000X0.475000X0*%
G04 #@! TD*
G04 #@! TA.AperFunction,SMDPad,CuDef*
%ADD14R,0.600000X1.350000*%
G04 #@! TD*
G04 #@! TA.AperFunction,SMDPad,CuDef*
%ADD15R,1.200000X2.000000*%
G04 #@! TD*
G04 #@! TA.AperFunction,SMDPad,CuDef*
%ADD16FreePoly0,0.000000*%
G04 #@! TD*
G04 #@! TA.AperFunction,SMDPad,CuDef*
%ADD17R,1.000000X1.500000*%
G04 #@! TD*
G04 #@! TA.AperFunction,SMDPad,CuDef*
%ADD18FreePoly1,0.000000*%
G04 #@! TD*
G04 #@! TA.AperFunction,ComponentPad*
%ADD19FreePoly2,0.000000*%
G04 #@! TD*
G04 #@! TA.AperFunction,ComponentPad*
%ADD20C,0.700000*%
G04 #@! TD*
G04 #@! TA.AperFunction,Conductor*
%ADD21C,0.250000*%
G04 #@! TD*
G04 APERTURE END LIST*
G36*
X110703999Y-70973001D02*
G01*
X110203999Y-70973001D01*
X110203999Y-70373001D01*
X110703999Y-70373001D01*
X110703999Y-70973001D01*
G37*
G36*
X109503999Y-70973001D02*
G01*
X109003999Y-70973001D01*
X109003999Y-70373001D01*
X109503999Y-70373001D01*
X109503999Y-70973001D01*
G37*
D10*
X109825110Y-61728793D02*
G75*
G03*
X109825110Y-61728793I-100J0D01*
G01*
X112059981Y-67124249D02*
G75*
G03*
X112059981Y-67124249I-100J0D01*
G01*
X112059890Y-61728796D02*
G75*
G03*
X112059890Y-61728796I-10J0D01*
G01*
X109827044Y-67126741D02*
G75*
G03*
X109827044Y-67126741I-1000J0D01*
G01*
D11*
X112934999Y-72959001D03*
X114759999Y-72959001D03*
D12*
X113997999Y-75372001D03*
X107901999Y-75372001D03*
D11*
X109044999Y-72959001D03*
X110869999Y-72959001D03*
D13*
X109938999Y-59878001D03*
X111838999Y-59878001D03*
D14*
X109443999Y-78428001D03*
X110443999Y-78428001D03*
X111443999Y-78428001D03*
X112443999Y-78428001D03*
D15*
X113743999Y-82103001D03*
X108143999Y-82103001D03*
D12*
X109933999Y-75372001D03*
D13*
X109999999Y-64450001D03*
X111899999Y-64450001D03*
D12*
X111965999Y-75372001D03*
D16*
X108603999Y-70673001D03*
D17*
X109903999Y-70673001D03*
D18*
X111203999Y-70673001D03*
D19*
X109826044Y-67126741D03*
D20*
X109825010Y-61728793D03*
X112059880Y-61728796D03*
X112059881Y-67124249D03*
D21*
X109761855Y-64088581D02*
X109761855Y-61752273D01*
X109825010Y-61728793D02*
X109825010Y-59991990D01*
X110443999Y-76517001D02*
X109933999Y-76007001D01*
X110443999Y-78428001D02*
X110443999Y-76517001D01*
X109825010Y-59991990D02*
X109938999Y-59878001D01*
X109933999Y-69657001D02*
X108252271Y-67975273D01*
X109933999Y-76007001D02*
X109933999Y-69657001D01*
X108252271Y-65598165D02*
X109761855Y-64088581D01*
X108252271Y-67975273D02*
X108252271Y-65598165D01*
X111993999Y-74074001D02*
X113345672Y-74074001D01*
X113870999Y-73548674D02*
X113870999Y-71204635D01*
X113345672Y-74074001D02*
X113870999Y-73548674D01*
X113870999Y-71204635D02*
X109833366Y-67167002D01*
X111965999Y-74055001D02*
X111965999Y-75372001D01*
X111443999Y-77037001D02*
X111993999Y-76487001D01*
X110869999Y-72959001D02*
X111965999Y-74055001D01*
X111443999Y-78428001D02*
X111443999Y-77037001D01*
X111993999Y-76487001D02*
X111993999Y-74074001D01*
X112067203Y-68361205D02*
X112067203Y-67164510D01*
X112443999Y-76672001D02*
X112981999Y-76134001D01*
X112443999Y-78428001D02*
X112443999Y-76672001D01*
X112981999Y-76134001D02*
X113743999Y-76134001D01*
X113997999Y-74483001D02*
X114759999Y-73721001D01*
X113743999Y-76134001D02*
X113997999Y-75880001D01*
X113997999Y-75880001D02*
X113997999Y-74483001D01*
X114759999Y-71054001D02*
X112067203Y-68361205D01*
X114759999Y-73721001D02*
X114759999Y-71054001D01*
X107901999Y-73086001D02*
X107901999Y-74483001D01*
X113235999Y-59497001D02*
X112854999Y-59878001D01*
X106250999Y-63053001D02*
X106250999Y-63281436D01*
X111838999Y-64297436D02*
X112067434Y-64069001D01*
X108143999Y-78428001D02*
X109443999Y-78428001D01*
X113235999Y-58735001D02*
X113235999Y-59497001D01*
X112067434Y-59318871D02*
X111483564Y-58735001D01*
X109443999Y-78428001D02*
X108163999Y-78428001D01*
X107901999Y-78166001D02*
X107901999Y-74483001D01*
X112854999Y-59878001D02*
X111838999Y-59878001D01*
X108143999Y-82103001D02*
X108143999Y-78428001D01*
X108163999Y-78428001D02*
X107901999Y-78166001D01*
X106250999Y-71435001D02*
X107901999Y-73086001D01*
X106250999Y-71435001D02*
X106250999Y-63053001D01*
X111483564Y-58735001D02*
X113235999Y-58735001D01*
X112067434Y-64069001D02*
X112067434Y-59318871D01*
X113743999Y-82103001D02*
X108143999Y-82103001D01*
X107114434Y-58735001D02*
X106250999Y-59598436D01*
X106250999Y-63281436D02*
X106276564Y-63307001D01*
X106250999Y-59598436D02*
X106250999Y-63053001D01*
X111483564Y-58735001D02*
X107114434Y-58735001D01*
X109044999Y-72070001D02*
X108603999Y-71629001D01*
X109044999Y-72959001D02*
X109044999Y-72070001D01*
X108603999Y-71629001D02*
X108603999Y-70673001D01*
X111203999Y-70673001D02*
X111838999Y-70673001D01*
X111838999Y-70673001D02*
X112934999Y-71769001D01*
X112934999Y-71769001D02*
X112934999Y-72959001D01*
G04 #@! TA.AperFunction,Conductor*
G36*
X109174636Y-58628503D02*
G01*
X109221129Y-58682159D01*
X109231233Y-58752433D01*
X109201739Y-58817013D01*
X109195688Y-58823519D01*
X109089694Y-58929698D01*
X108996884Y-59080263D01*
X108941202Y-59248140D01*
X108930499Y-59352601D01*
X108930499Y-60403401D01*
X108930836Y-60406647D01*
X108930836Y-60406651D01*
X108940617Y-60500915D01*
X108941473Y-60509167D01*
X108943656Y-60515709D01*
X108943656Y-60515711D01*
X108979993Y-60624626D01*
X108982578Y-60695576D01*
X108949565Y-60753598D01*
X108818735Y-60884428D01*
X108687400Y-61071994D01*
X108685077Y-61076976D01*
X108685074Y-61076981D01*
X108592954Y-61274534D01*
X108590631Y-61279516D01*
X108531368Y-61500689D01*
X108511411Y-61728793D01*
X108531368Y-61956897D01*
X108532792Y-61962210D01*
X108532792Y-61962212D01*
X108589201Y-62172732D01*
X108590631Y-62178070D01*
X108592953Y-62183051D01*
X108592954Y-62183052D01*
X108685074Y-62380605D01*
X108685077Y-62380610D01*
X108687400Y-62385592D01*
X108690556Y-62390099D01*
X108690557Y-62390101D01*
X108779696Y-62517404D01*
X108818735Y-62573158D01*
X108980645Y-62735068D01*
X108985155Y-62738226D01*
X108985161Y-62738231D01*
X109074625Y-62800874D01*
X109118954Y-62856331D01*
X109128355Y-62904087D01*
X109128355Y-63502224D01*
X109109615Y-63568340D01*
X109057884Y-63652263D01*
X109002202Y-63820140D01*
X109001501Y-63826978D01*
X109001501Y-63826980D01*
X108991678Y-63922850D01*
X108964836Y-63988577D01*
X108955429Y-63999102D01*
X107860018Y-65094513D01*
X107851732Y-65102053D01*
X107845253Y-65106165D01*
X107839828Y-65111942D01*
X107798628Y-65155816D01*
X107795873Y-65158658D01*
X107776136Y-65178395D01*
X107773656Y-65181592D01*
X107765953Y-65190612D01*
X107735685Y-65222844D01*
X107731866Y-65229790D01*
X107731864Y-65229793D01*
X107725923Y-65240599D01*
X107715072Y-65257118D01*
X107702657Y-65273124D01*
X107699512Y-65280393D01*
X107699509Y-65280397D01*
X107685097Y-65313702D01*
X107679880Y-65324352D01*
X107658576Y-65363105D01*
X107656605Y-65370780D01*
X107656605Y-65370781D01*
X107653538Y-65382727D01*
X107647134Y-65401431D01*
X107639090Y-65420020D01*
X107637851Y-65427843D01*
X107637848Y-65427853D01*
X107632172Y-65463689D01*
X107629766Y-65475309D01*
X107620743Y-65510454D01*
X107618771Y-65518135D01*
X107618771Y-65538389D01*
X107617220Y-65558099D01*
X107614051Y-65578108D01*
X107614797Y-65586000D01*
X107618212Y-65622126D01*
X107618771Y-65633984D01*
X107618771Y-67896506D01*
X107618244Y-67907689D01*
X107616569Y-67915182D01*
X107616818Y-67923108D01*
X107616818Y-67923109D01*
X107618709Y-67983259D01*
X107618771Y-67987218D01*
X107618771Y-68015129D01*
X107619268Y-68019063D01*
X107619268Y-68019064D01*
X107619276Y-68019129D01*
X107620209Y-68030966D01*
X107621598Y-68075162D01*
X107627249Y-68094612D01*
X107631258Y-68113973D01*
X107633797Y-68134070D01*
X107636716Y-68141441D01*
X107636716Y-68141443D01*
X107650075Y-68175185D01*
X107653920Y-68186415D01*
X107666253Y-68228866D01*
X107670286Y-68235685D01*
X107670288Y-68235690D01*
X107676564Y-68246301D01*
X107685259Y-68264049D01*
X107692719Y-68282890D01*
X107697381Y-68289306D01*
X107697381Y-68289307D01*
X107718707Y-68318660D01*
X107725223Y-68328580D01*
X107747729Y-68366635D01*
X107762050Y-68380956D01*
X107774890Y-68395989D01*
X107786799Y-68412380D01*
X107797549Y-68421273D01*
X107820876Y-68440571D01*
X107829655Y-68448561D01*
X108580147Y-69199053D01*
X108614173Y-69261365D01*
X108609108Y-69332180D01*
X108566561Y-69389016D01*
X108508152Y-69412982D01*
X108481102Y-69416687D01*
X108394272Y-69428581D01*
X108256563Y-69467938D01*
X108123601Y-69527415D01*
X108119819Y-69529801D01*
X108119812Y-69529805D01*
X108041833Y-69579007D01*
X108002473Y-69603841D01*
X107891547Y-69698247D01*
X107796739Y-69805598D01*
X107716773Y-69927335D01*
X107655904Y-70056980D01*
X107613316Y-70196278D01*
X107591282Y-70337796D01*
X107589502Y-70483439D01*
X107590062Y-70487724D01*
X107590270Y-70494761D01*
X107590270Y-70884048D01*
X107590272Y-70884048D01*
X107590681Y-70887015D01*
X107589503Y-70983439D01*
X107590084Y-70987881D01*
X107590084Y-70987884D01*
X107607479Y-71120909D01*
X107608073Y-71125453D01*
X107647244Y-71265749D01*
X107704927Y-71396842D01*
X107781896Y-71520497D01*
X107874053Y-71630132D01*
X107877396Y-71633121D01*
X107942147Y-71691016D01*
X107979597Y-71751332D01*
X107983169Y-71769150D01*
X107985525Y-71787798D01*
X107988444Y-71795169D01*
X107988444Y-71795171D01*
X108001803Y-71828913D01*
X108005648Y-71840143D01*
X108017981Y-71882594D01*
X108022014Y-71889413D01*
X108022016Y-71889418D01*
X108028292Y-71900029D01*
X108036987Y-71917777D01*
X108044447Y-71936618D01*
X108049109Y-71943034D01*
X108049109Y-71943035D01*
X108070435Y-71972388D01*
X108076951Y-71982308D01*
X108099457Y-72020363D01*
X108099657Y-72020563D01*
X108124362Y-72083480D01*
X108110464Y-72153103D01*
X108106116Y-72160741D01*
X108090384Y-72186263D01*
X108034702Y-72354140D01*
X108023999Y-72458601D01*
X108023999Y-73459401D01*
X108034973Y-73565167D01*
X108090949Y-73732947D01*
X108184021Y-73883349D01*
X108309196Y-74008306D01*
X108459761Y-74101116D01*
X108519354Y-74120882D01*
X108577715Y-74161312D01*
X108583024Y-74174091D01*
X108655157Y-74159618D01*
X108724347Y-74166707D01*
X108732099Y-74167501D01*
X109169480Y-74167501D01*
X109237601Y-74187503D01*
X109284094Y-74241159D01*
X109294198Y-74311433D01*
X109264704Y-74376013D01*
X109213710Y-74411483D01*
X109187294Y-74421386D01*
X109070738Y-74508740D01*
X109018826Y-74578007D01*
X109018513Y-74578424D01*
X108961654Y-74620939D01*
X108890836Y-74625965D01*
X108828542Y-74591905D01*
X108816861Y-74578424D01*
X108770285Y-74516278D01*
X108757723Y-74503716D01*
X108655648Y-74427215D01*
X108640051Y-74418676D01*
X108598086Y-74402944D01*
X108541321Y-74360303D01*
X108537654Y-74350421D01*
X108475322Y-74366399D01*
X108466082Y-74365738D01*
X108453490Y-74364370D01*
X108446671Y-74364001D01*
X108174114Y-74364001D01*
X108158875Y-74368476D01*
X108157670Y-74369866D01*
X108155999Y-74377549D01*
X108155999Y-76361885D01*
X108160474Y-76377124D01*
X108161864Y-76378329D01*
X108169547Y-76380000D01*
X108446668Y-76380000D01*
X108453489Y-76379630D01*
X108504351Y-76374106D01*
X108519603Y-76370480D01*
X108640053Y-76325325D01*
X108655648Y-76316787D01*
X108757723Y-76240286D01*
X108770285Y-76227724D01*
X108816861Y-76165578D01*
X108873720Y-76123063D01*
X108944539Y-76118037D01*
X109006832Y-76152097D01*
X109018511Y-76165575D01*
X109070738Y-76235262D01*
X109187294Y-76322616D01*
X109323683Y-76373746D01*
X109354553Y-76377099D01*
X109369928Y-76378770D01*
X109435490Y-76406012D01*
X109458254Y-76429969D01*
X109468527Y-76444108D01*
X109496499Y-76467248D01*
X109502592Y-76472289D01*
X109511373Y-76480279D01*
X109773595Y-76742502D01*
X109807620Y-76804814D01*
X109810499Y-76831597D01*
X109810499Y-77122965D01*
X109790497Y-77191086D01*
X109736841Y-77237579D01*
X109719997Y-77243861D01*
X109700875Y-77249476D01*
X109699670Y-77250866D01*
X109697999Y-77258549D01*
X109697999Y-77471143D01*
X109689981Y-77515372D01*
X109645028Y-77635283D01*
X109645026Y-77635289D01*
X109642254Y-77642685D01*
X109635499Y-77704867D01*
X109635499Y-79151135D01*
X109642254Y-79213317D01*
X109645026Y-79220713D01*
X109645028Y-79220719D01*
X109689981Y-79340630D01*
X109697999Y-79384859D01*
X109697999Y-79592885D01*
X109702474Y-79608124D01*
X109703864Y-79609329D01*
X109711547Y-79611000D01*
X109788668Y-79611000D01*
X109795489Y-79610630D01*
X109846351Y-79605106D01*
X109861603Y-79601480D01*
X109899057Y-79587439D01*
X109969864Y-79582256D01*
X109987515Y-79587439D01*
X110033683Y-79604746D01*
X110095865Y-79611501D01*
X110792133Y-79611501D01*
X110796745Y-79611000D01*
X110846465Y-79605599D01*
X110846467Y-79605599D01*
X110854315Y-79604746D01*
X110861708Y-79601974D01*
X110861710Y-79601974D01*
X110899770Y-79587706D01*
X110970577Y-79582523D01*
X110988228Y-79587706D01*
X111026288Y-79601974D01*
X111026290Y-79601974D01*
X111033683Y-79604746D01*
X111041531Y-79605599D01*
X111041533Y-79605599D01*
X111091253Y-79611000D01*
X111095865Y-79611501D01*
X111792133Y-79611501D01*
X111796745Y-79611000D01*
X111846465Y-79605599D01*
X111846467Y-79605599D01*
X111854315Y-79604746D01*
X111861708Y-79601974D01*
X111861710Y-79601974D01*
X111899770Y-79587706D01*
X111970577Y-79582523D01*
X111988228Y-79587706D01*
X112026288Y-79601974D01*
X112026290Y-79601974D01*
X112033683Y-79604746D01*
X112041531Y-79605599D01*
X112041533Y-79605599D01*
X112091253Y-79611000D01*
X112095865Y-79611501D01*
X112792133Y-79611501D01*
X112854315Y-79604746D01*
X112990704Y-79553616D01*
X113107260Y-79466262D01*
X113194614Y-79349706D01*
X113245744Y-79213317D01*
X113252499Y-79151135D01*
X113252499Y-77704867D01*
X113245744Y-77642685D01*
X113194614Y-77506296D01*
X113107260Y-77389740D01*
X113108864Y-77388538D01*
X113080378Y-77336371D01*
X113077499Y-77309588D01*
X113077499Y-76986596D01*
X113097501Y-76918475D01*
X113114404Y-76897500D01*
X113207500Y-76804405D01*
X113269812Y-76770380D01*
X113296595Y-76767501D01*
X113665232Y-76767501D01*
X113676415Y-76768028D01*
X113683908Y-76769703D01*
X113691834Y-76769454D01*
X113691835Y-76769454D01*
X113751985Y-76767563D01*
X113755944Y-76767501D01*
X113783855Y-76767501D01*
X113787790Y-76767004D01*
X113787855Y-76766996D01*
X113799692Y-76766063D01*
X113831950Y-76765049D01*
X113835969Y-76764923D01*
X113843888Y-76764674D01*
X113863342Y-76759022D01*
X113882699Y-76755014D01*
X113894929Y-76753469D01*
X113894930Y-76753469D01*
X113902796Y-76752475D01*
X113910167Y-76749556D01*
X113910169Y-76749556D01*
X113943911Y-76736197D01*
X113955141Y-76732352D01*
X113989982Y-76722230D01*
X113989983Y-76722230D01*
X113997592Y-76720019D01*
X114004411Y-76715986D01*
X114004416Y-76715984D01*
X114015027Y-76709708D01*
X114032775Y-76701013D01*
X114051616Y-76693553D01*
X114087386Y-76667565D01*
X114097306Y-76661049D01*
X114128534Y-76642581D01*
X114128537Y-76642579D01*
X114135361Y-76638543D01*
X114149682Y-76624222D01*
X114164716Y-76611381D01*
X114174693Y-76604132D01*
X114181106Y-76599473D01*
X114209297Y-76565396D01*
X114217287Y-76556617D01*
X114356498Y-76417406D01*
X114418810Y-76383380D01*
X114445593Y-76380501D01*
X114546133Y-76380501D01*
X114608315Y-76373746D01*
X114744704Y-76322616D01*
X114861260Y-76235262D01*
X114948614Y-76118706D01*
X114999744Y-75982317D01*
X115006499Y-75920135D01*
X115006499Y-74823867D01*
X114999744Y-74761685D01*
X114948614Y-74625296D01*
X114929732Y-74600102D01*
X114904884Y-74533596D01*
X114919937Y-74464214D01*
X114941463Y-74435442D01*
X115152252Y-74224653D01*
X115160538Y-74217113D01*
X115167017Y-74213001D01*
X115213643Y-74163349D01*
X115216397Y-74160508D01*
X115220241Y-74156664D01*
X115269459Y-74126236D01*
X115339501Y-74102868D01*
X115339503Y-74102867D01*
X115346445Y-74100551D01*
X115496847Y-74007479D01*
X115621804Y-73882304D01*
X115714614Y-73731739D01*
X115770296Y-73563862D01*
X115780999Y-73459401D01*
X115780999Y-72458601D01*
X115770025Y-72352835D01*
X115714049Y-72185055D01*
X115620977Y-72034653D01*
X115495802Y-71909696D01*
X115489568Y-71905853D01*
X115453382Y-71883547D01*
X115405889Y-71830775D01*
X115393499Y-71776288D01*
X115393499Y-71132769D01*
X115394026Y-71121586D01*
X115395701Y-71114093D01*
X115393561Y-71046002D01*
X115393499Y-71042045D01*
X115393499Y-71014145D01*
X115392995Y-71010154D01*
X115392062Y-70998312D01*
X115391735Y-70987884D01*
X115390673Y-70954112D01*
X115385020Y-70934653D01*
X115381011Y-70915294D01*
X115380845Y-70913984D01*
X115378473Y-70895204D01*
X115375557Y-70887838D01*
X115375555Y-70887832D01*
X115362199Y-70854099D01*
X115358354Y-70842869D01*
X115348229Y-70808018D01*
X115348229Y-70808017D01*
X115346018Y-70800408D01*
X115335704Y-70782967D01*
X115327007Y-70765214D01*
X115322471Y-70753759D01*
X115319551Y-70746384D01*
X115293562Y-70710613D01*
X115287046Y-70700693D01*
X115268577Y-70669464D01*
X115264541Y-70662639D01*
X115250220Y-70648318D01*
X115237379Y-70633284D01*
X115230130Y-70623307D01*
X115225471Y-70616894D01*
X115191394Y-70588703D01*
X115182615Y-70580713D01*
X112907431Y-68305529D01*
X112873405Y-68243217D01*
X112878470Y-68172402D01*
X112907431Y-68127339D01*
X113066156Y-67968614D01*
X113103570Y-67915182D01*
X113194334Y-67785557D01*
X113194335Y-67785555D01*
X113197491Y-67781048D01*
X113199814Y-67776066D01*
X113199817Y-67776061D01*
X113291937Y-67578508D01*
X113291938Y-67578507D01*
X113294260Y-67573526D01*
X113353523Y-67352353D01*
X113373480Y-67124249D01*
X113353523Y-66896145D01*
X113294260Y-66674972D01*
X113291937Y-66669990D01*
X113199817Y-66472437D01*
X113199814Y-66472432D01*
X113197491Y-66467450D01*
X113087639Y-66310565D01*
X113069315Y-66284395D01*
X113069313Y-66284392D01*
X113066156Y-66279884D01*
X112904246Y-66117974D01*
X112836277Y-66070381D01*
X112737656Y-66001326D01*
X112716681Y-65986639D01*
X112711699Y-65984316D01*
X112711694Y-65984313D01*
X112514140Y-65892193D01*
X112514139Y-65892193D01*
X112509158Y-65889870D01*
X112503853Y-65888448D01*
X112503846Y-65888446D01*
X112459906Y-65876673D01*
X112439441Y-65871189D01*
X112378819Y-65834239D01*
X112347797Y-65770379D01*
X112356225Y-65699884D01*
X112401427Y-65645137D01*
X112432175Y-65629960D01*
X112466778Y-65618415D01*
X112479961Y-65612240D01*
X112617806Y-65526938D01*
X112629207Y-65517902D01*
X112743738Y-65403172D01*
X112752750Y-65391761D01*
X112837815Y-65253758D01*
X112843962Y-65240577D01*
X112895137Y-65086291D01*
X112898004Y-65072915D01*
X112907671Y-64978563D01*
X112907999Y-64972147D01*
X112907999Y-64722116D01*
X112903524Y-64706877D01*
X112902134Y-64705672D01*
X112894451Y-64704001D01*
X111771999Y-64704001D01*
X111703878Y-64683999D01*
X111657385Y-64630343D01*
X111645999Y-64578001D01*
X111645999Y-64322001D01*
X111666001Y-64253880D01*
X111719657Y-64207387D01*
X111771999Y-64196001D01*
X112889883Y-64196001D01*
X112905122Y-64191526D01*
X112906327Y-64190136D01*
X112907998Y-64182453D01*
X112907998Y-63927906D01*
X112907661Y-63921387D01*
X112897742Y-63825795D01*
X112894850Y-63812401D01*
X112843411Y-63658217D01*
X112837238Y-63645039D01*
X112751936Y-63507194D01*
X112742900Y-63495793D01*
X112628170Y-63381262D01*
X112616759Y-63372250D01*
X112478756Y-63287185D01*
X112465575Y-63281038D01*
X112354058Y-63244049D01*
X112295699Y-63203618D01*
X112268462Y-63138054D01*
X112280996Y-63068172D01*
X112329321Y-63016160D01*
X112361113Y-63002750D01*
X112485969Y-62969295D01*
X112503816Y-62964513D01*
X112503818Y-62964512D01*
X112509126Y-62963090D01*
X112514108Y-62960767D01*
X112711653Y-62868650D01*
X112711656Y-62868648D01*
X112716634Y-62866327D01*
X112904187Y-62735002D01*
X113066086Y-62573103D01*
X113197411Y-62385550D01*
X113294174Y-62178042D01*
X113352006Y-61962212D01*
X113352009Y-61962199D01*
X113352009Y-61962197D01*
X113353433Y-61956884D01*
X113373388Y-61728796D01*
X113353433Y-61500708D01*
X113294174Y-61279550D01*
X113197411Y-61072042D01*
X113066086Y-60884489D01*
X112904187Y-60722590D01*
X112868133Y-60697345D01*
X112823806Y-60641889D01*
X112816497Y-60571269D01*
X112820812Y-60554467D01*
X112834135Y-60514297D01*
X112837004Y-60500915D01*
X112846671Y-60406563D01*
X112846999Y-60400147D01*
X112846999Y-60150116D01*
X112842524Y-60134877D01*
X112841134Y-60133672D01*
X112833451Y-60132001D01*
X112111114Y-60132001D01*
X112095875Y-60136476D01*
X112094670Y-60137866D01*
X112092999Y-60145549D01*
X112092999Y-60296932D01*
X112072997Y-60365053D01*
X112019341Y-60411546D01*
X111977981Y-60422453D01*
X111934744Y-60426236D01*
X111831792Y-60435243D01*
X111826479Y-60436667D01*
X111826477Y-60436667D01*
X111743610Y-60458871D01*
X111672633Y-60457181D01*
X111613838Y-60417387D01*
X111585890Y-60352122D01*
X111584999Y-60337164D01*
X111584999Y-59750001D01*
X111605001Y-59681880D01*
X111658657Y-59635387D01*
X111710999Y-59624001D01*
X112828883Y-59624001D01*
X112844122Y-59619526D01*
X112845327Y-59618136D01*
X112846998Y-59610453D01*
X112846998Y-59355906D01*
X112846661Y-59349387D01*
X112836742Y-59253795D01*
X112833850Y-59240401D01*
X112782411Y-59086217D01*
X112776238Y-59073039D01*
X112690936Y-58935194D01*
X112681900Y-58923793D01*
X112581607Y-58823674D01*
X112547528Y-58761391D01*
X112552531Y-58690571D01*
X112595028Y-58633698D01*
X112661527Y-58608830D01*
X112670625Y-58608501D01*
X116665499Y-58608501D01*
X116733620Y-58628503D01*
X116780113Y-58682159D01*
X116791499Y-58734501D01*
X116791499Y-82865501D01*
X116771497Y-82933622D01*
X116717841Y-82980115D01*
X116665499Y-82991501D01*
X114977999Y-82991501D01*
X114909878Y-82971499D01*
X114863385Y-82917843D01*
X114851999Y-82865501D01*
X114851999Y-82375116D01*
X114847524Y-82359877D01*
X114846134Y-82358672D01*
X114838451Y-82357001D01*
X112654115Y-82357001D01*
X112638876Y-82361476D01*
X112637671Y-82362866D01*
X112636000Y-82370549D01*
X112636000Y-82865501D01*
X112615998Y-82933622D01*
X112562342Y-82980115D01*
X112510000Y-82991501D01*
X109377999Y-82991501D01*
X109309878Y-82971499D01*
X109263385Y-82917843D01*
X109251999Y-82865501D01*
X109251999Y-82375116D01*
X109247524Y-82359877D01*
X109246134Y-82358672D01*
X109238451Y-82357001D01*
X107054115Y-82357001D01*
X107038876Y-82361476D01*
X107037671Y-82362866D01*
X107036000Y-82370549D01*
X107036000Y-82865501D01*
X107015998Y-82933622D01*
X106962342Y-82980115D01*
X106910000Y-82991501D01*
X105234499Y-82991501D01*
X105166378Y-82971499D01*
X105119885Y-82917843D01*
X105108499Y-82865501D01*
X105108499Y-81830886D01*
X107035999Y-81830886D01*
X107040474Y-81846125D01*
X107041864Y-81847330D01*
X107049547Y-81849001D01*
X107871884Y-81849001D01*
X107887123Y-81844526D01*
X107888328Y-81843136D01*
X107889999Y-81835453D01*
X107889999Y-81830886D01*
X108397999Y-81830886D01*
X108402474Y-81846125D01*
X108403864Y-81847330D01*
X108411547Y-81849001D01*
X109233883Y-81849001D01*
X109249122Y-81844526D01*
X109250327Y-81843136D01*
X109251998Y-81835453D01*
X109251998Y-81830886D01*
X112635999Y-81830886D01*
X112640474Y-81846125D01*
X112641864Y-81847330D01*
X112649547Y-81849001D01*
X113471884Y-81849001D01*
X113487123Y-81844526D01*
X113488328Y-81843136D01*
X113489999Y-81835453D01*
X113489999Y-81830886D01*
X113997999Y-81830886D01*
X114002474Y-81846125D01*
X114003864Y-81847330D01*
X114011547Y-81849001D01*
X114833883Y-81849001D01*
X114849122Y-81844526D01*
X114850327Y-81843136D01*
X114851998Y-81835453D01*
X114851998Y-81058332D01*
X114851628Y-81051511D01*
X114846104Y-81000649D01*
X114842478Y-80985397D01*
X114797323Y-80864947D01*
X114788785Y-80849352D01*
X114712284Y-80747277D01*
X114699723Y-80734716D01*
X114597648Y-80658215D01*
X114582053Y-80649677D01*
X114461605Y-80604523D01*
X114446350Y-80600896D01*
X114395485Y-80595370D01*
X114388671Y-80595001D01*
X114016114Y-80595001D01*
X114000875Y-80599476D01*
X113999670Y-80600866D01*
X113997999Y-80608549D01*
X113997999Y-81830886D01*
X113489999Y-81830886D01*
X113489999Y-80613117D01*
X113485524Y-80597878D01*
X113484134Y-80596673D01*
X113476451Y-80595002D01*
X113099330Y-80595002D01*
X113092509Y-80595372D01*
X113041647Y-80600896D01*
X113026395Y-80604522D01*
X112905945Y-80649677D01*
X112890350Y-80658215D01*
X112788275Y-80734716D01*
X112775714Y-80747277D01*
X112699213Y-80849352D01*
X112690675Y-80864947D01*
X112645521Y-80985395D01*
X112641894Y-81000650D01*
X112636368Y-81051515D01*
X112635999Y-81058329D01*
X112635999Y-81830886D01*
X109251998Y-81830886D01*
X109251998Y-81058332D01*
X109251628Y-81051511D01*
X109246104Y-81000649D01*
X109242478Y-80985397D01*
X109197323Y-80864947D01*
X109188785Y-80849352D01*
X109112284Y-80747277D01*
X109099723Y-80734716D01*
X108997648Y-80658215D01*
X108982053Y-80649677D01*
X108861605Y-80604523D01*
X108846350Y-80600896D01*
X108795485Y-80595370D01*
X108788671Y-80595001D01*
X108416114Y-80595001D01*
X108400875Y-80599476D01*
X108399670Y-80600866D01*
X108397999Y-80608549D01*
X108397999Y-81830886D01*
X107889999Y-81830886D01*
X107889999Y-80613117D01*
X107885524Y-80597878D01*
X107884134Y-80596673D01*
X107876451Y-80595002D01*
X107499330Y-80595002D01*
X107492509Y-80595372D01*
X107441647Y-80600896D01*
X107426395Y-80604522D01*
X107305945Y-80649677D01*
X107290350Y-80658215D01*
X107188275Y-80734716D01*
X107175714Y-80747277D01*
X107099213Y-80849352D01*
X107090675Y-80864947D01*
X107045521Y-80985395D01*
X107041894Y-81000650D01*
X107036368Y-81051515D01*
X107035999Y-81058329D01*
X107035999Y-81830886D01*
X105108499Y-81830886D01*
X105108499Y-79147670D01*
X108636000Y-79147670D01*
X108636370Y-79154491D01*
X108641894Y-79205353D01*
X108645520Y-79220605D01*
X108690675Y-79341055D01*
X108699213Y-79356650D01*
X108775714Y-79458725D01*
X108788275Y-79471286D01*
X108890350Y-79547787D01*
X108905945Y-79556325D01*
X109026393Y-79601479D01*
X109041648Y-79605106D01*
X109092513Y-79610632D01*
X109099327Y-79611001D01*
X109171884Y-79611001D01*
X109187123Y-79606526D01*
X109188328Y-79605136D01*
X109189999Y-79597453D01*
X109189999Y-78700116D01*
X109185524Y-78684877D01*
X109184134Y-78683672D01*
X109176451Y-78682001D01*
X108654115Y-78682001D01*
X108638876Y-78686476D01*
X108637671Y-78687866D01*
X108636000Y-78695549D01*
X108636000Y-79147670D01*
X105108499Y-79147670D01*
X105108499Y-78155886D01*
X108635999Y-78155886D01*
X108640474Y-78171125D01*
X108641864Y-78172330D01*
X108649547Y-78174001D01*
X109171884Y-78174001D01*
X109187123Y-78169526D01*
X109188328Y-78168136D01*
X109189999Y-78160453D01*
X109189999Y-77263117D01*
X109185524Y-77247878D01*
X109184134Y-77246673D01*
X109176451Y-77245002D01*
X109099330Y-77245002D01*
X109092509Y-77245372D01*
X109041647Y-77250896D01*
X109026395Y-77254522D01*
X108905945Y-77299677D01*
X108890350Y-77308215D01*
X108788275Y-77384716D01*
X108775714Y-77397277D01*
X108699213Y-77499352D01*
X108690675Y-77514947D01*
X108645521Y-77635395D01*
X108641894Y-77650650D01*
X108636368Y-77701515D01*
X108635999Y-77708329D01*
X108635999Y-78155886D01*
X105108499Y-78155886D01*
X105108499Y-75916670D01*
X106894000Y-75916670D01*
X106894370Y-75923491D01*
X106899894Y-75974353D01*
X106903520Y-75989605D01*
X106948675Y-76110055D01*
X106957213Y-76125650D01*
X107033714Y-76227725D01*
X107046275Y-76240286D01*
X107148350Y-76316787D01*
X107163945Y-76325325D01*
X107284393Y-76370479D01*
X107299648Y-76374106D01*
X107350513Y-76379632D01*
X107357327Y-76380001D01*
X107629884Y-76380001D01*
X107645123Y-76375526D01*
X107646328Y-76374136D01*
X107647999Y-76366453D01*
X107647999Y-75644116D01*
X107643524Y-75628877D01*
X107642134Y-75627672D01*
X107634451Y-75626001D01*
X106912115Y-75626001D01*
X106896876Y-75630476D01*
X106895671Y-75631866D01*
X106894000Y-75639549D01*
X106894000Y-75916670D01*
X105108499Y-75916670D01*
X105108499Y-75099886D01*
X106893999Y-75099886D01*
X106898474Y-75115125D01*
X106899864Y-75116330D01*
X106907547Y-75118001D01*
X107629884Y-75118001D01*
X107645123Y-75113526D01*
X107646328Y-75112136D01*
X107647999Y-75104453D01*
X107647999Y-74382117D01*
X107643524Y-74366878D01*
X107642134Y-74365673D01*
X107634451Y-74364002D01*
X107357330Y-74364002D01*
X107350509Y-74364372D01*
X107299647Y-74369896D01*
X107284395Y-74373522D01*
X107163945Y-74418677D01*
X107148350Y-74427215D01*
X107046275Y-74503716D01*
X107033714Y-74516277D01*
X106957213Y-74618352D01*
X106948675Y-74633947D01*
X106903521Y-74754395D01*
X106899894Y-74769650D01*
X106894368Y-74820515D01*
X106893999Y-74827329D01*
X106893999Y-75099886D01*
X105108499Y-75099886D01*
X105108499Y-58734501D01*
X105128501Y-58666380D01*
X105182157Y-58619887D01*
X105234499Y-58608501D01*
X109106515Y-58608501D01*
X109174636Y-58628503D01*
G37*
G04 #@! TD.AperFunction*
M02*
