%TF.GenerationSoftware,KiCad,Pcbnew,(6.0.7)*%
%TF.CreationDate,2023-01-17T09:06:05-08:00*%
%TF.ProjectId,mlx90640-breakout,6d6c7839-3036-4343-902d-627265616b6f,rev?*%
%TF.SameCoordinates,Original*%
%TF.FileFunction,Drillmap*%
%TF.FilePolarity,Positive*%
%FSLAX45Y45*%
G04 Gerber Fmt 4.5, Leading zero omitted, Abs format (unit mm)*
G04 Created by KiCad (PCBNEW (6.0.7)) date 2023-01-17 09:06:05*
%MOMM*%
%LPD*%
G01*
G04 APERTURE LIST*
%ADD10C,0.050000*%
%ADD11C,0.200000*%
G04 APERTURE END LIST*
D10*
X10460000Y-5810000D02*
X11730000Y-5810000D01*
X11730000Y-5810000D02*
X11730000Y-8350000D01*
X10460000Y-5810000D02*
X10460000Y-8350000D01*
X10460000Y-8350000D02*
X11730000Y-8350000D01*
D11*
X10715119Y-8662976D02*
X10715119Y-8462976D01*
X10762738Y-8462976D01*
X10791309Y-8472500D01*
X10810357Y-8491548D01*
X10819881Y-8510595D01*
X10829405Y-8548691D01*
X10829405Y-8577262D01*
X10819881Y-8615357D01*
X10810357Y-8634405D01*
X10791309Y-8653452D01*
X10762738Y-8662976D01*
X10715119Y-8662976D01*
X10915119Y-8662976D02*
X10915119Y-8529643D01*
X10915119Y-8567738D02*
X10924643Y-8548691D01*
X10934167Y-8539167D01*
X10953214Y-8529643D01*
X10972262Y-8529643D01*
X11038928Y-8662976D02*
X11038928Y-8529643D01*
X11038928Y-8462976D02*
X11029405Y-8472500D01*
X11038928Y-8482024D01*
X11048452Y-8472500D01*
X11038928Y-8462976D01*
X11038928Y-8482024D01*
X11162738Y-8662976D02*
X11143690Y-8653452D01*
X11134167Y-8634405D01*
X11134167Y-8462976D01*
X11267500Y-8662976D02*
X11248452Y-8653452D01*
X11238928Y-8634405D01*
X11238928Y-8462976D01*
X11496071Y-8662976D02*
X11496071Y-8462976D01*
X11562738Y-8605833D01*
X11629405Y-8462976D01*
X11629405Y-8662976D01*
X11810357Y-8662976D02*
X11810357Y-8558214D01*
X11800833Y-8539167D01*
X11781786Y-8529643D01*
X11743690Y-8529643D01*
X11724643Y-8539167D01*
X11810357Y-8653452D02*
X11791309Y-8662976D01*
X11743690Y-8662976D01*
X11724643Y-8653452D01*
X11715119Y-8634405D01*
X11715119Y-8615357D01*
X11724643Y-8596310D01*
X11743690Y-8586786D01*
X11791309Y-8586786D01*
X11810357Y-8577262D01*
X11905595Y-8529643D02*
X11905595Y-8729643D01*
X11905595Y-8539167D02*
X11924643Y-8529643D01*
X11962738Y-8529643D01*
X11981786Y-8539167D01*
X11991309Y-8548691D01*
X12000833Y-8567738D01*
X12000833Y-8624881D01*
X11991309Y-8643929D01*
X11981786Y-8653452D01*
X11962738Y-8662976D01*
X11924643Y-8662976D01*
X11905595Y-8653452D01*
X12086547Y-8643929D02*
X12096071Y-8653452D01*
X12086547Y-8662976D01*
X12077024Y-8653452D01*
X12086547Y-8643929D01*
X12086547Y-8662976D01*
X12086547Y-8539167D02*
X12096071Y-8548691D01*
X12086547Y-8558214D01*
X12077024Y-8548691D01*
X12086547Y-8539167D01*
X12086547Y-8558214D01*
M02*
