G04 #@! TF.GenerationSoftware,KiCad,Pcbnew,(6.0.7)*
G04 #@! TF.CreationDate,2023-01-17T09:05:59-08:00*
G04 #@! TF.ProjectId,mlx90640-breakout,6d6c7839-3036-4343-902d-627265616b6f,rev?*
G04 #@! TF.SameCoordinates,Original*
G04 #@! TF.FileFunction,Copper,L2,Bot*
G04 #@! TF.FilePolarity,Positive*
%FSLAX46Y46*%
G04 Gerber Fmt 4.6, Leading zero omitted, Abs format (unit mm)*
G04 Created by KiCad (PCBNEW (6.0.7)) date 2023-01-17 09:05:59*
%MOMM*%
%LPD*%
G01*
G04 APERTURE LIST*
G04 Aperture macros list*
%AMFreePoly0*
4,1,21,0.108156,0.332870,0.205725,0.283156,0.283156,0.205725,0.332870,0.108156,0.350000,0.000000,0.332870,-0.108156,0.283156,-0.205725,0.205725,-0.283156,0.108156,-0.332870,0.000000,-0.350000,-0.108156,-0.332870,-0.205725,-0.283156,-0.283156,-0.205725,-0.332870,-0.108156,-0.350000,0.000000,-0.332870,0.108156,-0.283156,0.205725,-0.205725,0.283156,-0.108156,0.332870,0.000000,0.350000,
0.108156,0.332870,0.108156,0.332870,$1*%
G04 Aperture macros list end*
G04 #@! TA.AperFunction,EtchedComponent*
%ADD10C,0.010000*%
G04 #@! TD*
G04 #@! TA.AperFunction,ComponentPad*
%ADD11FreePoly0,0.000000*%
G04 #@! TD*
G04 #@! TA.AperFunction,ComponentPad*
%ADD12C,0.700000*%
G04 #@! TD*
G04 APERTURE END LIST*
G36*
X111833849Y-79513230D02*
G01*
X111656049Y-79513230D01*
X111656049Y-78421030D01*
X111833849Y-78421030D01*
X111833849Y-79513230D01*
G37*
D10*
X111833849Y-79513230D02*
X111656049Y-79513230D01*
X111656049Y-78421030D01*
X111833849Y-78421030D01*
X111833849Y-79513230D01*
G36*
X109791689Y-78598830D02*
G01*
X109608809Y-78598830D01*
X109608809Y-78421030D01*
X109791689Y-78421030D01*
X109791689Y-78598830D01*
G37*
X109791689Y-78598830D02*
X109608809Y-78598830D01*
X109608809Y-78421030D01*
X109791689Y-78421030D01*
X109791689Y-78598830D01*
G36*
X110666574Y-78805840D02*
G01*
X110617496Y-78868408D01*
X110574603Y-78923332D01*
X110537695Y-78970874D01*
X110506576Y-79011294D01*
X110481048Y-79044854D01*
X110460913Y-79071816D01*
X110445973Y-79092442D01*
X110436031Y-79106992D01*
X110430890Y-79115728D01*
X110430111Y-79118728D01*
X110433816Y-79123844D01*
X110443083Y-79136199D01*
X110457289Y-79154974D01*
X110475810Y-79179350D01*
X110498022Y-79208506D01*
X110523301Y-79241622D01*
X110551024Y-79277879D01*
X110578711Y-79314036D01*
X110608099Y-79352442D01*
X110635565Y-79388443D01*
X110660495Y-79421226D01*
X110682272Y-79449977D01*
X110700284Y-79473882D01*
X110713914Y-79492128D01*
X110722548Y-79503902D01*
X110725562Y-79508346D01*
X110721250Y-79510041D01*
X110707538Y-79511412D01*
X110685183Y-79512424D01*
X110654941Y-79513041D01*
X110621038Y-79513230D01*
X110514820Y-79513230D01*
X110421224Y-79392865D01*
X110397468Y-79362308D01*
X110375581Y-79334141D01*
X110356383Y-79309423D01*
X110340696Y-79289210D01*
X110329339Y-79274558D01*
X110323133Y-79266526D01*
X110322363Y-79265518D01*
X110319484Y-79265242D01*
X110313873Y-79269305D01*
X110305001Y-79278321D01*
X110292341Y-79292906D01*
X110275364Y-79313673D01*
X110253540Y-79341238D01*
X110226342Y-79376216D01*
X110218879Y-79385882D01*
X110120661Y-79513230D01*
X110014595Y-79513230D01*
X109983015Y-79513056D01*
X109955187Y-79512571D01*
X109932599Y-79511828D01*
X109916736Y-79510881D01*
X109909086Y-79509782D01*
X109908614Y-79509420D01*
X109911635Y-79504751D01*
X109920265Y-79492832D01*
X109933903Y-79474458D01*
X109951953Y-79450422D01*
X109973814Y-79421518D01*
X109998889Y-79388540D01*
X110026579Y-79352281D01*
X110056284Y-79313537D01*
X110058400Y-79310783D01*
X110093117Y-79265528D01*
X110122056Y-79227613D01*
X110145690Y-79196366D01*
X110164490Y-79171117D01*
X110178930Y-79151195D01*
X110189482Y-79135930D01*
X110196618Y-79124651D01*
X110200812Y-79116687D01*
X110202536Y-79111369D01*
X110202261Y-79108024D01*
X110201825Y-79107256D01*
X110197385Y-79101377D01*
X110187456Y-79088398D01*
X110172761Y-79069260D01*
X110154022Y-79044901D01*
X110131963Y-79016262D01*
X110107307Y-78984283D01*
X110080776Y-78949902D01*
X110077439Y-78945578D01*
X110051014Y-78911279D01*
X110026649Y-78879512D01*
X110005021Y-78851169D01*
X109986806Y-78827143D01*
X109972681Y-78808328D01*
X109963322Y-78795615D01*
X109959405Y-78789899D01*
X109959329Y-78789695D01*
X109964162Y-78788846D01*
X109977681Y-78788114D01*
X109998408Y-78787535D01*
X110024869Y-78787147D01*
X110055589Y-78786987D01*
X110067279Y-78786992D01*
X110175229Y-78787194D01*
X110243809Y-78878129D01*
X110263693Y-78904364D01*
X110281539Y-78927658D01*
X110296446Y-78946857D01*
X110307511Y-78960802D01*
X110313833Y-78968339D01*
X110314929Y-78969343D01*
X110318640Y-78965594D01*
X110327652Y-78954930D01*
X110341056Y-78938477D01*
X110357938Y-78917360D01*
X110377389Y-78892703D01*
X110388589Y-78878379D01*
X110459709Y-78787136D01*
X110570625Y-78786963D01*
X110681542Y-78786790D01*
X110666574Y-78805840D01*
G37*
X110666574Y-78805840D02*
X110617496Y-78868408D01*
X110574603Y-78923332D01*
X110537695Y-78970874D01*
X110506576Y-79011294D01*
X110481048Y-79044854D01*
X110460913Y-79071816D01*
X110445973Y-79092442D01*
X110436031Y-79106992D01*
X110430890Y-79115728D01*
X110430111Y-79118728D01*
X110433816Y-79123844D01*
X110443083Y-79136199D01*
X110457289Y-79154974D01*
X110475810Y-79179350D01*
X110498022Y-79208506D01*
X110523301Y-79241622D01*
X110551024Y-79277879D01*
X110578711Y-79314036D01*
X110608099Y-79352442D01*
X110635565Y-79388443D01*
X110660495Y-79421226D01*
X110682272Y-79449977D01*
X110700284Y-79473882D01*
X110713914Y-79492128D01*
X110722548Y-79503902D01*
X110725562Y-79508346D01*
X110721250Y-79510041D01*
X110707538Y-79511412D01*
X110685183Y-79512424D01*
X110654941Y-79513041D01*
X110621038Y-79513230D01*
X110514820Y-79513230D01*
X110421224Y-79392865D01*
X110397468Y-79362308D01*
X110375581Y-79334141D01*
X110356383Y-79309423D01*
X110340696Y-79289210D01*
X110329339Y-79274558D01*
X110323133Y-79266526D01*
X110322363Y-79265518D01*
X110319484Y-79265242D01*
X110313873Y-79269305D01*
X110305001Y-79278321D01*
X110292341Y-79292906D01*
X110275364Y-79313673D01*
X110253540Y-79341238D01*
X110226342Y-79376216D01*
X110218879Y-79385882D01*
X110120661Y-79513230D01*
X110014595Y-79513230D01*
X109983015Y-79513056D01*
X109955187Y-79512571D01*
X109932599Y-79511828D01*
X109916736Y-79510881D01*
X109909086Y-79509782D01*
X109908614Y-79509420D01*
X109911635Y-79504751D01*
X109920265Y-79492832D01*
X109933903Y-79474458D01*
X109951953Y-79450422D01*
X109973814Y-79421518D01*
X109998889Y-79388540D01*
X110026579Y-79352281D01*
X110056284Y-79313537D01*
X110058400Y-79310783D01*
X110093117Y-79265528D01*
X110122056Y-79227613D01*
X110145690Y-79196366D01*
X110164490Y-79171117D01*
X110178930Y-79151195D01*
X110189482Y-79135930D01*
X110196618Y-79124651D01*
X110200812Y-79116687D01*
X110202536Y-79111369D01*
X110202261Y-79108024D01*
X110201825Y-79107256D01*
X110197385Y-79101377D01*
X110187456Y-79088398D01*
X110172761Y-79069260D01*
X110154022Y-79044901D01*
X110131963Y-79016262D01*
X110107307Y-78984283D01*
X110080776Y-78949902D01*
X110077439Y-78945578D01*
X110051014Y-78911279D01*
X110026649Y-78879512D01*
X110005021Y-78851169D01*
X109986806Y-78827143D01*
X109972681Y-78808328D01*
X109963322Y-78795615D01*
X109959405Y-78789899D01*
X109959329Y-78789695D01*
X109964162Y-78788846D01*
X109977681Y-78788114D01*
X109998408Y-78787535D01*
X110024869Y-78787147D01*
X110055589Y-78786987D01*
X110067279Y-78786992D01*
X110175229Y-78787194D01*
X110243809Y-78878129D01*
X110263693Y-78904364D01*
X110281539Y-78927658D01*
X110296446Y-78946857D01*
X110307511Y-78960802D01*
X110313833Y-78968339D01*
X110314929Y-78969343D01*
X110318640Y-78965594D01*
X110327652Y-78954930D01*
X110341056Y-78938477D01*
X110357938Y-78917360D01*
X110377389Y-78892703D01*
X110388589Y-78878379D01*
X110459709Y-78787136D01*
X110570625Y-78786963D01*
X110681542Y-78786790D01*
X110666574Y-78805840D01*
G36*
X113802399Y-78335577D02*
G01*
X113802741Y-78335908D01*
X113804326Y-78341047D01*
X113808325Y-78355408D01*
X113814575Y-78378387D01*
X113822917Y-78409376D01*
X113833189Y-78447770D01*
X113845229Y-78492963D01*
X113858878Y-78544350D01*
X113873974Y-78601325D01*
X113890355Y-78663281D01*
X113907862Y-78729612D01*
X113926333Y-78799714D01*
X113945607Y-78872980D01*
X113959156Y-78924550D01*
X114113070Y-79510690D01*
X114026667Y-79512083D01*
X113998010Y-79512322D01*
X113972958Y-79512106D01*
X113953248Y-79511485D01*
X113940617Y-79510509D01*
X113936806Y-79509543D01*
X113934960Y-79504069D01*
X113930793Y-79489589D01*
X113924528Y-79466936D01*
X113916386Y-79436941D01*
X113906592Y-79400435D01*
X113895367Y-79358250D01*
X113882934Y-79311216D01*
X113869516Y-79260166D01*
X113855336Y-79205931D01*
X113850362Y-79186840D01*
X113836001Y-79131840D01*
X113822342Y-79079846D01*
X113809605Y-79031675D01*
X113798010Y-78988144D01*
X113787777Y-78950073D01*
X113779128Y-78918277D01*
X113772281Y-78893576D01*
X113767457Y-78876787D01*
X113764876Y-78868728D01*
X113764542Y-78868121D01*
X113762171Y-78872696D01*
X113756195Y-78885921D01*
X113746925Y-78907070D01*
X113734670Y-78935418D01*
X113719740Y-78970239D01*
X113702446Y-79010808D01*
X113683098Y-79056398D01*
X113662005Y-79106285D01*
X113639478Y-79159742D01*
X113615827Y-79216044D01*
X113614586Y-79219004D01*
X113590858Y-79275501D01*
X113568218Y-79329241D01*
X113546978Y-79379493D01*
X113527452Y-79425525D01*
X113509952Y-79466604D01*
X113494790Y-79502000D01*
X113482279Y-79530979D01*
X113472731Y-79552812D01*
X113466460Y-79566765D01*
X113463778Y-79572107D01*
X113463747Y-79572133D01*
X113459757Y-79569330D01*
X113453819Y-79559616D01*
X113450554Y-79552720D01*
X113447030Y-79544479D01*
X113439907Y-79527686D01*
X113429529Y-79503153D01*
X113416239Y-79471690D01*
X113400379Y-79434111D01*
X113382291Y-79391226D01*
X113362319Y-79343850D01*
X113340805Y-79292792D01*
X113318092Y-79238865D01*
X113301674Y-79199872D01*
X113270953Y-79127127D01*
X113243990Y-79063763D01*
X113220763Y-79009729D01*
X113201249Y-78964978D01*
X113185426Y-78929457D01*
X113173273Y-78903119D01*
X113164767Y-78885912D01*
X113159886Y-78877788D01*
X113158669Y-78877292D01*
X113156783Y-78883634D01*
X113152599Y-78898936D01*
X113146348Y-78922317D01*
X113138262Y-78952897D01*
X113128571Y-78989796D01*
X113117507Y-79032132D01*
X113105300Y-79079027D01*
X113092183Y-79129599D01*
X113078387Y-79182968D01*
X113078371Y-79183030D01*
X113064508Y-79236685D01*
X113051281Y-79287769D01*
X113038926Y-79335370D01*
X113027683Y-79378576D01*
X113017790Y-79416476D01*
X113009483Y-79448160D01*
X113003001Y-79472715D01*
X112998581Y-79489230D01*
X112996486Y-79496720D01*
X112991301Y-79513230D01*
X112814095Y-79513230D01*
X112816976Y-79501800D01*
X112825734Y-79467335D01*
X112836259Y-79426394D01*
X112848362Y-79379695D01*
X112861848Y-79327954D01*
X112876528Y-79271891D01*
X112892210Y-79212223D01*
X112908701Y-79149667D01*
X112925811Y-79084942D01*
X112943347Y-79018765D01*
X112961118Y-78951854D01*
X112978932Y-78884928D01*
X112996598Y-78818703D01*
X113013924Y-78753898D01*
X113030718Y-78691231D01*
X113046789Y-78631419D01*
X113061946Y-78575180D01*
X113075995Y-78523232D01*
X113088747Y-78476293D01*
X113100008Y-78435080D01*
X113109588Y-78400312D01*
X113117295Y-78372707D01*
X113122938Y-78352982D01*
X113126324Y-78341854D01*
X113127253Y-78339567D01*
X113129855Y-78344509D01*
X113136060Y-78358143D01*
X113145575Y-78379780D01*
X113158104Y-78408731D01*
X113173355Y-78444305D01*
X113191032Y-78485812D01*
X113210842Y-78532562D01*
X113232491Y-78583867D01*
X113255684Y-78639035D01*
X113280128Y-78697377D01*
X113296692Y-78737020D01*
X113321740Y-78796903D01*
X113345704Y-78853941D01*
X113368292Y-78907456D01*
X113389215Y-78956774D01*
X113408182Y-79001217D01*
X113424904Y-79040110D01*
X113439089Y-79072778D01*
X113450448Y-79098543D01*
X113458690Y-79116730D01*
X113463526Y-79126663D01*
X113464717Y-79128362D01*
X113467125Y-79123192D01*
X113473147Y-79109366D01*
X113482479Y-79087600D01*
X113494817Y-79058612D01*
X113509859Y-79023120D01*
X113527299Y-78981841D01*
X113546836Y-78935494D01*
X113568165Y-78884795D01*
X113590984Y-78830462D01*
X113614987Y-78773213D01*
X113622067Y-78756310D01*
X113652463Y-78683726D01*
X113679177Y-78619949D01*
X113702450Y-78564414D01*
X113722527Y-78516556D01*
X113739649Y-78475811D01*
X113754059Y-78441615D01*
X113766001Y-78413401D01*
X113775715Y-78390607D01*
X113783446Y-78372667D01*
X113789436Y-78359016D01*
X113793927Y-78349091D01*
X113797163Y-78342326D01*
X113799385Y-78338157D01*
X113800837Y-78336019D01*
X113801760Y-78335347D01*
X113802399Y-78335577D01*
G37*
X113802399Y-78335577D02*
X113802741Y-78335908D01*
X113804326Y-78341047D01*
X113808325Y-78355408D01*
X113814575Y-78378387D01*
X113822917Y-78409376D01*
X113833189Y-78447770D01*
X113845229Y-78492963D01*
X113858878Y-78544350D01*
X113873974Y-78601325D01*
X113890355Y-78663281D01*
X113907862Y-78729612D01*
X113926333Y-78799714D01*
X113945607Y-78872980D01*
X113959156Y-78924550D01*
X114113070Y-79510690D01*
X114026667Y-79512083D01*
X113998010Y-79512322D01*
X113972958Y-79512106D01*
X113953248Y-79511485D01*
X113940617Y-79510509D01*
X113936806Y-79509543D01*
X113934960Y-79504069D01*
X113930793Y-79489589D01*
X113924528Y-79466936D01*
X113916386Y-79436941D01*
X113906592Y-79400435D01*
X113895367Y-79358250D01*
X113882934Y-79311216D01*
X113869516Y-79260166D01*
X113855336Y-79205931D01*
X113850362Y-79186840D01*
X113836001Y-79131840D01*
X113822342Y-79079846D01*
X113809605Y-79031675D01*
X113798010Y-78988144D01*
X113787777Y-78950073D01*
X113779128Y-78918277D01*
X113772281Y-78893576D01*
X113767457Y-78876787D01*
X113764876Y-78868728D01*
X113764542Y-78868121D01*
X113762171Y-78872696D01*
X113756195Y-78885921D01*
X113746925Y-78907070D01*
X113734670Y-78935418D01*
X113719740Y-78970239D01*
X113702446Y-79010808D01*
X113683098Y-79056398D01*
X113662005Y-79106285D01*
X113639478Y-79159742D01*
X113615827Y-79216044D01*
X113614586Y-79219004D01*
X113590858Y-79275501D01*
X113568218Y-79329241D01*
X113546978Y-79379493D01*
X113527452Y-79425525D01*
X113509952Y-79466604D01*
X113494790Y-79502000D01*
X113482279Y-79530979D01*
X113472731Y-79552812D01*
X113466460Y-79566765D01*
X113463778Y-79572107D01*
X113463747Y-79572133D01*
X113459757Y-79569330D01*
X113453819Y-79559616D01*
X113450554Y-79552720D01*
X113447030Y-79544479D01*
X113439907Y-79527686D01*
X113429529Y-79503153D01*
X113416239Y-79471690D01*
X113400379Y-79434111D01*
X113382291Y-79391226D01*
X113362319Y-79343850D01*
X113340805Y-79292792D01*
X113318092Y-79238865D01*
X113301674Y-79199872D01*
X113270953Y-79127127D01*
X113243990Y-79063763D01*
X113220763Y-79009729D01*
X113201249Y-78964978D01*
X113185426Y-78929457D01*
X113173273Y-78903119D01*
X113164767Y-78885912D01*
X113159886Y-78877788D01*
X113158669Y-78877292D01*
X113156783Y-78883634D01*
X113152599Y-78898936D01*
X113146348Y-78922317D01*
X113138262Y-78952897D01*
X113128571Y-78989796D01*
X113117507Y-79032132D01*
X113105300Y-79079027D01*
X113092183Y-79129599D01*
X113078387Y-79182968D01*
X113078371Y-79183030D01*
X113064508Y-79236685D01*
X113051281Y-79287769D01*
X113038926Y-79335370D01*
X113027683Y-79378576D01*
X113017790Y-79416476D01*
X113009483Y-79448160D01*
X113003001Y-79472715D01*
X112998581Y-79489230D01*
X112996486Y-79496720D01*
X112991301Y-79513230D01*
X112814095Y-79513230D01*
X112816976Y-79501800D01*
X112825734Y-79467335D01*
X112836259Y-79426394D01*
X112848362Y-79379695D01*
X112861848Y-79327954D01*
X112876528Y-79271891D01*
X112892210Y-79212223D01*
X112908701Y-79149667D01*
X112925811Y-79084942D01*
X112943347Y-79018765D01*
X112961118Y-78951854D01*
X112978932Y-78884928D01*
X112996598Y-78818703D01*
X113013924Y-78753898D01*
X113030718Y-78691231D01*
X113046789Y-78631419D01*
X113061946Y-78575180D01*
X113075995Y-78523232D01*
X113088747Y-78476293D01*
X113100008Y-78435080D01*
X113109588Y-78400312D01*
X113117295Y-78372707D01*
X113122938Y-78352982D01*
X113126324Y-78341854D01*
X113127253Y-78339567D01*
X113129855Y-78344509D01*
X113136060Y-78358143D01*
X113145575Y-78379780D01*
X113158104Y-78408731D01*
X113173355Y-78444305D01*
X113191032Y-78485812D01*
X113210842Y-78532562D01*
X113232491Y-78583867D01*
X113255684Y-78639035D01*
X113280128Y-78697377D01*
X113296692Y-78737020D01*
X113321740Y-78796903D01*
X113345704Y-78853941D01*
X113368292Y-78907456D01*
X113389215Y-78956774D01*
X113408182Y-79001217D01*
X113424904Y-79040110D01*
X113439089Y-79072778D01*
X113450448Y-79098543D01*
X113458690Y-79116730D01*
X113463526Y-79126663D01*
X113464717Y-79128362D01*
X113467125Y-79123192D01*
X113473147Y-79109366D01*
X113482479Y-79087600D01*
X113494817Y-79058612D01*
X113509859Y-79023120D01*
X113527299Y-78981841D01*
X113546836Y-78935494D01*
X113568165Y-78884795D01*
X113590984Y-78830462D01*
X113614987Y-78773213D01*
X113622067Y-78756310D01*
X113652463Y-78683726D01*
X113679177Y-78619949D01*
X113702450Y-78564414D01*
X113722527Y-78516556D01*
X113739649Y-78475811D01*
X113754059Y-78441615D01*
X113766001Y-78413401D01*
X113775715Y-78390607D01*
X113783446Y-78372667D01*
X113789436Y-78359016D01*
X113793927Y-78349091D01*
X113797163Y-78342326D01*
X113799385Y-78338157D01*
X113800837Y-78336019D01*
X113801760Y-78335347D01*
X113802399Y-78335577D01*
G36*
X109254487Y-78770656D02*
G01*
X109284719Y-78774982D01*
X109311697Y-78783305D01*
X109338774Y-78796617D01*
X109364936Y-78812975D01*
X109397917Y-78840493D01*
X109423594Y-78873238D01*
X109441834Y-78909795D01*
X109452506Y-78948751D01*
X109455479Y-78988693D01*
X109450621Y-79028205D01*
X109437799Y-79065875D01*
X109416884Y-79100289D01*
X109393960Y-79124769D01*
X109385494Y-79131880D01*
X109375984Y-79138898D01*
X109364394Y-79146379D01*
X109349688Y-79154880D01*
X109330829Y-79164956D01*
X109306781Y-79177164D01*
X109276506Y-79192060D01*
X109238969Y-79210199D01*
X109199148Y-79229265D01*
X109165960Y-79247513D01*
X109142888Y-79265770D01*
X109129888Y-79284124D01*
X109126916Y-79302662D01*
X109133928Y-79321470D01*
X109145373Y-79335469D01*
X109170303Y-79353631D01*
X109199309Y-79363404D01*
X109230878Y-79364885D01*
X109263497Y-79358170D01*
X109295654Y-79343356D01*
X109321762Y-79324232D01*
X109345640Y-79303213D01*
X109412454Y-79335733D01*
X109436461Y-79347508D01*
X109457278Y-79357890D01*
X109473153Y-79365991D01*
X109482339Y-79370927D01*
X109483758Y-79371825D01*
X109483649Y-79377747D01*
X109477499Y-79389155D01*
X109466538Y-79404436D01*
X109451995Y-79421980D01*
X109435099Y-79440174D01*
X109421654Y-79453249D01*
X109379669Y-79485724D01*
X109333367Y-79510030D01*
X109284184Y-79525770D01*
X109233561Y-79532547D01*
X109182934Y-79529962D01*
X109159965Y-79525503D01*
X109117499Y-79510698D01*
X109076838Y-79488027D01*
X109040057Y-79459118D01*
X109009233Y-79425596D01*
X108986863Y-79389949D01*
X108972365Y-79350481D01*
X108965654Y-79308830D01*
X108967251Y-79268405D01*
X108967832Y-79264877D01*
X108978033Y-79226999D01*
X108995021Y-79192538D01*
X109019393Y-79160921D01*
X109051746Y-79131573D01*
X109092678Y-79103920D01*
X109142786Y-79077387D01*
X109180255Y-79060598D01*
X109217881Y-79043801D01*
X109246521Y-79028837D01*
X109267036Y-79015051D01*
X109280291Y-79001785D01*
X109287147Y-78988385D01*
X109288607Y-78978226D01*
X109285645Y-78959828D01*
X109275790Y-78946718D01*
X109258305Y-78938444D01*
X109232456Y-78934553D01*
X109216727Y-78934110D01*
X109194639Y-78935483D01*
X109174201Y-78940279D01*
X109152653Y-78949506D01*
X109127235Y-78964176D01*
X109117362Y-78970491D01*
X109085655Y-78991127D01*
X109034337Y-78946108D01*
X109014391Y-78928679D01*
X108996391Y-78913077D01*
X108982130Y-78900846D01*
X108973399Y-78893532D01*
X108972608Y-78892900D01*
X108967845Y-78888589D01*
X108966898Y-78884460D01*
X108970855Y-78878837D01*
X108980804Y-78870043D01*
X108994672Y-78858912D01*
X109030443Y-78833009D01*
X109069333Y-78809131D01*
X109107614Y-78789454D01*
X109129163Y-78780409D01*
X109145061Y-78775149D01*
X109160977Y-78771798D01*
X109179870Y-78769987D01*
X109204697Y-78769343D01*
X109217649Y-78769333D01*
X109254487Y-78770656D01*
G37*
X109254487Y-78770656D02*
X109284719Y-78774982D01*
X109311697Y-78783305D01*
X109338774Y-78796617D01*
X109364936Y-78812975D01*
X109397917Y-78840493D01*
X109423594Y-78873238D01*
X109441834Y-78909795D01*
X109452506Y-78948751D01*
X109455479Y-78988693D01*
X109450621Y-79028205D01*
X109437799Y-79065875D01*
X109416884Y-79100289D01*
X109393960Y-79124769D01*
X109385494Y-79131880D01*
X109375984Y-79138898D01*
X109364394Y-79146379D01*
X109349688Y-79154880D01*
X109330829Y-79164956D01*
X109306781Y-79177164D01*
X109276506Y-79192060D01*
X109238969Y-79210199D01*
X109199148Y-79229265D01*
X109165960Y-79247513D01*
X109142888Y-79265770D01*
X109129888Y-79284124D01*
X109126916Y-79302662D01*
X109133928Y-79321470D01*
X109145373Y-79335469D01*
X109170303Y-79353631D01*
X109199309Y-79363404D01*
X109230878Y-79364885D01*
X109263497Y-79358170D01*
X109295654Y-79343356D01*
X109321762Y-79324232D01*
X109345640Y-79303213D01*
X109412454Y-79335733D01*
X109436461Y-79347508D01*
X109457278Y-79357890D01*
X109473153Y-79365991D01*
X109482339Y-79370927D01*
X109483758Y-79371825D01*
X109483649Y-79377747D01*
X109477499Y-79389155D01*
X109466538Y-79404436D01*
X109451995Y-79421980D01*
X109435099Y-79440174D01*
X109421654Y-79453249D01*
X109379669Y-79485724D01*
X109333367Y-79510030D01*
X109284184Y-79525770D01*
X109233561Y-79532547D01*
X109182934Y-79529962D01*
X109159965Y-79525503D01*
X109117499Y-79510698D01*
X109076838Y-79488027D01*
X109040057Y-79459118D01*
X109009233Y-79425596D01*
X108986863Y-79389949D01*
X108972365Y-79350481D01*
X108965654Y-79308830D01*
X108967251Y-79268405D01*
X108967832Y-79264877D01*
X108978033Y-79226999D01*
X108995021Y-79192538D01*
X109019393Y-79160921D01*
X109051746Y-79131573D01*
X109092678Y-79103920D01*
X109142786Y-79077387D01*
X109180255Y-79060598D01*
X109217881Y-79043801D01*
X109246521Y-79028837D01*
X109267036Y-79015051D01*
X109280291Y-79001785D01*
X109287147Y-78988385D01*
X109288607Y-78978226D01*
X109285645Y-78959828D01*
X109275790Y-78946718D01*
X109258305Y-78938444D01*
X109232456Y-78934553D01*
X109216727Y-78934110D01*
X109194639Y-78935483D01*
X109174201Y-78940279D01*
X109152653Y-78949506D01*
X109127235Y-78964176D01*
X109117362Y-78970491D01*
X109085655Y-78991127D01*
X109034337Y-78946108D01*
X109014391Y-78928679D01*
X108996391Y-78913077D01*
X108982130Y-78900846D01*
X108973399Y-78893532D01*
X108972608Y-78892900D01*
X108967845Y-78888589D01*
X108966898Y-78884460D01*
X108970855Y-78878837D01*
X108980804Y-78870043D01*
X108994672Y-78858912D01*
X109030443Y-78833009D01*
X109069333Y-78809131D01*
X109107614Y-78789454D01*
X109129163Y-78780409D01*
X109145061Y-78775149D01*
X109160977Y-78771798D01*
X109179870Y-78769987D01*
X109204697Y-78769343D01*
X109217649Y-78769333D01*
X109254487Y-78770656D01*
G36*
X110788488Y-78982720D02*
G01*
X110813935Y-78938051D01*
X110846662Y-78896048D01*
X110863569Y-78877973D01*
X110908690Y-78837880D01*
X110956394Y-78807259D01*
X111007759Y-78785632D01*
X111063862Y-78772524D01*
X111112489Y-78767868D01*
X111142286Y-78767027D01*
X111165890Y-78767684D01*
X111187197Y-78770149D01*
X111210102Y-78774731D01*
X111215931Y-78776100D01*
X111272965Y-78794842D01*
X111326022Y-78822373D01*
X111374184Y-78857793D01*
X111416529Y-78900203D01*
X111452138Y-78948702D01*
X111480091Y-79002390D01*
X111497055Y-79051110D01*
X111502924Y-79081981D01*
X111506009Y-79119261D01*
X111506355Y-79159602D01*
X111504008Y-79199653D01*
X111499012Y-79236067D01*
X111494292Y-79256461D01*
X111472826Y-79314089D01*
X111443040Y-79366754D01*
X111405751Y-79413649D01*
X111361773Y-79453966D01*
X111311923Y-79486899D01*
X111257016Y-79511643D01*
X111226789Y-79520991D01*
X111198043Y-79526456D01*
X111162935Y-79529955D01*
X111125092Y-79531386D01*
X111088138Y-79530645D01*
X111055700Y-79527628D01*
X111046719Y-79526137D01*
X110990019Y-79511095D01*
X110935611Y-79488451D01*
X110885203Y-79459243D01*
X110840505Y-79424510D01*
X110803225Y-79385291D01*
X110793224Y-79372079D01*
X110781983Y-79356293D01*
X110841826Y-79311254D01*
X110863473Y-79295028D01*
X110882560Y-79280845D01*
X110897461Y-79269903D01*
X110906552Y-79263401D01*
X110908225Y-79262295D01*
X110915492Y-79263819D01*
X110928566Y-79273497D01*
X110947320Y-79291235D01*
X110947578Y-79291495D01*
X110984726Y-79323306D01*
X111024322Y-79345730D01*
X111067750Y-79359483D01*
X111084348Y-79362415D01*
X111130423Y-79364661D01*
X111174969Y-79358478D01*
X111216592Y-79344530D01*
X111253899Y-79323479D01*
X111285496Y-79295988D01*
X111309990Y-79262720D01*
X111315343Y-79252548D01*
X111323694Y-79234246D01*
X111330433Y-79217590D01*
X111333829Y-79207160D01*
X111337110Y-79193190D01*
X110745527Y-79193190D01*
X110749050Y-79148740D01*
X110756723Y-79086462D01*
X110767382Y-79041246D01*
X110949929Y-79041246D01*
X110954856Y-79042394D01*
X110969027Y-79043417D01*
X110991526Y-79044293D01*
X111021439Y-79044999D01*
X111057849Y-79045510D01*
X111099841Y-79045805D01*
X111132939Y-79045870D01*
X111315949Y-79045870D01*
X111308358Y-79031190D01*
X111296526Y-79014005D01*
X111278793Y-78994802D01*
X111258177Y-78976424D01*
X111237699Y-78961715D01*
X111229959Y-78957363D01*
X111188956Y-78941969D01*
X111145526Y-78935105D01*
X111101740Y-78936674D01*
X111059670Y-78946578D01*
X111021387Y-78964722D01*
X111017401Y-78967279D01*
X111003298Y-78978147D01*
X110987792Y-78992481D01*
X110972803Y-79008175D01*
X110960251Y-79023123D01*
X110952059Y-79035220D01*
X110949929Y-79041246D01*
X110767382Y-79041246D01*
X110769643Y-79031656D01*
X110788488Y-78982720D01*
G37*
X110788488Y-78982720D02*
X110813935Y-78938051D01*
X110846662Y-78896048D01*
X110863569Y-78877973D01*
X110908690Y-78837880D01*
X110956394Y-78807259D01*
X111007759Y-78785632D01*
X111063862Y-78772524D01*
X111112489Y-78767868D01*
X111142286Y-78767027D01*
X111165890Y-78767684D01*
X111187197Y-78770149D01*
X111210102Y-78774731D01*
X111215931Y-78776100D01*
X111272965Y-78794842D01*
X111326022Y-78822373D01*
X111374184Y-78857793D01*
X111416529Y-78900203D01*
X111452138Y-78948702D01*
X111480091Y-79002390D01*
X111497055Y-79051110D01*
X111502924Y-79081981D01*
X111506009Y-79119261D01*
X111506355Y-79159602D01*
X111504008Y-79199653D01*
X111499012Y-79236067D01*
X111494292Y-79256461D01*
X111472826Y-79314089D01*
X111443040Y-79366754D01*
X111405751Y-79413649D01*
X111361773Y-79453966D01*
X111311923Y-79486899D01*
X111257016Y-79511643D01*
X111226789Y-79520991D01*
X111198043Y-79526456D01*
X111162935Y-79529955D01*
X111125092Y-79531386D01*
X111088138Y-79530645D01*
X111055700Y-79527628D01*
X111046719Y-79526137D01*
X110990019Y-79511095D01*
X110935611Y-79488451D01*
X110885203Y-79459243D01*
X110840505Y-79424510D01*
X110803225Y-79385291D01*
X110793224Y-79372079D01*
X110781983Y-79356293D01*
X110841826Y-79311254D01*
X110863473Y-79295028D01*
X110882560Y-79280845D01*
X110897461Y-79269903D01*
X110906552Y-79263401D01*
X110908225Y-79262295D01*
X110915492Y-79263819D01*
X110928566Y-79273497D01*
X110947320Y-79291235D01*
X110947578Y-79291495D01*
X110984726Y-79323306D01*
X111024322Y-79345730D01*
X111067750Y-79359483D01*
X111084348Y-79362415D01*
X111130423Y-79364661D01*
X111174969Y-79358478D01*
X111216592Y-79344530D01*
X111253899Y-79323479D01*
X111285496Y-79295988D01*
X111309990Y-79262720D01*
X111315343Y-79252548D01*
X111323694Y-79234246D01*
X111330433Y-79217590D01*
X111333829Y-79207160D01*
X111337110Y-79193190D01*
X110745527Y-79193190D01*
X110749050Y-79148740D01*
X110756723Y-79086462D01*
X110767382Y-79041246D01*
X110949929Y-79041246D01*
X110954856Y-79042394D01*
X110969027Y-79043417D01*
X110991526Y-79044293D01*
X111021439Y-79044999D01*
X111057849Y-79045510D01*
X111099841Y-79045805D01*
X111132939Y-79045870D01*
X111315949Y-79045870D01*
X111308358Y-79031190D01*
X111296526Y-79014005D01*
X111278793Y-78994802D01*
X111258177Y-78976424D01*
X111237699Y-78961715D01*
X111229959Y-78957363D01*
X111188956Y-78941969D01*
X111145526Y-78935105D01*
X111101740Y-78936674D01*
X111059670Y-78946578D01*
X111021387Y-78964722D01*
X111017401Y-78967279D01*
X111003298Y-78978147D01*
X110987792Y-78992481D01*
X110972803Y-79008175D01*
X110960251Y-79023123D01*
X110952059Y-79035220D01*
X110949929Y-79041246D01*
X110767382Y-79041246D01*
X110769643Y-79031656D01*
X110788488Y-78982720D01*
G36*
X112046830Y-78950051D02*
G01*
X112081076Y-78901742D01*
X112122284Y-78859259D01*
X112169890Y-78823464D01*
X112223329Y-78795220D01*
X112252949Y-78783899D01*
X112295471Y-78773316D01*
X112343085Y-78767665D01*
X112391883Y-78767154D01*
X112437960Y-78771994D01*
X112445989Y-78773516D01*
X112499988Y-78789492D01*
X112552304Y-78814368D01*
X112600910Y-78846889D01*
X112643779Y-78885801D01*
X112662847Y-78907785D01*
X112696703Y-78956105D01*
X112721294Y-79004900D01*
X112737396Y-79056195D01*
X112745785Y-79112019D01*
X112746780Y-79127150D01*
X112745698Y-79191433D01*
X112735587Y-79251205D01*
X112716259Y-79306967D01*
X112687523Y-79359219D01*
X112649189Y-79408464D01*
X112633838Y-79424708D01*
X112611959Y-79445883D01*
X112592808Y-79461722D01*
X112572794Y-79474845D01*
X112548325Y-79487871D01*
X112544938Y-79489543D01*
X112520890Y-79500636D01*
X112496313Y-79510798D01*
X112474972Y-79518519D01*
X112466309Y-79521093D01*
X112436833Y-79526621D01*
X112401044Y-79530091D01*
X112362596Y-79531405D01*
X112325143Y-79530466D01*
X112292342Y-79527175D01*
X112285128Y-79525942D01*
X112221954Y-79508955D01*
X112163053Y-79482902D01*
X112141034Y-79470118D01*
X112117173Y-79453391D01*
X112091307Y-79432240D01*
X112066244Y-79409214D01*
X112044788Y-79386863D01*
X112032012Y-79371051D01*
X112021798Y-79356706D01*
X112081493Y-79311414D01*
X112103097Y-79295096D01*
X112122166Y-79280830D01*
X112137074Y-79269821D01*
X112146197Y-79263274D01*
X112147890Y-79262158D01*
X112155036Y-79263547D01*
X112168117Y-79272768D01*
X112187262Y-79289914D01*
X112191864Y-79294335D01*
X112224319Y-79322404D01*
X112256218Y-79342290D01*
X112290326Y-79355410D01*
X112324874Y-79362560D01*
X112372617Y-79364845D01*
X112418172Y-79358122D01*
X112460373Y-79342965D01*
X112498057Y-79319945D01*
X112530059Y-79289636D01*
X112555216Y-79252610D01*
X112557538Y-79248106D01*
X112563665Y-79236554D01*
X112569117Y-79226729D01*
X112573203Y-79218493D01*
X112575232Y-79211707D01*
X112574514Y-79206233D01*
X112570356Y-79201932D01*
X112562068Y-79198666D01*
X112548959Y-79196296D01*
X112530338Y-79194685D01*
X112505513Y-79193693D01*
X112473795Y-79193183D01*
X112434492Y-79193015D01*
X112386912Y-79193051D01*
X112330366Y-79193153D01*
X112283429Y-79193190D01*
X112221519Y-79193175D01*
X112169000Y-79193116D01*
X112125101Y-79192989D01*
X112089052Y-79192771D01*
X112060082Y-79192439D01*
X112037422Y-79191968D01*
X112020302Y-79191336D01*
X112007951Y-79190519D01*
X111999601Y-79189494D01*
X111994479Y-79188238D01*
X111991817Y-79186726D01*
X111990845Y-79184936D01*
X111990765Y-79184300D01*
X111991514Y-79121310D01*
X112001485Y-79060697D01*
X112007386Y-79042521D01*
X112189449Y-79042521D01*
X112194340Y-79043289D01*
X112208257Y-79043996D01*
X112230067Y-79044619D01*
X112258637Y-79045139D01*
X112292833Y-79045535D01*
X112331521Y-79045785D01*
X112372329Y-79045870D01*
X112414295Y-79045786D01*
X112452870Y-79045548D01*
X112486921Y-79045174D01*
X112515313Y-79044686D01*
X112536913Y-79044100D01*
X112550588Y-79043438D01*
X112555209Y-79042740D01*
X112552014Y-79035641D01*
X112543763Y-79023693D01*
X112532455Y-79009359D01*
X112520088Y-78995100D01*
X112508664Y-78983380D01*
X112503161Y-78978643D01*
X112465059Y-78955412D01*
X112424175Y-78940773D01*
X112381956Y-78934564D01*
X112339850Y-78936619D01*
X112299303Y-78946774D01*
X112261763Y-78964865D01*
X112228678Y-78990727D01*
X112210020Y-79011926D01*
X112199615Y-79026170D01*
X112192217Y-79037182D01*
X112189449Y-79042521D01*
X112007386Y-79042521D01*
X112020112Y-79003323D01*
X112046830Y-78950051D01*
G37*
X112046830Y-78950051D02*
X112081076Y-78901742D01*
X112122284Y-78859259D01*
X112169890Y-78823464D01*
X112223329Y-78795220D01*
X112252949Y-78783899D01*
X112295471Y-78773316D01*
X112343085Y-78767665D01*
X112391883Y-78767154D01*
X112437960Y-78771994D01*
X112445989Y-78773516D01*
X112499988Y-78789492D01*
X112552304Y-78814368D01*
X112600910Y-78846889D01*
X112643779Y-78885801D01*
X112662847Y-78907785D01*
X112696703Y-78956105D01*
X112721294Y-79004900D01*
X112737396Y-79056195D01*
X112745785Y-79112019D01*
X112746780Y-79127150D01*
X112745698Y-79191433D01*
X112735587Y-79251205D01*
X112716259Y-79306967D01*
X112687523Y-79359219D01*
X112649189Y-79408464D01*
X112633838Y-79424708D01*
X112611959Y-79445883D01*
X112592808Y-79461722D01*
X112572794Y-79474845D01*
X112548325Y-79487871D01*
X112544938Y-79489543D01*
X112520890Y-79500636D01*
X112496313Y-79510798D01*
X112474972Y-79518519D01*
X112466309Y-79521093D01*
X112436833Y-79526621D01*
X112401044Y-79530091D01*
X112362596Y-79531405D01*
X112325143Y-79530466D01*
X112292342Y-79527175D01*
X112285128Y-79525942D01*
X112221954Y-79508955D01*
X112163053Y-79482902D01*
X112141034Y-79470118D01*
X112117173Y-79453391D01*
X112091307Y-79432240D01*
X112066244Y-79409214D01*
X112044788Y-79386863D01*
X112032012Y-79371051D01*
X112021798Y-79356706D01*
X112081493Y-79311414D01*
X112103097Y-79295096D01*
X112122166Y-79280830D01*
X112137074Y-79269821D01*
X112146197Y-79263274D01*
X112147890Y-79262158D01*
X112155036Y-79263547D01*
X112168117Y-79272768D01*
X112187262Y-79289914D01*
X112191864Y-79294335D01*
X112224319Y-79322404D01*
X112256218Y-79342290D01*
X112290326Y-79355410D01*
X112324874Y-79362560D01*
X112372617Y-79364845D01*
X112418172Y-79358122D01*
X112460373Y-79342965D01*
X112498057Y-79319945D01*
X112530059Y-79289636D01*
X112555216Y-79252610D01*
X112557538Y-79248106D01*
X112563665Y-79236554D01*
X112569117Y-79226729D01*
X112573203Y-79218493D01*
X112575232Y-79211707D01*
X112574514Y-79206233D01*
X112570356Y-79201932D01*
X112562068Y-79198666D01*
X112548959Y-79196296D01*
X112530338Y-79194685D01*
X112505513Y-79193693D01*
X112473795Y-79193183D01*
X112434492Y-79193015D01*
X112386912Y-79193051D01*
X112330366Y-79193153D01*
X112283429Y-79193190D01*
X112221519Y-79193175D01*
X112169000Y-79193116D01*
X112125101Y-79192989D01*
X112089052Y-79192771D01*
X112060082Y-79192439D01*
X112037422Y-79191968D01*
X112020302Y-79191336D01*
X112007951Y-79190519D01*
X111999601Y-79189494D01*
X111994479Y-79188238D01*
X111991817Y-79186726D01*
X111990845Y-79184936D01*
X111990765Y-79184300D01*
X111991514Y-79121310D01*
X112001485Y-79060697D01*
X112007386Y-79042521D01*
X112189449Y-79042521D01*
X112194340Y-79043289D01*
X112208257Y-79043996D01*
X112230067Y-79044619D01*
X112258637Y-79045139D01*
X112292833Y-79045535D01*
X112331521Y-79045785D01*
X112372329Y-79045870D01*
X112414295Y-79045786D01*
X112452870Y-79045548D01*
X112486921Y-79045174D01*
X112515313Y-79044686D01*
X112536913Y-79044100D01*
X112550588Y-79043438D01*
X112555209Y-79042740D01*
X112552014Y-79035641D01*
X112543763Y-79023693D01*
X112532455Y-79009359D01*
X112520088Y-78995100D01*
X112508664Y-78983380D01*
X112503161Y-78978643D01*
X112465059Y-78955412D01*
X112424175Y-78940773D01*
X112381956Y-78934564D01*
X112339850Y-78936619D01*
X112299303Y-78946774D01*
X112261763Y-78964865D01*
X112228678Y-78990727D01*
X112210020Y-79011926D01*
X112199615Y-79026170D01*
X112192217Y-79037182D01*
X112189449Y-79042521D01*
X112007386Y-79042521D01*
X112020112Y-79003323D01*
X112046830Y-78950051D01*
G36*
X109791689Y-79513230D02*
G01*
X109608809Y-79513230D01*
X109608809Y-78786790D01*
X109791689Y-78786790D01*
X109791689Y-79513230D01*
G37*
X109791689Y-79513230D02*
X109608809Y-79513230D01*
X109608809Y-78786790D01*
X109791689Y-78786790D01*
X109791689Y-79513230D01*
D11*
X109826044Y-67126741D03*
D12*
X109825010Y-61728793D03*
X112059880Y-61728796D03*
X112059881Y-67124249D03*
G04 #@! TA.AperFunction,Conductor*
G36*
X116733620Y-58628503D02*
G01*
X116780113Y-58682159D01*
X116791499Y-58734501D01*
X116791499Y-82865501D01*
X116771497Y-82933622D01*
X116717841Y-82980115D01*
X116665499Y-82991501D01*
X105234499Y-82991501D01*
X105166378Y-82971499D01*
X105119885Y-82917843D01*
X105108499Y-82865501D01*
X105108499Y-80198001D01*
X106885999Y-80198001D01*
X115013999Y-80198001D01*
X115013999Y-77404001D01*
X106885999Y-77404001D01*
X106885999Y-80198001D01*
X105108499Y-80198001D01*
X105108499Y-67060900D01*
X108962189Y-67060900D01*
X108964277Y-67207107D01*
X108981621Y-67316611D01*
X109031288Y-67469471D01*
X109081621Y-67568256D01*
X109088469Y-67581234D01*
X109091433Y-67585193D01*
X109091434Y-67585195D01*
X109170878Y-67691319D01*
X109176097Y-67698291D01*
X109254494Y-67776688D01*
X109265017Y-67786915D01*
X109269063Y-67789767D01*
X109269064Y-67789768D01*
X109380850Y-67868571D01*
X109380855Y-67868574D01*
X109384529Y-67871164D01*
X109388539Y-67873207D01*
X109388542Y-67873209D01*
X109478900Y-67919248D01*
X109483314Y-67921497D01*
X109488026Y-67923028D01*
X109631464Y-67969634D01*
X109631468Y-67969635D01*
X109636174Y-67971164D01*
X109674463Y-67977228D01*
X109745265Y-67988443D01*
X109745319Y-67988451D01*
X109745678Y-67988508D01*
X109746068Y-67988564D01*
X109746114Y-67988571D01*
X109755304Y-67989892D01*
X109755307Y-67989892D01*
X109760203Y-67990596D01*
X109906410Y-67988508D01*
X109910846Y-67987805D01*
X109910851Y-67987805D01*
X109977964Y-67977175D01*
X110015914Y-67971164D01*
X110020620Y-67969635D01*
X110020624Y-67969634D01*
X110164062Y-67923028D01*
X110168774Y-67921497D01*
X110267559Y-67871164D01*
X110280537Y-67864316D01*
X110397594Y-67776688D01*
X110475991Y-67698291D01*
X110486218Y-67687768D01*
X110525784Y-67631642D01*
X110567874Y-67571935D01*
X110567877Y-67571930D01*
X110570467Y-67568256D01*
X110614886Y-67481079D01*
X110618551Y-67473885D01*
X110620800Y-67469471D01*
X110670467Y-67316611D01*
X110687811Y-67207107D01*
X110689899Y-67192582D01*
X110688923Y-67124249D01*
X111196652Y-67124249D01*
X111215516Y-67303724D01*
X111217556Y-67310002D01*
X111217556Y-67310003D01*
X111248706Y-67405874D01*
X111271282Y-67475356D01*
X111361514Y-67631642D01*
X111482268Y-67765753D01*
X111487610Y-67769634D01*
X111487612Y-67769636D01*
X111613847Y-67861351D01*
X111628266Y-67871827D01*
X111634294Y-67874511D01*
X111634296Y-67874512D01*
X111787098Y-67942544D01*
X111793129Y-67945229D01*
X111881389Y-67963989D01*
X111963192Y-67981377D01*
X111963196Y-67981377D01*
X111969649Y-67982749D01*
X112150113Y-67982749D01*
X112156566Y-67981377D01*
X112156570Y-67981377D01*
X112238373Y-67963989D01*
X112326633Y-67945229D01*
X112332664Y-67942544D01*
X112485466Y-67874512D01*
X112485468Y-67874511D01*
X112491496Y-67871827D01*
X112505915Y-67861351D01*
X112632150Y-67769636D01*
X112632152Y-67769634D01*
X112637494Y-67765753D01*
X112758248Y-67631642D01*
X112848480Y-67475356D01*
X112871056Y-67405874D01*
X112902206Y-67310003D01*
X112902206Y-67310002D01*
X112904246Y-67303724D01*
X112923110Y-67124249D01*
X112904246Y-66944774D01*
X112848480Y-66773142D01*
X112758248Y-66616856D01*
X112703026Y-66555525D01*
X112641916Y-66487656D01*
X112641915Y-66487655D01*
X112637494Y-66482745D01*
X112629816Y-66477166D01*
X112496838Y-66380552D01*
X112496837Y-66380551D01*
X112491496Y-66376671D01*
X112485468Y-66373987D01*
X112485466Y-66373986D01*
X112332664Y-66305954D01*
X112332662Y-66305954D01*
X112326633Y-66303269D01*
X112224424Y-66281544D01*
X112156570Y-66267121D01*
X112156566Y-66267121D01*
X112150113Y-66265749D01*
X111969649Y-66265749D01*
X111963196Y-66267121D01*
X111963192Y-66267121D01*
X111895338Y-66281544D01*
X111793129Y-66303269D01*
X111787100Y-66305953D01*
X111787098Y-66305954D01*
X111634297Y-66373986D01*
X111634295Y-66373987D01*
X111628267Y-66376671D01*
X111622926Y-66380551D01*
X111622925Y-66380552D01*
X111487612Y-66478862D01*
X111487610Y-66478864D01*
X111482268Y-66482745D01*
X111477847Y-66487655D01*
X111477846Y-66487656D01*
X111416737Y-66555525D01*
X111361514Y-66616856D01*
X111271282Y-66773142D01*
X111215516Y-66944774D01*
X111196652Y-67124249D01*
X110688923Y-67124249D01*
X110687811Y-67046375D01*
X110670467Y-66936871D01*
X110620800Y-66784011D01*
X110570467Y-66685226D01*
X110563619Y-66672248D01*
X110526434Y-66622574D01*
X110478689Y-66558795D01*
X110478688Y-66558794D01*
X110475991Y-66555191D01*
X110397594Y-66476794D01*
X110387071Y-66466567D01*
X110383024Y-66463714D01*
X110271238Y-66384911D01*
X110271233Y-66384908D01*
X110267559Y-66382318D01*
X110263549Y-66380275D01*
X110263546Y-66380273D01*
X110173188Y-66334234D01*
X110168774Y-66331985D01*
X110158514Y-66328651D01*
X110020624Y-66283848D01*
X110020620Y-66283847D01*
X110015914Y-66282318D01*
X109977625Y-66276254D01*
X109906823Y-66265039D01*
X109906769Y-66265031D01*
X109906410Y-66264974D01*
X109906020Y-66264918D01*
X109905974Y-66264911D01*
X109896784Y-66263590D01*
X109896781Y-66263590D01*
X109891885Y-66262886D01*
X109745678Y-66264974D01*
X109741242Y-66265677D01*
X109741237Y-66265677D01*
X109674124Y-66276307D01*
X109636174Y-66282318D01*
X109631468Y-66283847D01*
X109631464Y-66283848D01*
X109493574Y-66328651D01*
X109483314Y-66331985D01*
X109384529Y-66382318D01*
X109371551Y-66389166D01*
X109254494Y-66476794D01*
X109176097Y-66555191D01*
X109165870Y-66565714D01*
X109163018Y-66569760D01*
X109163017Y-66569761D01*
X109090770Y-66672248D01*
X109081621Y-66685226D01*
X109031288Y-66784011D01*
X108981621Y-66936871D01*
X108964277Y-67046375D01*
X108962189Y-67060900D01*
X105108499Y-67060900D01*
X105108499Y-61728793D01*
X108961781Y-61728793D01*
X108980645Y-61908268D01*
X109036411Y-62079900D01*
X109126643Y-62236186D01*
X109247397Y-62370297D01*
X109393395Y-62476371D01*
X109399423Y-62479055D01*
X109399425Y-62479056D01*
X109439023Y-62496686D01*
X109558258Y-62549773D01*
X109646518Y-62568533D01*
X109728321Y-62585921D01*
X109728325Y-62585921D01*
X109734778Y-62587293D01*
X109915242Y-62587293D01*
X109921695Y-62585921D01*
X109921699Y-62585921D01*
X110003502Y-62568533D01*
X110091762Y-62549773D01*
X110210997Y-62496686D01*
X110228516Y-62488886D01*
X111664620Y-62488886D01*
X111668131Y-62493576D01*
X111787252Y-62546612D01*
X111799740Y-62550669D01*
X111963244Y-62585424D01*
X111976304Y-62586796D01*
X112143456Y-62586796D01*
X112156516Y-62585424D01*
X112320020Y-62550669D01*
X112332508Y-62546612D01*
X112444643Y-62496686D01*
X112455387Y-62487554D01*
X112453790Y-62481916D01*
X112072692Y-62100818D01*
X112058748Y-62093204D01*
X112056915Y-62093335D01*
X112050300Y-62097586D01*
X111671380Y-62476506D01*
X111664620Y-62488886D01*
X110228516Y-62488886D01*
X110250595Y-62479056D01*
X110250597Y-62479055D01*
X110256625Y-62476371D01*
X110402623Y-62370297D01*
X110523377Y-62236186D01*
X110613609Y-62079900D01*
X110669375Y-61908268D01*
X110687549Y-61735361D01*
X111197844Y-61735361D01*
X111215317Y-61901603D01*
X111218047Y-61914446D01*
X111269699Y-62073413D01*
X111275045Y-62085421D01*
X111291243Y-62113476D01*
X111301449Y-62123207D01*
X111309470Y-62119996D01*
X111687858Y-61741608D01*
X111694236Y-61729928D01*
X112424288Y-61729928D01*
X112424419Y-61731761D01*
X112428670Y-61738376D01*
X112806647Y-62116353D01*
X112819027Y-62123113D01*
X112825942Y-62117937D01*
X112844715Y-62085421D01*
X112850061Y-62073413D01*
X112901713Y-61914446D01*
X112904443Y-61901603D01*
X112921916Y-61735361D01*
X112921916Y-61722231D01*
X112904443Y-61555989D01*
X112901713Y-61543146D01*
X112850061Y-61384179D01*
X112844715Y-61372171D01*
X112828517Y-61344116D01*
X112818311Y-61334385D01*
X112810290Y-61337596D01*
X112431902Y-61715984D01*
X112424288Y-61729928D01*
X111694236Y-61729928D01*
X111695472Y-61727664D01*
X111695341Y-61725831D01*
X111691090Y-61719216D01*
X111313113Y-61341239D01*
X111300733Y-61334479D01*
X111293818Y-61339655D01*
X111275045Y-61372171D01*
X111269699Y-61384179D01*
X111218047Y-61543146D01*
X111215317Y-61555989D01*
X111197844Y-61722231D01*
X111197844Y-61735361D01*
X110687549Y-61735361D01*
X110688239Y-61728793D01*
X110669375Y-61549318D01*
X110613609Y-61377686D01*
X110605932Y-61364388D01*
X110526678Y-61227118D01*
X110523377Y-61221400D01*
X110402623Y-61087289D01*
X110256625Y-60981215D01*
X110250597Y-60978531D01*
X110250595Y-60978530D01*
X110231522Y-60970038D01*
X111664373Y-60970038D01*
X111665970Y-60975676D01*
X112047068Y-61356774D01*
X112061012Y-61364388D01*
X112062845Y-61364257D01*
X112069460Y-61360006D01*
X112448380Y-60981086D01*
X112455140Y-60968706D01*
X112451629Y-60964016D01*
X112332508Y-60910980D01*
X112320020Y-60906923D01*
X112156516Y-60872168D01*
X112143456Y-60870796D01*
X111976304Y-60870796D01*
X111963244Y-60872168D01*
X111799740Y-60906923D01*
X111787252Y-60910980D01*
X111675117Y-60960906D01*
X111664373Y-60970038D01*
X110231522Y-60970038D01*
X110097793Y-60910498D01*
X110097791Y-60910498D01*
X110091762Y-60907813D01*
X110003502Y-60889053D01*
X109921699Y-60871665D01*
X109921695Y-60871665D01*
X109915242Y-60870293D01*
X109734778Y-60870293D01*
X109728325Y-60871665D01*
X109728321Y-60871665D01*
X109646518Y-60889053D01*
X109558258Y-60907813D01*
X109552229Y-60910497D01*
X109552227Y-60910498D01*
X109399426Y-60978530D01*
X109399424Y-60978531D01*
X109393396Y-60981215D01*
X109388055Y-60985095D01*
X109388054Y-60985096D01*
X109252741Y-61083406D01*
X109252739Y-61083408D01*
X109247397Y-61087289D01*
X109126643Y-61221400D01*
X109123342Y-61227118D01*
X109044089Y-61364388D01*
X109036411Y-61377686D01*
X108980645Y-61549318D01*
X108961781Y-61728793D01*
X105108499Y-61728793D01*
X105108499Y-58734501D01*
X105128501Y-58666380D01*
X105182157Y-58619887D01*
X105234499Y-58608501D01*
X116665499Y-58608501D01*
X116733620Y-58628503D01*
G37*
G04 #@! TD.AperFunction*
M02*
