<?xml version="1.0" standalone="no"?>
 <!DOCTYPE svg PUBLIC "-//W3C//DTD SVG 1.1//EN" 
 "http://www.w3.org/Graphics/SVG/1.1/DTD/svg11.dtd"> 
<svg
  xmlns:svg="http://www.w3.org/2000/svg"
  xmlns="http://www.w3.org/2000/svg"
  xmlns:xlink="http://www.w3.org/1999/xlink"
  version="1.1"
  width="13.200380cm" height="15.001240cm" viewBox="0 0 51970 59060">
<title>SVG Picture created as mlx90640-breakout.svg date 2023/01/25 09:59:40 </title>
  <desc>Picture generated by Eeschema-SVG </desc>
<g style="fill:#000000; fill-opacity:1.000000;stroke:#000000; stroke-opacity:1.000000;
stroke-linecap:round; stroke-linejoin:round;"
 transform="translate(0 0) scale(1 1)">
</g>
<g style="fill:#840000; fill-opacity:0.0; 
stroke:#840000; stroke-width:0.000000; stroke-opacity:1; 
stroke-linecap:round; stroke-linejoin:round;">
</g>
<g style="fill:#840000; fill-opacity:0.0; 
stroke:#840000; stroke-width:60.000000; stroke-opacity:1; 
stroke-linecap:round; stroke-linejoin:round;">
<rect x="4725.905512" y="41737.165354" width="42519.685039" height="12598.425197" rx="0.000000" />
<rect x="3937.007874" y="3937.007874" width="44095.984252" height="51185.984252" rx="0.000000" />
<rect x="4724.409449" y="4724.409449" width="42521.181102" height="49611.181102" rx="0.000000" />
<path d="M23622 4724
L23622 3937
" />
<path d="M43307 4724
L43307 3937
" />
<text x="13779.527559" y="4586.614173"
textLength="617.440945" font-size="682.401575" lengthAdjust="spacingAndGlyphs"
text-anchor="start" opacity="0">1</text>
<g class="stroked-text"><desc>1</desc>
<path d="M14199 4562
L13907 4562
" />
<path d="M14053 4562
L14053 4050
L14004 4123
L13955 4172
L13907 4196
" />
</g><text x="33464.566929" y="4586.614173"
textLength="547.440945" font-size="682.401575" lengthAdjust="spacingAndGlyphs"
text-anchor="start" opacity="0">2</text>
<g class="stroked-text"><desc>2</desc>
<path d="M33592 4099
L33616 4074
L33665 4050
L33787 4050
L33835 4074
L33860 4099
L33884 4147
L33884 4196
L33860 4269
L33567 4562
L33884 4562
" />
</g><path d="M23622 54335
L23622 55122
" />
<path d="M43307 54335
L43307 55122
" />
<text x="13779.527559" y="54985.196850"
textLength="547.440945" font-size="682.401575" lengthAdjust="spacingAndGlyphs"
text-anchor="start" opacity="0">1</text>
<g class="stroked-text"><desc>1</desc>
<path d="M14199 54960
L13907 54960
" />
<path d="M14053 54960
L14053 54448
L14004 54522
L13955 54570
L13907 54595
" />
</g><text x="33464.566929" y="54985.196850"
textLength="547.440945" font-size="682.401575" lengthAdjust="spacingAndGlyphs"
text-anchor="start" opacity="0">2</text>
<g class="stroked-text"><desc>2</desc>
<path d="M33592 54497
L33616 54473
L33665 54448
L33787 54448
L33835 54473
L33860 54497
L33884 54546
L33884 54595
L33860 54668
L33567 54960
L33884 54960
" />
</g><path d="M3937 23622
L4724 23622
" />
<path d="M3937 43307
L4724 43307
" />
<text x="4330.708661" y="14035.433071"
textLength="498.700787" font-size="682.401575" lengthAdjust="spacingAndGlyphs"
text-anchor="middle" opacity="0">A</text>
<g class="stroked-text"><desc>A</desc>
<path d="M4208 13864
L4452 13864
" />
<path d="M4160 14011
L4330 13499
L4501 14011
" />
</g><text x="4330.708661" y="33720.472441"
textLength="571.811024" font-size="682.401575" lengthAdjust="spacingAndGlyphs"
text-anchor="middle" opacity="0">B</text>
<g class="stroked-text"><desc>B</desc>
<path d="M4367 33427
L4440 33452
L4464 33476
L4489 33525
L4489 33598
L4464 33647
L4440 33671
L4391 33696
L4196 33696
L4196 33184
L4367 33184
L4415 33208
L4440 33233
L4464 33281
L4464 33330
L4440 33379
L4415 33403
L4367 33427
L4196 33427
" />
</g><text x="4330.708661" y="53405.511811"
textLength="571.811024" font-size="682.401575" lengthAdjust="spacingAndGlyphs"
text-anchor="middle" opacity="0">C</text>
<g class="stroked-text"><desc>C</desc>
<path d="M4489 53332
L4464 53356
L4391 53381
L4342 53381
L4269 53356
L4221 53307
L4196 53259
L4172 53161
L4172 53088
L4196 52991
L4221 52942
L4269 52893
L4342 52869
L4391 52869
L4464 52893
L4489 52918
" />
</g><path d="M48032 23622
L47245 23622
" />
<path d="M48032 43307
L47245 43307
" />
<text x="47639.291339" y="14035.433071"
textLength="498.700787" font-size="682.401575" lengthAdjust="spacingAndGlyphs"
text-anchor="middle" opacity="0">A</text>
<g class="stroked-text"><desc>A</desc>
<path d="M47517 13864
L47761 13864
" />
<path d="M47468 14011
L47639 13499
L47809 14011
" />
</g><text x="47639.291339" y="33720.472441"
textLength="571.811024" font-size="682.401575" lengthAdjust="spacingAndGlyphs"
text-anchor="middle" opacity="0">B</text>
<g class="stroked-text"><desc>B</desc>
<path d="M47675 33427
L47748 33452
L47773 33476
L47797 33525
L47797 33598
L47773 33647
L47748 33671
L47700 33696
L47505 33696
L47505 33184
L47675 33184
L47724 33208
L47748 33233
L47773 33281
L47773 33330
L47748 33379
L47724 33403
L47675 33427
L47505 33427
" />
</g><text x="47639.291339" y="53405.511811"
textLength="571.811024" font-size="682.401575" lengthAdjust="spacingAndGlyphs"
text-anchor="middle" opacity="0">C</text>
<g class="stroked-text"><desc>C</desc>
<path d="M47797 53332
L47773 53356
L47700 53381
L47651 53381
L47578 53356
L47529 53307
L47505 53259
L47480 53161
L47480 53088
L47505 52991
L47529 52942
L47578 52893
L47651 52869
L47700 52869
L47773 52893
L47797 52918
" />
</g><text x="13781.023622" y="52701.732283"
textLength="8721.417323" font-size="787.401575" lengthAdjust="spacingAndGlyphs"
text-anchor="start" opacity="0">Date: 2023-01-16</text>
<g class="stroked-text"><desc>Date: 2023-01-16</desc>
<path d="M13951 52673
L13951 52083
L14092 52083
L14176 52111
L14232 52167
L14260 52223
L14289 52336
L14289 52420
L14260 52532
L14232 52589
L14176 52645
L14092 52673
L13951 52673
" />
<path d="M14795 52673
L14795 52364
L14767 52308
L14710 52279
L14598 52279
L14542 52308
" />
<path d="M14795 52645
L14739 52673
L14598 52673
L14542 52645
L14514 52589
L14514 52532
L14542 52476
L14598 52448
L14739 52448
L14795 52420
" />
<path d="M14992 52279
L15217 52279
" />
<path d="M15076 52083
L15076 52589
L15104 52645
L15160 52673
L15217 52673
" />
<path d="M15638 52645
L15582 52673
L15470 52673
L15413 52645
L15385 52589
L15385 52364
L15413 52308
L15470 52279
L15582 52279
L15638 52308
L15667 52364
L15667 52420
L15385 52476
" />
<path d="M15920 52617
L15948 52645
L15920 52673
L15892 52645
L15920 52617
L15920 52673
" />
<path d="M15920 52308
L15948 52336
L15920 52364
L15892 52336
L15920 52308
L15920 52364
" />
<path d="M16623 52139
L16651 52111
L16707 52083
L16848 52083
L16904 52111
L16932 52139
L16960 52195
L16960 52251
L16932 52336
L16595 52673
L16960 52673
" />
<path d="M17326 52083
L17382 52083
L17438 52111
L17466 52139
L17494 52195
L17523 52308
L17523 52448
L17494 52561
L17466 52617
L17438 52645
L17382 52673
L17326 52673
L17269 52645
L17241 52617
L17213 52561
L17185 52448
L17185 52308
L17213 52195
L17241 52139
L17269 52111
L17326 52083
" />
<path d="M17748 52139
L17776 52111
L17832 52083
L17972 52083
L18029 52111
L18057 52139
L18085 52195
L18085 52251
L18057 52336
L17719 52673
L18085 52673
" />
<path d="M18282 52083
L18647 52083
L18451 52308
L18535 52308
L18591 52336
L18619 52364
L18647 52420
L18647 52561
L18619 52617
L18591 52645
L18535 52673
L18366 52673
L18310 52645
L18282 52617
" />
<path d="M18900 52448
L19350 52448
" />
<path d="M19744 52083
L19800 52083
L19857 52111
L19885 52139
L19913 52195
L19941 52308
L19941 52448
L19913 52561
L19885 52617
L19857 52645
L19800 52673
L19744 52673
L19688 52645
L19660 52617
L19632 52561
L19604 52448
L19604 52308
L19632 52195
L19660 52139
L19688 52111
L19744 52083
" />
<path d="M20503 52673
L20166 52673
" />
<path d="M20335 52673
L20335 52083
L20278 52167
L20222 52223
L20166 52251
" />
<path d="M20757 52448
L21206 52448
" />
<path d="M21797 52673
L21460 52673
" />
<path d="M21628 52673
L21628 52083
L21572 52167
L21516 52223
L21460 52251
" />
<path d="M22303 52083
L22191 52083
L22134 52111
L22106 52139
L22050 52223
L22022 52336
L22022 52561
L22050 52617
L22078 52645
L22134 52673
L22247 52673
L22303 52645
L22331 52617
L22359 52561
L22359 52420
L22331 52364
L22303 52336
L22247 52308
L22134 52308
L22078 52336
L22050 52364
L22022 52420
" />
</g><path d="M4725 52957
L47245 52957
" />
<text x="5119.606299" y="53804.094488"
textLength="12236.614173" font-size="787.401575" lengthAdjust="spacingAndGlyphs"
text-anchor="start" opacity="0">KiCad E.D.A.  kicad (6.0.7)</text>
<g class="stroked-text"><desc>KiCad E.D.A.  kicad (6.0.7)</desc>
<path d="M5290 53775
L5290 53185
" />
<path d="M5627 53775
L5374 53438
" />
<path d="M5627 53185
L5290 53522
" />
<path d="M5880 53775
L5880 53382
" />
<path d="M5880 53185
L5852 53213
L5880 53241
L5908 53213
L5880 53185
L5880 53241
" />
<path d="M6499 53719
L6471 53747
L6386 53775
L6330 53775
L6246 53747
L6190 53691
L6161 53635
L6133 53522
L6133 53438
L6161 53326
L6190 53269
L6246 53213
L6330 53185
L6386 53185
L6471 53213
L6499 53241
" />
<path d="M7005 53775
L7005 53466
L6977 53410
L6921 53382
L6808 53382
L6752 53410
" />
<path d="M7005 53747
L6949 53775
L6808 53775
L6752 53747
L6724 53691
L6724 53635
L6752 53579
L6808 53550
L6949 53550
L7005 53522
" />
<path d="M7539 53775
L7539 53185
" />
<path d="M7539 53747
L7483 53775
L7371 53775
L7314 53747
L7286 53719
L7258 53663
L7258 53494
L7286 53438
L7314 53410
L7371 53382
L7483 53382
L7539 53410
" />
<path d="M8271 53466
L8467 53466
" />
<path d="M8552 53775
L8271 53775
L8271 53185
L8552 53185
" />
<path d="M8805 53719
L8833 53747
L8805 53775
L8777 53747
L8805 53719
L8805 53775
" />
<path d="M9086 53775
L9086 53185
L9227 53185
L9311 53213
L9367 53269
L9395 53326
L9424 53438
L9424 53522
L9395 53635
L9367 53691
L9311 53747
L9227 53775
L9086 53775
" />
<path d="M9677 53719
L9705 53747
L9677 53775
L9649 53747
L9677 53719
L9677 53775
" />
<path d="M9930 53607
L10211 53607
" />
<path d="M9874 53775
L10070 53185
L10267 53775
" />
<path d="M10464 53719
L10492 53747
L10464 53775
L10436 53747
L10464 53719
L10464 53775
" />
<path d="M11645 53775
L11645 53185
" />
<path d="M11701 53550
L11870 53775
" />
<path d="M11870 53382
L11645 53607
" />
<path d="M12123 53775
L12123 53382
" />
<path d="M12123 53185
L12095 53213
L12123 53241
L12151 53213
L12123 53185
L12123 53241
" />
<path d="M12658 53747
L12601 53775
L12489 53775
L12433 53747
L12404 53719
L12376 53663
L12376 53494
L12404 53438
L12433 53410
L12489 53382
L12601 53382
L12658 53410
" />
<path d="M13164 53775
L13164 53466
L13136 53410
L13079 53382
L12967 53382
L12911 53410
" />
<path d="M13164 53747
L13107 53775
L12967 53775
L12911 53747
L12882 53691
L12882 53635
L12911 53579
L12967 53550
L13107 53550
L13164 53522
" />
<path d="M13698 53775
L13698 53185
" />
<path d="M13698 53747
L13642 53775
L13529 53775
L13473 53747
L13445 53719
L13417 53663
L13417 53494
L13445 53438
L13473 53410
L13529 53382
L13642 53382
L13698 53410
" />
<path d="M14598 54000
L14570 53972
L14514 53888
L14485 53832
L14457 53747
L14429 53607
L14429 53494
L14457 53354
L14485 53269
L14514 53213
L14570 53129
L14598 53101
" />
<path d="M15076 53185
L14963 53185
L14907 53213
L14879 53241
L14823 53326
L14795 53438
L14795 53663
L14823 53719
L14851 53747
L14907 53775
L15020 53775
L15076 53747
L15104 53719
L15132 53663
L15132 53522
L15104 53466
L15076 53438
L15020 53410
L14907 53410
L14851 53438
L14823 53466
L14795 53522
" />
<path d="M15385 53719
L15413 53747
L15385 53775
L15357 53747
L15385 53719
L15385 53775
" />
<path d="M15779 53185
L15835 53185
L15892 53213
L15920 53241
L15948 53297
L15976 53410
L15976 53550
L15948 53663
L15920 53719
L15892 53747
L15835 53775
L15779 53775
L15723 53747
L15695 53719
L15667 53663
L15638 53550
L15638 53410
L15667 53297
L15695 53241
L15723 53213
L15779 53185
" />
<path d="M16229 53719
L16257 53747
L16229 53775
L16201 53747
L16229 53719
L16229 53775
" />
<path d="M16454 53185
L16848 53185
L16595 53775
" />
<path d="M17016 54000
L17044 53972
L17101 53888
L17129 53832
L17157 53747
L17185 53607
L17185 53494
L17157 53354
L17129 53269
L17101 53213
L17044 53129
L17016 53101
" />
</g><path d="M4725 51776
L47245 51776
" />
</g>
<g style="fill:#840000; fill-opacity:0.0; 
stroke:#840000; stroke-width:118.110236; stroke-opacity:1; 
stroke-linecap:round; stroke-linejoin:round;">
<text x="38584.173228" y="52701.732283"
textLength="3743.897638" font-size="787.401575" lengthAdjust="spacingAndGlyphs"
text-anchor="start" opacity="0">Rev: 1.2</text>
<g class="stroked-text"><desc>Rev: 1.2</desc>
<path d="M39138 52673
L38942 52392
" />
<path d="M38801 52673
L38801 52083
L39026 52083
L39082 52111
L39110 52139
L39138 52195
L39138 52279
L39110 52336
L39082 52364
L39026 52392
L38801 52392
" />
<path d="M39617 52645
L39560 52673
L39448 52673
L39392 52645
L39363 52589
L39363 52364
L39392 52308
L39448 52279
L39560 52279
L39617 52308
L39645 52364
L39645 52420
L39363 52476
" />
<path d="M39842 52279
L39982 52673
L40123 52279
" />
<path d="M40348 52617
L40376 52645
L40348 52673
L40320 52645
L40348 52617
L40348 52673
" />
<path d="M40348 52308
L40376 52336
L40348 52364
L40320 52336
L40348 52308
L40348 52364
" />
<path d="M41388 52673
L41051 52673
" />
<path d="M41220 52673
L41220 52083
L41163 52167
L41107 52223
L41051 52251
" />
<path d="M41641 52617
L41669 52645
L41641 52673
L41613 52645
L41641 52617
L41641 52673
" />
<path d="M41894 52139
L41923 52111
L41979 52083
L42119 52083
L42176 52111
L42204 52139
L42232 52195
L42232 52251
L42204 52336
L41866 52673
L42232 52673
" />
</g></g>
<g style="fill:#840000; fill-opacity:0.0; 
stroke:#840000; stroke-width:60.000000; stroke-opacity:1; 
stroke-linecap:round; stroke-linejoin:round;">
<text x="5119.606299" y="52701.732283"
textLength="4681.102362" font-size="787.401575" lengthAdjust="spacingAndGlyphs"
text-anchor="start" opacity="0">Size: User</text>
<g class="stroked-text"><desc>Size: User</desc>
<path d="M5262 52645
L5346 52673
L5487 52673
L5543 52645
L5571 52617
L5599 52561
L5599 52504
L5571 52448
L5543 52420
L5487 52392
L5374 52364
L5318 52336
L5290 52308
L5262 52251
L5262 52195
L5290 52139
L5318 52111
L5374 52083
L5515 52083
L5599 52111
" />
<path d="M5852 52673
L5852 52279
" />
<path d="M5852 52083
L5824 52111
L5852 52139
L5880 52111
L5852 52083
L5852 52139
" />
<path d="M6077 52279
L6386 52279
L6077 52673
L6386 52673
" />
<path d="M6836 52645
L6780 52673
L6668 52673
L6611 52645
L6583 52589
L6583 52364
L6611 52308
L6668 52279
L6780 52279
L6836 52308
L6865 52364
L6865 52420
L6583 52476
" />
<path d="M7118 52617
L7146 52645
L7118 52673
L7089 52645
L7118 52617
L7118 52673
" />
<path d="M7118 52308
L7146 52336
L7118 52364
L7089 52336
L7118 52308
L7118 52364
" />
<path d="M7849 52083
L7849 52561
L7877 52617
L7905 52645
L7961 52673
L8074 52673
L8130 52645
L8158 52617
L8186 52561
L8186 52083
" />
<path d="M8439 52645
L8496 52673
L8608 52673
L8664 52645
L8692 52589
L8692 52561
L8664 52504
L8608 52476
L8524 52476
L8467 52448
L8439 52392
L8439 52364
L8467 52308
L8524 52279
L8608 52279
L8664 52308
" />
<path d="M9170 52645
L9114 52673
L9002 52673
L8945 52645
L8917 52589
L8917 52364
L8945 52308
L9002 52279
L9114 52279
L9170 52308
L9199 52364
L9199 52420
L8917 52476
" />
<path d="M9452 52673
L9452 52279
" />
<path d="M9452 52392
L9480 52336
L9508 52308
L9564 52279
L9620 52279
" />
</g><text x="38584.173228" y="53804.094488"
textLength="3350.196850" font-size="787.401575" lengthAdjust="spacingAndGlyphs"
text-anchor="start" opacity="0">Id: 1/1</text>
<g class="stroked-text"><desc>Id: 1/1</desc>
<path d="M38754 53775
L38754 53185
" />
<path d="M39289 53775
L39289 53185
" />
<path d="M39289 53747
L39232 53775
L39120 53775
L39064 53747
L39035 53719
L39007 53663
L39007 53494
L39035 53438
L39064 53410
L39120 53382
L39232 53382
L39289 53410
" />
<path d="M39570 53719
L39598 53747
L39570 53775
L39542 53747
L39570 53719
L39570 53775
" />
<path d="M39570 53410
L39598 53438
L39570 53466
L39542 53438
L39570 53410
L39570 53466
" />
<path d="M40610 53775
L40273 53775
" />
<path d="M40442 53775
L40442 53185
L40385 53269
L40329 53326
L40273 53354
" />
<path d="M41285 53157
L40779 53916
" />
<path d="M41791 53775
L41454 53775
" />
<path d="M41623 53775
L41623 53185
L41566 53269
L41510 53326
L41454 53354
" />
</g><path d="M4725 50201
L47245 50201
" />
</g>
<g style="fill:#840000; fill-opacity:0.0; 
stroke:#840000; stroke-width:157.480315; stroke-opacity:1; 
stroke-linecap:round; stroke-linejoin:round;">
<text x="5119.606299" y="51304.094488"
textLength="15629.055118" font-size="1049.842520" lengthAdjust="spacingAndGlyphs"
text-anchor="start" opacity="0">Title: mlx90640-breakout</text>
<g class="stroked-text"><desc>Title: mlx90640-breakout</desc>
<path d="M5400 50479
L5850 50479
" />
<path d="M5526 51266
L5625 50479
" />
<path d="M6014 51266
L6079 50741
" />
<path d="M6112 50479
L6070 50516
L6103 50554
L6145 50516
L6112 50479
L6103 50554
" />
<path d="M6342 50741
L6642 50741
" />
<path d="M6487 50479
L6403 51154
L6431 51229
L6501 51266
L6576 51266
" />
<path d="M6951 51266
L6881 51229
L6852 51154
L6937 50479
" />
<path d="M7556 51229
L7476 51266
L7326 51266
L7256 51229
L7227 51154
L7265 50854
L7312 50779
L7392 50741
L7541 50741
L7612 50779
L7640 50854
L7631 50929
L7246 51004
" />
<path d="M7935 51191
L7968 51229
L7926 51266
L7893 51229
L7935 51191
L7926 51266
" />
<path d="M7987 50779
L8020 50816
L7977 50854
L7945 50816
L7987 50779
L7977 50854
" />
<path d="M8901 51266
L8966 50741
" />
<path d="M8957 50816
L8999 50779
L9079 50741
L9191 50741
L9262 50779
L9290 50854
L9238 51266
" />
<path d="M9290 50854
L9337 50779
L9416 50741
L9529 50741
L9599 50779
L9627 50854
L9576 51266
" />
<path d="M10063 51266
L9993 51229
L9965 51154
L10049 50479
" />
<path d="M10288 51266
L10766 50741
" />
<path d="M10354 50741
L10700 51266
" />
<path d="M11038 51266
L11188 51266
L11268 51229
L11310 51191
L11399 51079
L11455 50929
L11493 50629
L11464 50554
L11432 50516
L11361 50479
L11211 50479
L11132 50516
L11089 50554
L11043 50629
L11019 50816
L11047 50891
L11080 50929
L11150 50966
L11300 50966
L11380 50929
L11422 50891
L11469 50816
" />
<path d="M11999 50479
L12074 50479
L12144 50516
L12177 50554
L12205 50629
L12224 50779
L12200 50966
L12144 51116
L12097 51191
L12055 51229
L11975 51266
L11900 51266
L11830 51229
L11797 51191
L11769 51116
L11750 50966
L11774 50779
L11830 50629
L11877 50554
L11919 50516
L11999 50479
" />
<path d="M12936 50479
L12786 50479
L12706 50516
L12664 50554
L12575 50666
L12519 50816
L12481 51116
L12510 51191
L12542 51229
L12613 51266
L12763 51266
L12842 51229
L12885 51191
L12931 51116
L12955 50929
L12927 50854
L12894 50816
L12824 50779
L12674 50779
L12594 50816
L12552 50854
L12505 50929
" />
<path d="M13653 50741
L13588 51266
" />
<path d="M13503 50441
L13245 51004
L13733 51004
" />
<path d="M14248 50479
L14323 50479
L14394 50516
L14427 50554
L14455 50629
L14473 50779
L14450 50966
L14394 51116
L14347 51191
L14305 51229
L14225 51266
L14150 51266
L14080 51229
L14047 51191
L14019 51116
L14000 50966
L14023 50779
L14080 50629
L14127 50554
L14169 50516
L14248 50479
" />
<path d="M14787 50966
L15387 50966
" />
<path d="M15725 51266
L15823 50479
" />
<path d="M15786 50779
L15865 50741
L16015 50741
L16086 50779
L16119 50816
L16147 50891
L16119 51116
L16072 51191
L16029 51229
L15950 51266
L15800 51266
L15730 51229
" />
<path d="M16437 51266
L16503 50741
" />
<path d="M16484 50891
L16531 50816
L16573 50779
L16653 50741
L16728 50741
" />
<path d="M17229 51229
L17150 51266
L17000 51266
L16929 51229
L16901 51154
L16939 50854
L16986 50779
L17065 50741
L17215 50741
L17286 50779
L17314 50854
L17304 50929
L16920 51004
" />
<path d="M17937 51266
L17989 50854
L17960 50779
L17890 50741
L17740 50741
L17661 50779
" />
<path d="M17942 51229
L17862 51266
L17675 51266
L17604 51229
L17576 51154
L17586 51079
L17632 51004
L17712 50966
L17900 50966
L17979 50929
" />
<path d="M18312 51266
L18410 50479
" />
<path d="M18425 50966
L18612 51266
" />
<path d="M18678 50741
L18340 51041
" />
<path d="M19062 51266
L18992 51229
L18959 51191
L18931 51116
L18959 50891
L19006 50816
L19048 50779
L19128 50741
L19240 50741
L19310 50779
L19343 50816
L19371 50891
L19343 51116
L19296 51191
L19254 51229
L19174 51266
L19062 51266
" />
<path d="M20065 50741
L19999 51266
" />
<path d="M19727 50741
L19676 51154
L19704 51229
L19774 51266
L19887 51266
L19966 51229
L20009 51191
" />
<path d="M20327 50741
L20627 50741
" />
<path d="M20473 50479
L20388 51154
L20416 51229
L20487 51266
L20562 51266
" />
</g></g>
<g style="fill:#840000; fill-opacity:0.0; 
stroke:#840000; stroke-width:60.000000; stroke-opacity:1; 
stroke-linecap:round; stroke-linejoin:round;">
<text x="5119.606299" y="49788.346457"
textLength="16065.236220" font-size="787.401575" lengthAdjust="spacingAndGlyphs"
text-anchor="start" opacity="0">File: mlx90640-breakout.kicad_sch</text>
<g class="stroked-text"><desc>File: mlx90640-breakout.kicad_sch</desc>
<path d="M5487 49450
L5290 49450
" />
<path d="M5290 49760
L5290 49169
L5571 49169
" />
<path d="M5796 49760
L5796 49366
" />
<path d="M5796 49169
L5768 49197
L5796 49225
L5824 49197
L5796 49169
L5796 49225
" />
<path d="M6161 49760
L6105 49732
L6077 49675
L6077 49169
" />
<path d="M6611 49732
L6555 49760
L6443 49760
L6386 49732
L6358 49675
L6358 49450
L6386 49394
L6443 49366
L6555 49366
L6611 49394
L6640 49450
L6640 49507
L6358 49563
" />
<path d="M6893 49703
L6921 49732
L6893 49760
L6865 49732
L6893 49703
L6893 49760
" />
<path d="M6893 49394
L6921 49422
L6893 49450
L6865 49422
L6893 49394
L6893 49450
" />
<path d="M7624 49760
L7624 49366
" />
<path d="M7624 49422
L7652 49394
L7708 49366
L7792 49366
L7849 49394
L7877 49450
L7877 49760
" />
<path d="M7877 49450
L7905 49394
L7961 49366
L8046 49366
L8102 49394
L8130 49450
L8130 49760
" />
<path d="M8496 49760
L8439 49732
L8411 49675
L8411 49169
" />
<path d="M8664 49760
L8974 49366
" />
<path d="M8664 49366
L8974 49760
" />
<path d="M9227 49760
L9339 49760
L9395 49732
L9424 49703
L9480 49619
L9508 49507
L9508 49282
L9480 49225
L9452 49197
L9395 49169
L9283 49169
L9227 49197
L9199 49225
L9170 49282
L9170 49422
L9199 49478
L9227 49507
L9283 49535
L9395 49535
L9452 49507
L9480 49478
L9508 49422
" />
<path d="M9874 49169
L9930 49169
L9986 49197
L10014 49225
L10042 49282
L10070 49394
L10070 49535
L10042 49647
L10014 49703
L9986 49732
L9930 49760
L9874 49760
L9817 49732
L9789 49703
L9761 49647
L9733 49535
L9733 49394
L9761 49282
L9789 49225
L9817 49197
L9874 49169
" />
<path d="M10577 49169
L10464 49169
L10408 49197
L10380 49225
L10323 49310
L10295 49422
L10295 49647
L10323 49703
L10352 49732
L10408 49760
L10520 49760
L10577 49732
L10605 49703
L10633 49647
L10633 49507
L10605 49450
L10577 49422
L10520 49394
L10408 49394
L10352 49422
L10323 49450
L10295 49507
" />
<path d="M11139 49366
L11139 49760
" />
<path d="M10998 49141
L10858 49563
L11223 49563
" />
<path d="M11561 49169
L11617 49169
L11673 49197
L11701 49225
L11730 49282
L11758 49394
L11758 49535
L11730 49647
L11701 49703
L11673 49732
L11617 49760
L11561 49760
L11505 49732
L11476 49703
L11448 49647
L11420 49535
L11420 49394
L11448 49282
L11476 49225
L11505 49197
L11561 49169
" />
<path d="M12011 49535
L12461 49535
" />
<path d="M12742 49760
L12742 49169
" />
<path d="M12742 49394
L12798 49366
L12911 49366
L12967 49394
L12995 49422
L13023 49478
L13023 49647
L12995 49703
L12967 49732
L12911 49760
L12798 49760
L12742 49732
" />
<path d="M13276 49760
L13276 49366
" />
<path d="M13276 49478
L13304 49422
L13332 49394
L13389 49366
L13445 49366
" />
<path d="M13867 49732
L13811 49760
L13698 49760
L13642 49732
L13614 49675
L13614 49450
L13642 49394
L13698 49366
L13811 49366
L13867 49394
L13895 49450
L13895 49507
L13614 49563
" />
<path d="M14401 49760
L14401 49450
L14373 49394
L14317 49366
L14204 49366
L14148 49394
" />
<path d="M14401 49732
L14345 49760
L14204 49760
L14148 49732
L14120 49675
L14120 49619
L14148 49563
L14204 49535
L14345 49535
L14401 49507
" />
<path d="M14682 49760
L14682 49169
" />
<path d="M14739 49535
L14907 49760
" />
<path d="M14907 49366
L14682 49591
" />
<path d="M15245 49760
L15188 49732
L15160 49703
L15132 49647
L15132 49478
L15160 49422
L15188 49394
L15245 49366
L15329 49366
L15385 49394
L15413 49422
L15442 49478
L15442 49647
L15413 49703
L15385 49732
L15329 49760
L15245 49760
" />
<path d="M15948 49366
L15948 49760
" />
<path d="M15695 49366
L15695 49675
L15723 49732
L15779 49760
L15863 49760
L15920 49732
L15948 49703
" />
<path d="M16145 49366
L16370 49366
" />
<path d="M16229 49169
L16229 49675
L16257 49732
L16313 49760
L16370 49760
" />
<path d="M16566 49703
L16595 49732
L16566 49760
L16538 49732
L16566 49703
L16566 49760
" />
<path d="M16848 49760
L16848 49169
" />
<path d="M16904 49535
L17073 49760
" />
<path d="M17073 49366
L16848 49591
" />
<path d="M17326 49760
L17326 49366
" />
<path d="M17326 49169
L17298 49197
L17326 49225
L17354 49197
L17326 49169
L17326 49225
" />
<path d="M17860 49732
L17804 49760
L17691 49760
L17635 49732
L17607 49703
L17579 49647
L17579 49478
L17607 49422
L17635 49394
L17691 49366
L17804 49366
L17860 49394
" />
<path d="M18366 49760
L18366 49450
L18338 49394
L18282 49366
L18169 49366
L18113 49394
" />
<path d="M18366 49732
L18310 49760
L18169 49760
L18113 49732
L18085 49675
L18085 49619
L18113 49563
L18169 49535
L18310 49535
L18366 49507
" />
<path d="M18900 49760
L18900 49169
" />
<path d="M18900 49732
L18844 49760
L18732 49760
L18676 49732
L18647 49703
L18619 49647
L18619 49478
L18647 49422
L18676 49394
L18732 49366
L18844 49366
L18900 49394
" />
<path d="M19041 49816
L19491 49816
" />
<path d="M19604 49732
L19660 49760
L19772 49760
L19829 49732
L19857 49675
L19857 49647
L19829 49591
L19772 49563
L19688 49563
L19632 49535
L19604 49478
L19604 49450
L19632 49394
L19688 49366
L19772 49366
L19829 49394
" />
<path d="M20363 49732
L20307 49760
L20194 49760
L20138 49732
L20110 49703
L20082 49647
L20082 49478
L20110 49422
L20138 49394
L20194 49366
L20307 49366
L20363 49394
" />
<path d="M20616 49760
L20616 49169
" />
<path d="M20869 49760
L20869 49450
L20841 49394
L20785 49366
L20700 49366
L20644 49394
L20616 49422
" />
</g><path d="M4725 47839
L47245 47839
" />
<text x="5119.606299" y="48725.354331"
textLength="3856.417323" font-size="787.401575" lengthAdjust="spacingAndGlyphs"
text-anchor="start" opacity="0">Sheet: /</text>
<g class="stroked-text"><desc>Sheet: /</desc>
<path d="M5262 48669
L5346 48697
L5487 48697
L5543 48669
L5571 48640
L5599 48584
L5599 48528
L5571 48472
L5543 48444
L5487 48415
L5374 48387
L5318 48359
L5290 48331
L5262 48275
L5262 48219
L5290 48162
L5318 48134
L5374 48106
L5515 48106
L5599 48134
" />
<path d="M5852 48697
L5852 48106
" />
<path d="M6105 48697
L6105 48387
L6077 48331
L6021 48303
L5937 48303
L5880 48331
L5852 48359
" />
<path d="M6611 48669
L6555 48697
L6443 48697
L6386 48669
L6358 48612
L6358 48387
L6386 48331
L6443 48303
L6555 48303
L6611 48331
L6640 48387
L6640 48444
L6358 48500
" />
<path d="M7118 48669
L7061 48697
L6949 48697
L6893 48669
L6865 48612
L6865 48387
L6893 48331
L6949 48303
L7061 48303
L7118 48331
L7146 48387
L7146 48444
L6865 48500
" />
<path d="M7314 48303
L7539 48303
" />
<path d="M7399 48106
L7399 48612
L7427 48669
L7483 48697
L7539 48697
" />
<path d="M7736 48640
L7764 48669
L7736 48697
L7708 48669
L7736 48640
L7736 48697
" />
<path d="M7736 48331
L7764 48359
L7736 48387
L7708 48359
L7736 48331
L7736 48387
" />
<path d="M8889 48078
L8383 48837
" />
</g></g>
<g style="fill:#840000; fill-opacity:0.0; 
stroke:#840000; stroke-width:118.110236; stroke-opacity:1; 
stroke-linecap:round; stroke-linejoin:round;">
<text x="5119.606299" y="47544.251969"
textLength="5065.629921" font-size="787.401575" lengthAdjust="spacingAndGlyphs"
text-anchor="start" opacity="0">Melexis Inc</text>
<g class="stroked-text"><desc>Melexis Inc</desc>
<path d="M5336 47516
L5336 46925
L5533 47347
L5730 46925
L5730 47516
" />
<path d="M6236 47487
L6180 47516
L6068 47516
L6011 47487
L5983 47431
L5983 47206
L6011 47150
L6068 47122
L6180 47122
L6236 47150
L6264 47206
L6264 47263
L5983 47319
" />
<path d="M6602 47516
L6546 47487
L6518 47431
L6518 46925
" />
<path d="M7052 47487
L6996 47516
L6883 47516
L6827 47487
L6799 47431
L6799 47206
L6827 47150
L6883 47122
L6996 47122
L7052 47150
L7080 47206
L7080 47263
L6799 47319
" />
<path d="M7277 47516
L7586 47122
" />
<path d="M7277 47122
L7586 47516
" />
<path d="M7811 47516
L7811 47122
" />
<path d="M7811 46925
L7783 46953
L7811 46981
L7839 46953
L7811 46925
L7811 46981
" />
<path d="M8064 47487
L8120 47516
L8233 47516
L8289 47487
L8317 47431
L8317 47403
L8289 47347
L8233 47319
L8149 47319
L8092 47291
L8064 47234
L8064 47206
L8092 47150
L8149 47122
L8233 47122
L8289 47150
" />
<path d="M9020 47516
L9020 46925
" />
<path d="M9302 47122
L9302 47516
" />
<path d="M9302 47178
L9330 47150
L9386 47122
L9470 47122
L9527 47150
L9555 47206
L9555 47516
" />
<path d="M10089 47487
L10033 47516
L9920 47516
L9864 47487
L9836 47459
L9808 47403
L9808 47234
L9836 47178
L9864 47150
L9920 47122
L10033 47122
L10089 47150
" />
</g></g>
<g style="fill:#840000; fill-opacity:0.0; 
stroke:#840000; stroke-width:60.000000; stroke-opacity:1; 
stroke-linecap:round; stroke-linejoin:round;">
<text x="5119.606299" y="46363.149606"
textLength="153.543307" font-size="787.401575" lengthAdjust="spacingAndGlyphs"
text-anchor="start" opacity="0"></text>
<g class="stroked-text"><desc></desc>
</g><text x="5119.606299" y="45182.047244"
textLength="60.000000" font-size="787.401575" lengthAdjust="spacingAndGlyphs"
text-anchor="start" opacity="0"></text>
<g class="stroked-text"><desc></desc>
</g><text x="5119.606299" y="44000.944882"
textLength="60.000000" font-size="787.401575" lengthAdjust="spacingAndGlyphs"
text-anchor="start" opacity="0"></text>
<g class="stroked-text"><desc></desc>
</g><text x="5119.606299" y="42819.842520"
textLength="60.000000" font-size="787.401575" lengthAdjust="spacingAndGlyphs"
text-anchor="start" opacity="0"></text>
<g class="stroked-text"><desc></desc>
</g><path d="M12599 51776
L12599 52957
" />
<path d="M37796 51776
L37796 54335
" />
<g >
</g>
<g style="fill:#840000; fill-opacity:0.0; 
stroke:#840000; stroke-width:100.000000; stroke-opacity:1; 
stroke-linecap:round; stroke-linejoin:round;">
<rect x="38350.000000" y="15000.000000" width="800.000000" height="2000.000000" rx="0.000000" />
</g>
<g style="fill:#840000; fill-opacity:0.0; 
stroke:#840000; stroke-width:60.000000; stroke-opacity:1; 
stroke-linecap:round; stroke-linejoin:round;">
<path d="M38750 15000
L38750 14500
" />
<path d="M38750 17000
L38750 17500
" />
</g>
<g style="fill:#008484; fill-opacity:0.0; 
stroke:#008484; stroke-width:60.000000; stroke-opacity:1; 
stroke-linecap:round; stroke-linejoin:round;">
<text x="39969.330709" y="15921.338583"
textLength="1036.181102" font-size="666.653543" lengthAdjust="spacingAndGlyphs"
text-anchor="middle" opacity="0">R2</text>
<g class="stroked-text"><desc>R2</desc>
<path d="M39885 15897
L39719 15659
" />
<path d="M39600 15897
L39600 15397
L39790 15397
L39838 15421
L39862 15445
L39885 15492
L39885 15564
L39862 15611
L39838 15635
L39790 15659
L39600 15659
" />
<path d="M40076 15445
L40100 15421
L40147 15397
L40266 15397
L40314 15421
L40338 15445
L40362 15492
L40362 15540
L40338 15611
L40052 15897
L40362 15897
" />
</g><text x="40207.440945" y="16920.118110"
textLength="1512.362205" font-size="666.653543" lengthAdjust="spacingAndGlyphs"
text-anchor="middle" opacity="0">4K7</text>
<g class="stroked-text"><desc>4K7</desc>
<path d="M39814 16562
L39814 16896
" />
<path d="M39695 16372
L39576 16729
L39885 16729
" />
<path d="M40076 16896
L40076 16396
" />
<path d="M40362 16896
L40147 16610
" />
<path d="M40362 16396
L40076 16682
" />
<path d="M40528 16396
L40862 16396
L40647 16896
" />
</g></g>
</g>
<g style="fill:#008484; fill-opacity:0.0; 
stroke:#008484; stroke-width:60.000000; stroke-opacity:1; 
stroke-linecap:round; stroke-linejoin:round;">
<g >
</g>
<g style="fill:#840000; fill-opacity:0.0; 
stroke:#840000; stroke-width:60.000000; stroke-opacity:1; 
stroke-linecap:round; stroke-linejoin:round;">
</g>
<g style="fill:#840000; fill-opacity:1.0; 
stroke:#840000; stroke-width:60.000000; stroke-opacity:1; 
stroke-linecap:round; stroke-linejoin:round;">
<rect x="36950.000000" y="10300.000000" width="200.000000" height="400.000000" rx="0.000000" />
</g>
<g style="fill:#840000; fill-opacity:0.0; 
stroke:#840000; stroke-width:60.000000; stroke-opacity:1; 
stroke-linecap:round; stroke-linejoin:round;">
<path d="M37150.698131 10899.999391 A400.000000 400.000000 0.0 0 0 37150.698131 10100.000609" />
</g>
<g style="fill:#840000; fill-opacity:1.0; 
stroke:#840000; stroke-width:0.039370; stroke-opacity:1; 
stroke-linecap:round; stroke-linejoin:round;">
<path d="M37150.698131 10899.999391 A400.000000 400.000000 0.0 0 0 37150.698131 10100.000609 L 37150.000000 10500.000000 Z" />
</g>
<g style="fill:#840000; fill-opacity:0.0; 
stroke:#840000; stroke-width:60.000000; stroke-opacity:1; 
stroke-linecap:round; stroke-linejoin:round;">
<path d="M37150.698131 10899.999391 A400.000000 400.000000 0.0 0 0 37150.698131 10100.000609" />
</g>
<g style="fill:#840000; fill-opacity:1.0; 
stroke:#840000; stroke-width:60.000000; stroke-opacity:1; 
stroke-linecap:round; stroke-linejoin:round;">
<rect x="36550.000000" y="10100.000000" width="400.000000" height="800.000000" rx="0.000000" />
</g>
<g style="fill:#840000; fill-opacity:0.0; 
stroke:#840000; stroke-width:60.000000; stroke-opacity:1; 
stroke-linecap:round; stroke-linejoin:round;">
<path style="fill:#840000; fill-opacity:0.0; 
stroke:#840000; stroke-width:60.000000; stroke-opacity:1; 
stroke-linecap:round; stroke-linejoin:round;fill:none"
d="M 37750.000000,10500.000000
37550.000000,10500.000000
" /> 
<path style="fill:#840000; fill-opacity:0.0; 
stroke:#840000; stroke-width:60.000000; stroke-opacity:1; 
stroke-linecap:round; stroke-linejoin:round;fill:none"
d="M 37150.000000,10900.000000
37150.000000,10100.000000
" /> 
<path style="fill:#840000; fill-opacity:0.0; 
stroke:#840000; stroke-width:60.000000; stroke-opacity:1; 
stroke-linecap:round; stroke-linejoin:round;fill:none"
d="M 36750.000000,10000.000000
36750.000000,10100.000000
" /> 
<path style="fill:#840000; fill-opacity:0.0; 
stroke:#840000; stroke-width:60.000000; stroke-opacity:1; 
stroke-linecap:round; stroke-linejoin:round;fill:none"
d="M 36350.000000,10900.000000
36350.000000,10100.000000
" /> 
<path style="fill:#840000; fill-opacity:0.0; 
stroke:#840000; stroke-width:60.000000; stroke-opacity:1; 
stroke-linecap:round; stroke-linejoin:round;fill:none"
d="M 35750.000000,10500.000000
35950.000000,10500.000000
" /> 
</g>
<g style="fill:#840000; fill-opacity:1.0; 
stroke:#840000; stroke-width:60.000000; stroke-opacity:1; 
stroke-linecap:round; stroke-linejoin:round;">
<rect x="36350.000000" y="10300.000000" width="200.000000" height="400.000000" rx="0.000000" />
</g>
<g style="fill:#840000; fill-opacity:0.0; 
stroke:#840000; stroke-width:60.000000; stroke-opacity:1; 
stroke-linecap:round; stroke-linejoin:round;">
<path d="M36349.301869 10100.000609 A400.000000 400.000000 0.0 0 0 36349.301869 10899.999391" />
</g>
<g style="fill:#840000; fill-opacity:1.0; 
stroke:#840000; stroke-width:0.039370; stroke-opacity:1; 
stroke-linecap:round; stroke-linejoin:round;">
<path d="M36349.301869 10100.000609 A400.000000 400.000000 0.0 0 0 36349.301869 10899.999391 L 36350.000000 10500.000000 Z" />
</g>
<g style="fill:#840000; fill-opacity:0.0; 
stroke:#840000; stroke-width:60.000000; stroke-opacity:1; 
stroke-linecap:round; stroke-linejoin:round;">
<path d="M36349.301869 10100.000609 A400.000000 400.000000 0.0 0 0 36349.301869 10899.999391" />
<path d="M37750 10500
L38750 10500
" />
<text x="38250.000000" y="11100.000000"
textLength="536.181102" font-size="666.653543" lengthAdjust="spacingAndGlyphs"
text-anchor="middle" opacity="0">1</text>
<g class="stroked-text"><desc>1</desc>
<path d="M38392 11076
L38107 11076
" />
<path d="M38250 11076
L38250 10576
L38202 10647
L38154 10695
L38107 10719
" />
</g><path d="M36750 10000
L36750 9000
" />
<g transform="rotate(-90.000000 36850.000000 9500.000000)">
<text x="36850.000000" y="10000.000000"
textLength="536.181102" font-size="666.653543" lengthAdjust="spacingAndGlyphs"
text-anchor="middle" opacity="0">2</text>
</g>
<g class="stroked-text"><desc>2</desc>
<path d="M36873 9642
L36850 9619
L36826 9571
L36826 9452
L36850 9404
L36873 9380
L36921 9357
L36969 9357
L37040 9380
L37326 9666
L37326 9357
" />
</g><path d="M35750 10500
L34750 10500
" />
<text x="35250.000000" y="11100.000000"
textLength="536.181102" font-size="666.653543" lengthAdjust="spacingAndGlyphs"
text-anchor="middle" opacity="0">3</text>
<g class="stroked-text"><desc>3</desc>
<path d="M35083 10576
L35392 10576
L35226 10766
L35297 10766
L35345 10790
L35369 10814
L35392 10861
L35392 10980
L35369 11028
L35345 11052
L35297 11076
L35154 11076
L35107 11052
L35083 11028
" />
</g></g>
<g style="fill:#008484; fill-opacity:0.0; 
stroke:#008484; stroke-width:60.000000; stroke-opacity:1; 
stroke-linecap:round; stroke-linejoin:round;">
<text x="36749.960630" y="11899.370079"
textLength="1417.125984" font-size="666.653543" lengthAdjust="spacingAndGlyphs"
text-anchor="middle" opacity="0">JP1</text>
<g class="stroked-text"><desc>JP1</desc>
<path d="M36333 11375
L36333 11732
L36309 11804
L36261 11851
L36190 11875
L36142 11875
" />
<path d="M36571 11875
L36571 11375
L36761 11375
L36809 11399
L36833 11423
L36857 11470
L36857 11542
L36833 11589
L36809 11613
L36761 11637
L36571 11637
" />
<path d="M37333 11875
L37047 11875
" />
<path d="M37190 11875
L37190 11375
L37142 11446
L37095 11494
L37047 11518
" />
</g><text x="36750.000000" y="12898.149606"
textLength="10631.417323" font-size="666.653543" lengthAdjust="spacingAndGlyphs"
text-anchor="middle" opacity="0">SolderJumper_3_Bridged123</text>
<g class="stroked-text"><desc>SolderJumper_3_Bridged123</desc>
<path d="M31559 12850
L31630 12874
L31750 12874
L31797 12850
L31821 12826
L31845 12779
L31845 12731
L31821 12683
L31797 12660
L31750 12636
L31654 12612
L31607 12588
L31583 12564
L31559 12517
L31559 12469
L31583 12421
L31607 12398
L31654 12374
L31773 12374
L31845 12398
" />
<path d="M32130 12874
L32083 12850
L32059 12826
L32035 12779
L32035 12636
L32059 12588
L32083 12564
L32130 12540
L32202 12540
L32250 12564
L32273 12588
L32297 12636
L32297 12779
L32273 12826
L32250 12850
L32202 12874
L32130 12874
" />
<path d="M32583 12874
L32535 12850
L32511 12802
L32511 12374
" />
<path d="M32988 12874
L32988 12374
" />
<path d="M32988 12850
L32940 12874
L32845 12874
L32797 12850
L32773 12826
L32750 12779
L32750 12636
L32773 12588
L32797 12564
L32845 12540
L32940 12540
L32988 12564
" />
<path d="M33416 12850
L33369 12874
L33273 12874
L33226 12850
L33202 12802
L33202 12612
L33226 12564
L33273 12540
L33369 12540
L33416 12564
L33440 12612
L33440 12660
L33202 12707
" />
<path d="M33654 12874
L33654 12540
" />
<path d="M33654 12636
L33678 12588
L33702 12564
L33750 12540
L33797 12540
" />
<path d="M34107 12374
L34107 12731
L34083 12802
L34035 12850
L33964 12874
L33916 12874
" />
<path d="M34559 12540
L34559 12874
" />
<path d="M34345 12540
L34345 12802
L34369 12850
L34416 12874
L34488 12874
L34535 12850
L34559 12826
" />
<path d="M34797 12874
L34797 12540
" />
<path d="M34797 12588
L34821 12564
L34869 12540
L34940 12540
L34988 12564
L35011 12612
L35011 12874
" />
<path d="M35011 12612
L35035 12564
L35083 12540
L35154 12540
L35202 12564
L35226 12612
L35226 12874
" />
<path d="M35464 12540
L35464 13040
" />
<path d="M35464 12564
L35511 12540
L35607 12540
L35654 12564
L35678 12588
L35702 12636
L35702 12779
L35678 12826
L35654 12850
L35607 12874
L35511 12874
L35464 12850
" />
<path d="M36107 12850
L36059 12874
L35964 12874
L35916 12850
L35892 12802
L35892 12612
L35916 12564
L35964 12540
L36059 12540
L36107 12564
L36130 12612
L36130 12660
L35892 12707
" />
<path d="M36345 12874
L36345 12540
" />
<path d="M36345 12636
L36369 12588
L36392 12564
L36440 12540
L36488 12540
" />
<path d="M36535 12921
L36916 12921
" />
<path d="M36988 12374
L37297 12374
L37130 12564
L37202 12564
L37250 12588
L37273 12612
L37297 12660
L37297 12779
L37273 12826
L37250 12850
L37202 12874
L37059 12874
L37011 12850
L36988 12826
" />
<path d="M37392 12921
L37773 12921
" />
<path d="M38059 12612
L38130 12636
L38154 12660
L38178 12707
L38178 12779
L38154 12826
L38130 12850
L38083 12874
L37892 12874
L37892 12374
L38059 12374
L38107 12398
L38130 12421
L38154 12469
L38154 12517
L38130 12564
L38107 12588
L38059 12612
L37892 12612
" />
<path d="M38392 12874
L38392 12540
" />
<path d="M38392 12636
L38416 12588
L38440 12564
L38488 12540
L38535 12540
" />
<path d="M38702 12874
L38702 12540
" />
<path d="M38702 12374
L38678 12398
L38702 12421
L38726 12398
L38702 12374
L38702 12421
" />
<path d="M39154 12874
L39154 12374
" />
<path d="M39154 12850
L39107 12874
L39011 12874
L38964 12850
L38940 12826
L38916 12779
L38916 12636
L38940 12588
L38964 12564
L39011 12540
L39107 12540
L39154 12564
" />
<path d="M39607 12540
L39607 12945
L39583 12993
L39559 13017
L39511 13040
L39440 13040
L39392 13017
" />
<path d="M39607 12850
L39559 12874
L39464 12874
L39416 12850
L39392 12826
L39369 12779
L39369 12636
L39392 12588
L39416 12564
L39464 12540
L39559 12540
L39607 12564
" />
<path d="M40035 12850
L39988 12874
L39892 12874
L39845 12850
L39821 12802
L39821 12612
L39845 12564
L39892 12540
L39988 12540
L40035 12564
L40059 12612
L40059 12660
L39821 12707
" />
<path d="M40488 12874
L40488 12374
" />
<path d="M40488 12850
L40440 12874
L40345 12874
L40297 12850
L40273 12826
L40250 12779
L40250 12636
L40273 12588
L40297 12564
L40345 12540
L40440 12540
L40488 12564
" />
<path d="M40988 12874
L40702 12874
" />
<path d="M40845 12874
L40845 12374
L40797 12445
L40750 12493
L40702 12517
" />
<path d="M41178 12421
L41202 12398
L41250 12374
L41369 12374
L41416 12398
L41440 12421
L41464 12469
L41464 12517
L41440 12588
L41154 12874
L41464 12874
" />
<path d="M41630 12374
L41940 12374
L41773 12564
L41845 12564
L41892 12588
L41916 12612
L41940 12660
L41940 12779
L41916 12826
L41892 12850
L41845 12874
L41702 12874
L41654 12850
L41630 12826
" />
</g></g>
</g>
<g style="fill:#008484; fill-opacity:0.0; 
stroke:#008484; stroke-width:60.000000; stroke-opacity:1; 
stroke-linecap:round; stroke-linejoin:round;">
<g >
</g>
<g style="fill:#840000; fill-opacity:0.0; 
stroke:#840000; stroke-width:60.000000; stroke-opacity:1; 
stroke-linecap:round; stroke-linejoin:round;">
<circle cx="37800.000000" cy="24500.000000" r="300.000000" /> 
<path d="M37500 24500
L36500 24500
" />
</g>
<g style="fill:#008484; fill-opacity:0.0; 
stroke:#008484; stroke-width:60.000000; stroke-opacity:1; 
stroke-linecap:round; stroke-linejoin:round;">
<text x="39089.803150" y="24289.960630"
textLength="1417.125984" font-size="666.653543" lengthAdjust="spacingAndGlyphs"
text-anchor="middle" opacity="0">TP4</text>
<g class="stroked-text"><desc>TP4</desc>
<path d="M38458 23766
L38744 23766
" />
<path d="M38601 24266
L38601 23766
" />
<path d="M38911 24266
L38911 23766
L39101 23766
L39149 23789
L39173 23813
L39196 23861
L39196 23932
L39173 23980
L39149 24004
L39101 24028
L38911 24028
" />
<path d="M39625 23932
L39625 24266
" />
<path d="M39506 23742
L39387 24099
L39696 24099
" />
</g><text x="40125.551181" y="25199.960630"
textLength="3488.582677" font-size="666.653543" lengthAdjust="spacingAndGlyphs"
text-anchor="middle" opacity="0">TestPoint</text>
<g class="stroked-text"><desc>TestPoint</desc>
<path d="M38458 24676
L38744 24676
" />
<path d="M38601 25176
L38601 24676
" />
<path d="M39101 25152
L39054 25176
L38958 25176
L38911 25152
L38887 25104
L38887 24914
L38911 24866
L38958 24842
L39054 24842
L39101 24866
L39125 24914
L39125 24961
L38887 25009
" />
<path d="M39316 25152
L39363 25176
L39458 25176
L39506 25152
L39530 25104
L39530 25080
L39506 25033
L39458 25009
L39387 25009
L39339 24985
L39316 24938
L39316 24914
L39339 24866
L39387 24842
L39458 24842
L39506 24866
" />
<path d="M39673 24842
L39863 24842
" />
<path d="M39744 24676
L39744 25104
L39768 25152
L39816 25176
L39863 25176
" />
<path d="M40030 25176
L40030 24676
L40220 24676
L40268 24699
L40292 24723
L40316 24771
L40316 24842
L40292 24890
L40268 24914
L40220 24938
L40030 24938
" />
<path d="M40601 25176
L40554 25152
L40530 25128
L40506 25080
L40506 24938
L40530 24890
L40554 24866
L40601 24842
L40673 24842
L40720 24866
L40744 24890
L40768 24938
L40768 25080
L40744 25128
L40720 25152
L40673 25176
L40601 25176
" />
<path d="M40982 25176
L40982 24842
" />
<path d="M40982 24676
L40958 24699
L40982 24723
L41006 24699
L40982 24676
L40982 24723
" />
<path d="M41220 24842
L41220 25176
" />
<path d="M41220 24890
L41244 24866
L41292 24842
L41363 24842
L41411 24866
L41435 24914
L41435 25176
" />
<path d="M41601 24842
L41792 24842
" />
<path d="M41673 24676
L41673 25104
L41696 25152
L41744 25176
L41792 25176
" />
</g></g>
</g>
<g style="fill:#008484; fill-opacity:0.0; 
stroke:#008484; stroke-width:60.000000; stroke-opacity:1; 
stroke-linecap:round; stroke-linejoin:round;">
<g >
</g>
<g style="fill:#840000; fill-opacity:0.0; 
stroke:#840000; stroke-width:60.000000; stroke-opacity:1; 
stroke-linecap:round; stroke-linejoin:round;">
</g>
<g style="fill:#840000; fill-opacity:0.0; 
stroke:#840000; stroke-width:100.000000; stroke-opacity:1; 
stroke-linecap:round; stroke-linejoin:round;">
<rect x="34350.000000" y="15000.000000" width="800.000000" height="2000.000000" rx="0.000000" />
</g>
<g style="fill:#840000; fill-opacity:0.0; 
stroke:#840000; stroke-width:60.000000; stroke-opacity:1; 
stroke-linecap:round; stroke-linejoin:round;">
<path d="M34750 15000
L34750 14500
" />
<path d="M34750 17000
L34750 17500
" />
</g>
<g style="fill:#008484; fill-opacity:0.0; 
stroke:#008484; stroke-width:60.000000; stroke-opacity:1; 
stroke-linecap:round; stroke-linejoin:round;">
<text x="35969.330709" y="15921.338583"
textLength="1036.181102" font-size="666.653543" lengthAdjust="spacingAndGlyphs"
text-anchor="middle" opacity="0">R1</text>
<g class="stroked-text"><desc>R1</desc>
<path d="M35885 15897
L35719 15659
" />
<path d="M35600 15897
L35600 15397
L35790 15397
L35838 15421
L35862 15445
L35885 15492
L35885 15564
L35862 15611
L35838 15635
L35790 15659
L35600 15659
" />
<path d="M36362 15897
L36076 15897
" />
<path d="M36219 15897
L36219 15397
L36171 15468
L36124 15516
L36076 15540
" />
</g><text x="36207.440945" y="16920.118110"
textLength="1512.362205" font-size="666.653543" lengthAdjust="spacingAndGlyphs"
text-anchor="middle" opacity="0">4K7</text>
<g class="stroked-text"><desc>4K7</desc>
<path d="M35814 16562
L35814 16896
" />
<path d="M35695 16372
L35576 16729
L35885 16729
" />
<path d="M36076 16896
L36076 16396
" />
<path d="M36362 16896
L36147 16610
" />
<path d="M36362 16396
L36076 16682
" />
<path d="M36528 16396
L36862 16396
L36647 16896
" />
</g></g>
</g>
<g style="fill:#008484; fill-opacity:0.0; 
stroke:#008484; stroke-width:60.000000; stroke-opacity:1; 
stroke-linecap:round; stroke-linejoin:round;">
<g >
</g>
<g style="fill:#840000; fill-opacity:0.0; 
stroke:#840000; stroke-width:60.000000; stroke-opacity:1; 
stroke-linecap:round; stroke-linejoin:round;">
<path style="fill:#840000; fill-opacity:0.0; 
stroke:#840000; stroke-width:60.000000; stroke-opacity:1; 
stroke-linecap:round; stroke-linejoin:round;fill:none"
d="M 35000.000000,33000.000000
38000.000000,33000.000000
" /> 
<path style="fill:#840000; fill-opacity:0.0; 
stroke:#840000; stroke-width:60.000000; stroke-opacity:1; 
stroke-linecap:round; stroke-linejoin:round;fill:none"
d="M 35000.000000,32000.000000
38000.000000,32000.000000
" /> 
<path d="M36500 32000
L36500 30000
" />
<g transform="rotate(-90.000000 36400.000000 31000.000000)">
<text x="36400.000000" y="31000.000000"
textLength="440.944882" font-size="533.307087" lengthAdjust="spacingAndGlyphs"
text-anchor="middle" opacity="0">1</text>
</g>
<g class="stroked-text"><desc>1</desc>
<path d="M36380 30885
L36380 31114
" />
<path d="M36380 31000
L35980 31000
L36038 31038
L36076 31076
L36095 31114
" />
</g><path d="M36500 33000
L36500 35000
" />
<g transform="rotate(-90.000000 36400.000000 34000.000000)">
<text x="36400.000000" y="34000.000000"
textLength="440.944882" font-size="533.307087" lengthAdjust="spacingAndGlyphs"
text-anchor="middle" opacity="0">2</text>
</g>
<g class="stroked-text"><desc>2</desc>
<path d="M36019 34114
L36000 34095
L35980 34057
L35980 33961
L36000 33923
L36019 33904
L36057 33885
L36095 33885
L36152 33904
L36380 34133
L36380 33885
" />
</g></g>
<g style="fill:#008484; fill-opacity:0.0; 
stroke:#008484; stroke-width:60.000000; stroke-opacity:1; 
stroke-linecap:round; stroke-linejoin:round;">
<text x="38799.330709" y="32289.960630"
textLength="1036.181102" font-size="666.653543" lengthAdjust="spacingAndGlyphs"
text-anchor="middle" opacity="0">C1</text>
<g class="stroked-text"><desc>C1</desc>
<path d="M38715 32218
L38692 32242
L38620 32266
L38573 32266
L38501 32242
L38454 32194
L38430 32147
L38406 32051
L38406 31980
L38430 31885
L38454 31837
L38501 31789
L38573 31766
L38620 31766
L38692 31789
L38715 31813
" />
<path d="M39192 32266
L38906 32266
" />
<path d="M39049 32266
L39049 31766
L39001 31837
L38954 31885
L38906 31908
" />
</g><text x="39251.732283" y="33199.960630"
textLength="1940.944882" font-size="666.653543" lengthAdjust="spacingAndGlyphs"
text-anchor="middle" opacity="0">100n</text>
<g class="stroked-text"><desc>100n</desc>
<path d="M38692 33176
L38406 33176
" />
<path d="M38549 33176
L38549 32676
L38501 32747
L38454 32795
L38406 32818
" />
<path d="M39001 32676
L39049 32676
L39096 32699
L39120 32723
L39144 32771
L39168 32866
L39168 32985
L39144 33080
L39120 33128
L39096 33152
L39049 33176
L39001 33176
L38954 33152
L38930 33128
L38906 33080
L38882 32985
L38882 32866
L38906 32771
L38930 32723
L38954 32699
L39001 32676
" />
<path d="M39477 32676
L39525 32676
L39573 32699
L39596 32723
L39620 32771
L39644 32866
L39644 32985
L39620 33080
L39596 33128
L39573 33152
L39525 33176
L39477 33176
L39430 33152
L39406 33128
L39382 33080
L39358 32985
L39358 32866
L39382 32771
L39406 32723
L39430 32699
L39477 32676
" />
<path d="M39858 32842
L39858 33176
" />
<path d="M39858 32890
L39882 32866
L39930 32842
L40001 32842
L40049 32866
L40073 32914
L40073 33176
" />
</g></g>
</g>
<g style="fill:#008484; fill-opacity:0.0; 
stroke:#008484; stroke-width:60.000000; stroke-opacity:1; 
stroke-linecap:round; stroke-linejoin:round;">
<g >
</g>
<g style="fill:#840000; fill-opacity:0.0; 
stroke:#840000; stroke-width:60.000000; stroke-opacity:1; 
stroke-linecap:round; stroke-linejoin:round;">
<path style="fill:#840000; fill-opacity:0.0; 
stroke:#840000; stroke-width:60.000000; stroke-opacity:1; 
stroke-linecap:round; stroke-linejoin:round;fill:none"
d="M 41000.000000,33000.000000
44000.000000,33000.000000
" /> 
<path style="fill:#840000; fill-opacity:0.0; 
stroke:#840000; stroke-width:60.000000; stroke-opacity:1; 
stroke-linecap:round; stroke-linejoin:round;fill:none"
d="M 41000.000000,32000.000000
44000.000000,32000.000000
" /> 
<path d="M42500 32000
L42500 30000
" />
<g transform="rotate(-90.000000 42400.000000 31000.000000)">
<text x="42400.000000" y="31000.000000"
textLength="440.944882" font-size="533.307087" lengthAdjust="spacingAndGlyphs"
text-anchor="middle" opacity="0">1</text>
</g>
<g class="stroked-text"><desc>1</desc>
<path d="M42380 30885
L42380 31114
" />
<path d="M42380 31000
L41980 31000
L42038 31038
L42076 31076
L42095 31114
" />
</g><path d="M42500 33000
L42500 35000
" />
<g transform="rotate(-90.000000 42400.000000 34000.000000)">
<text x="42400.000000" y="34000.000000"
textLength="440.944882" font-size="533.307087" lengthAdjust="spacingAndGlyphs"
text-anchor="middle" opacity="0">2</text>
</g>
<g class="stroked-text"><desc>2</desc>
<path d="M42019 34114
L42000 34095
L41980 34057
L41980 33961
L42000 33923
L42019 33904
L42057 33885
L42095 33885
L42152 33904
L42380 34133
L42380 33885
" />
</g></g>
<g style="fill:#008484; fill-opacity:0.0; 
stroke:#008484; stroke-width:60.000000; stroke-opacity:1; 
stroke-linecap:round; stroke-linejoin:round;">
<text x="44799.330709" y="32289.960630"
textLength="1036.181102" font-size="666.653543" lengthAdjust="spacingAndGlyphs"
text-anchor="middle" opacity="0">C2</text>
<g class="stroked-text"><desc>C2</desc>
<path d="M44715 32218
L44692 32242
L44620 32266
L44573 32266
L44501 32242
L44454 32194
L44430 32147
L44406 32051
L44406 31980
L44430 31885
L44454 31837
L44501 31789
L44573 31766
L44620 31766
L44692 31789
L44715 31813
" />
<path d="M44906 31813
L44930 31789
L44977 31766
L45096 31766
L45144 31789
L45168 31813
L45192 31861
L45192 31908
L45168 31980
L44882 32266
L45192 32266
" />
</g><text x="45013.622047" y="33199.960630"
textLength="1464.763780" font-size="666.653543" lengthAdjust="spacingAndGlyphs"
text-anchor="middle" opacity="0">10u</text>
<g class="stroked-text"><desc>10u</desc>
<path d="M44692 33176
L44406 33176
" />
<path d="M44549 33176
L44549 32676
L44501 32747
L44454 32795
L44406 32818
" />
<path d="M45001 32676
L45049 32676
L45096 32699
L45120 32723
L45144 32771
L45168 32866
L45168 32985
L45144 33080
L45120 33128
L45096 33152
L45049 33176
L45001 33176
L44954 33152
L44930 33128
L44906 33080
L44882 32985
L44882 32866
L44906 32771
L44930 32723
L44954 32699
L45001 32676
" />
<path d="M45596 32842
L45596 33176
" />
<path d="M45382 32842
L45382 33104
L45406 33152
L45454 33176
L45525 33176
L45573 33152
L45596 33128
" />
</g></g>
</g>
<g style="fill:#008484; fill-opacity:0.0; 
stroke:#008484; stroke-width:60.000000; stroke-opacity:1; 
stroke-linecap:round; stroke-linejoin:round;">
<g >
</g>
<g style="fill:#840000; fill-opacity:0.0; 
stroke:#840000; stroke-width:60.000000; stroke-opacity:1; 
stroke-linecap:round; stroke-linejoin:round;">
</g>
<g style="fill:#FFFFC2; fill-opacity:0.0; 
stroke:#FFFFC2; stroke-width:60.000000; stroke-opacity:1; 
stroke-linecap:round; stroke-linejoin:round;">
</g>
<g style="fill:#FFFFC2; fill-opacity:0.6; 
stroke:#FFFFC2; stroke-width:0.039370; stroke-opacity:1; 
stroke-linecap:round; stroke-linejoin:round;">
<rect x="23500.000000" y="28750.000000" width="8000.000000" height="7000.000000" rx="0.000000" />
</g>
<g style="fill:#840000; fill-opacity:0.6; 
stroke:#840000; stroke-width:0.039370; stroke-opacity:1; 
stroke-linecap:round; stroke-linejoin:round;">
</g>
<g style="fill:#840000; fill-opacity:0.0; 
stroke:#840000; stroke-width:100.000000; stroke-opacity:1; 
stroke-linecap:round; stroke-linejoin:round;">
<rect x="23500.000000" y="28750.000000" width="8000.000000" height="7000.000000" rx="0.000000" />
<rect x="23500.000000" y="28750.000000" width="8000.000000" height="7000.000000" rx="0.000000" />
</g>
<g style="fill:#840000; fill-opacity:0.0; 
stroke:#840000; stroke-width:60.000000; stroke-opacity:1; 
stroke-linecap:round; stroke-linejoin:round;">
<path d="M23500 32750
L21500 32750
" />
</g>
<g style="fill:#008484; fill-opacity:0.0; 
stroke:#008484; stroke-width:60.000000; stroke-opacity:1; 
stroke-linecap:round; stroke-linejoin:round;">
<text x="23900.000000" y="32950.000000"
textLength="1183.818898" font-size="533.307087" lengthAdjust="spacingAndGlyphs"
text-anchor="start" opacity="0">SDA</text>
<g class="stroked-text"><desc>SDA</desc>
<path d="M24006 32911
L24063 32930
L24158 32930
L24196 32911
L24215 32892
L24234 32854
L24234 32816
L24215 32778
L24196 32759
L24158 32740
L24082 32721
L24044 32702
L24025 32683
L24006 32645
L24006 32607
L24025 32569
L24044 32550
L24082 32530
L24177 32530
L24234 32550
" />
<path d="M24406 32930
L24406 32530
L24501 32530
L24558 32550
L24596 32588
L24615 32626
L24634 32702
L24634 32759
L24615 32835
L24596 32873
L24558 32911
L24501 32930
L24406 32930
" />
<path d="M24787 32816
L24977 32816
" />
<path d="M24749 32930
L24882 32530
L25015 32930
" />
</g></g>
<g style="fill:#840000; fill-opacity:0.0; 
stroke:#840000; stroke-width:60.000000; stroke-opacity:1; 
stroke-linecap:round; stroke-linejoin:round;">
<text x="22500.000000" y="32650.000000"
textLength="440.944882" font-size="533.307087" lengthAdjust="spacingAndGlyphs"
text-anchor="middle" opacity="0">1</text>
<g class="stroked-text"><desc>1</desc>
<path d="M22614 32630
L22385 32630
" />
<path d="M22500 32630
L22500 32230
L22461 32288
L22423 32326
L22385 32345
" />
</g><path d="M31500 29750
L33500 29750
" />
</g>
<g style="fill:#008484; fill-opacity:0.0; 
stroke:#008484; stroke-width:60.000000; stroke-opacity:1; 
stroke-linecap:round; stroke-linejoin:round;">
<text x="31100.000000" y="29950.000000"
textLength="1202.874016" font-size="533.307087" lengthAdjust="spacingAndGlyphs"
text-anchor="end" opacity="0">VDD</text>
<g class="stroked-text"><desc>VDD</desc>
<path d="M29965 29530
L30098 29930
L30231 29530
" />
<path d="M30365 29930
L30365 29530
L30460 29530
L30517 29550
L30555 29588
L30574 29626
L30593 29702
L30593 29759
L30574 29835
L30555 29873
L30517 29911
L30460 29930
L30365 29930
" />
<path d="M30765 29930
L30765 29530
L30860 29530
L30917 29550
L30955 29588
L30974 29626
L30993 29702
L30993 29759
L30974 29835
L30955 29873
L30917 29911
L30860 29930
L30765 29930
" />
</g></g>
<g style="fill:#840000; fill-opacity:0.0; 
stroke:#840000; stroke-width:60.000000; stroke-opacity:1; 
stroke-linecap:round; stroke-linejoin:round;">
<text x="32500.000000" y="29650.000000"
textLength="440.944882" font-size="533.307087" lengthAdjust="spacingAndGlyphs"
text-anchor="middle" opacity="0">2</text>
<g class="stroked-text"><desc>2</desc>
<path d="M32385 29269
L32404 29250
L32442 29230
L32538 29230
L32576 29250
L32595 29269
L32614 29307
L32614 29345
L32595 29402
L32366 29630
L32614 29630
" />
</g><path d="M31500 34750
L33500 34750
" />
</g>
<g style="fill:#008484; fill-opacity:0.0; 
stroke:#008484; stroke-width:60.000000; stroke-opacity:1; 
stroke-linecap:round; stroke-linejoin:round;">
<text x="31100.000000" y="34950.000000"
textLength="1279.055118" font-size="533.307087" lengthAdjust="spacingAndGlyphs"
text-anchor="end" opacity="0">GND</text>
<g class="stroked-text"><desc>GND</desc>
<path d="M30155 34550
L30117 34530
L30060 34530
L30003 34550
L29965 34588
L29946 34626
L29927 34702
L29927 34759
L29946 34835
L29965 34873
L30003 34911
L30060 34930
L30098 34930
L30155 34911
L30174 34892
L30174 34759
L30098 34759
" />
<path d="M30346 34930
L30346 34530
L30574 34930
L30574 34530
" />
<path d="M30765 34930
L30765 34530
L30860 34530
L30917 34550
L30955 34588
L30974 34626
L30993 34702
L30993 34759
L30974 34835
L30955 34873
L30917 34911
L30860 34930
L30765 34930
" />
</g></g>
<g style="fill:#840000; fill-opacity:0.0; 
stroke:#840000; stroke-width:60.000000; stroke-opacity:1; 
stroke-linecap:round; stroke-linejoin:round;">
<text x="32500.000000" y="34650.000000"
textLength="440.944882" font-size="533.307087" lengthAdjust="spacingAndGlyphs"
text-anchor="middle" opacity="0">3</text>
<g class="stroked-text"><desc>3</desc>
<path d="M32366 34230
L32614 34230
L32480 34383
L32538 34383
L32576 34402
L32595 34421
L32614 34459
L32614 34554
L32595 34592
L32576 34611
L32538 34630
L32423 34630
L32385 34611
L32366 34592
" />
</g><path d="M23500 31750
L21500 31750
" />
<path d="M23500 32000
L24000 31750
L23500 31500
" />
</g>
<g style="fill:#008484; fill-opacity:0.0; 
stroke:#008484; stroke-width:60.000000; stroke-opacity:1; 
stroke-linecap:round; stroke-linejoin:round;">
<text x="23900.000000" y="31950.000000"
textLength="1164.763780" font-size="533.307087" lengthAdjust="spacingAndGlyphs"
text-anchor="start" opacity="0">SCL</text>
<g class="stroked-text"><desc>SCL</desc>
<path d="M24006 31911
L24063 31930
L24158 31930
L24196 31911
L24215 31892
L24234 31854
L24234 31816
L24215 31778
L24196 31759
L24158 31740
L24082 31721
L24044 31702
L24025 31683
L24006 31645
L24006 31607
L24025 31569
L24044 31550
L24082 31530
L24177 31530
L24234 31550
" />
<path d="M24634 31892
L24615 31911
L24558 31930
L24520 31930
L24463 31911
L24425 31873
L24406 31835
L24387 31759
L24387 31702
L24406 31626
L24425 31588
L24463 31550
L24520 31530
L24558 31530
L24615 31550
L24634 31569
" />
<path d="M24996 31930
L24806 31930
L24806 31530
" />
</g></g>
<g style="fill:#840000; fill-opacity:0.0; 
stroke:#840000; stroke-width:60.000000; stroke-opacity:1; 
stroke-linecap:round; stroke-linejoin:round;">
<text x="22500.000000" y="31650.000000"
textLength="440.944882" font-size="533.307087" lengthAdjust="spacingAndGlyphs"
text-anchor="middle" opacity="0">4</text>
<g class="stroked-text"><desc>4</desc>
<path d="M22576 31364
L22576 31630
" />
<path d="M22480 31211
L22385 31497
L22633 31497
" />
</g></g>
<g style="fill:#008484; fill-opacity:0.0; 
stroke:#008484; stroke-width:60.000000; stroke-opacity:1; 
stroke-linecap:round; stroke-linejoin:round;">
<text x="27500.000000" y="27543.346457"
textLength="1060.000000" font-size="666.653543" lengthAdjust="spacingAndGlyphs"
text-anchor="middle" opacity="0">U1</text>
<g class="stroked-text"><desc>U1</desc>
<path d="M27119 27019
L27119 27424
L27142 27471
L27166 27495
L27214 27519
L27309 27519
L27357 27495
L27380 27471
L27404 27424
L27404 27019
" />
<path d="M27904 27519
L27619 27519
" />
<path d="M27761 27519
L27761 27019
L27714 27090
L27666 27138
L27619 27162
" />
</g><text x="27500.000000" y="28542.125984"
textLength="3893.346457" font-size="666.653543" lengthAdjust="spacingAndGlyphs"
text-anchor="middle" opacity="0">MLX90640</text>
<g class="stroked-text"><desc>MLX90640</desc>
<path d="M25702 28518
L25702 28018
L25869 28375
L26035 28018
L26035 28518
" />
<path d="M26511 28518
L26273 28518
L26273 28018
" />
<path d="M26630 28018
L26964 28518
" />
<path d="M26964 28018
L26630 28518
" />
<path d="M27178 28518
L27273 28518
L27321 28494
L27345 28470
L27392 28399
L27416 28304
L27416 28113
L27392 28065
L27369 28042
L27321 28018
L27226 28018
L27178 28042
L27154 28065
L27130 28113
L27130 28232
L27154 28280
L27178 28304
L27226 28327
L27321 28327
L27369 28304
L27392 28280
L27416 28232
" />
<path d="M27726 28018
L27773 28018
L27821 28042
L27845 28065
L27869 28113
L27892 28208
L27892 28327
L27869 28423
L27845 28470
L27821 28494
L27773 28518
L27726 28518
L27678 28494
L27654 28470
L27630 28423
L27607 28327
L27607 28208
L27630 28113
L27654 28065
L27678 28042
L27726 28018
" />
<path d="M28321 28018
L28226 28018
L28178 28042
L28154 28065
L28107 28137
L28083 28232
L28083 28423
L28107 28470
L28130 28494
L28178 28518
L28273 28518
L28321 28494
L28345 28470
L28369 28423
L28369 28304
L28345 28256
L28321 28232
L28273 28208
L28178 28208
L28130 28232
L28107 28256
L28083 28304
" />
<path d="M28797 28184
L28797 28518
" />
<path d="M28678 27994
L28559 28351
L28869 28351
" />
<path d="M29154 28018
L29202 28018
L29250 28042
L29273 28065
L29297 28113
L29321 28208
L29321 28327
L29297 28423
L29273 28470
L29250 28494
L29202 28518
L29154 28518
L29107 28494
L29083 28470
L29059 28423
L29035 28327
L29035 28208
L29059 28113
L29083 28065
L29107 28042
L29154 28018
" />
</g></g>
</g>
<g style="fill:#008484; fill-opacity:0.0; 
stroke:#008484; stroke-width:60.000000; stroke-opacity:1; 
stroke-linecap:round; stroke-linejoin:round;">
<g >
</g>
<g style="fill:#840000; fill-opacity:0.0; 
stroke:#840000; stroke-width:60.000000; stroke-opacity:1; 
stroke-linecap:round; stroke-linejoin:round;">
<circle cx="12000.000000" cy="34050.000000" r="300.000000" /> 
<path d="M12000 33750
L12000 32750
" />
</g>
<g style="fill:#008484; fill-opacity:0.0; 
stroke:#008484; stroke-width:60.000000; stroke-opacity:1; 
stroke-linecap:round; stroke-linejoin:round;">
<text x="13209.803150" y="34090.000000"
textLength="1417.125984" font-size="666.653543" lengthAdjust="spacingAndGlyphs"
text-anchor="middle" opacity="0">TP2</text>
<g class="stroked-text"><desc>TP2</desc>
<path d="M12578 33566
L12864 33566
" />
<path d="M12721 34066
L12721 33566
" />
<path d="M13031 34066
L13031 33566
L13221 33566
L13269 33590
L13293 33613
L13316 33661
L13316 33732
L13293 33780
L13269 33804
L13221 33828
L13031 33828
" />
<path d="M13507 33613
L13531 33590
L13578 33566
L13697 33566
L13745 33590
L13769 33613
L13793 33661
L13793 33709
L13769 33780
L13483 34066
L13793 34066
" />
</g><text x="14245.551181" y="35000.000000"
textLength="3488.582677" font-size="666.653543" lengthAdjust="spacingAndGlyphs"
text-anchor="middle" opacity="0">TestPoint</text>
<g class="stroked-text"><desc>TestPoint</desc>
<path d="M12578 34476
L12864 34476
" />
<path d="M12721 34976
L12721 34476
" />
<path d="M13221 34952
L13174 34976
L13078 34976
L13031 34952
L13007 34904
L13007 34714
L13031 34666
L13078 34642
L13174 34642
L13221 34666
L13245 34714
L13245 34761
L13007 34809
" />
<path d="M13436 34952
L13483 34976
L13578 34976
L13626 34952
L13650 34904
L13650 34880
L13626 34833
L13578 34809
L13507 34809
L13459 34785
L13436 34738
L13436 34714
L13459 34666
L13507 34642
L13578 34642
L13626 34666
" />
<path d="M13793 34642
L13983 34642
" />
<path d="M13864 34476
L13864 34904
L13888 34952
L13936 34976
L13983 34976
" />
<path d="M14150 34976
L14150 34476
L14340 34476
L14388 34500
L14412 34523
L14436 34571
L14436 34642
L14412 34690
L14388 34714
L14340 34738
L14150 34738
" />
<path d="M14721 34976
L14674 34952
L14650 34928
L14626 34880
L14626 34738
L14650 34690
L14674 34666
L14721 34642
L14793 34642
L14840 34666
L14864 34690
L14888 34738
L14888 34880
L14864 34928
L14840 34952
L14793 34976
L14721 34976
" />
<path d="M15102 34976
L15102 34642
" />
<path d="M15102 34476
L15078 34500
L15102 34523
L15126 34500
L15102 34476
L15102 34523
" />
<path d="M15340 34642
L15340 34976
" />
<path d="M15340 34690
L15364 34666
L15412 34642
L15483 34642
L15531 34666
L15555 34714
L15555 34976
" />
<path d="M15721 34642
L15912 34642
" />
<path d="M15793 34476
L15793 34904
L15816 34952
L15864 34976
L15912 34976
" />
</g></g>
</g>
<g style="fill:#008484; fill-opacity:0.0; 
stroke:#008484; stroke-width:60.000000; stroke-opacity:1; 
stroke-linecap:round; stroke-linejoin:round;">
<g >
</g>
<g style="fill:#840000; fill-opacity:0.0; 
stroke:#840000; stroke-width:60.000000; stroke-opacity:1; 
stroke-linecap:round; stroke-linejoin:round;">
<circle cx="13000.000000" cy="39200.000000" r="300.000000" /> 
<path d="M13000 39500
L13000 40500
" />
</g>
<g style="fill:#008484; fill-opacity:0.0; 
stroke:#008484; stroke-width:60.000000; stroke-opacity:1; 
stroke-linecap:round; stroke-linejoin:round;">
<text x="14289.803150" y="39569.960630"
textLength="1417.125984" font-size="666.653543" lengthAdjust="spacingAndGlyphs"
text-anchor="middle" opacity="0">TP3</text>
<g class="stroked-text"><desc>TP3</desc>
<path d="M13658 39046
L13944 39046
" />
<path d="M13801 39546
L13801 39046
" />
<path d="M14111 39546
L14111 39046
L14301 39046
L14349 39069
L14373 39093
L14396 39141
L14396 39212
L14373 39260
L14349 39284
L14301 39308
L14111 39308
" />
<path d="M14563 39046
L14873 39046
L14706 39236
L14777 39236
L14825 39260
L14849 39284
L14873 39331
L14873 39450
L14849 39498
L14825 39522
L14777 39546
L14635 39546
L14587 39522
L14563 39498
" />
</g><text x="15325.551181" y="40479.960630"
textLength="3488.582677" font-size="666.653543" lengthAdjust="spacingAndGlyphs"
text-anchor="middle" opacity="0">TestPoint</text>
<g class="stroked-text"><desc>TestPoint</desc>
<path d="M13658 39956
L13944 39956
" />
<path d="M13801 40456
L13801 39956
" />
<path d="M14301 40432
L14254 40456
L14158 40456
L14111 40432
L14087 40384
L14087 40194
L14111 40146
L14158 40122
L14254 40122
L14301 40146
L14325 40194
L14325 40241
L14087 40289
" />
<path d="M14516 40432
L14563 40456
L14658 40456
L14706 40432
L14730 40384
L14730 40360
L14706 40313
L14658 40289
L14587 40289
L14539 40265
L14516 40218
L14516 40194
L14539 40146
L14587 40122
L14658 40122
L14706 40146
" />
<path d="M14873 40122
L15063 40122
" />
<path d="M14944 39956
L14944 40384
L14968 40432
L15016 40456
L15063 40456
" />
<path d="M15230 40456
L15230 39956
L15420 39956
L15468 39979
L15492 40003
L15516 40051
L15516 40122
L15492 40170
L15468 40194
L15420 40218
L15230 40218
" />
<path d="M15801 40456
L15754 40432
L15730 40408
L15706 40360
L15706 40218
L15730 40170
L15754 40146
L15801 40122
L15873 40122
L15920 40146
L15944 40170
L15968 40218
L15968 40360
L15944 40408
L15920 40432
L15873 40456
L15801 40456
" />
<path d="M16182 40456
L16182 40122
" />
<path d="M16182 39956
L16158 39979
L16182 40003
L16206 39979
L16182 39956
L16182 40003
" />
<path d="M16420 40122
L16420 40456
" />
<path d="M16420 40170
L16444 40146
L16492 40122
L16563 40122
L16611 40146
L16635 40194
L16635 40456
" />
<path d="M16801 40122
L16992 40122
" />
<path d="M16873 39956
L16873 40384
L16896 40432
L16944 40456
L16992 40456
" />
</g></g>
</g>
<g style="fill:#008484; fill-opacity:0.0; 
stroke:#008484; stroke-width:60.000000; stroke-opacity:1; 
stroke-linecap:round; stroke-linejoin:round;">
<g >
</g>
<g style="fill:#840000; fill-opacity:0.0; 
stroke:#840000; stroke-width:60.000000; stroke-opacity:1; 
stroke-linecap:round; stroke-linejoin:round;">
<circle cx="12000.000000" cy="30450.000000" r="300.000000" /> 
<path d="M12000 30750
L12000 31750
" />
</g>
<g style="fill:#008484; fill-opacity:0.0; 
stroke:#008484; stroke-width:60.000000; stroke-opacity:1; 
stroke-linecap:round; stroke-linejoin:round;">
<text x="13209.803150" y="30499.960630"
textLength="1417.125984" font-size="666.653543" lengthAdjust="spacingAndGlyphs"
text-anchor="middle" opacity="0">TP1</text>
<g class="stroked-text"><desc>TP1</desc>
<path d="M12578 29976
L12864 29976
" />
<path d="M12721 30476
L12721 29976
" />
<path d="M13031 30476
L13031 29976
L13221 29976
L13269 29999
L13293 30023
L13316 30071
L13316 30142
L13293 30190
L13269 30214
L13221 30238
L13031 30238
" />
<path d="M13793 30476
L13507 30476
" />
<path d="M13650 30476
L13650 29976
L13602 30047
L13555 30095
L13507 30118
" />
</g><text x="14245.551181" y="31499.960630"
textLength="3488.582677" font-size="666.653543" lengthAdjust="spacingAndGlyphs"
text-anchor="middle" opacity="0">TestPoint</text>
<g class="stroked-text"><desc>TestPoint</desc>
<path d="M12578 30976
L12864 30976
" />
<path d="M12721 31476
L12721 30976
" />
<path d="M13221 31452
L13174 31476
L13078 31476
L13031 31452
L13007 31404
L13007 31214
L13031 31166
L13078 31142
L13174 31142
L13221 31166
L13245 31214
L13245 31261
L13007 31309
" />
<path d="M13436 31452
L13483 31476
L13578 31476
L13626 31452
L13650 31404
L13650 31380
L13626 31333
L13578 31309
L13507 31309
L13459 31285
L13436 31238
L13436 31214
L13459 31166
L13507 31142
L13578 31142
L13626 31166
" />
<path d="M13793 31142
L13983 31142
" />
<path d="M13864 30976
L13864 31404
L13888 31452
L13936 31476
L13983 31476
" />
<path d="M14150 31476
L14150 30976
L14340 30976
L14388 30999
L14412 31023
L14436 31071
L14436 31142
L14412 31190
L14388 31214
L14340 31238
L14150 31238
" />
<path d="M14721 31476
L14674 31452
L14650 31428
L14626 31380
L14626 31238
L14650 31190
L14674 31166
L14721 31142
L14793 31142
L14840 31166
L14864 31190
L14888 31238
L14888 31380
L14864 31428
L14840 31452
L14793 31476
L14721 31476
" />
<path d="M15102 31476
L15102 31142
" />
<path d="M15102 30976
L15078 30999
L15102 31023
L15126 30999
L15102 30976
L15102 31023
" />
<path d="M15340 31142
L15340 31476
" />
<path d="M15340 31190
L15364 31166
L15412 31142
L15483 31142
L15531 31166
L15555 31214
L15555 31476
" />
<path d="M15721 31142
L15912 31142
" />
<path d="M15793 30976
L15793 31404
L15816 31452
L15864 31476
L15912 31476
" />
</g></g>
</g>
<g style="fill:#008484; fill-opacity:0.0; 
stroke:#008484; stroke-width:60.000000; stroke-opacity:1; 
stroke-linecap:round; stroke-linejoin:round;">
<g >
</g>
<g style="fill:#840000; fill-opacity:0.0; 
stroke:#840000; stroke-width:60.000000; stroke-opacity:1; 
stroke-linecap:round; stroke-linejoin:round;">
<path style="fill:#840000; fill-opacity:0.0; 
stroke:#840000; stroke-width:60.000000; stroke-opacity:1; 
stroke-linecap:round; stroke-linejoin:round;fill:none"
d="M 14350.000000,16000.000000
14190.000000,16000.000000
" /> 
<path style="fill:#840000; fill-opacity:0.0; 
stroke:#840000; stroke-width:60.000000; stroke-opacity:1; 
stroke-linecap:round; stroke-linejoin:round;fill:none"
d="M 14350.000000,15000.000000
14190.000000,15000.000000
" /> 
<path style="fill:#840000; fill-opacity:0.0; 
stroke:#840000; stroke-width:60.000000; stroke-opacity:1; 
stroke-linecap:round; stroke-linejoin:round;fill:none"
d="M 14350.000000,14000.000000
14190.000000,14000.000000
" /> 
<path style="fill:#840000; fill-opacity:0.0; 
stroke:#840000; stroke-width:60.000000; stroke-opacity:1; 
stroke-linecap:round; stroke-linejoin:round;fill:none"
d="M 14350.000000,13000.000000
14190.000000,13000.000000
" /> 
</g>
<g style="fill:#840000; fill-opacity:1.0; 
stroke:#840000; stroke-width:60.000000; stroke-opacity:1; 
stroke-linecap:round; stroke-linejoin:round;">
<rect x="13850.000000" y="15950.000000" width="340.000000" height="100.000000" rx="0.000000" />
<rect x="13850.000000" y="14950.000000" width="340.000000" height="100.000000" rx="0.000000" />
<rect x="13850.000000" y="13950.000000" width="340.000000" height="100.000000" rx="0.000000" />
<rect x="13850.000000" y="12950.000000" width="340.000000" height="100.000000" rx="0.000000" />
</g>
<g style="fill:#840000; fill-opacity:0.0; 
stroke:#840000; stroke-width:60.000000; stroke-opacity:1; 
stroke-linecap:round; stroke-linejoin:round;">
<path d="M14350 13000
L15850 13000
" />
<text x="15100.000000" y="12900.000000"
textLength="536.181102" font-size="666.653543" lengthAdjust="spacingAndGlyphs"
text-anchor="middle" opacity="0">1</text>
<g class="stroked-text"><desc>1</desc>
<path d="M15242 12876
L14957 12876
" />
<path d="M15100 12876
L15100 12376
L15052 12447
L15004 12495
L14957 12519
" />
</g><path d="M14350 14000
L15850 14000
" />
<text x="15100.000000" y="13900.000000"
textLength="536.181102" font-size="666.653543" lengthAdjust="spacingAndGlyphs"
text-anchor="middle" opacity="0">2</text>
<g class="stroked-text"><desc>2</desc>
<path d="M14957 13423
L14980 13400
L15028 13376
L15147 13376
L15195 13400
L15219 13423
L15242 13471
L15242 13519
L15219 13590
L14933 13876
L15242 13876
" />
</g><path d="M14350 15000
L15850 15000
" />
<text x="15100.000000" y="14900.000000"
textLength="536.181102" font-size="666.653543" lengthAdjust="spacingAndGlyphs"
text-anchor="middle" opacity="0">3</text>
<g class="stroked-text"><desc>3</desc>
<path d="M14933 14376
L15242 14376
L15076 14566
L15147 14566
L15195 14590
L15219 14614
L15242 14661
L15242 14780
L15219 14828
L15195 14852
L15147 14876
L15004 14876
L14957 14852
L14933 14828
" />
</g><path d="M14350 16000
L15850 16000
" />
<text x="15100.000000" y="15900.000000"
textLength="536.181102" font-size="666.653543" lengthAdjust="spacingAndGlyphs"
text-anchor="middle" opacity="0">4</text>
<g class="stroked-text"><desc>4</desc>
<path d="M15195 15542
L15195 15876
" />
<path d="M15076 15352
L14957 15709
L15266 15709
" />
</g></g>
<g style="fill:#008484; fill-opacity:0.0; 
stroke:#008484; stroke-width:60.000000; stroke-opacity:1; 
stroke-linecap:round; stroke-linejoin:round;">
<text x="14100.000000" y="11658.346457"
textLength="917.125984" font-size="666.653543" lengthAdjust="spacingAndGlyphs"
text-anchor="middle" opacity="0">J1</text>
<g class="stroked-text"><desc>J1</desc>
<path d="M13933 11134
L13933 11491
L13909 11563
L13861 11610
L13790 11634
L13742 11634
" />
<path d="M14433 11634
L14147 11634
" />
<path d="M14290 11634
L14290 11134
L14242 11205
L14195 11253
L14147 11277
" />
</g><text x="14100.000000" y="12750.905512"
textLength="6702.874016" font-size="666.653543" lengthAdjust="spacingAndGlyphs"
text-anchor="middle" opacity="0">Conn_01x04_Male</text>
<g class="stroked-text"><desc>Conn_01x04_Male</desc>
<path d="M11183 12679
L11159 12703
L11088 12727
L11040 12727
L10969 12703
L10921 12655
L10897 12608
L10873 12512
L10873 12441
L10897 12346
L10921 12298
L10969 12250
L11040 12227
L11088 12227
L11159 12250
L11183 12274
" />
<path d="M11469 12727
L11421 12703
L11397 12679
L11373 12631
L11373 12488
L11397 12441
L11421 12417
L11469 12393
L11540 12393
L11588 12417
L11611 12441
L11635 12488
L11635 12631
L11611 12679
L11588 12703
L11540 12727
L11469 12727
" />
<path d="M11850 12393
L11850 12727
" />
<path d="M11850 12441
L11873 12417
L11921 12393
L11992 12393
L12040 12417
L12064 12465
L12064 12727
" />
<path d="M12302 12393
L12302 12727
" />
<path d="M12302 12441
L12326 12417
L12373 12393
L12445 12393
L12492 12417
L12516 12465
L12516 12727
" />
<path d="M12635 12774
L13016 12774
" />
<path d="M13230 12227
L13278 12227
L13326 12250
L13350 12274
L13373 12322
L13397 12417
L13397 12536
L13373 12631
L13350 12679
L13326 12703
L13278 12727
L13230 12727
L13183 12703
L13159 12679
L13135 12631
L13111 12536
L13111 12417
L13135 12322
L13159 12274
L13183 12250
L13230 12227
" />
<path d="M13873 12727
L13588 12727
" />
<path d="M13730 12727
L13730 12227
L13683 12298
L13635 12346
L13588 12369
" />
<path d="M14040 12727
L14302 12393
" />
<path d="M14040 12393
L14302 12727
" />
<path d="M14588 12227
L14635 12227
L14683 12250
L14707 12274
L14730 12322
L14754 12417
L14754 12536
L14730 12631
L14707 12679
L14683 12703
L14635 12727
L14588 12727
L14540 12703
L14516 12679
L14492 12631
L14469 12536
L14469 12417
L14492 12322
L14516 12274
L14540 12250
L14588 12227
" />
<path d="M15183 12393
L15183 12727
" />
<path d="M15064 12203
L14945 12560
L15254 12560
" />
<path d="M15326 12774
L15707 12774
" />
<path d="M15826 12727
L15826 12227
L15992 12584
L16159 12227
L16159 12727
" />
<path d="M16611 12727
L16611 12465
L16588 12417
L16540 12393
L16445 12393
L16397 12417
" />
<path d="M16611 12703
L16564 12727
L16445 12727
L16397 12703
L16373 12655
L16373 12608
L16397 12560
L16445 12536
L16564 12536
L16611 12512
" />
<path d="M16921 12727
L16873 12703
L16850 12655
L16850 12227
" />
<path d="M17302 12703
L17254 12727
L17159 12727
L17111 12703
L17088 12655
L17088 12465
L17111 12417
L17159 12393
L17254 12393
L17302 12417
L17326 12465
L17326 12512
L17088 12560
" />
</g></g>
</g>
<g style="fill:#008484; fill-opacity:0.0; 
stroke:#008484; stroke-width:62.519685; stroke-opacity:1; 
stroke-linecap:round; stroke-linejoin:round;">
</g>
<g style="fill:#008484; fill-opacity:0.0; 
stroke:#008484; stroke-width:60.000000; stroke-opacity:1; 
stroke-linecap:round; stroke-linejoin:round;">
</g>
<g style="fill:#000000; fill-opacity:0.0; 
stroke:#000000; stroke-width:60.000000; stroke-opacity:1; 
stroke-linecap:round; stroke-linejoin:round;">
<text x="37250.000000" y="7897.480315"
textLength="1488.582677" font-size="666.653543" lengthAdjust="spacingAndGlyphs"
text-anchor="start" opacity="0">VDD</text>
<g class="stroked-text"><desc>VDD</desc>
<path d="M37327 7373
L37494 7873
L37660 7373
" />
<path d="M37827 7873
L37827 7373
L37946 7373
L38018 7397
L38065 7445
L38089 7492
L38113 7587
L38113 7659
L38089 7754
L38065 7802
L38018 7849
L37946 7873
L37827 7873
" />
<path d="M38327 7873
L38327 7373
L38446 7373
L38518 7397
L38565 7445
L38589 7492
L38613 7587
L38613 7659
L38589 7754
L38565 7802
L38518 7849
L38446 7873
L38327 7873
" />
</g></g>
<g style="fill:#000000; fill-opacity:0.0; 
stroke:#000000; stroke-width:62.519685; stroke-opacity:1; 
stroke-linecap:round; stroke-linejoin:round;">
</g>
<g style="fill:#000000; fill-opacity:0.0; 
stroke:#000000; stroke-width:60.000000; stroke-opacity:1; 
stroke-linecap:round; stroke-linejoin:round;">
<text x="31500.000000" y="18397.480315"
textLength="1440.944882" font-size="666.653543" lengthAdjust="spacingAndGlyphs"
text-anchor="start" opacity="0">SCL</text>
<g class="stroked-text"><desc>SCL</desc>
<path d="M31625 18349
L31696 18373
L31815 18373
L31863 18349
L31887 18326
L31910 18278
L31910 18230
L31887 18183
L31863 18159
L31815 18135
L31720 18111
L31672 18087
L31649 18064
L31625 18016
L31625 17968
L31649 17921
L31672 17897
L31720 17873
L31839 17873
L31910 17897
" />
<path d="M32410 18326
L32387 18349
L32315 18373
L32268 18373
L32196 18349
L32149 18302
L32125 18254
L32101 18159
L32101 18087
L32125 17992
L32149 17945
L32196 17897
L32268 17873
L32315 17873
L32387 17897
L32410 17921
" />
<path d="M32863 18373
L32625 18373
L32625 17873
" />
</g></g>
<g style="fill:#000000; fill-opacity:0.0; 
stroke:#000000; stroke-width:62.519685; stroke-opacity:1; 
stroke-linecap:round; stroke-linejoin:round;">
</g>
<g style="fill:#000000; fill-opacity:0.0; 
stroke:#000000; stroke-width:60.000000; stroke-opacity:1; 
stroke-linecap:round; stroke-linejoin:round;">
<text x="19750.000000" y="12897.480315"
textLength="1583.818898" font-size="666.653543" lengthAdjust="spacingAndGlyphs"
text-anchor="start" opacity="0">GND</text>
<g class="stroked-text"><desc>GND</desc>
<path d="M20160 12397
L20113 12373
L20041 12373
L19970 12397
L19922 12445
L19899 12492
L19875 12587
L19875 12659
L19899 12754
L19922 12802
L19970 12849
L20041 12873
L20089 12873
L20160 12849
L20184 12826
L20184 12659
L20089 12659
" />
<path d="M20399 12873
L20399 12373
L20684 12873
L20684 12373
" />
<path d="M20922 12873
L20922 12373
L21041 12373
L21113 12397
L21160 12445
L21184 12492
L21208 12587
L21208 12659
L21184 12754
L21160 12802
L21113 12849
L21041 12873
L20922 12873
" />
</g></g>
<g style="fill:#000000; fill-opacity:0.0; 
stroke:#000000; stroke-width:62.519685; stroke-opacity:1; 
stroke-linecap:round; stroke-linejoin:round;">
</g>
<g style="fill:#000000; fill-opacity:0.0; 
stroke:#000000; stroke-width:60.000000; stroke-opacity:1; 
stroke-linecap:round; stroke-linejoin:round;">
<text x="41750.000000" y="18397.480315"
textLength="1464.763780" font-size="666.653543" lengthAdjust="spacingAndGlyphs"
text-anchor="start" opacity="0">SDA</text>
<g class="stroked-text"><desc>SDA</desc>
<path d="M41875 18349
L41946 18373
L42065 18373
L42113 18349
L42137 18326
L42160 18278
L42160 18230
L42137 18183
L42113 18159
L42065 18135
L41970 18111
L41922 18087
L41899 18064
L41875 18016
L41875 17968
L41899 17921
L41922 17897
L41970 17873
L42089 17873
L42160 17897
" />
<path d="M42375 18373
L42375 17873
L42494 17873
L42565 17897
L42613 17945
L42637 17992
L42660 18087
L42660 18159
L42637 18254
L42613 18302
L42565 18349
L42494 18373
L42375 18373
" />
<path d="M42851 18230
L43089 18230
" />
<path d="M42803 18373
L42970 17873
L43137 18373
" />
</g></g>
<g style="fill:#000000; fill-opacity:0.0; 
stroke:#000000; stroke-width:62.519685; stroke-opacity:1; 
stroke-linecap:round; stroke-linejoin:round;">
</g>
<g style="fill:#000000; fill-opacity:0.0; 
stroke:#000000; stroke-width:60.000000; stroke-opacity:1; 
stroke-linecap:round; stroke-linejoin:round;">
<text x="19850.000000" y="14897.480315"
textLength="1464.763780" font-size="666.653543" lengthAdjust="spacingAndGlyphs"
text-anchor="start" opacity="0">SDA</text>
<g class="stroked-text"><desc>SDA</desc>
<path d="M19975 14849
L20046 14873
L20165 14873
L20213 14849
L20237 14826
L20260 14778
L20260 14730
L20237 14683
L20213 14659
L20165 14635
L20070 14611
L20022 14587
L19999 14564
L19975 14516
L19975 14468
L19999 14421
L20022 14397
L20070 14373
L20189 14373
L20260 14397
" />
<path d="M20475 14873
L20475 14373
L20594 14373
L20665 14397
L20713 14445
L20737 14492
L20760 14587
L20760 14659
L20737 14754
L20713 14802
L20665 14849
L20594 14873
L20475 14873
" />
<path d="M20951 14730
L21189 14730
" />
<path d="M20903 14873
L21070 14373
L21237 14873
" />
</g></g>
<g style="fill:#000000; fill-opacity:0.0; 
stroke:#000000; stroke-width:62.519685; stroke-opacity:1; 
stroke-linecap:round; stroke-linejoin:round;">
</g>
<g style="fill:#000000; fill-opacity:0.0; 
stroke:#000000; stroke-width:60.000000; stroke-opacity:1; 
stroke-linecap:round; stroke-linejoin:round;">
<text x="34000.000000" y="29647.480315"
textLength="1488.582677" font-size="666.653543" lengthAdjust="spacingAndGlyphs"
text-anchor="start" opacity="0">VDD</text>
<g class="stroked-text"><desc>VDD</desc>
<path d="M34077 29123
L34244 29623
L34410 29123
" />
<path d="M34577 29623
L34577 29123
L34696 29123
L34768 29147
L34815 29195
L34839 29242
L34863 29337
L34863 29409
L34839 29504
L34815 29552
L34768 29599
L34696 29623
L34577 29623
" />
<path d="M35077 29623
L35077 29123
L35196 29123
L35268 29147
L35315 29195
L35339 29242
L35363 29337
L35363 29409
L35339 29504
L35315 29552
L35268 29599
L35196 29623
L35077 29623
" />
</g></g>
<g style="fill:#000000; fill-opacity:0.0; 
stroke:#000000; stroke-width:62.519685; stroke-opacity:1; 
stroke-linecap:round; stroke-linejoin:round;">
</g>
<g style="fill:#000000; fill-opacity:0.0; 
stroke:#000000; stroke-width:60.000000; stroke-opacity:1; 
stroke-linecap:round; stroke-linejoin:round;">
<text x="21500.000000" y="40397.480315"
textLength="1583.818898" font-size="666.653543" lengthAdjust="spacingAndGlyphs"
text-anchor="start" opacity="0">GND</text>
<g class="stroked-text"><desc>GND</desc>
<path d="M21910 39897
L21863 39873
L21791 39873
L21720 39897
L21672 39945
L21649 39992
L21625 40087
L21625 40159
L21649 40254
L21672 40302
L21720 40349
L21791 40373
L21839 40373
L21910 40349
L21934 40326
L21934 40159
L21839 40159
" />
<path d="M22149 40373
L22149 39873
L22434 40373
L22434 39873
" />
<path d="M22672 40373
L22672 39873
L22791 39873
L22863 39897
L22910 39945
L22934 39992
L22958 40087
L22958 40159
L22934 40254
L22910 40302
L22863 40349
L22791 40373
L22672 40373
" />
</g></g>
<g style="fill:#000000; fill-opacity:0.0; 
stroke:#000000; stroke-width:62.519685; stroke-opacity:1; 
stroke-linecap:round; stroke-linejoin:round;">
</g>
<g style="fill:#000000; fill-opacity:0.0; 
stroke:#000000; stroke-width:60.000000; stroke-opacity:1; 
stroke-linecap:round; stroke-linejoin:round;">
<text x="8000.000000" y="31647.480315"
textLength="1440.944882" font-size="666.653543" lengthAdjust="spacingAndGlyphs"
text-anchor="start" opacity="0">SCL</text>
<g class="stroked-text"><desc>SCL</desc>
<path d="M8125 31599
L8196 31623
L8315 31623
L8363 31599
L8387 31576
L8410 31528
L8410 31480
L8387 31433
L8363 31409
L8315 31385
L8220 31361
L8172 31337
L8149 31314
L8125 31266
L8125 31218
L8149 31171
L8172 31147
L8220 31123
L8339 31123
L8410 31147
" />
<path d="M8910 31576
L8887 31599
L8815 31623
L8768 31623
L8696 31599
L8649 31552
L8625 31504
L8601 31409
L8601 31337
L8625 31242
L8649 31195
L8696 31147
L8768 31123
L8815 31123
L8887 31147
L8910 31171
" />
<path d="M9363 31623
L9125 31623
L9125 31123
" />
</g></g>
<g style="fill:#000000; fill-opacity:0.0; 
stroke:#000000; stroke-width:62.519685; stroke-opacity:1; 
stroke-linecap:round; stroke-linejoin:round;">
</g>
<g style="fill:#000000; fill-opacity:0.0; 
stroke:#000000; stroke-width:60.000000; stroke-opacity:1; 
stroke-linecap:round; stroke-linejoin:round;">
<text x="8000.000000" y="32647.480315"
textLength="1464.763780" font-size="666.653543" lengthAdjust="spacingAndGlyphs"
text-anchor="start" opacity="0">SDA</text>
<g class="stroked-text"><desc>SDA</desc>
<path d="M8125 32599
L8196 32623
L8315 32623
L8363 32599
L8387 32576
L8410 32528
L8410 32480
L8387 32433
L8363 32409
L8315 32385
L8220 32361
L8172 32337
L8149 32314
L8125 32266
L8125 32218
L8149 32171
L8172 32147
L8220 32123
L8339 32123
L8410 32147
" />
<path d="M8625 32623
L8625 32123
L8744 32123
L8815 32147
L8863 32195
L8887 32242
L8910 32337
L8910 32409
L8887 32504
L8863 32552
L8815 32599
L8744 32623
L8625 32623
" />
<path d="M9101 32480
L9339 32480
" />
<path d="M9053 32623
L9220 32123
L9387 32623
" />
</g></g>
<g style="fill:#000000; fill-opacity:0.0; 
stroke:#000000; stroke-width:62.519685; stroke-opacity:1; 
stroke-linecap:round; stroke-linejoin:round;">
</g>
<g style="fill:#000000; fill-opacity:0.0; 
stroke:#000000; stroke-width:60.000000; stroke-opacity:1; 
stroke-linecap:round; stroke-linejoin:round;">
<text x="19750.000000" y="13897.480315"
textLength="1488.582677" font-size="666.653543" lengthAdjust="spacingAndGlyphs"
text-anchor="start" opacity="0">VDD</text>
<g class="stroked-text"><desc>VDD</desc>
<path d="M19827 13373
L19994 13873
L20160 13373
" />
<path d="M20327 13873
L20327 13373
L20446 13373
L20518 13397
L20565 13445
L20589 13492
L20613 13587
L20613 13659
L20589 13754
L20565 13802
L20518 13849
L20446 13873
L20327 13873
" />
<path d="M20827 13873
L20827 13373
L20946 13373
L21018 13397
L21065 13445
L21089 13492
L21113 13587
L21113 13659
L21089 13754
L21065 13802
L21018 13849
L20946 13873
L20827 13873
" />
</g></g>
<g style="fill:#000000; fill-opacity:0.0; 
stroke:#000000; stroke-width:62.519685; stroke-opacity:1; 
stroke-linecap:round; stroke-linejoin:round;">
</g>
<g style="fill:#000000; fill-opacity:0.0; 
stroke:#000000; stroke-width:60.000000; stroke-opacity:1; 
stroke-linecap:round; stroke-linejoin:round;">
<text x="19850.000000" y="15897.480315"
textLength="1440.944882" font-size="666.653543" lengthAdjust="spacingAndGlyphs"
text-anchor="start" opacity="0">SCL</text>
<g class="stroked-text"><desc>SCL</desc>
<path d="M19975 15849
L20046 15873
L20165 15873
L20213 15849
L20237 15826
L20260 15778
L20260 15730
L20237 15683
L20213 15659
L20165 15635
L20070 15611
L20022 15587
L19999 15564
L19975 15516
L19975 15468
L19999 15421
L20022 15397
L20070 15373
L20189 15373
L20260 15397
" />
<path d="M20760 15826
L20737 15849
L20665 15873
L20618 15873
L20546 15849
L20499 15802
L20475 15754
L20451 15659
L20451 15587
L20475 15492
L20499 15445
L20546 15397
L20618 15373
L20665 15373
L20737 15397
L20760 15421
" />
<path d="M21213 15873
L20975 15873
L20975 15373
" />
</g></g>
<g style="fill:#008400; fill-opacity:0.0; 
stroke:#008400; stroke-width:60.000000; stroke-opacity:1; 
stroke-linecap:round; stroke-linejoin:round;">
<path d="M38750 10500
L38750 14500
" />
<path d="M36750 9000
L36750 8000
" />
<path d="M15850 16000
L23350 16000
" />
<path d="M36500 29750
L36500 30000
" />
<path d="M15850 14000
L23350 14000
" />
<path d="M15850 13000
L23350 13000
" />
<path d="M36500 29750
L42500 29750
" />
<path d="M33500 29750
L36500 29750
" />
<path d="M36500 35500
L42500 35500
" />
<path d="M33500 35500
L36500 35500
" />
<path d="M33500 34750
L33500 35500
" />
<path d="M36500 24500
L36500 29750
" />
<path d="M13000 40500
L36500 40500
" />
<path d="M36500 35500
L36500 40500
" />
<path d="M12000 32750
L21500 32750
" />
<path d="M34750 17500
L34750 18500
" />
<path d="M34750 10500
L34750 14500
" />
<path d="M12000 31750
L21500 31750
" />
<path d="M42500 35500
L42500 35000
" />
<path d="M12000 31750
L7500 31750
" />
<path d="M36500 35000
L36500 35500
" />
<path d="M15850 15000
L23350 15000
" />
<path d="M42500 29750
L42500 30000
" />
<path d="M38750 17500
L38750 18500
" />
<path d="M38750 18500
L43750 18500
" />
<path d="M30750 18500
L34750 18500
" />
<path d="M36750 8000
L39250 8000
" />
<path d="M12000 32750
L7500 32750
" />
</g>
<g style="fill:#008400; fill-opacity:1.0; 
stroke:#008400; stroke-width:60.000000; stroke-opacity:1; 
stroke-linecap:round; stroke-linejoin:round;">
<circle cx="36500.000000" cy="29750.000000" r="180.000000" /> 
<circle cx="36500.000000" cy="35500.000000" r="180.000000" /> 
<circle cx="12000.000000" cy="31750.000000" r="180.000000" /> 
<circle cx="12000.000000" cy="32750.000000" r="180.000000" /> 
</g> 
</svg>
