G04 #@! TF.GenerationSoftware,KiCad,Pcbnew,(6.0.7)*
G04 #@! TF.CreationDate,2023-01-17T09:43:49-08:00*
G04 #@! TF.ProjectId,mlx90632-breakout,6d6c7839-3036-4333-922d-627265616b6f,rev?*
G04 #@! TF.SameCoordinates,Original*
G04 #@! TF.FileFunction,Paste,Bot*
G04 #@! TF.FilePolarity,Positive*
%FSLAX46Y46*%
G04 Gerber Fmt 4.6, Leading zero omitted, Abs format (unit mm)*
G04 Created by KiCad (PCBNEW (6.0.7)) date 2023-01-17 09:43:49*
%MOMM*%
%LPD*%
G01*
G04 APERTURE LIST*
%ADD10C,0.010000*%
%ADD11R,0.200006X0.500012*%
G04 APERTURE END LIST*
G36*
X111049999Y-66724001D02*
G01*
X110849999Y-66724001D01*
X110849999Y-66474001D01*
X111049999Y-66474001D01*
X111049999Y-66724001D01*
G37*
D10*
X111049999Y-66724001D02*
X110849999Y-66724001D01*
X110849999Y-66474001D01*
X111049999Y-66474001D01*
X111049999Y-66724001D01*
G36*
X111549999Y-65124001D02*
G01*
X111349999Y-65124001D01*
X111349999Y-64924001D01*
X111549999Y-64924001D01*
X111549999Y-65124001D01*
G37*
X111549999Y-65124001D02*
X111349999Y-65124001D01*
X111349999Y-64924001D01*
X111549999Y-64924001D01*
X111549999Y-65124001D01*
G36*
X110549999Y-66724001D02*
G01*
X110349999Y-66724001D01*
X110349999Y-66524001D01*
X110549999Y-66524001D01*
X110549999Y-66724001D01*
G37*
X110549999Y-66724001D02*
X110349999Y-66724001D01*
X110349999Y-66524001D01*
X110549999Y-66524001D01*
X110549999Y-66724001D01*
G36*
X111049999Y-65174001D02*
G01*
X110849999Y-65174001D01*
X110849999Y-64924001D01*
X111049999Y-64924001D01*
X111049999Y-65174001D01*
G37*
X111049999Y-65174001D02*
X110849999Y-65174001D01*
X110849999Y-64924001D01*
X111049999Y-64924001D01*
X111049999Y-65174001D01*
G36*
X111549999Y-66724001D02*
G01*
X111349999Y-66724001D01*
X111349999Y-66524001D01*
X111549999Y-66524001D01*
X111549999Y-66724001D01*
G37*
X111549999Y-66724001D02*
X111349999Y-66724001D01*
X111349999Y-66524001D01*
X111549999Y-66524001D01*
X111549999Y-66724001D01*
G36*
X110549999Y-66324001D02*
G01*
X110349999Y-66324001D01*
X110349999Y-66124001D01*
X110549999Y-66124001D01*
X110549999Y-66324001D01*
G37*
X110549999Y-66324001D02*
X110349999Y-66324001D01*
X110349999Y-66124001D01*
X110549999Y-66124001D01*
X110549999Y-66324001D01*
G36*
X112049999Y-65524001D02*
G01*
X111849999Y-65524001D01*
X111849999Y-65324001D01*
X112049999Y-65324001D01*
X112049999Y-65524001D01*
G37*
X112049999Y-65524001D02*
X111849999Y-65524001D01*
X111849999Y-65324001D01*
X112049999Y-65324001D01*
X112049999Y-65524001D01*
G36*
X111049999Y-65524001D02*
G01*
X110849999Y-65524001D01*
X110849999Y-65324001D01*
X111049999Y-65324001D01*
X111049999Y-65524001D01*
G37*
X111049999Y-65524001D02*
X110849999Y-65524001D01*
X110849999Y-65324001D01*
X111049999Y-65324001D01*
X111049999Y-65524001D01*
G36*
X110049999Y-65524001D02*
G01*
X109849999Y-65524001D01*
X109849999Y-65324001D01*
X110049999Y-65324001D01*
X110049999Y-65524001D01*
G37*
X110049999Y-65524001D02*
X109849999Y-65524001D01*
X109849999Y-65324001D01*
X110049999Y-65324001D01*
X110049999Y-65524001D01*
G36*
X111049999Y-66324001D02*
G01*
X110849999Y-66324001D01*
X110849999Y-66124001D01*
X111049999Y-66124001D01*
X111049999Y-66324001D01*
G37*
X111049999Y-66324001D02*
X110849999Y-66324001D01*
X110849999Y-66124001D01*
X111049999Y-66124001D01*
X111049999Y-66324001D01*
G36*
X111549999Y-65524001D02*
G01*
X111349999Y-65524001D01*
X111349999Y-65324001D01*
X111549999Y-65324001D01*
X111549999Y-65524001D01*
G37*
X111549999Y-65524001D02*
X111349999Y-65524001D01*
X111349999Y-65324001D01*
X111549999Y-65324001D01*
X111549999Y-65524001D01*
G36*
X110099999Y-66724001D02*
G01*
X109849999Y-66724001D01*
X109849999Y-66474001D01*
X110099999Y-66474001D01*
X110099999Y-66724001D01*
G37*
X110099999Y-66724001D02*
X109849999Y-66724001D01*
X109849999Y-66474001D01*
X110099999Y-66474001D01*
X110099999Y-66724001D01*
G36*
X112049999Y-65174001D02*
G01*
X111799999Y-65174001D01*
X111799999Y-64924001D01*
X112049999Y-64924001D01*
X112049999Y-65174001D01*
G37*
X112049999Y-65174001D02*
X111799999Y-65174001D01*
X111799999Y-64924001D01*
X112049999Y-64924001D01*
X112049999Y-65174001D01*
G36*
X111549999Y-66324001D02*
G01*
X111349999Y-66324001D01*
X111349999Y-66124001D01*
X111549999Y-66124001D01*
X111549999Y-66324001D01*
G37*
X111549999Y-66324001D02*
X111349999Y-66324001D01*
X111349999Y-66124001D01*
X111549999Y-66124001D01*
X111549999Y-66324001D01*
G36*
X111049999Y-65924001D02*
G01*
X110849999Y-65924001D01*
X110849999Y-65724001D01*
X111049999Y-65724001D01*
X111049999Y-65924001D01*
G37*
X111049999Y-65924001D02*
X110849999Y-65924001D01*
X110849999Y-65724001D01*
X111049999Y-65724001D01*
X111049999Y-65924001D01*
G36*
X110549999Y-65924001D02*
G01*
X110349999Y-65924001D01*
X110349999Y-65724001D01*
X110549999Y-65724001D01*
X110549999Y-65924001D01*
G37*
X110549999Y-65924001D02*
X110349999Y-65924001D01*
X110349999Y-65724001D01*
X110549999Y-65724001D01*
X110549999Y-65924001D01*
G36*
X112049999Y-66724001D02*
G01*
X111799999Y-66724001D01*
X111799999Y-66474001D01*
X112049999Y-66474001D01*
X112049999Y-66724001D01*
G37*
X112049999Y-66724001D02*
X111799999Y-66724001D01*
X111799999Y-66474001D01*
X112049999Y-66474001D01*
X112049999Y-66724001D01*
G36*
X112049999Y-65924001D02*
G01*
X111799999Y-65924001D01*
X111799999Y-65724001D01*
X112049999Y-65724001D01*
X112049999Y-65924001D01*
G37*
X112049999Y-65924001D02*
X111799999Y-65924001D01*
X111799999Y-65724001D01*
X112049999Y-65724001D01*
X112049999Y-65924001D01*
G36*
X110099999Y-65924001D02*
G01*
X109849999Y-65924001D01*
X109849999Y-65724001D01*
X110099999Y-65724001D01*
X110099999Y-65924001D01*
G37*
X110099999Y-65924001D02*
X109849999Y-65924001D01*
X109849999Y-65724001D01*
X110099999Y-65724001D01*
X110099999Y-65924001D01*
G36*
X111549999Y-65924001D02*
G01*
X111349999Y-65924001D01*
X111349999Y-65724001D01*
X111549999Y-65724001D01*
X111549999Y-65924001D01*
G37*
X111549999Y-65924001D02*
X111349999Y-65924001D01*
X111349999Y-65724001D01*
X111549999Y-65724001D01*
X111549999Y-65924001D01*
G36*
X110099999Y-65174001D02*
G01*
X109849999Y-65174001D01*
X109849999Y-64924001D01*
X110099999Y-64924001D01*
X110099999Y-65174001D01*
G37*
X110099999Y-65174001D02*
X109849999Y-65174001D01*
X109849999Y-64924001D01*
X110099999Y-64924001D01*
X110099999Y-65174001D01*
G36*
X110049999Y-66324001D02*
G01*
X109849999Y-66324001D01*
X109849999Y-66124001D01*
X110049999Y-66124001D01*
X110049999Y-66324001D01*
G37*
X110049999Y-66324001D02*
X109849999Y-66324001D01*
X109849999Y-66124001D01*
X110049999Y-66124001D01*
X110049999Y-66324001D01*
G36*
X110549999Y-65524001D02*
G01*
X110349999Y-65524001D01*
X110349999Y-65324001D01*
X110549999Y-65324001D01*
X110549999Y-65524001D01*
G37*
X110549999Y-65524001D02*
X110349999Y-65524001D01*
X110349999Y-65324001D01*
X110549999Y-65324001D01*
X110549999Y-65524001D01*
G36*
X112049999Y-66324001D02*
G01*
X111849999Y-66324001D01*
X111849999Y-66124001D01*
X112049999Y-66124001D01*
X112049999Y-66324001D01*
G37*
X112049999Y-66324001D02*
X111849999Y-66324001D01*
X111849999Y-66124001D01*
X112049999Y-66124001D01*
X112049999Y-66324001D01*
G36*
X110549999Y-65124001D02*
G01*
X110349999Y-65124001D01*
X110349999Y-64924001D01*
X110549999Y-64924001D01*
X110549999Y-65124001D01*
G37*
X110549999Y-65124001D02*
X110349999Y-65124001D01*
X110349999Y-64924001D01*
X110549999Y-64924001D01*
X110549999Y-65124001D01*
D11*
X111949999Y-67374001D03*
X111449999Y-67374001D03*
X110949999Y-67374001D03*
X110449999Y-67374001D03*
X109949999Y-67374001D03*
M02*
