G04 #@! TF.GenerationSoftware,KiCad,Pcbnew,(6.0.7)*
G04 #@! TF.CreationDate,2023-01-17T09:43:49-08:00*
G04 #@! TF.ProjectId,mlx90632-breakout,6d6c7839-3036-4333-922d-627265616b6f,rev?*
G04 #@! TF.SameCoordinates,Original*
G04 #@! TF.FileFunction,Copper,L1,Top*
G04 #@! TF.FilePolarity,Positive*
%FSLAX46Y46*%
G04 Gerber Fmt 4.6, Leading zero omitted, Abs format (unit mm)*
G04 Created by KiCad (PCBNEW (6.0.7)) date 2023-01-17 09:43:49*
%MOMM*%
%LPD*%
G01*
G04 APERTURE LIST*
G04 Aperture macros list*
%AMRoundRect*
0 Rectangle with rounded corners*
0 $1 Rounding radius*
0 $2 $3 $4 $5 $6 $7 $8 $9 X,Y pos of 4 corners*
0 Add a 4 corners polygon primitive as box body*
4,1,4,$2,$3,$4,$5,$6,$7,$8,$9,$2,$3,0*
0 Add four circle primitives for the rounded corners*
1,1,$1+$1,$2,$3*
1,1,$1+$1,$4,$5*
1,1,$1+$1,$6,$7*
1,1,$1+$1,$8,$9*
0 Add four rect primitives between the rounded corners*
20,1,$1+$1,$2,$3,$4,$5,0*
20,1,$1+$1,$4,$5,$6,$7,0*
20,1,$1+$1,$6,$7,$8,$9,0*
20,1,$1+$1,$8,$9,$2,$3,0*%
%AMFreePoly0*
4,1,22,0.550000,-0.750000,0.000000,-0.750000,0.000000,-0.745033,-0.079941,-0.743568,-0.215256,-0.701293,-0.333266,-0.622738,-0.424486,-0.514219,-0.481581,-0.384460,-0.499164,-0.250000,-0.500000,-0.250000,-0.500000,0.250000,-0.499164,0.250000,-0.499963,0.256109,-0.478152,0.396186,-0.417904,0.524511,-0.324060,0.630769,-0.204165,0.706417,-0.067858,0.745374,0.000000,0.744959,0.000000,0.750000,
0.550000,0.750000,0.550000,-0.750000,0.550000,-0.750000,$1*%
%AMFreePoly1*
4,1,20,0.000000,0.744959,0.073905,0.744508,0.209726,0.703889,0.328688,0.626782,0.421226,0.519385,0.479903,0.390333,0.500000,0.250000,0.500000,-0.250000,0.499851,-0.262216,0.476331,-0.402017,0.414519,-0.529596,0.319384,-0.634700,0.198574,-0.708877,0.061801,-0.746166,0.000000,-0.745033,0.000000,-0.750000,-0.550000,-0.750000,-0.550000,0.750000,0.000000,0.750000,0.000000,0.744959,
0.000000,0.744959,$1*%
G04 Aperture macros list end*
G04 #@! TA.AperFunction,SMDPad,CuDef*
%ADD10R,1.000000X1.000000*%
G04 #@! TD*
G04 #@! TA.AperFunction,SMDPad,CuDef*
%ADD11FreePoly0,0.000000*%
G04 #@! TD*
G04 #@! TA.AperFunction,SMDPad,CuDef*
%ADD12R,1.000000X1.500000*%
G04 #@! TD*
G04 #@! TA.AperFunction,SMDPad,CuDef*
%ADD13FreePoly1,0.000000*%
G04 #@! TD*
G04 #@! TA.AperFunction,SMDPad,CuDef*
%ADD14R,0.600000X1.350000*%
G04 #@! TD*
G04 #@! TA.AperFunction,SMDPad,CuDef*
%ADD15R,1.200000X2.000000*%
G04 #@! TD*
G04 #@! TA.AperFunction,SMDPad,CuDef*
%ADD16RoundRect,0.140000X0.170000X-0.140000X0.170000X0.140000X-0.170000X0.140000X-0.170000X-0.140000X0*%
G04 #@! TD*
G04 #@! TA.AperFunction,ViaPad*
%ADD17C,0.800000*%
G04 #@! TD*
G04 #@! TA.AperFunction,Conductor*
%ADD18C,0.250000*%
G04 #@! TD*
G04 APERTURE END LIST*
G36*
X108898999Y-76053001D02*
G01*
X108398999Y-76053001D01*
X108398999Y-75453001D01*
X108898999Y-75453001D01*
X108898999Y-76053001D01*
G37*
D10*
X112092999Y-75880001D03*
X113743999Y-75880001D03*
D11*
X107998999Y-75753001D03*
D12*
X109298999Y-75753001D03*
D13*
X110598999Y-75753001D03*
D14*
X109443999Y-78428001D03*
X110443999Y-78428001D03*
X111443999Y-78428001D03*
X112443999Y-78428001D03*
D15*
X113743999Y-82103001D03*
X108143999Y-82103001D03*
D16*
X110568999Y-72042001D03*
X110568999Y-71082001D03*
D17*
X110568999Y-72959001D03*
X112219999Y-74483001D03*
X110478999Y-68895001D03*
X110478999Y-70038001D03*
X110695999Y-73975001D03*
D18*
X110568999Y-72959001D02*
X111076999Y-72959001D01*
X111420999Y-74275306D02*
X110996304Y-74700001D01*
X110568999Y-72042001D02*
X110568999Y-72959001D01*
X111076999Y-72959001D02*
X111420999Y-73303001D01*
X110443999Y-74862001D02*
X110443999Y-78428001D01*
X110996304Y-74700001D02*
X110605999Y-74700001D01*
X110605999Y-74700001D02*
X110443999Y-74862001D01*
X111420999Y-73303001D02*
X111420999Y-74275306D01*
X112092999Y-74610001D02*
X112219999Y-74483001D01*
X112092999Y-77278397D02*
X111443999Y-77927397D01*
X112092999Y-76007001D02*
X112092999Y-77278397D01*
X112092999Y-75880001D02*
X112092999Y-74610001D01*
X111443999Y-77927397D02*
X111443999Y-78428001D01*
X110832304Y-68895001D02*
X112219999Y-70282696D01*
X112219999Y-70282696D02*
X112219999Y-73467001D01*
X112443999Y-78428001D02*
X113227999Y-78428001D01*
X112219999Y-73467001D02*
X113743999Y-74991001D01*
X113743999Y-77912001D02*
X113743999Y-75880001D01*
X113227999Y-78428001D02*
X113743999Y-77912001D01*
X110478999Y-68895001D02*
X110832304Y-68895001D01*
X113743999Y-74991001D02*
X113743999Y-75880001D01*
X108143999Y-78813001D02*
X108143999Y-82103001D01*
X109806999Y-70710001D02*
X110478999Y-70038001D01*
X109443999Y-78428001D02*
X108544999Y-78428001D01*
X108528999Y-78428001D02*
X108143999Y-78813001D01*
X109806999Y-73345001D02*
X109806999Y-70710001D01*
X107871999Y-77755001D02*
X107871999Y-75280001D01*
X110568999Y-71082001D02*
X110568999Y-70128001D01*
X110568999Y-70128001D02*
X110478999Y-70038001D01*
X109443999Y-78428001D02*
X108528999Y-78428001D01*
X113743999Y-82103001D02*
X108143999Y-82103001D01*
X108544999Y-78428001D02*
X107871999Y-77755001D01*
X107871999Y-75280001D02*
X109806999Y-73345001D01*
X110060999Y-73975001D02*
X110695999Y-73975001D01*
X109171999Y-74864001D02*
X110060999Y-73975001D01*
X109171999Y-75880001D02*
X109171999Y-74864001D01*
M02*
