G04 #@! TF.GenerationSoftware,KiCad,Pcbnew,(6.0.7)*
G04 #@! TF.CreationDate,2023-01-17T09:43:49-08:00*
G04 #@! TF.ProjectId,mlx90632-breakout,6d6c7839-3036-4333-922d-627265616b6f,rev?*
G04 #@! TF.SameCoordinates,Original*
G04 #@! TF.FileFunction,Legend,Top*
G04 #@! TF.FilePolarity,Positive*
%FSLAX46Y46*%
G04 Gerber Fmt 4.6, Leading zero omitted, Abs format (unit mm)*
G04 Created by KiCad (PCBNEW (6.0.7)) date 2023-01-17 09:43:49*
%MOMM*%
%LPD*%
G01*
G04 APERTURE LIST*
%ADD10C,0.075000*%
%ADD11C,0.100000*%
%ADD12C,0.120000*%
%ADD13C,0.203200*%
G04 APERTURE END LIST*
D10*
X109871332Y-68289143D02*
X109837999Y-68262953D01*
X109804665Y-68210572D01*
X109804665Y-68079620D01*
X109837999Y-68027239D01*
X109871332Y-68001048D01*
X109937999Y-67974858D01*
X110004665Y-67974858D01*
X110104665Y-68001048D01*
X110504665Y-68315334D01*
X110504665Y-67974858D01*
X109804665Y-67634381D02*
X109804665Y-67582001D01*
X109837999Y-67529620D01*
X109871332Y-67503429D01*
X109937999Y-67477239D01*
X110071332Y-67451048D01*
X110237999Y-67451048D01*
X110371332Y-67477239D01*
X110437999Y-67503429D01*
X110471332Y-67529620D01*
X110504665Y-67582001D01*
X110504665Y-67634381D01*
X110471332Y-67686762D01*
X110437999Y-67712953D01*
X110371332Y-67739143D01*
X110237999Y-67765334D01*
X110071332Y-67765334D01*
X109937999Y-67739143D01*
X109871332Y-67712953D01*
X109837999Y-67686762D01*
X109804665Y-67634381D01*
X109871332Y-67241524D02*
X109837999Y-67215334D01*
X109804665Y-67162953D01*
X109804665Y-67032001D01*
X109837999Y-66979620D01*
X109871332Y-66953429D01*
X109937999Y-66927239D01*
X110004665Y-66927239D01*
X110104665Y-66953429D01*
X110504665Y-67267715D01*
X110504665Y-66927239D01*
X109804665Y-66743905D02*
X109804665Y-66403429D01*
X110071332Y-66586762D01*
X110071332Y-66508191D01*
X110104665Y-66455810D01*
X110137999Y-66429620D01*
X110204665Y-66403429D01*
X110371332Y-66403429D01*
X110437999Y-66429620D01*
X110471332Y-66455810D01*
X110504665Y-66508191D01*
X110504665Y-66665334D01*
X110471332Y-66717715D01*
X110437999Y-66743905D01*
X110237999Y-66167715D02*
X110237999Y-65748667D01*
X109804665Y-65382001D02*
X109804665Y-65329620D01*
X109837999Y-65277239D01*
X109871332Y-65251048D01*
X109937999Y-65224858D01*
X110071332Y-65198667D01*
X110237999Y-65198667D01*
X110371332Y-65224858D01*
X110437999Y-65251048D01*
X110471332Y-65277239D01*
X110504665Y-65329620D01*
X110504665Y-65382001D01*
X110471332Y-65434381D01*
X110437999Y-65460572D01*
X110371332Y-65486762D01*
X110237999Y-65512953D01*
X110071332Y-65512953D01*
X109937999Y-65486762D01*
X109871332Y-65460572D01*
X109837999Y-65434381D01*
X109804665Y-65382001D01*
X110504665Y-64674858D02*
X110504665Y-64989143D01*
X110504665Y-64832001D02*
X109804665Y-64832001D01*
X109904665Y-64884381D01*
X109971332Y-64936762D01*
X110004665Y-64989143D01*
D11*
X112051284Y-73549001D02*
X111551284Y-73549001D01*
X111622713Y-73549001D02*
X111586999Y-73520429D01*
X111551284Y-73463286D01*
X111551284Y-73377572D01*
X111586999Y-73320429D01*
X111658427Y-73291858D01*
X112051284Y-73291858D01*
X111658427Y-73291858D02*
X111586999Y-73263286D01*
X111551284Y-73206143D01*
X111551284Y-73120429D01*
X111586999Y-73063286D01*
X111658427Y-73034715D01*
X112051284Y-73034715D01*
X112051284Y-72663286D02*
X112015570Y-72720429D01*
X111944141Y-72749001D01*
X111301284Y-72749001D01*
X112051284Y-72491858D02*
X111551284Y-72177572D01*
X111551284Y-72491858D02*
X112051284Y-72177572D01*
X112051284Y-71920429D02*
X112051284Y-71806143D01*
X112015570Y-71749001D01*
X111979856Y-71720429D01*
X111872713Y-71663286D01*
X111729856Y-71634715D01*
X111444141Y-71634715D01*
X111372713Y-71663286D01*
X111336999Y-71691858D01*
X111301284Y-71749001D01*
X111301284Y-71863286D01*
X111336999Y-71920429D01*
X111372713Y-71949001D01*
X111444141Y-71977572D01*
X111622713Y-71977572D01*
X111694141Y-71949001D01*
X111729856Y-71920429D01*
X111765570Y-71863286D01*
X111765570Y-71749001D01*
X111729856Y-71691858D01*
X111694141Y-71663286D01*
X111622713Y-71634715D01*
X111301284Y-71263286D02*
X111301284Y-71206143D01*
X111336999Y-71149001D01*
X111372713Y-71120429D01*
X111444141Y-71091858D01*
X111586999Y-71063286D01*
X111765570Y-71063286D01*
X111908427Y-71091858D01*
X111979856Y-71120429D01*
X112015570Y-71149001D01*
X112051284Y-71206143D01*
X112051284Y-71263286D01*
X112015570Y-71320429D01*
X111979856Y-71349001D01*
X111908427Y-71377572D01*
X111765570Y-71406143D01*
X111586999Y-71406143D01*
X111444141Y-71377572D01*
X111372713Y-71349001D01*
X111336999Y-71320429D01*
X111301284Y-71263286D01*
X111301284Y-70549001D02*
X111301284Y-70663286D01*
X111336999Y-70720429D01*
X111372713Y-70749001D01*
X111479856Y-70806143D01*
X111622713Y-70834715D01*
X111908427Y-70834715D01*
X111979856Y-70806143D01*
X112015570Y-70777572D01*
X112051284Y-70720429D01*
X112051284Y-70606143D01*
X112015570Y-70549001D01*
X111979856Y-70520429D01*
X111908427Y-70491858D01*
X111729856Y-70491858D01*
X111658427Y-70520429D01*
X111622713Y-70549001D01*
X111586999Y-70606143D01*
X111586999Y-70720429D01*
X111622713Y-70777572D01*
X111658427Y-70806143D01*
X111729856Y-70834715D01*
X111301284Y-70291858D02*
X111301284Y-69920429D01*
X111586999Y-70120429D01*
X111586999Y-70034715D01*
X111622713Y-69977572D01*
X111658427Y-69949001D01*
X111729856Y-69920429D01*
X111908427Y-69920429D01*
X111979856Y-69949001D01*
X112015570Y-69977572D01*
X112051284Y-70034715D01*
X112051284Y-70206143D01*
X112015570Y-70263286D01*
X111979856Y-70291858D01*
X111372713Y-69691858D02*
X111336999Y-69663286D01*
X111301284Y-69606143D01*
X111301284Y-69463286D01*
X111336999Y-69406143D01*
X111372713Y-69377572D01*
X111444141Y-69349001D01*
X111515570Y-69349001D01*
X111622713Y-69377572D01*
X112051284Y-69720429D01*
X112051284Y-69349001D01*
X111765570Y-69091858D02*
X111765570Y-68634715D01*
X112051284Y-68349001D02*
X111301284Y-68349001D01*
X111586999Y-68349001D02*
X111551284Y-68291858D01*
X111551284Y-68177572D01*
X111586999Y-68120429D01*
X111622713Y-68091858D01*
X111694141Y-68063286D01*
X111908427Y-68063286D01*
X111979856Y-68091858D01*
X112015570Y-68120429D01*
X112051284Y-68177572D01*
X112051284Y-68291858D01*
X112015570Y-68349001D01*
X112051284Y-67806143D02*
X111551284Y-67806143D01*
X111694141Y-67806143D02*
X111622713Y-67777572D01*
X111586999Y-67749001D01*
X111551284Y-67691858D01*
X111551284Y-67634715D01*
X112015570Y-67206143D02*
X112051284Y-67263286D01*
X112051284Y-67377572D01*
X112015570Y-67434715D01*
X111944141Y-67463286D01*
X111658427Y-67463286D01*
X111586999Y-67434715D01*
X111551284Y-67377572D01*
X111551284Y-67263286D01*
X111586999Y-67206143D01*
X111658427Y-67177572D01*
X111729856Y-67177572D01*
X111801284Y-67463286D01*
X112051284Y-66663286D02*
X111658427Y-66663286D01*
X111586999Y-66691858D01*
X111551284Y-66749001D01*
X111551284Y-66863286D01*
X111586999Y-66920429D01*
X112015570Y-66663286D02*
X112051284Y-66720429D01*
X112051284Y-66863286D01*
X112015570Y-66920429D01*
X111944141Y-66949001D01*
X111872713Y-66949001D01*
X111801284Y-66920429D01*
X111765570Y-66863286D01*
X111765570Y-66720429D01*
X111729856Y-66663286D01*
X112051284Y-66377572D02*
X111301284Y-66377572D01*
X111765570Y-66320429D02*
X112051284Y-66149001D01*
X111551284Y-66149001D02*
X111836999Y-66377572D01*
X112051284Y-65806143D02*
X112015570Y-65863286D01*
X111979856Y-65891858D01*
X111908427Y-65920429D01*
X111694141Y-65920429D01*
X111622713Y-65891858D01*
X111586999Y-65863286D01*
X111551284Y-65806143D01*
X111551284Y-65720429D01*
X111586999Y-65663286D01*
X111622713Y-65634715D01*
X111694141Y-65606143D01*
X111908427Y-65606143D01*
X111979856Y-65634715D01*
X112015570Y-65663286D01*
X112051284Y-65720429D01*
X112051284Y-65806143D01*
X111551284Y-65091858D02*
X112051284Y-65091858D01*
X111551284Y-65349001D02*
X111944141Y-65349001D01*
X112015570Y-65320429D01*
X112051284Y-65263286D01*
X112051284Y-65177572D01*
X112015570Y-65120429D01*
X111979856Y-65091858D01*
X111551284Y-64891858D02*
X111551284Y-64663286D01*
X111301284Y-64806143D02*
X111944141Y-64806143D01*
X112015570Y-64777572D01*
X112051284Y-64720429D01*
X112051284Y-64663286D01*
D10*
X111728713Y-77144429D02*
X111771570Y-77158715D01*
X111842999Y-77158715D01*
X111871570Y-77144429D01*
X111885856Y-77130143D01*
X111900141Y-77101572D01*
X111900141Y-77073001D01*
X111885856Y-77044429D01*
X111871570Y-77030143D01*
X111842999Y-77015858D01*
X111785856Y-77001572D01*
X111757284Y-76987286D01*
X111742999Y-76973001D01*
X111728713Y-76944429D01*
X111728713Y-76915858D01*
X111742999Y-76887286D01*
X111757284Y-76873001D01*
X111785856Y-76858715D01*
X111857284Y-76858715D01*
X111900141Y-76873001D01*
X112028713Y-77158715D02*
X112028713Y-76858715D01*
X112100141Y-76858715D01*
X112142999Y-76873001D01*
X112171570Y-76901572D01*
X112185856Y-76930143D01*
X112200141Y-76987286D01*
X112200141Y-77030143D01*
X112185856Y-77087286D01*
X112171570Y-77115858D01*
X112142999Y-77144429D01*
X112100141Y-77158715D01*
X112028713Y-77158715D01*
X112314427Y-77073001D02*
X112457284Y-77073001D01*
X112285856Y-77158715D02*
X112385856Y-76858715D01*
X112485856Y-77158715D01*
X113386856Y-77144429D02*
X113429713Y-77158715D01*
X113501141Y-77158715D01*
X113529713Y-77144429D01*
X113543999Y-77130143D01*
X113558284Y-77101572D01*
X113558284Y-77073001D01*
X113543999Y-77044429D01*
X113529713Y-77030143D01*
X113501141Y-77015858D01*
X113443999Y-77001572D01*
X113415427Y-76987286D01*
X113401141Y-76973001D01*
X113386856Y-76944429D01*
X113386856Y-76915858D01*
X113401141Y-76887286D01*
X113415427Y-76873001D01*
X113443999Y-76858715D01*
X113515427Y-76858715D01*
X113558284Y-76873001D01*
X113858284Y-77130143D02*
X113843999Y-77144429D01*
X113801141Y-77158715D01*
X113772570Y-77158715D01*
X113729713Y-77144429D01*
X113701141Y-77115858D01*
X113686856Y-77087286D01*
X113672570Y-77030143D01*
X113672570Y-76987286D01*
X113686856Y-76930143D01*
X113701141Y-76901572D01*
X113729713Y-76873001D01*
X113772570Y-76858715D01*
X113801141Y-76858715D01*
X113843999Y-76873001D01*
X113858284Y-76887286D01*
X114129713Y-77158715D02*
X113986856Y-77158715D01*
X113986856Y-76858715D01*
D11*
X107756141Y-76823001D02*
X107718046Y-76803953D01*
X107660903Y-76803953D01*
X107603760Y-76823001D01*
X107565665Y-76861096D01*
X107546618Y-76899191D01*
X107527570Y-76975381D01*
X107527570Y-77032524D01*
X107546618Y-77108715D01*
X107565665Y-77146810D01*
X107603760Y-77184905D01*
X107660903Y-77203953D01*
X107698999Y-77203953D01*
X107756141Y-77184905D01*
X107775189Y-77165858D01*
X107775189Y-77032524D01*
X107698999Y-77032524D01*
X107946618Y-77203953D02*
X107946618Y-76803953D01*
X108175189Y-77203953D01*
X108175189Y-76803953D01*
X108365665Y-77203953D02*
X108365665Y-76803953D01*
X108460903Y-76803953D01*
X108518046Y-76823001D01*
X108556141Y-76861096D01*
X108575189Y-76899191D01*
X108594237Y-76975381D01*
X108594237Y-77032524D01*
X108575189Y-77108715D01*
X108556141Y-77146810D01*
X108518046Y-77184905D01*
X108460903Y-77203953D01*
X108365665Y-77203953D01*
X109051379Y-77089667D02*
X109241856Y-77089667D01*
X109013284Y-77203953D02*
X109146618Y-76803953D01*
X109279951Y-77203953D01*
X109489475Y-76803953D02*
X109527570Y-76803953D01*
X109565665Y-76823001D01*
X109584713Y-76842048D01*
X109603760Y-76880143D01*
X109622808Y-76956334D01*
X109622808Y-77051572D01*
X109603760Y-77127762D01*
X109584713Y-77165858D01*
X109565665Y-77184905D01*
X109527570Y-77203953D01*
X109489475Y-77203953D01*
X109451379Y-77184905D01*
X109432332Y-77165858D01*
X109413284Y-77127762D01*
X109394237Y-77051572D01*
X109394237Y-76956334D01*
X109413284Y-76880143D01*
X109432332Y-76842048D01*
X109451379Y-76823001D01*
X109489475Y-76803953D01*
X110041856Y-76803953D02*
X110175189Y-77203953D01*
X110308522Y-76803953D01*
X110441856Y-77203953D02*
X110441856Y-76803953D01*
X110537094Y-76803953D01*
X110594237Y-76823001D01*
X110632332Y-76861096D01*
X110651379Y-76899191D01*
X110670427Y-76975381D01*
X110670427Y-77032524D01*
X110651379Y-77108715D01*
X110632332Y-77146810D01*
X110594237Y-77184905D01*
X110537094Y-77203953D01*
X110441856Y-77203953D01*
X110841856Y-77203953D02*
X110841856Y-76803953D01*
X110937094Y-76803953D01*
X110994237Y-76823001D01*
X111032332Y-76861096D01*
X111051379Y-76899191D01*
X111070427Y-76975381D01*
X111070427Y-77032524D01*
X111051379Y-77108715D01*
X111032332Y-77146810D01*
X110994237Y-77184905D01*
X110937094Y-77203953D01*
X110841856Y-77203953D01*
D12*
X112792999Y-76580001D02*
X111392999Y-76580001D01*
X111392999Y-75180001D02*
X112792999Y-75180001D01*
X111392999Y-76580001D02*
X111392999Y-75180001D01*
X112792999Y-75180001D02*
X112792999Y-76580001D01*
X114443999Y-75180001D02*
X114443999Y-76580001D01*
X114443999Y-76580001D02*
X113043999Y-76580001D01*
X113043999Y-76580001D02*
X113043999Y-75180001D01*
X113043999Y-75180001D02*
X114443999Y-75180001D01*
D13*
X107943999Y-80428001D02*
X107943999Y-78778001D01*
X113943999Y-78778001D02*
X113943999Y-80428001D01*
X113193999Y-78778001D02*
X113943999Y-78778001D01*
X107943999Y-78778001D02*
X108693999Y-78778001D01*
X109443999Y-83028001D02*
X112443999Y-83028001D01*
X108545599Y-78128001D02*
G75*
G03*
X108545599Y-78128001I-101600J0D01*
G01*
D12*
X110928999Y-71669837D02*
X110928999Y-71454165D01*
X110208999Y-71669837D02*
X110208999Y-71454165D01*
M02*
