G04 #@! TF.GenerationSoftware,KiCad,Pcbnew,(6.0.7)*
G04 #@! TF.CreationDate,2023-01-17T09:38:14-08:00*
G04 #@! TF.ProjectId,mlx90614-breakout,6d6c7839-3036-4313-942d-627265616b6f,rev?*
G04 #@! TF.SameCoordinates,Original*
G04 #@! TF.FileFunction,Legend,Bot*
G04 #@! TF.FilePolarity,Positive*
%FSLAX46Y46*%
G04 Gerber Fmt 4.6, Leading zero omitted, Abs format (unit mm)*
G04 Created by KiCad (PCBNEW (6.0.7)) date 2023-01-17 09:38:14*
%MOMM*%
%LPD*%
G01*
G04 APERTURE LIST*
%ADD10C,0.250000*%
%ADD11C,0.100000*%
%ADD12C,0.010000*%
%ADD13C,0.127000*%
%ADD14C,0.200000*%
G04 APERTURE END LIST*
D10*
X115983332Y-73383572D02*
X115983332Y-71883572D01*
X115516665Y-72955001D01*
X115049999Y-71883572D01*
X115049999Y-73383572D01*
X113716665Y-73383572D02*
X114383332Y-73383572D01*
X114383332Y-71883572D01*
X113383332Y-71883572D02*
X112449999Y-73383572D01*
X112449999Y-71883572D02*
X113383332Y-73383572D01*
X111849999Y-73383572D02*
X111583332Y-73383572D01*
X111449999Y-73312143D01*
X111383332Y-73240715D01*
X111249999Y-73026429D01*
X111183332Y-72740715D01*
X111183332Y-72169286D01*
X111249999Y-72026429D01*
X111316665Y-71955001D01*
X111449999Y-71883572D01*
X111716665Y-71883572D01*
X111849999Y-71955001D01*
X111916665Y-72026429D01*
X111983332Y-72169286D01*
X111983332Y-72526429D01*
X111916665Y-72669286D01*
X111849999Y-72740715D01*
X111716665Y-72812143D01*
X111449999Y-72812143D01*
X111316665Y-72740715D01*
X111249999Y-72669286D01*
X111183332Y-72526429D01*
X110316665Y-71883572D02*
X110183332Y-71883572D01*
X110049999Y-71955001D01*
X109983332Y-72026429D01*
X109916665Y-72169286D01*
X109849999Y-72455001D01*
X109849999Y-72812143D01*
X109916665Y-73097858D01*
X109983332Y-73240715D01*
X110049999Y-73312143D01*
X110183332Y-73383572D01*
X110316665Y-73383572D01*
X110449999Y-73312143D01*
X110516665Y-73240715D01*
X110583332Y-73097858D01*
X110649999Y-72812143D01*
X110649999Y-72455001D01*
X110583332Y-72169286D01*
X110516665Y-72026429D01*
X110449999Y-71955001D01*
X110316665Y-71883572D01*
X108649999Y-71883572D02*
X108916665Y-71883572D01*
X109049999Y-71955001D01*
X109116665Y-72026429D01*
X109249999Y-72240715D01*
X109316665Y-72526429D01*
X109316665Y-73097858D01*
X109249999Y-73240715D01*
X109183332Y-73312143D01*
X109049999Y-73383572D01*
X108783332Y-73383572D01*
X108649999Y-73312143D01*
X108583332Y-73240715D01*
X108516665Y-73097858D01*
X108516665Y-72740715D01*
X108583332Y-72597858D01*
X108649999Y-72526429D01*
X108783332Y-72455001D01*
X109049999Y-72455001D01*
X109183332Y-72526429D01*
X109249999Y-72597858D01*
X109316665Y-72740715D01*
X107183332Y-73383572D02*
X107983332Y-73383572D01*
X107583332Y-73383572D02*
X107583332Y-71883572D01*
X107716665Y-72097858D01*
X107849999Y-72240715D01*
X107983332Y-72312143D01*
X105983332Y-72383572D02*
X105983332Y-73383572D01*
X106316665Y-71812143D02*
X106649999Y-72883572D01*
X105783332Y-72883572D01*
D11*
X116449999Y-82682381D02*
X116449999Y-82015715D01*
X116449999Y-82110953D02*
X116414284Y-82063334D01*
X116342856Y-82015715D01*
X116235713Y-82015715D01*
X116164284Y-82063334D01*
X116128570Y-82158572D01*
X116128570Y-82682381D01*
X116128570Y-82158572D02*
X116092856Y-82063334D01*
X116021427Y-82015715D01*
X115914284Y-82015715D01*
X115842856Y-82063334D01*
X115807141Y-82158572D01*
X115807141Y-82682381D01*
X115342856Y-82682381D02*
X115414284Y-82634762D01*
X115449999Y-82539524D01*
X115449999Y-81682381D01*
X115128570Y-82682381D02*
X114735713Y-82015715D01*
X115128570Y-82015715D02*
X114735713Y-82682381D01*
X114414284Y-82682381D02*
X114271427Y-82682381D01*
X114199999Y-82634762D01*
X114164284Y-82587143D01*
X114092856Y-82444286D01*
X114057141Y-82253810D01*
X114057141Y-81872858D01*
X114092856Y-81777620D01*
X114128570Y-81730001D01*
X114199999Y-81682381D01*
X114342856Y-81682381D01*
X114414284Y-81730001D01*
X114449999Y-81777620D01*
X114485713Y-81872858D01*
X114485713Y-82110953D01*
X114449999Y-82206191D01*
X114414284Y-82253810D01*
X114342856Y-82301429D01*
X114199999Y-82301429D01*
X114128570Y-82253810D01*
X114092856Y-82206191D01*
X114057141Y-82110953D01*
X113592856Y-81682381D02*
X113521427Y-81682381D01*
X113449999Y-81730001D01*
X113414284Y-81777620D01*
X113378570Y-81872858D01*
X113342856Y-82063334D01*
X113342856Y-82301429D01*
X113378570Y-82491905D01*
X113414284Y-82587143D01*
X113449999Y-82634762D01*
X113521427Y-82682381D01*
X113592856Y-82682381D01*
X113664284Y-82634762D01*
X113699999Y-82587143D01*
X113735713Y-82491905D01*
X113771427Y-82301429D01*
X113771427Y-82063334D01*
X113735713Y-81872858D01*
X113699999Y-81777620D01*
X113664284Y-81730001D01*
X113592856Y-81682381D01*
X112699999Y-81682381D02*
X112842856Y-81682381D01*
X112914284Y-81730001D01*
X112949999Y-81777620D01*
X113021427Y-81920477D01*
X113057141Y-82110953D01*
X113057141Y-82491905D01*
X113021427Y-82587143D01*
X112985713Y-82634762D01*
X112914284Y-82682381D01*
X112771427Y-82682381D01*
X112699999Y-82634762D01*
X112664284Y-82587143D01*
X112628570Y-82491905D01*
X112628570Y-82253810D01*
X112664284Y-82158572D01*
X112699999Y-82110953D01*
X112771427Y-82063334D01*
X112914284Y-82063334D01*
X112985713Y-82110953D01*
X113021427Y-82158572D01*
X113057141Y-82253810D01*
X111914284Y-82682381D02*
X112342856Y-82682381D01*
X112128570Y-82682381D02*
X112128570Y-81682381D01*
X112199999Y-81825239D01*
X112271427Y-81920477D01*
X112342856Y-81968096D01*
X111271427Y-82015715D02*
X111271427Y-82682381D01*
X111449999Y-81634762D02*
X111628570Y-82349048D01*
X111164284Y-82349048D01*
X110878570Y-82301429D02*
X110307141Y-82301429D01*
X109949999Y-82682381D02*
X109949999Y-81682381D01*
X109949999Y-82063334D02*
X109878570Y-82015715D01*
X109735713Y-82015715D01*
X109664284Y-82063334D01*
X109628570Y-82110953D01*
X109592856Y-82206191D01*
X109592856Y-82491905D01*
X109628570Y-82587143D01*
X109664284Y-82634762D01*
X109735713Y-82682381D01*
X109878570Y-82682381D01*
X109949999Y-82634762D01*
X109271427Y-82682381D02*
X109271427Y-82015715D01*
X109271427Y-82206191D02*
X109235713Y-82110953D01*
X109199999Y-82063334D01*
X109128570Y-82015715D01*
X109057141Y-82015715D01*
X108521427Y-82634762D02*
X108592856Y-82682381D01*
X108735713Y-82682381D01*
X108807141Y-82634762D01*
X108842856Y-82539524D01*
X108842856Y-82158572D01*
X108807141Y-82063334D01*
X108735713Y-82015715D01*
X108592856Y-82015715D01*
X108521427Y-82063334D01*
X108485713Y-82158572D01*
X108485713Y-82253810D01*
X108842856Y-82349048D01*
X107842856Y-82682381D02*
X107842856Y-82158572D01*
X107878570Y-82063334D01*
X107949999Y-82015715D01*
X108092856Y-82015715D01*
X108164284Y-82063334D01*
X107842856Y-82634762D02*
X107914284Y-82682381D01*
X108092856Y-82682381D01*
X108164284Y-82634762D01*
X108199999Y-82539524D01*
X108199999Y-82444286D01*
X108164284Y-82349048D01*
X108092856Y-82301429D01*
X107914284Y-82301429D01*
X107842856Y-82253810D01*
X107485713Y-82682381D02*
X107485713Y-81682381D01*
X107414284Y-82301429D02*
X107199999Y-82682381D01*
X107199999Y-82015715D02*
X107485713Y-82396667D01*
X106771427Y-82682381D02*
X106842856Y-82634762D01*
X106878570Y-82587143D01*
X106914284Y-82491905D01*
X106914284Y-82206191D01*
X106878570Y-82110953D01*
X106842856Y-82063334D01*
X106771427Y-82015715D01*
X106664284Y-82015715D01*
X106592856Y-82063334D01*
X106557141Y-82110953D01*
X106521427Y-82206191D01*
X106521427Y-82491905D01*
X106557141Y-82587143D01*
X106592856Y-82634762D01*
X106664284Y-82682381D01*
X106771427Y-82682381D01*
X105878570Y-82015715D02*
X105878570Y-82682381D01*
X106199999Y-82015715D02*
X106199999Y-82539524D01*
X106164284Y-82634762D01*
X106092856Y-82682381D01*
X105985713Y-82682381D01*
X105914284Y-82634762D01*
X105878570Y-82587143D01*
X105628570Y-82015715D02*
X105342856Y-82015715D01*
X105521427Y-81682381D02*
X105521427Y-82539524D01*
X105485713Y-82634762D01*
X105414284Y-82682381D01*
X105342856Y-82682381D01*
G36*
X108968514Y-77687591D02*
G01*
X108969920Y-77762521D01*
X108816977Y-77762521D01*
X108819789Y-77612661D01*
X108967109Y-77612661D01*
X108968514Y-77687591D01*
G37*
D12*
X108968514Y-77687591D02*
X108969920Y-77762521D01*
X108816977Y-77762521D01*
X108819789Y-77612661D01*
X108967109Y-77612661D01*
X108968514Y-77687591D01*
G36*
X110249809Y-77950481D02*
G01*
X110173609Y-77950481D01*
X110173609Y-77874281D01*
X110249809Y-77874281D01*
X110249809Y-77950481D01*
G37*
X110249809Y-77950481D02*
X110173609Y-77950481D01*
X110173609Y-77874281D01*
X110249809Y-77874281D01*
X110249809Y-77950481D01*
G36*
X109965329Y-77747281D02*
G01*
X109853569Y-77747281D01*
X109853569Y-77635521D01*
X109965329Y-77635521D01*
X109965329Y-77747281D01*
G37*
X109965329Y-77747281D02*
X109853569Y-77747281D01*
X109853569Y-77635521D01*
X109965329Y-77635521D01*
X109965329Y-77747281D01*
G36*
X108344809Y-77879361D02*
G01*
X108238129Y-77879361D01*
X108238129Y-77777761D01*
X108344809Y-77777761D01*
X108344809Y-77879361D01*
G37*
X108344809Y-77879361D02*
X108238129Y-77879361D01*
X108238129Y-77777761D01*
X108344809Y-77777761D01*
X108344809Y-77879361D01*
G36*
X109299849Y-77894601D02*
G01*
X109122049Y-77894601D01*
X109122049Y-77716801D01*
X109299849Y-77716801D01*
X109299849Y-77894601D01*
G37*
X109299849Y-77894601D02*
X109122049Y-77894601D01*
X109122049Y-77716801D01*
X109299849Y-77716801D01*
X109299849Y-77894601D01*
G36*
X108633250Y-77552971D02*
G01*
X108631829Y-77617741D01*
X108567059Y-77619162D01*
X108502289Y-77620584D01*
X108502289Y-77488201D01*
X108634672Y-77488201D01*
X108633250Y-77552971D01*
G37*
X108633250Y-77552971D02*
X108631829Y-77617741D01*
X108567059Y-77619162D01*
X108502289Y-77620584D01*
X108502289Y-77488201D01*
X108634672Y-77488201D01*
X108633250Y-77552971D01*
G36*
X108664849Y-78336561D02*
G01*
X108619129Y-78336561D01*
X108619129Y-78290841D01*
X108664849Y-78290841D01*
X108664849Y-78336561D01*
G37*
X108664849Y-78336561D02*
X108619129Y-78336561D01*
X108619129Y-78290841D01*
X108664849Y-78290841D01*
X108664849Y-78336561D01*
G36*
X107841889Y-77930161D02*
G01*
X107780929Y-77930161D01*
X107780929Y-77869201D01*
X107841889Y-77869201D01*
X107841889Y-77930161D01*
G37*
X107841889Y-77930161D02*
X107780929Y-77930161D01*
X107780929Y-77869201D01*
X107841889Y-77869201D01*
X107841889Y-77930161D01*
G36*
X108116209Y-78128281D02*
G01*
X108040009Y-78128281D01*
X108040009Y-78052081D01*
X108116209Y-78052081D01*
X108116209Y-78128281D01*
G37*
X108116209Y-78128281D02*
X108040009Y-78128281D01*
X108040009Y-78052081D01*
X108116209Y-78052081D01*
X108116209Y-78128281D01*
G36*
X108918849Y-78133361D02*
G01*
X108827409Y-78133361D01*
X108827409Y-78036841D01*
X108918849Y-78036841D01*
X108918849Y-78133361D01*
G37*
X108918849Y-78133361D02*
X108827409Y-78133361D01*
X108827409Y-78036841D01*
X108918849Y-78036841D01*
X108918849Y-78133361D01*
G36*
X109639056Y-77512213D02*
G01*
X109637669Y-77602501D01*
X109549925Y-77603891D01*
X109516550Y-77604255D01*
X109492114Y-77604087D01*
X109475408Y-77603317D01*
X109465223Y-77601873D01*
X109460348Y-77599686D01*
X109459624Y-77598616D01*
X109458847Y-77591494D01*
X109458337Y-77576072D01*
X109458118Y-77554211D01*
X109458214Y-77527766D01*
X109458468Y-77508325D01*
X109459869Y-77424701D01*
X109550156Y-77423313D01*
X109640444Y-77421925D01*
X109639056Y-77512213D01*
G37*
X109639056Y-77512213D02*
X109637669Y-77602501D01*
X109549925Y-77603891D01*
X109516550Y-77604255D01*
X109492114Y-77604087D01*
X109475408Y-77603317D01*
X109465223Y-77601873D01*
X109460348Y-77599686D01*
X109459624Y-77598616D01*
X109458847Y-77591494D01*
X109458337Y-77576072D01*
X109458118Y-77554211D01*
X109458214Y-77527766D01*
X109458468Y-77508325D01*
X109459869Y-77424701D01*
X109550156Y-77423313D01*
X109640444Y-77421925D01*
X109639056Y-77512213D01*
G36*
X108629289Y-78016521D02*
G01*
X108517529Y-78016521D01*
X108517529Y-77899681D01*
X108629289Y-77899681D01*
X108629289Y-78016521D01*
G37*
X108629289Y-78016521D02*
X108517529Y-78016521D01*
X108517529Y-77899681D01*
X108629289Y-77899681D01*
X108629289Y-78016521D01*
G36*
X109167769Y-77452641D02*
G01*
X108989969Y-77452641D01*
X108989969Y-77274841D01*
X109167769Y-77274841D01*
X109167769Y-77452641D01*
G37*
X109167769Y-77452641D02*
X108989969Y-77452641D01*
X108989969Y-77274841D01*
X109167769Y-77274841D01*
X109167769Y-77452641D01*
G36*
X108426089Y-78290841D02*
G01*
X108324489Y-78290841D01*
X108324489Y-78189241D01*
X108426089Y-78189241D01*
X108426089Y-78290841D01*
G37*
X108426089Y-78290841D02*
X108324489Y-78290841D01*
X108324489Y-78189241D01*
X108426089Y-78189241D01*
X108426089Y-78290841D01*
D13*
X110550003Y-59760002D02*
X110549996Y-58960003D01*
X110549996Y-58960003D02*
X111350002Y-58960003D01*
X111350002Y-58960003D02*
X111349995Y-59760002D01*
X115659995Y-64450001D02*
G75*
G03*
X111349994Y-59760003I-4711832J-4670D01*
G01*
X106240003Y-64450001D02*
G75*
G03*
X110949999Y-69159997I4709996J0D01*
G01*
X110949999Y-69159997D02*
G75*
G03*
X115659995Y-64450001I1J4709995D01*
G01*
X110550003Y-59760001D02*
G75*
G03*
X106240002Y-64450000I401465J-4694332D01*
G01*
D14*
X114783523Y-60716477D02*
G75*
G03*
X114783523Y-60716477I-100000J0D01*
G01*
M02*
