<?xml version="1.0" standalone="no"?>
 <!DOCTYPE svg PUBLIC "-//W3C//DTD SVG 1.1//EN" 
 "http://www.w3.org/Graphics/SVG/1.1/DTD/svg11.dtd"> 
<svg
  xmlns:svg="http://www.w3.org/2000/svg"
  xmlns="http://www.w3.org/2000/svg"
  xmlns:xlink="http://www.w3.org/1999/xlink"
  version="1.1"
  width="13.200380cm" height="15.001240cm" viewBox="0 0 51970 59060">
<title>SVG Picture created as mlx90614-breakout.svg date 2023/01/25 09:53:29 </title>
  <desc>Picture generated by Eeschema-SVG </desc>
<g style="fill:#000000; fill-opacity:1.000000;stroke:#000000; stroke-opacity:1.000000;
stroke-linecap:round; stroke-linejoin:round;"
 transform="translate(0 0) scale(1 1)">
</g>
<g style="fill:#840000; fill-opacity:0.0; 
stroke:#840000; stroke-width:0.000000; stroke-opacity:1; 
stroke-linecap:round; stroke-linejoin:round;">
</g>
<g style="fill:#840000; fill-opacity:0.0; 
stroke:#840000; stroke-width:60.000000; stroke-opacity:1; 
stroke-linecap:round; stroke-linejoin:round;">
<rect x="4725.905512" y="41737.165354" width="42519.685039" height="12598.425197" rx="0.000000" />
<rect x="3937.007874" y="3937.007874" width="44095.984252" height="51185.984252" rx="0.000000" />
<rect x="4724.409449" y="4724.409449" width="42521.181102" height="49611.181102" rx="0.000000" />
<path d="M23622 4724
L23622 3937
" />
<path d="M43307 4724
L43307 3937
" />
<text x="13779.527559" y="4586.614173"
textLength="547.440945" font-size="682.401575" lengthAdjust="spacingAndGlyphs"
text-anchor="start" opacity="0">1</text>
<g class="stroked-text"><desc>1</desc>
<path d="M14199 4562
L13907 4562
" />
<path d="M14053 4562
L14053 4050
L14004 4123
L13955 4172
L13907 4196
" />
</g><text x="33464.566929" y="4586.614173"
textLength="547.440945" font-size="682.401575" lengthAdjust="spacingAndGlyphs"
text-anchor="start" opacity="0">2</text>
<g class="stroked-text"><desc>2</desc>
<path d="M33592 4099
L33616 4074
L33665 4050
L33787 4050
L33835 4074
L33860 4099
L33884 4147
L33884 4196
L33860 4269
L33567 4562
L33884 4562
" />
</g><path d="M23622 54335
L23622 55122
" />
<path d="M43307 54335
L43307 55122
" />
<text x="13779.527559" y="54985.196850"
textLength="547.440945" font-size="682.401575" lengthAdjust="spacingAndGlyphs"
text-anchor="start" opacity="0">1</text>
<g class="stroked-text"><desc>1</desc>
<path d="M14199 54960
L13907 54960
" />
<path d="M14053 54960
L14053 54448
L14004 54522
L13955 54570
L13907 54595
" />
</g><text x="33464.566929" y="54985.196850"
textLength="547.440945" font-size="682.401575" lengthAdjust="spacingAndGlyphs"
text-anchor="start" opacity="0">2</text>
<g class="stroked-text"><desc>2</desc>
<path d="M33592 54497
L33616 54473
L33665 54448
L33787 54448
L33835 54473
L33860 54497
L33884 54546
L33884 54595
L33860 54668
L33567 54960
L33884 54960
" />
</g><path d="M3937 23622
L4724 23622
" />
<path d="M3937 43307
L4724 43307
" />
<text x="4330.708661" y="14035.433071"
textLength="498.700787" font-size="682.401575" lengthAdjust="spacingAndGlyphs"
text-anchor="middle" opacity="0">A</text>
<g class="stroked-text"><desc>A</desc>
<path d="M4208 13864
L4452 13864
" />
<path d="M4160 14011
L4330 13499
L4501 14011
" />
</g><text x="4330.708661" y="33720.472441"
textLength="571.811024" font-size="682.401575" lengthAdjust="spacingAndGlyphs"
text-anchor="middle" opacity="0">B</text>
<g class="stroked-text"><desc>B</desc>
<path d="M4367 33427
L4440 33452
L4464 33476
L4489 33525
L4489 33598
L4464 33647
L4440 33671
L4391 33696
L4196 33696
L4196 33184
L4367 33184
L4415 33208
L4440 33233
L4464 33281
L4464 33330
L4440 33379
L4415 33403
L4367 33427
L4196 33427
" />
</g><text x="4330.708661" y="53405.511811"
textLength="571.811024" font-size="682.401575" lengthAdjust="spacingAndGlyphs"
text-anchor="middle" opacity="0">C</text>
<g class="stroked-text"><desc>C</desc>
<path d="M4489 53332
L4464 53356
L4391 53381
L4342 53381
L4269 53356
L4221 53307
L4196 53259
L4172 53161
L4172 53088
L4196 52991
L4221 52942
L4269 52893
L4342 52869
L4391 52869
L4464 52893
L4489 52918
" />
</g><path d="M48032 23622
L47245 23622
" />
<path d="M48032 43307
L47245 43307
" />
<text x="47639.291339" y="14035.433071"
textLength="498.700787" font-size="682.401575" lengthAdjust="spacingAndGlyphs"
text-anchor="middle" opacity="0">A</text>
<g class="stroked-text"><desc>A</desc>
<path d="M47517 13864
L47761 13864
" />
<path d="M47468 14011
L47639 13499
L47809 14011
" />
</g><text x="47639.291339" y="33720.472441"
textLength="571.811024" font-size="682.401575" lengthAdjust="spacingAndGlyphs"
text-anchor="middle" opacity="0">B</text>
<g class="stroked-text"><desc>B</desc>
<path d="M47675 33427
L47748 33452
L47773 33476
L47797 33525
L47797 33598
L47773 33647
L47748 33671
L47700 33696
L47505 33696
L47505 33184
L47675 33184
L47724 33208
L47748 33233
L47773 33281
L47773 33330
L47748 33379
L47724 33403
L47675 33427
L47505 33427
" />
</g><text x="47639.291339" y="53405.511811"
textLength="571.811024" font-size="682.401575" lengthAdjust="spacingAndGlyphs"
text-anchor="middle" opacity="0">C</text>
<g class="stroked-text"><desc>C</desc>
<path d="M47797 53332
L47773 53356
L47700 53381
L47651 53381
L47578 53356
L47529 53307
L47505 53259
L47480 53161
L47480 53088
L47505 52991
L47529 52942
L47578 52893
L47651 52869
L47700 52869
L47773 52893
L47797 52918
" />
</g><text x="13781.023622" y="52701.732283"
textLength="8721.417323" font-size="787.401575" lengthAdjust="spacingAndGlyphs"
text-anchor="start" opacity="0">Date: 2023-01-13</text>
<g class="stroked-text"><desc>Date: 2023-01-13</desc>
<path d="M13951 52673
L13951 52083
L14092 52083
L14176 52111
L14232 52167
L14260 52223
L14289 52336
L14289 52420
L14260 52532
L14232 52589
L14176 52645
L14092 52673
L13951 52673
" />
<path d="M14795 52673
L14795 52364
L14767 52308
L14710 52279
L14598 52279
L14542 52308
" />
<path d="M14795 52645
L14739 52673
L14598 52673
L14542 52645
L14514 52589
L14514 52532
L14542 52476
L14598 52448
L14739 52448
L14795 52420
" />
<path d="M14992 52279
L15217 52279
" />
<path d="M15076 52083
L15076 52589
L15104 52645
L15160 52673
L15217 52673
" />
<path d="M15638 52645
L15582 52673
L15470 52673
L15413 52645
L15385 52589
L15385 52364
L15413 52308
L15470 52279
L15582 52279
L15638 52308
L15667 52364
L15667 52420
L15385 52476
" />
<path d="M15920 52617
L15948 52645
L15920 52673
L15892 52645
L15920 52617
L15920 52673
" />
<path d="M15920 52308
L15948 52336
L15920 52364
L15892 52336
L15920 52308
L15920 52364
" />
<path d="M16623 52139
L16651 52111
L16707 52083
L16848 52083
L16904 52111
L16932 52139
L16960 52195
L16960 52251
L16932 52336
L16595 52673
L16960 52673
" />
<path d="M17326 52083
L17382 52083
L17438 52111
L17466 52139
L17494 52195
L17523 52308
L17523 52448
L17494 52561
L17466 52617
L17438 52645
L17382 52673
L17326 52673
L17269 52645
L17241 52617
L17213 52561
L17185 52448
L17185 52308
L17213 52195
L17241 52139
L17269 52111
L17326 52083
" />
<path d="M17748 52139
L17776 52111
L17832 52083
L17972 52083
L18029 52111
L18057 52139
L18085 52195
L18085 52251
L18057 52336
L17719 52673
L18085 52673
" />
<path d="M18282 52083
L18647 52083
L18451 52308
L18535 52308
L18591 52336
L18619 52364
L18647 52420
L18647 52561
L18619 52617
L18591 52645
L18535 52673
L18366 52673
L18310 52645
L18282 52617
" />
<path d="M18900 52448
L19350 52448
" />
<path d="M19744 52083
L19800 52083
L19857 52111
L19885 52139
L19913 52195
L19941 52308
L19941 52448
L19913 52561
L19885 52617
L19857 52645
L19800 52673
L19744 52673
L19688 52645
L19660 52617
L19632 52561
L19604 52448
L19604 52308
L19632 52195
L19660 52139
L19688 52111
L19744 52083
" />
<path d="M20503 52673
L20166 52673
" />
<path d="M20335 52673
L20335 52083
L20278 52167
L20222 52223
L20166 52251
" />
<path d="M20757 52448
L21206 52448
" />
<path d="M21797 52673
L21460 52673
" />
<path d="M21628 52673
L21628 52083
L21572 52167
L21516 52223
L21460 52251
" />
<path d="M21994 52083
L22359 52083
L22163 52308
L22247 52308
L22303 52336
L22331 52364
L22359 52420
L22359 52561
L22331 52617
L22303 52645
L22247 52673
L22078 52673
L22022 52645
L21994 52617
" />
</g><path d="M4725 52957
L47245 52957
" />
<text x="5119.606299" y="53804.094488"
textLength="12236.614173" font-size="787.401575" lengthAdjust="spacingAndGlyphs"
text-anchor="start" opacity="0">KiCad E.D.A.  kicad (6.0.7)</text>
<g class="stroked-text"><desc>KiCad E.D.A.  kicad (6.0.7)</desc>
<path d="M5290 53775
L5290 53185
" />
<path d="M5627 53775
L5374 53438
" />
<path d="M5627 53185
L5290 53522
" />
<path d="M5880 53775
L5880 53382
" />
<path d="M5880 53185
L5852 53213
L5880 53241
L5908 53213
L5880 53185
L5880 53241
" />
<path d="M6499 53719
L6471 53747
L6386 53775
L6330 53775
L6246 53747
L6190 53691
L6161 53635
L6133 53522
L6133 53438
L6161 53326
L6190 53269
L6246 53213
L6330 53185
L6386 53185
L6471 53213
L6499 53241
" />
<path d="M7005 53775
L7005 53466
L6977 53410
L6921 53382
L6808 53382
L6752 53410
" />
<path d="M7005 53747
L6949 53775
L6808 53775
L6752 53747
L6724 53691
L6724 53635
L6752 53579
L6808 53550
L6949 53550
L7005 53522
" />
<path d="M7539 53775
L7539 53185
" />
<path d="M7539 53747
L7483 53775
L7371 53775
L7314 53747
L7286 53719
L7258 53663
L7258 53494
L7286 53438
L7314 53410
L7371 53382
L7483 53382
L7539 53410
" />
<path d="M8271 53466
L8467 53466
" />
<path d="M8552 53775
L8271 53775
L8271 53185
L8552 53185
" />
<path d="M8805 53719
L8833 53747
L8805 53775
L8777 53747
L8805 53719
L8805 53775
" />
<path d="M9086 53775
L9086 53185
L9227 53185
L9311 53213
L9367 53269
L9395 53326
L9424 53438
L9424 53522
L9395 53635
L9367 53691
L9311 53747
L9227 53775
L9086 53775
" />
<path d="M9677 53719
L9705 53747
L9677 53775
L9649 53747
L9677 53719
L9677 53775
" />
<path d="M9930 53607
L10211 53607
" />
<path d="M9874 53775
L10070 53185
L10267 53775
" />
<path d="M10464 53719
L10492 53747
L10464 53775
L10436 53747
L10464 53719
L10464 53775
" />
<path d="M11645 53775
L11645 53185
" />
<path d="M11701 53550
L11870 53775
" />
<path d="M11870 53382
L11645 53607
" />
<path d="M12123 53775
L12123 53382
" />
<path d="M12123 53185
L12095 53213
L12123 53241
L12151 53213
L12123 53185
L12123 53241
" />
<path d="M12658 53747
L12601 53775
L12489 53775
L12433 53747
L12404 53719
L12376 53663
L12376 53494
L12404 53438
L12433 53410
L12489 53382
L12601 53382
L12658 53410
" />
<path d="M13164 53775
L13164 53466
L13136 53410
L13079 53382
L12967 53382
L12911 53410
" />
<path d="M13164 53747
L13107 53775
L12967 53775
L12911 53747
L12882 53691
L12882 53635
L12911 53579
L12967 53550
L13107 53550
L13164 53522
" />
<path d="M13698 53775
L13698 53185
" />
<path d="M13698 53747
L13642 53775
L13529 53775
L13473 53747
L13445 53719
L13417 53663
L13417 53494
L13445 53438
L13473 53410
L13529 53382
L13642 53382
L13698 53410
" />
<path d="M14598 54000
L14570 53972
L14514 53888
L14485 53832
L14457 53747
L14429 53607
L14429 53494
L14457 53354
L14485 53269
L14514 53213
L14570 53129
L14598 53101
" />
<path d="M15076 53185
L14963 53185
L14907 53213
L14879 53241
L14823 53326
L14795 53438
L14795 53663
L14823 53719
L14851 53747
L14907 53775
L15020 53775
L15076 53747
L15104 53719
L15132 53663
L15132 53522
L15104 53466
L15076 53438
L15020 53410
L14907 53410
L14851 53438
L14823 53466
L14795 53522
" />
<path d="M15385 53719
L15413 53747
L15385 53775
L15357 53747
L15385 53719
L15385 53775
" />
<path d="M15779 53185
L15835 53185
L15892 53213
L15920 53241
L15948 53297
L15976 53410
L15976 53550
L15948 53663
L15920 53719
L15892 53747
L15835 53775
L15779 53775
L15723 53747
L15695 53719
L15667 53663
L15638 53550
L15638 53410
L15667 53297
L15695 53241
L15723 53213
L15779 53185
" />
<path d="M16229 53719
L16257 53747
L16229 53775
L16201 53747
L16229 53719
L16229 53775
" />
<path d="M16454 53185
L16848 53185
L16595 53775
" />
<path d="M17016 54000
L17044 53972
L17101 53888
L17129 53832
L17157 53747
L17185 53607
L17185 53494
L17157 53354
L17129 53269
L17101 53213
L17044 53129
L17016 53101
" />
</g><path d="M4725 51776
L47245 51776
" />
</g>
<g style="fill:#840000; fill-opacity:0.0; 
stroke:#840000; stroke-width:118.110236; stroke-opacity:1; 
stroke-linecap:round; stroke-linejoin:round;">
<text x="38584.173228" y="52701.732283"
textLength="3743.897638" font-size="787.401575" lengthAdjust="spacingAndGlyphs"
text-anchor="start" opacity="0">Rev: 1.2</text>
<g class="stroked-text"><desc>Rev: 1.2</desc>
<path d="M39138 52673
L38942 52392
" />
<path d="M38801 52673
L38801 52083
L39026 52083
L39082 52111
L39110 52139
L39138 52195
L39138 52279
L39110 52336
L39082 52364
L39026 52392
L38801 52392
" />
<path d="M39617 52645
L39560 52673
L39448 52673
L39392 52645
L39363 52589
L39363 52364
L39392 52308
L39448 52279
L39560 52279
L39617 52308
L39645 52364
L39645 52420
L39363 52476
" />
<path d="M39842 52279
L39982 52673
L40123 52279
" />
<path d="M40348 52617
L40376 52645
L40348 52673
L40320 52645
L40348 52617
L40348 52673
" />
<path d="M40348 52308
L40376 52336
L40348 52364
L40320 52336
L40348 52308
L40348 52364
" />
<path d="M41388 52673
L41051 52673
" />
<path d="M41220 52673
L41220 52083
L41163 52167
L41107 52223
L41051 52251
" />
<path d="M41641 52617
L41669 52645
L41641 52673
L41613 52645
L41641 52617
L41641 52673
" />
<path d="M41894 52139
L41923 52111
L41979 52083
L42119 52083
L42176 52111
L42204 52139
L42232 52195
L42232 52251
L42204 52336
L41866 52673
L42232 52673
" />
</g></g>
<g style="fill:#840000; fill-opacity:0.0; 
stroke:#840000; stroke-width:60.000000; stroke-opacity:1; 
stroke-linecap:round; stroke-linejoin:round;">
<text x="5119.606299" y="52701.732283"
textLength="4681.102362" font-size="787.401575" lengthAdjust="spacingAndGlyphs"
text-anchor="start" opacity="0">Size: User</text>
<g class="stroked-text"><desc>Size: User</desc>
<path d="M5262 52645
L5346 52673
L5487 52673
L5543 52645
L5571 52617
L5599 52561
L5599 52504
L5571 52448
L5543 52420
L5487 52392
L5374 52364
L5318 52336
L5290 52308
L5262 52251
L5262 52195
L5290 52139
L5318 52111
L5374 52083
L5515 52083
L5599 52111
" />
<path d="M5852 52673
L5852 52279
" />
<path d="M5852 52083
L5824 52111
L5852 52139
L5880 52111
L5852 52083
L5852 52139
" />
<path d="M6077 52279
L6386 52279
L6077 52673
L6386 52673
" />
<path d="M6836 52645
L6780 52673
L6668 52673
L6611 52645
L6583 52589
L6583 52364
L6611 52308
L6668 52279
L6780 52279
L6836 52308
L6865 52364
L6865 52420
L6583 52476
" />
<path d="M7118 52617
L7146 52645
L7118 52673
L7089 52645
L7118 52617
L7118 52673
" />
<path d="M7118 52308
L7146 52336
L7118 52364
L7089 52336
L7118 52308
L7118 52364
" />
<path d="M7849 52083
L7849 52561
L7877 52617
L7905 52645
L7961 52673
L8074 52673
L8130 52645
L8158 52617
L8186 52561
L8186 52083
" />
<path d="M8439 52645
L8496 52673
L8608 52673
L8664 52645
L8692 52589
L8692 52561
L8664 52504
L8608 52476
L8524 52476
L8467 52448
L8439 52392
L8439 52364
L8467 52308
L8524 52279
L8608 52279
L8664 52308
" />
<path d="M9170 52645
L9114 52673
L9002 52673
L8945 52645
L8917 52589
L8917 52364
L8945 52308
L9002 52279
L9114 52279
L9170 52308
L9199 52364
L9199 52420
L8917 52476
" />
<path d="M9452 52673
L9452 52279
" />
<path d="M9452 52392
L9480 52336
L9508 52308
L9564 52279
L9620 52279
" />
</g><text x="38584.173228" y="53804.094488"
textLength="3350.196850" font-size="787.401575" lengthAdjust="spacingAndGlyphs"
text-anchor="start" opacity="0">Id: 1/1</text>
<g class="stroked-text"><desc>Id: 1/1</desc>
<path d="M38754 53775
L38754 53185
" />
<path d="M39289 53775
L39289 53185
" />
<path d="M39289 53747
L39232 53775
L39120 53775
L39064 53747
L39035 53719
L39007 53663
L39007 53494
L39035 53438
L39064 53410
L39120 53382
L39232 53382
L39289 53410
" />
<path d="M39570 53719
L39598 53747
L39570 53775
L39542 53747
L39570 53719
L39570 53775
" />
<path d="M39570 53410
L39598 53438
L39570 53466
L39542 53438
L39570 53410
L39570 53466
" />
<path d="M40610 53775
L40273 53775
" />
<path d="M40442 53775
L40442 53185
L40385 53269
L40329 53326
L40273 53354
" />
<path d="M41285 53157
L40779 53916
" />
<path d="M41791 53775
L41454 53775
" />
<path d="M41623 53775
L41623 53185
L41566 53269
L41510 53326
L41454 53354
" />
</g><path d="M4725 50201
L47245 50201
" />
</g>
<g style="fill:#840000; fill-opacity:0.0; 
stroke:#840000; stroke-width:157.480315; stroke-opacity:1; 
stroke-linecap:round; stroke-linejoin:round;">
<text x="5119.606299" y="51304.094488"
textLength="15629.055118" font-size="1049.842520" lengthAdjust="spacingAndGlyphs"
text-anchor="start" opacity="0">Title: mlx90614-breakout</text>
<g class="stroked-text"><desc>Title: mlx90614-breakout</desc>
<path d="M5400 50479
L5850 50479
" />
<path d="M5526 51266
L5625 50479
" />
<path d="M6014 51266
L6079 50741
" />
<path d="M6112 50479
L6070 50516
L6103 50554
L6145 50516
L6112 50479
L6103 50554
" />
<path d="M6342 50741
L6642 50741
" />
<path d="M6487 50479
L6403 51154
L6431 51229
L6501 51266
L6576 51266
" />
<path d="M6951 51266
L6881 51229
L6852 51154
L6937 50479
" />
<path d="M7556 51229
L7476 51266
L7326 51266
L7256 51229
L7227 51154
L7265 50854
L7312 50779
L7392 50741
L7541 50741
L7612 50779
L7640 50854
L7631 50929
L7246 51004
" />
<path d="M7935 51191
L7968 51229
L7926 51266
L7893 51229
L7935 51191
L7926 51266
" />
<path d="M7987 50779
L8020 50816
L7977 50854
L7945 50816
L7987 50779
L7977 50854
" />
<path d="M8901 51266
L8966 50741
" />
<path d="M8957 50816
L8999 50779
L9079 50741
L9191 50741
L9262 50779
L9290 50854
L9238 51266
" />
<path d="M9290 50854
L9337 50779
L9416 50741
L9529 50741
L9599 50779
L9627 50854
L9576 51266
" />
<path d="M10063 51266
L9993 51229
L9965 51154
L10049 50479
" />
<path d="M10288 51266
L10766 50741
" />
<path d="M10354 50741
L10700 51266
" />
<path d="M11038 51266
L11188 51266
L11268 51229
L11310 51191
L11399 51079
L11455 50929
L11493 50629
L11464 50554
L11432 50516
L11361 50479
L11211 50479
L11132 50516
L11089 50554
L11043 50629
L11019 50816
L11047 50891
L11080 50929
L11150 50966
L11300 50966
L11380 50929
L11422 50891
L11469 50816
" />
<path d="M11999 50479
L12074 50479
L12144 50516
L12177 50554
L12205 50629
L12224 50779
L12200 50966
L12144 51116
L12097 51191
L12055 51229
L11975 51266
L11900 51266
L11830 51229
L11797 51191
L11769 51116
L11750 50966
L11774 50779
L11830 50629
L11877 50554
L11919 50516
L11999 50479
" />
<path d="M12936 50479
L12786 50479
L12706 50516
L12664 50554
L12575 50666
L12519 50816
L12481 51116
L12510 51191
L12542 51229
L12613 51266
L12763 51266
L12842 51229
L12885 51191
L12931 51116
L12955 50929
L12927 50854
L12894 50816
L12824 50779
L12674 50779
L12594 50816
L12552 50854
L12505 50929
" />
<path d="M13663 51266
L13213 51266
" />
<path d="M13438 51266
L13536 50479
L13447 50591
L13363 50666
L13283 50704
" />
<path d="M14403 50741
L14337 51266
" />
<path d="M14253 50441
L13995 51004
L14483 51004
" />
<path d="M14787 50966
L15387 50966
" />
<path d="M15725 51266
L15823 50479
" />
<path d="M15786 50779
L15865 50741
L16015 50741
L16086 50779
L16119 50816
L16147 50891
L16119 51116
L16072 51191
L16029 51229
L15950 51266
L15800 51266
L15730 51229
" />
<path d="M16437 51266
L16503 50741
" />
<path d="M16484 50891
L16531 50816
L16573 50779
L16653 50741
L16728 50741
" />
<path d="M17229 51229
L17150 51266
L17000 51266
L16929 51229
L16901 51154
L16939 50854
L16986 50779
L17065 50741
L17215 50741
L17286 50779
L17314 50854
L17304 50929
L16920 51004
" />
<path d="M17937 51266
L17989 50854
L17960 50779
L17890 50741
L17740 50741
L17661 50779
" />
<path d="M17942 51229
L17862 51266
L17675 51266
L17604 51229
L17576 51154
L17586 51079
L17632 51004
L17712 50966
L17900 50966
L17979 50929
" />
<path d="M18312 51266
L18410 50479
" />
<path d="M18425 50966
L18612 51266
" />
<path d="M18678 50741
L18340 51041
" />
<path d="M19062 51266
L18992 51229
L18959 51191
L18931 51116
L18959 50891
L19006 50816
L19048 50779
L19128 50741
L19240 50741
L19310 50779
L19343 50816
L19371 50891
L19343 51116
L19296 51191
L19254 51229
L19174 51266
L19062 51266
" />
<path d="M20065 50741
L19999 51266
" />
<path d="M19727 50741
L19676 51154
L19704 51229
L19774 51266
L19887 51266
L19966 51229
L20009 51191
" />
<path d="M20327 50741
L20627 50741
" />
<path d="M20473 50479
L20388 51154
L20416 51229
L20487 51266
L20562 51266
" />
</g></g>
<g style="fill:#840000; fill-opacity:0.0; 
stroke:#840000; stroke-width:60.000000; stroke-opacity:1; 
stroke-linecap:round; stroke-linejoin:round;">
<text x="5119.606299" y="49788.346457"
textLength="16065.236220" font-size="787.401575" lengthAdjust="spacingAndGlyphs"
text-anchor="start" opacity="0">File: mlx90614-breakout.kicad_sch</text>
<g class="stroked-text"><desc>File: mlx90614-breakout.kicad_sch</desc>
<path d="M5487 49450
L5290 49450
" />
<path d="M5290 49760
L5290 49169
L5571 49169
" />
<path d="M5796 49760
L5796 49366
" />
<path d="M5796 49169
L5768 49197
L5796 49225
L5824 49197
L5796 49169
L5796 49225
" />
<path d="M6161 49760
L6105 49732
L6077 49675
L6077 49169
" />
<path d="M6611 49732
L6555 49760
L6443 49760
L6386 49732
L6358 49675
L6358 49450
L6386 49394
L6443 49366
L6555 49366
L6611 49394
L6640 49450
L6640 49507
L6358 49563
" />
<path d="M6893 49703
L6921 49732
L6893 49760
L6865 49732
L6893 49703
L6893 49760
" />
<path d="M6893 49394
L6921 49422
L6893 49450
L6865 49422
L6893 49394
L6893 49450
" />
<path d="M7624 49760
L7624 49366
" />
<path d="M7624 49422
L7652 49394
L7708 49366
L7792 49366
L7849 49394
L7877 49450
L7877 49760
" />
<path d="M7877 49450
L7905 49394
L7961 49366
L8046 49366
L8102 49394
L8130 49450
L8130 49760
" />
<path d="M8496 49760
L8439 49732
L8411 49675
L8411 49169
" />
<path d="M8664 49760
L8974 49366
" />
<path d="M8664 49366
L8974 49760
" />
<path d="M9227 49760
L9339 49760
L9395 49732
L9424 49703
L9480 49619
L9508 49507
L9508 49282
L9480 49225
L9452 49197
L9395 49169
L9283 49169
L9227 49197
L9199 49225
L9170 49282
L9170 49422
L9199 49478
L9227 49507
L9283 49535
L9395 49535
L9452 49507
L9480 49478
L9508 49422
" />
<path d="M9874 49169
L9930 49169
L9986 49197
L10014 49225
L10042 49282
L10070 49394
L10070 49535
L10042 49647
L10014 49703
L9986 49732
L9930 49760
L9874 49760
L9817 49732
L9789 49703
L9761 49647
L9733 49535
L9733 49394
L9761 49282
L9789 49225
L9817 49197
L9874 49169
" />
<path d="M10577 49169
L10464 49169
L10408 49197
L10380 49225
L10323 49310
L10295 49422
L10295 49647
L10323 49703
L10352 49732
L10408 49760
L10520 49760
L10577 49732
L10605 49703
L10633 49647
L10633 49507
L10605 49450
L10577 49422
L10520 49394
L10408 49394
L10352 49422
L10323 49450
L10295 49507
" />
<path d="M11195 49760
L10858 49760
" />
<path d="M11026 49760
L11026 49169
L10970 49254
L10914 49310
L10858 49338
" />
<path d="M11701 49366
L11701 49760
" />
<path d="M11561 49141
L11420 49563
L11786 49563
" />
<path d="M12011 49535
L12461 49535
" />
<path d="M12742 49760
L12742 49169
" />
<path d="M12742 49394
L12798 49366
L12911 49366
L12967 49394
L12995 49422
L13023 49478
L13023 49647
L12995 49703
L12967 49732
L12911 49760
L12798 49760
L12742 49732
" />
<path d="M13276 49760
L13276 49366
" />
<path d="M13276 49478
L13304 49422
L13332 49394
L13389 49366
L13445 49366
" />
<path d="M13867 49732
L13811 49760
L13698 49760
L13642 49732
L13614 49675
L13614 49450
L13642 49394
L13698 49366
L13811 49366
L13867 49394
L13895 49450
L13895 49507
L13614 49563
" />
<path d="M14401 49760
L14401 49450
L14373 49394
L14317 49366
L14204 49366
L14148 49394
" />
<path d="M14401 49732
L14345 49760
L14204 49760
L14148 49732
L14120 49675
L14120 49619
L14148 49563
L14204 49535
L14345 49535
L14401 49507
" />
<path d="M14682 49760
L14682 49169
" />
<path d="M14739 49535
L14907 49760
" />
<path d="M14907 49366
L14682 49591
" />
<path d="M15245 49760
L15188 49732
L15160 49703
L15132 49647
L15132 49478
L15160 49422
L15188 49394
L15245 49366
L15329 49366
L15385 49394
L15413 49422
L15442 49478
L15442 49647
L15413 49703
L15385 49732
L15329 49760
L15245 49760
" />
<path d="M15948 49366
L15948 49760
" />
<path d="M15695 49366
L15695 49675
L15723 49732
L15779 49760
L15863 49760
L15920 49732
L15948 49703
" />
<path d="M16145 49366
L16370 49366
" />
<path d="M16229 49169
L16229 49675
L16257 49732
L16313 49760
L16370 49760
" />
<path d="M16566 49703
L16595 49732
L16566 49760
L16538 49732
L16566 49703
L16566 49760
" />
<path d="M16848 49760
L16848 49169
" />
<path d="M16904 49535
L17073 49760
" />
<path d="M17073 49366
L16848 49591
" />
<path d="M17326 49760
L17326 49366
" />
<path d="M17326 49169
L17298 49197
L17326 49225
L17354 49197
L17326 49169
L17326 49225
" />
<path d="M17860 49732
L17804 49760
L17691 49760
L17635 49732
L17607 49703
L17579 49647
L17579 49478
L17607 49422
L17635 49394
L17691 49366
L17804 49366
L17860 49394
" />
<path d="M18366 49760
L18366 49450
L18338 49394
L18282 49366
L18169 49366
L18113 49394
" />
<path d="M18366 49732
L18310 49760
L18169 49760
L18113 49732
L18085 49675
L18085 49619
L18113 49563
L18169 49535
L18310 49535
L18366 49507
" />
<path d="M18900 49760
L18900 49169
" />
<path d="M18900 49732
L18844 49760
L18732 49760
L18676 49732
L18647 49703
L18619 49647
L18619 49478
L18647 49422
L18676 49394
L18732 49366
L18844 49366
L18900 49394
" />
<path d="M19041 49816
L19491 49816
" />
<path d="M19604 49732
L19660 49760
L19772 49760
L19829 49732
L19857 49675
L19857 49647
L19829 49591
L19772 49563
L19688 49563
L19632 49535
L19604 49478
L19604 49450
L19632 49394
L19688 49366
L19772 49366
L19829 49394
" />
<path d="M20363 49732
L20307 49760
L20194 49760
L20138 49732
L20110 49703
L20082 49647
L20082 49478
L20110 49422
L20138 49394
L20194 49366
L20307 49366
L20363 49394
" />
<path d="M20616 49760
L20616 49169
" />
<path d="M20869 49760
L20869 49450
L20841 49394
L20785 49366
L20700 49366
L20644 49394
L20616 49422
" />
</g><path d="M4725 47839
L47245 47839
" />
<text x="5119.606299" y="48725.354331"
textLength="3856.417323" font-size="787.401575" lengthAdjust="spacingAndGlyphs"
text-anchor="start" opacity="0">Sheet: /</text>
<g class="stroked-text"><desc>Sheet: /</desc>
<path d="M5262 48669
L5346 48697
L5487 48697
L5543 48669
L5571 48640
L5599 48584
L5599 48528
L5571 48472
L5543 48444
L5487 48415
L5374 48387
L5318 48359
L5290 48331
L5262 48275
L5262 48219
L5290 48162
L5318 48134
L5374 48106
L5515 48106
L5599 48134
" />
<path d="M5852 48697
L5852 48106
" />
<path d="M6105 48697
L6105 48387
L6077 48331
L6021 48303
L5937 48303
L5880 48331
L5852 48359
" />
<path d="M6611 48669
L6555 48697
L6443 48697
L6386 48669
L6358 48612
L6358 48387
L6386 48331
L6443 48303
L6555 48303
L6611 48331
L6640 48387
L6640 48444
L6358 48500
" />
<path d="M7118 48669
L7061 48697
L6949 48697
L6893 48669
L6865 48612
L6865 48387
L6893 48331
L6949 48303
L7061 48303
L7118 48331
L7146 48387
L7146 48444
L6865 48500
" />
<path d="M7314 48303
L7539 48303
" />
<path d="M7399 48106
L7399 48612
L7427 48669
L7483 48697
L7539 48697
" />
<path d="M7736 48640
L7764 48669
L7736 48697
L7708 48669
L7736 48640
L7736 48697
" />
<path d="M7736 48331
L7764 48359
L7736 48387
L7708 48359
L7736 48331
L7736 48387
" />
<path d="M8889 48078
L8383 48837
" />
</g></g>
<g style="fill:#840000; fill-opacity:0.0; 
stroke:#840000; stroke-width:118.110236; stroke-opacity:1; 
stroke-linecap:round; stroke-linejoin:round;">
<text x="5119.606299" y="47544.251969"
textLength="5065.629921" font-size="787.401575" lengthAdjust="spacingAndGlyphs"
text-anchor="start" opacity="0">Melexis Inc</text>
<g class="stroked-text"><desc>Melexis Inc</desc>
<path d="M5336 47516
L5336 46925
L5533 47347
L5730 46925
L5730 47516
" />
<path d="M6236 47487
L6180 47516
L6068 47516
L6011 47487
L5983 47431
L5983 47206
L6011 47150
L6068 47122
L6180 47122
L6236 47150
L6264 47206
L6264 47263
L5983 47319
" />
<path d="M6602 47516
L6546 47487
L6518 47431
L6518 46925
" />
<path d="M7052 47487
L6996 47516
L6883 47516
L6827 47487
L6799 47431
L6799 47206
L6827 47150
L6883 47122
L6996 47122
L7052 47150
L7080 47206
L7080 47263
L6799 47319
" />
<path d="M7277 47516
L7586 47122
" />
<path d="M7277 47122
L7586 47516
" />
<path d="M7811 47516
L7811 47122
" />
<path d="M7811 46925
L7783 46953
L7811 46981
L7839 46953
L7811 46925
L7811 46981
" />
<path d="M8064 47487
L8120 47516
L8233 47516
L8289 47487
L8317 47431
L8317 47403
L8289 47347
L8233 47319
L8149 47319
L8092 47291
L8064 47234
L8064 47206
L8092 47150
L8149 47122
L8233 47122
L8289 47150
" />
<path d="M9020 47516
L9020 46925
" />
<path d="M9302 47122
L9302 47516
" />
<path d="M9302 47178
L9330 47150
L9386 47122
L9470 47122
L9527 47150
L9555 47206
L9555 47516
" />
<path d="M10089 47487
L10033 47516
L9920 47516
L9864 47487
L9836 47459
L9808 47403
L9808 47234
L9836 47178
L9864 47150
L9920 47122
L10033 47122
L10089 47150
" />
</g></g>
<g style="fill:#840000; fill-opacity:0.0; 
stroke:#840000; stroke-width:60.000000; stroke-opacity:1; 
stroke-linecap:round; stroke-linejoin:round;">
<text x="5119.606299" y="46363.149606"
textLength="153.543307" font-size="787.401575" lengthAdjust="spacingAndGlyphs"
text-anchor="start" opacity="0"></text>
<g class="stroked-text"><desc></desc>
</g><text x="5119.606299" y="45182.047244"
textLength="60.000000" font-size="787.401575" lengthAdjust="spacingAndGlyphs"
text-anchor="start" opacity="0"></text>
<g class="stroked-text"><desc></desc>
</g><text x="5119.606299" y="44000.944882"
textLength="60.000000" font-size="787.401575" lengthAdjust="spacingAndGlyphs"
text-anchor="start" opacity="0"></text>
<g class="stroked-text"><desc></desc>
</g><text x="5119.606299" y="42819.842520"
textLength="60.000000" font-size="787.401575" lengthAdjust="spacingAndGlyphs"
text-anchor="start" opacity="0"></text>
<g class="stroked-text"><desc></desc>
</g><path d="M12599 51776
L12599 52957
" />
<path d="M37796 51776
L37796 54335
" />
<g >
</g>
<g style="fill:#840000; fill-opacity:1.0; 
stroke:#840000; stroke-width:60.000000; stroke-opacity:1; 
stroke-linecap:round; stroke-linejoin:round;">
<rect x="35200.000000" y="11050.000000" width="200.000000" height="400.000000" rx="0.000000" />
</g>
<g style="fill:#840000; fill-opacity:0.0; 
stroke:#840000; stroke-width:60.000000; stroke-opacity:1; 
stroke-linecap:round; stroke-linejoin:round;">
<path d="M35400.698131 11649.999391 A400.000000 400.000000 0.0 0 0 35400.698131 10850.000609" />
</g>
<g style="fill:#840000; fill-opacity:1.0; 
stroke:#840000; stroke-width:0.039370; stroke-opacity:1; 
stroke-linecap:round; stroke-linejoin:round;">
<path d="M35400.698131 11649.999391 A400.000000 400.000000 0.0 0 0 35400.698131 10850.000609 L 35400.000000 11250.000000 Z" />
</g>
<g style="fill:#840000; fill-opacity:0.0; 
stroke:#840000; stroke-width:60.000000; stroke-opacity:1; 
stroke-linecap:round; stroke-linejoin:round;">
<path d="M35400.698131 11649.999391 A400.000000 400.000000 0.0 0 0 35400.698131 10850.000609" />
</g>
<g style="fill:#840000; fill-opacity:1.0; 
stroke:#840000; stroke-width:60.000000; stroke-opacity:1; 
stroke-linecap:round; stroke-linejoin:round;">
<rect x="34800.000000" y="10850.000000" width="400.000000" height="800.000000" rx="0.000000" />
</g>
<g style="fill:#840000; fill-opacity:0.0; 
stroke:#840000; stroke-width:60.000000; stroke-opacity:1; 
stroke-linecap:round; stroke-linejoin:round;">
<path style="fill:#840000; fill-opacity:0.0; 
stroke:#840000; stroke-width:60.000000; stroke-opacity:1; 
stroke-linecap:round; stroke-linejoin:round;fill:none"
d="M 36000.000000,11250.000000
35800.000000,11250.000000
" /> 
<path style="fill:#840000; fill-opacity:0.0; 
stroke:#840000; stroke-width:60.000000; stroke-opacity:1; 
stroke-linecap:round; stroke-linejoin:round;fill:none"
d="M 35400.000000,11650.000000
35400.000000,10850.000000
" /> 
<path style="fill:#840000; fill-opacity:0.0; 
stroke:#840000; stroke-width:60.000000; stroke-opacity:1; 
stroke-linecap:round; stroke-linejoin:round;fill:none"
d="M 35000.000000,10750.000000
35000.000000,10850.000000
" /> 
<path style="fill:#840000; fill-opacity:0.0; 
stroke:#840000; stroke-width:60.000000; stroke-opacity:1; 
stroke-linecap:round; stroke-linejoin:round;fill:none"
d="M 34600.000000,11650.000000
34600.000000,10850.000000
" /> 
<path style="fill:#840000; fill-opacity:0.0; 
stroke:#840000; stroke-width:60.000000; stroke-opacity:1; 
stroke-linecap:round; stroke-linejoin:round;fill:none"
d="M 34000.000000,11250.000000
34200.000000,11250.000000
" /> 
</g>
<g style="fill:#840000; fill-opacity:1.0; 
stroke:#840000; stroke-width:60.000000; stroke-opacity:1; 
stroke-linecap:round; stroke-linejoin:round;">
<rect x="34600.000000" y="11050.000000" width="200.000000" height="400.000000" rx="0.000000" />
</g>
<g style="fill:#840000; fill-opacity:0.0; 
stroke:#840000; stroke-width:60.000000; stroke-opacity:1; 
stroke-linecap:round; stroke-linejoin:round;">
<path d="M34599.301869 10850.000609 A400.000000 400.000000 0.0 0 0 34599.301869 11649.999391" />
</g>
<g style="fill:#840000; fill-opacity:1.0; 
stroke:#840000; stroke-width:0.039370; stroke-opacity:1; 
stroke-linecap:round; stroke-linejoin:round;">
<path d="M34599.301869 10850.000609 A400.000000 400.000000 0.0 0 0 34599.301869 11649.999391 L 34600.000000 11250.000000 Z" />
</g>
<g style="fill:#840000; fill-opacity:0.0; 
stroke:#840000; stroke-width:60.000000; stroke-opacity:1; 
stroke-linecap:round; stroke-linejoin:round;">
<path d="M34599.301869 10850.000609 A400.000000 400.000000 0.0 0 0 34599.301869 11649.999391" />
<path d="M36000 11250
L37000 11250
" />
<text x="36500.000000" y="11850.000000"
textLength="536.181102" font-size="666.653543" lengthAdjust="spacingAndGlyphs"
text-anchor="middle" opacity="0">1</text>
<g class="stroked-text"><desc>1</desc>
<path d="M36642 11826
L36357 11826
" />
<path d="M36500 11826
L36500 11326
L36452 11397
L36404 11445
L36357 11469
" />
</g><path d="M35000 10750
L35000 9750
" />
<g transform="rotate(-90.000000 35100.000000 10250.000000)">
<text x="35100.000000" y="10750.000000"
textLength="536.181102" font-size="666.653543" lengthAdjust="spacingAndGlyphs"
text-anchor="middle" opacity="0">2</text>
</g>
<g class="stroked-text"><desc>2</desc>
<path d="M35123 10392
L35100 10369
L35076 10321
L35076 10202
L35100 10154
L35123 10130
L35171 10107
L35219 10107
L35290 10130
L35576 10416
L35576 10107
" />
</g><path d="M34000 11250
L33000 11250
" />
<text x="33500.000000" y="11850.000000"
textLength="536.181102" font-size="666.653543" lengthAdjust="spacingAndGlyphs"
text-anchor="middle" opacity="0">3</text>
<g class="stroked-text"><desc>3</desc>
<path d="M33333 11326
L33642 11326
L33476 11516
L33547 11516
L33595 11540
L33619 11564
L33642 11611
L33642 11730
L33619 11778
L33595 11802
L33547 11826
L33404 11826
L33357 11802
L33333 11778
" />
</g></g>
<g style="fill:#008484; fill-opacity:0.0; 
stroke:#008484; stroke-width:60.000000; stroke-opacity:1; 
stroke-linecap:round; stroke-linejoin:round;">
<text x="34999.960630" y="12649.370079"
textLength="1417.125984" font-size="666.653543" lengthAdjust="spacingAndGlyphs"
text-anchor="middle" opacity="0">JP1</text>
<g class="stroked-text"><desc>JP1</desc>
<path d="M34583 12125
L34583 12482
L34559 12554
L34511 12601
L34440 12625
L34392 12625
" />
<path d="M34821 12625
L34821 12125
L35011 12125
L35059 12149
L35083 12173
L35107 12220
L35107 12292
L35083 12339
L35059 12363
L35011 12387
L34821 12387
" />
<path d="M35583 12625
L35297 12625
" />
<path d="M35440 12625
L35440 12125
L35392 12196
L35345 12244
L35297 12268
" />
</g><text x="35000.000000" y="13648.149606"
textLength="10631.417323" font-size="666.653543" lengthAdjust="spacingAndGlyphs"
text-anchor="middle" opacity="0">SolderJumper_3_Bridged123</text>
<g class="stroked-text"><desc>SolderJumper_3_Bridged123</desc>
<path d="M29809 13600
L29880 13624
L30000 13624
L30047 13600
L30071 13576
L30095 13529
L30095 13481
L30071 13433
L30047 13410
L30000 13386
L29904 13362
L29857 13338
L29833 13314
L29809 13267
L29809 13219
L29833 13171
L29857 13148
L29904 13124
L30023 13124
L30095 13148
" />
<path d="M30380 13624
L30333 13600
L30309 13576
L30285 13529
L30285 13386
L30309 13338
L30333 13314
L30380 13290
L30452 13290
L30500 13314
L30523 13338
L30547 13386
L30547 13529
L30523 13576
L30500 13600
L30452 13624
L30380 13624
" />
<path d="M30833 13624
L30785 13600
L30761 13552
L30761 13124
" />
<path d="M31238 13624
L31238 13124
" />
<path d="M31238 13600
L31190 13624
L31095 13624
L31047 13600
L31023 13576
L31000 13529
L31000 13386
L31023 13338
L31047 13314
L31095 13290
L31190 13290
L31238 13314
" />
<path d="M31666 13600
L31619 13624
L31523 13624
L31476 13600
L31452 13552
L31452 13362
L31476 13314
L31523 13290
L31619 13290
L31666 13314
L31690 13362
L31690 13410
L31452 13457
" />
<path d="M31904 13624
L31904 13290
" />
<path d="M31904 13386
L31928 13338
L31952 13314
L32000 13290
L32047 13290
" />
<path d="M32357 13124
L32357 13481
L32333 13552
L32285 13600
L32214 13624
L32166 13624
" />
<path d="M32809 13290
L32809 13624
" />
<path d="M32595 13290
L32595 13552
L32619 13600
L32666 13624
L32738 13624
L32785 13600
L32809 13576
" />
<path d="M33047 13624
L33047 13290
" />
<path d="M33047 13338
L33071 13314
L33119 13290
L33190 13290
L33238 13314
L33261 13362
L33261 13624
" />
<path d="M33261 13362
L33285 13314
L33333 13290
L33404 13290
L33452 13314
L33476 13362
L33476 13624
" />
<path d="M33714 13290
L33714 13790
" />
<path d="M33714 13314
L33761 13290
L33857 13290
L33904 13314
L33928 13338
L33952 13386
L33952 13529
L33928 13576
L33904 13600
L33857 13624
L33761 13624
L33714 13600
" />
<path d="M34357 13600
L34309 13624
L34214 13624
L34166 13600
L34142 13552
L34142 13362
L34166 13314
L34214 13290
L34309 13290
L34357 13314
L34380 13362
L34380 13410
L34142 13457
" />
<path d="M34595 13624
L34595 13290
" />
<path d="M34595 13386
L34619 13338
L34642 13314
L34690 13290
L34738 13290
" />
<path d="M34785 13671
L35166 13671
" />
<path d="M35238 13124
L35547 13124
L35380 13314
L35452 13314
L35500 13338
L35523 13362
L35547 13410
L35547 13529
L35523 13576
L35500 13600
L35452 13624
L35309 13624
L35261 13600
L35238 13576
" />
<path d="M35642 13671
L36023 13671
" />
<path d="M36309 13362
L36380 13386
L36404 13410
L36428 13457
L36428 13529
L36404 13576
L36380 13600
L36333 13624
L36142 13624
L36142 13124
L36309 13124
L36357 13148
L36380 13171
L36404 13219
L36404 13267
L36380 13314
L36357 13338
L36309 13362
L36142 13362
" />
<path d="M36642 13624
L36642 13290
" />
<path d="M36642 13386
L36666 13338
L36690 13314
L36738 13290
L36785 13290
" />
<path d="M36952 13624
L36952 13290
" />
<path d="M36952 13124
L36928 13148
L36952 13171
L36976 13148
L36952 13124
L36952 13171
" />
<path d="M37404 13624
L37404 13124
" />
<path d="M37404 13600
L37357 13624
L37261 13624
L37214 13600
L37190 13576
L37166 13529
L37166 13386
L37190 13338
L37214 13314
L37261 13290
L37357 13290
L37404 13314
" />
<path d="M37857 13290
L37857 13695
L37833 13743
L37809 13767
L37761 13790
L37690 13790
L37642 13767
" />
<path d="M37857 13600
L37809 13624
L37714 13624
L37666 13600
L37642 13576
L37619 13529
L37619 13386
L37642 13338
L37666 13314
L37714 13290
L37809 13290
L37857 13314
" />
<path d="M38285 13600
L38238 13624
L38142 13624
L38095 13600
L38071 13552
L38071 13362
L38095 13314
L38142 13290
L38238 13290
L38285 13314
L38309 13362
L38309 13410
L38071 13457
" />
<path d="M38738 13624
L38738 13124
" />
<path d="M38738 13600
L38690 13624
L38595 13624
L38547 13600
L38523 13576
L38500 13529
L38500 13386
L38523 13338
L38547 13314
L38595 13290
L38690 13290
L38738 13314
" />
<path d="M39238 13624
L38952 13624
" />
<path d="M39095 13624
L39095 13124
L39047 13195
L39000 13243
L38952 13267
" />
<path d="M39428 13171
L39452 13148
L39500 13124
L39619 13124
L39666 13148
L39690 13171
L39714 13219
L39714 13267
L39690 13338
L39404 13624
L39714 13624
" />
<path d="M39880 13124
L40190 13124
L40023 13314
L40095 13314
L40142 13338
L40166 13362
L40190 13410
L40190 13529
L40166 13576
L40142 13600
L40095 13624
L39952 13624
L39904 13600
L39880 13576
" />
</g></g>
</g>
<g style="fill:#008484; fill-opacity:0.0; 
stroke:#008484; stroke-width:60.000000; stroke-opacity:1; 
stroke-linecap:round; stroke-linejoin:round;">
<g >
</g>
<g style="fill:#840000; fill-opacity:0.0; 
stroke:#840000; stroke-width:60.000000; stroke-opacity:1; 
stroke-linecap:round; stroke-linejoin:round;">
<path style="fill:#840000; fill-opacity:0.0; 
stroke:#840000; stroke-width:60.000000; stroke-opacity:1; 
stroke-linecap:round; stroke-linejoin:round;fill:none"
d="M 13250.000000,16250.000000
13090.000000,16250.000000
" /> 
<path style="fill:#840000; fill-opacity:0.0; 
stroke:#840000; stroke-width:60.000000; stroke-opacity:1; 
stroke-linecap:round; stroke-linejoin:round;fill:none"
d="M 13250.000000,15250.000000
13090.000000,15250.000000
" /> 
<path style="fill:#840000; fill-opacity:0.0; 
stroke:#840000; stroke-width:60.000000; stroke-opacity:1; 
stroke-linecap:round; stroke-linejoin:round;fill:none"
d="M 13250.000000,14250.000000
13090.000000,14250.000000
" /> 
<path style="fill:#840000; fill-opacity:0.0; 
stroke:#840000; stroke-width:60.000000; stroke-opacity:1; 
stroke-linecap:round; stroke-linejoin:round;fill:none"
d="M 13250.000000,13250.000000
13090.000000,13250.000000
" /> 
</g>
<g style="fill:#840000; fill-opacity:1.0; 
stroke:#840000; stroke-width:60.000000; stroke-opacity:1; 
stroke-linecap:round; stroke-linejoin:round;">
<rect x="12750.000000" y="16200.000000" width="340.000000" height="100.000000" rx="0.000000" />
<rect x="12750.000000" y="15200.000000" width="340.000000" height="100.000000" rx="0.000000" />
<rect x="12750.000000" y="14200.000000" width="340.000000" height="100.000000" rx="0.000000" />
<rect x="12750.000000" y="13200.000000" width="340.000000" height="100.000000" rx="0.000000" />
</g>
<g style="fill:#840000; fill-opacity:0.0; 
stroke:#840000; stroke-width:60.000000; stroke-opacity:1; 
stroke-linecap:round; stroke-linejoin:round;">
<path d="M13250 13250
L14750 13250
" />
<text x="14000.000000" y="13150.000000"
textLength="536.181102" font-size="666.653543" lengthAdjust="spacingAndGlyphs"
text-anchor="middle" opacity="0">1</text>
<g class="stroked-text"><desc>1</desc>
<path d="M14142 13126
L13857 13126
" />
<path d="M14000 13126
L14000 12626
L13952 12697
L13904 12745
L13857 12769
" />
</g><path d="M13250 14250
L14750 14250
" />
<text x="14000.000000" y="14150.000000"
textLength="536.181102" font-size="666.653543" lengthAdjust="spacingAndGlyphs"
text-anchor="middle" opacity="0">2</text>
<g class="stroked-text"><desc>2</desc>
<path d="M13857 13673
L13880 13650
L13928 13626
L14047 13626
L14095 13650
L14119 13673
L14142 13721
L14142 13769
L14119 13840
L13833 14126
L14142 14126
" />
</g><path d="M13250 15250
L14750 15250
" />
<text x="14000.000000" y="15150.000000"
textLength="536.181102" font-size="666.653543" lengthAdjust="spacingAndGlyphs"
text-anchor="middle" opacity="0">3</text>
<g class="stroked-text"><desc>3</desc>
<path d="M13833 14626
L14142 14626
L13976 14816
L14047 14816
L14095 14840
L14119 14864
L14142 14911
L14142 15030
L14119 15078
L14095 15102
L14047 15126
L13904 15126
L13857 15102
L13833 15078
" />
</g><path d="M13250 16250
L14750 16250
" />
<text x="14000.000000" y="16150.000000"
textLength="536.181102" font-size="666.653543" lengthAdjust="spacingAndGlyphs"
text-anchor="middle" opacity="0">4</text>
<g class="stroked-text"><desc>4</desc>
<path d="M14095 15792
L14095 16126
" />
<path d="M13976 15602
L13857 15959
L14166 15959
" />
</g></g>
<g style="fill:#008484; fill-opacity:0.0; 
stroke:#008484; stroke-width:60.000000; stroke-opacity:1; 
stroke-linecap:round; stroke-linejoin:round;">
<text x="13000.000000" y="11908.346457"
textLength="917.125984" font-size="666.653543" lengthAdjust="spacingAndGlyphs"
text-anchor="middle" opacity="0">J1</text>
<g class="stroked-text"><desc>J1</desc>
<path d="M12833 11384
L12833 11741
L12809 11813
L12761 11860
L12690 11884
L12642 11884
" />
<path d="M13333 11884
L13047 11884
" />
<path d="M13190 11884
L13190 11384
L13142 11455
L13095 11503
L13047 11527
" />
</g><text x="13000.000000" y="13000.905512"
textLength="6702.874016" font-size="666.653543" lengthAdjust="spacingAndGlyphs"
text-anchor="middle" opacity="0">Conn_01x04_Male</text>
<g class="stroked-text"><desc>Conn_01x04_Male</desc>
<path d="M10083 12929
L10059 12953
L9988 12977
L9940 12977
L9869 12953
L9821 12905
L9797 12858
L9773 12762
L9773 12691
L9797 12596
L9821 12548
L9869 12500
L9940 12477
L9988 12477
L10059 12500
L10083 12524
" />
<path d="M10369 12977
L10321 12953
L10297 12929
L10273 12881
L10273 12738
L10297 12691
L10321 12667
L10369 12643
L10440 12643
L10488 12667
L10511 12691
L10535 12738
L10535 12881
L10511 12929
L10488 12953
L10440 12977
L10369 12977
" />
<path d="M10750 12643
L10750 12977
" />
<path d="M10750 12691
L10773 12667
L10821 12643
L10892 12643
L10940 12667
L10964 12715
L10964 12977
" />
<path d="M11202 12643
L11202 12977
" />
<path d="M11202 12691
L11226 12667
L11273 12643
L11345 12643
L11392 12667
L11416 12715
L11416 12977
" />
<path d="M11535 13024
L11916 13024
" />
<path d="M12130 12477
L12178 12477
L12226 12500
L12250 12524
L12273 12572
L12297 12667
L12297 12786
L12273 12881
L12250 12929
L12226 12953
L12178 12977
L12130 12977
L12083 12953
L12059 12929
L12035 12881
L12011 12786
L12011 12667
L12035 12572
L12059 12524
L12083 12500
L12130 12477
" />
<path d="M12773 12977
L12488 12977
" />
<path d="M12630 12977
L12630 12477
L12583 12548
L12535 12596
L12488 12619
" />
<path d="M12940 12977
L13202 12643
" />
<path d="M12940 12643
L13202 12977
" />
<path d="M13488 12477
L13535 12477
L13583 12500
L13607 12524
L13630 12572
L13654 12667
L13654 12786
L13630 12881
L13607 12929
L13583 12953
L13535 12977
L13488 12977
L13440 12953
L13416 12929
L13392 12881
L13369 12786
L13369 12667
L13392 12572
L13416 12524
L13440 12500
L13488 12477
" />
<path d="M14083 12643
L14083 12977
" />
<path d="M13964 12453
L13845 12810
L14154 12810
" />
<path d="M14226 13024
L14607 13024
" />
<path d="M14726 12977
L14726 12477
L14892 12834
L15059 12477
L15059 12977
" />
<path d="M15511 12977
L15511 12715
L15488 12667
L15440 12643
L15345 12643
L15297 12667
" />
<path d="M15511 12953
L15464 12977
L15345 12977
L15297 12953
L15273 12905
L15273 12858
L15297 12810
L15345 12786
L15464 12786
L15511 12762
" />
<path d="M15821 12977
L15773 12953
L15750 12905
L15750 12477
" />
<path d="M16202 12953
L16154 12977
L16059 12977
L16011 12953
L15988 12905
L15988 12715
L16011 12667
L16059 12643
L16154 12643
L16202 12667
L16226 12715
L16226 12762
L15988 12810
" />
</g></g>
</g>
<g style="fill:#008484; fill-opacity:0.0; 
stroke:#008484; stroke-width:60.000000; stroke-opacity:1; 
stroke-linecap:round; stroke-linejoin:round;">
<g >
</g>
<g style="fill:#840000; fill-opacity:0.0; 
stroke:#840000; stroke-width:60.000000; stroke-opacity:1; 
stroke-linecap:round; stroke-linejoin:round;">
</g>
<g style="fill:#840000; fill-opacity:0.0; 
stroke:#840000; stroke-width:100.000000; stroke-opacity:1; 
stroke-linecap:round; stroke-linejoin:round;">
<rect x="32600.000000" y="15750.000000" width="800.000000" height="2000.000000" rx="0.000000" />
</g>
<g style="fill:#840000; fill-opacity:0.0; 
stroke:#840000; stroke-width:60.000000; stroke-opacity:1; 
stroke-linecap:round; stroke-linejoin:round;">
<path d="M33000 15750
L33000 15250
" />
<path d="M33000 17750
L33000 18250
" />
</g>
<g style="fill:#008484; fill-opacity:0.0; 
stroke:#008484; stroke-width:60.000000; stroke-opacity:1; 
stroke-linecap:round; stroke-linejoin:round;">
<text x="34219.330709" y="16671.338583"
textLength="1036.181102" font-size="666.653543" lengthAdjust="spacingAndGlyphs"
text-anchor="middle" opacity="0">R1</text>
<g class="stroked-text"><desc>R1</desc>
<path d="M34135 16647
L33969 16409
" />
<path d="M33850 16647
L33850 16147
L34040 16147
L34088 16171
L34112 16195
L34135 16242
L34135 16314
L34112 16361
L34088 16385
L34040 16409
L33850 16409
" />
<path d="M34612 16647
L34326 16647
" />
<path d="M34469 16647
L34469 16147
L34421 16218
L34374 16266
L34326 16290
" />
</g><text x="34457.440945" y="17670.118110"
textLength="1512.362205" font-size="666.653543" lengthAdjust="spacingAndGlyphs"
text-anchor="middle" opacity="0">4K7</text>
<g class="stroked-text"><desc>4K7</desc>
<path d="M34064 17312
L34064 17646
" />
<path d="M33945 17122
L33826 17479
L34135 17479
" />
<path d="M34326 17646
L34326 17146
" />
<path d="M34612 17646
L34397 17360
" />
<path d="M34612 17146
L34326 17432
" />
<path d="M34778 17146
L35112 17146
L34897 17646
" />
</g></g>
</g>
<g style="fill:#008484; fill-opacity:0.0; 
stroke:#008484; stroke-width:60.000000; stroke-opacity:1; 
stroke-linecap:round; stroke-linejoin:round;">
<g >
</g>
<g style="fill:#840000; fill-opacity:0.0; 
stroke:#840000; stroke-width:60.000000; stroke-opacity:1; 
stroke-linecap:round; stroke-linejoin:round;">
</g>
<g style="fill:#840000; fill-opacity:0.0; 
stroke:#840000; stroke-width:100.000000; stroke-opacity:1; 
stroke-linecap:round; stroke-linejoin:round;">
<rect x="36600.000000" y="15750.000000" width="800.000000" height="2000.000000" rx="0.000000" />
</g>
<g style="fill:#840000; fill-opacity:0.0; 
stroke:#840000; stroke-width:60.000000; stroke-opacity:1; 
stroke-linecap:round; stroke-linejoin:round;">
<path d="M37000 15750
L37000 15250
" />
<path d="M37000 17750
L37000 18250
" />
</g>
<g style="fill:#008484; fill-opacity:0.0; 
stroke:#008484; stroke-width:60.000000; stroke-opacity:1; 
stroke-linecap:round; stroke-linejoin:round;">
<text x="38219.330709" y="16671.338583"
textLength="1036.181102" font-size="666.653543" lengthAdjust="spacingAndGlyphs"
text-anchor="middle" opacity="0">R2</text>
<g class="stroked-text"><desc>R2</desc>
<path d="M38135 16647
L37969 16409
" />
<path d="M37850 16647
L37850 16147
L38040 16147
L38088 16171
L38112 16195
L38135 16242
L38135 16314
L38112 16361
L38088 16385
L38040 16409
L37850 16409
" />
<path d="M38326 16195
L38350 16171
L38397 16147
L38516 16147
L38564 16171
L38588 16195
L38612 16242
L38612 16290
L38588 16361
L38302 16647
L38612 16647
" />
</g><text x="38457.440945" y="17670.118110"
textLength="1512.362205" font-size="666.653543" lengthAdjust="spacingAndGlyphs"
text-anchor="middle" opacity="0">4K7</text>
<g class="stroked-text"><desc>4K7</desc>
<path d="M38064 17312
L38064 17646
" />
<path d="M37945 17122
L37826 17479
L38135 17479
" />
<path d="M38326 17646
L38326 17146
" />
<path d="M38612 17646
L38397 17360
" />
<path d="M38612 17146
L38326 17432
" />
<path d="M38778 17146
L39112 17146
L38897 17646
" />
</g></g>
</g>
<g style="fill:#008484; fill-opacity:0.0; 
stroke:#008484; stroke-width:60.000000; stroke-opacity:1; 
stroke-linecap:round; stroke-linejoin:round;">
<g >
</g>
<g style="fill:#840000; fill-opacity:0.0; 
stroke:#840000; stroke-width:60.000000; stroke-opacity:1; 
stroke-linecap:round; stroke-linejoin:round;">
</g>
<g style="fill:#FFFFC2; fill-opacity:0.0; 
stroke:#FFFFC2; stroke-width:60.000000; stroke-opacity:1; 
stroke-linecap:round; stroke-linejoin:round;">
</g>
<g style="fill:#FFFFC2; fill-opacity:0.6; 
stroke:#FFFFC2; stroke-width:0.039370; stroke-opacity:1; 
stroke-linecap:round; stroke-linejoin:round;">
<rect x="24250.000000" y="28500.000000" width="10000.000000" height="6000.000000" rx="0.000000" />
</g>
<g style="fill:#840000; fill-opacity:0.6; 
stroke:#840000; stroke-width:0.039370; stroke-opacity:1; 
stroke-linecap:round; stroke-linejoin:round;">
</g>
<g style="fill:#840000; fill-opacity:0.0; 
stroke:#840000; stroke-width:100.000000; stroke-opacity:1; 
stroke-linecap:round; stroke-linejoin:round;">
<rect x="24250.000000" y="28500.000000" width="10000.000000" height="6000.000000" rx="0.000000" />
<rect x="24250.000000" y="28500.000000" width="10000.000000" height="6000.000000" rx="0.000000" />
</g>
<g style="fill:#840000; fill-opacity:0.0; 
stroke:#840000; stroke-width:60.000000; stroke-opacity:1; 
stroke-linecap:round; stroke-linejoin:round;">
<path d="M24250 30500
L22250 30500
" />
</g>
<g style="fill:#008484; fill-opacity:0.0; 
stroke:#008484; stroke-width:60.000000; stroke-opacity:1; 
stroke-linecap:round; stroke-linejoin:round;">
<text x="24650.000000" y="30700.000000"
textLength="2307.637795" font-size="533.307087" lengthAdjust="spacingAndGlyphs"
text-anchor="start" opacity="0">SCL/VZ</text>
<g class="stroked-text"><desc>SCL/VZ</desc>
<path d="M24756 30661
L24813 30680
L24908 30680
L24946 30661
L24965 30642
L24984 30604
L24984 30566
L24965 30528
L24946 30509
L24908 30490
L24832 30471
L24794 30452
L24775 30433
L24756 30395
L24756 30357
L24775 30319
L24794 30300
L24832 30280
L24927 30280
L24984 30300
" />
<path d="M25384 30642
L25365 30661
L25308 30680
L25270 30680
L25213 30661
L25175 30623
L25156 30585
L25137 30509
L25137 30452
L25156 30376
L25175 30338
L25213 30300
L25270 30280
L25308 30280
L25365 30300
L25384 30319
" />
<path d="M25746 30680
L25556 30680
L25556 30280
" />
<path d="M26165 30261
L25822 30776
" />
<path d="M26241 30280
L26375 30680
L26508 30280
" />
<path d="M26603 30280
L26870 30280
L26603 30680
L26870 30680
" />
</g></g>
<g style="fill:#840000; fill-opacity:0.0; 
stroke:#840000; stroke-width:60.000000; stroke-opacity:1; 
stroke-linecap:round; stroke-linejoin:round;">
<text x="23250.000000" y="30400.000000"
textLength="440.944882" font-size="533.307087" lengthAdjust="spacingAndGlyphs"
text-anchor="middle" opacity="0">1</text>
<g class="stroked-text"><desc>1</desc>
<path d="M23364 30380
L23135 30380
" />
<path d="M23250 30380
L23250 29980
L23211 30038
L23173 30076
L23135 30095
" />
</g><path d="M24250 31500
L22250 31500
" />
</g>
<g style="fill:#008484; fill-opacity:0.0; 
stroke:#008484; stroke-width:60.000000; stroke-opacity:1; 
stroke-linecap:round; stroke-linejoin:round;">
<text x="24650.000000" y="31700.000000"
textLength="2917.125984" font-size="533.307087" lengthAdjust="spacingAndGlyphs"
text-anchor="start" opacity="0">SDA/PWM</text>
<g class="stroked-text"><desc>SDA/PWM</desc>
<path d="M24756 31661
L24813 31680
L24908 31680
L24946 31661
L24965 31642
L24984 31604
L24984 31566
L24965 31528
L24946 31509
L24908 31490
L24832 31471
L24794 31452
L24775 31433
L24756 31395
L24756 31357
L24775 31319
L24794 31300
L24832 31280
L24927 31280
L24984 31300
" />
<path d="M25156 31680
L25156 31280
L25251 31280
L25308 31300
L25346 31338
L25365 31376
L25384 31452
L25384 31509
L25365 31585
L25346 31623
L25308 31661
L25251 31680
L25156 31680
" />
<path d="M25537 31566
L25727 31566
" />
<path d="M25499 31680
L25632 31280
L25765 31680
" />
<path d="M26184 31261
L25841 31776
" />
<path d="M26318 31680
L26318 31280
L26470 31280
L26508 31300
L26527 31319
L26546 31357
L26546 31414
L26527 31452
L26508 31471
L26470 31490
L26318 31490
" />
<path d="M26680 31280
L26775 31680
L26851 31395
L26927 31680
L27022 31280
" />
<path d="M27175 31680
L27175 31280
L27308 31566
L27441 31280
L27441 31680
" />
</g></g>
<g style="fill:#840000; fill-opacity:0.0; 
stroke:#840000; stroke-width:60.000000; stroke-opacity:1; 
stroke-linecap:round; stroke-linejoin:round;">
<text x="23250.000000" y="31400.000000"
textLength="440.944882" font-size="533.307087" lengthAdjust="spacingAndGlyphs"
text-anchor="middle" opacity="0">2</text>
<g class="stroked-text"><desc>2</desc>
<path d="M23135 31019
L23154 31000
L23192 30980
L23288 30980
L23326 31000
L23345 31019
L23364 31057
L23364 31095
L23345 31152
L23116 31380
L23364 31380
" />
</g><path d="M34250 29500
L36250 29500
" />
</g>
<g style="fill:#008484; fill-opacity:0.0; 
stroke:#008484; stroke-width:60.000000; stroke-opacity:1; 
stroke-linecap:round; stroke-linejoin:round;">
<text x="33850.000000" y="29700.000000"
textLength="1202.874016" font-size="533.307087" lengthAdjust="spacingAndGlyphs"
text-anchor="end" opacity="0">VDD</text>
<g class="stroked-text"><desc>VDD</desc>
<path d="M32715 29280
L32848 29680
L32981 29280
" />
<path d="M33115 29680
L33115 29280
L33210 29280
L33267 29300
L33305 29338
L33324 29376
L33343 29452
L33343 29509
L33324 29585
L33305 29623
L33267 29661
L33210 29680
L33115 29680
" />
<path d="M33515 29680
L33515 29280
L33610 29280
L33667 29300
L33705 29338
L33724 29376
L33743 29452
L33743 29509
L33724 29585
L33705 29623
L33667 29661
L33610 29680
L33515 29680
" />
</g></g>
<g style="fill:#840000; fill-opacity:0.0; 
stroke:#840000; stroke-width:60.000000; stroke-opacity:1; 
stroke-linecap:round; stroke-linejoin:round;">
<text x="35250.000000" y="29400.000000"
textLength="440.944882" font-size="533.307087" lengthAdjust="spacingAndGlyphs"
text-anchor="middle" opacity="0">3</text>
<g class="stroked-text"><desc>3</desc>
<path d="M35116 28980
L35364 28980
L35230 29133
L35288 29133
L35326 29152
L35345 29171
L35364 29209
L35364 29304
L35345 29342
L35326 29361
L35288 29380
L35173 29380
L35135 29361
L35116 29342
" />
</g><path d="M34250 33500
L36250 33500
" />
</g>
<g style="fill:#008484; fill-opacity:0.0; 
stroke:#008484; stroke-width:60.000000; stroke-opacity:1; 
stroke-linecap:round; stroke-linejoin:round;">
<text x="33850.000000" y="33700.000000"
textLength="1164.763780" font-size="533.307087" lengthAdjust="spacingAndGlyphs"
text-anchor="end" opacity="0">VSS</text>
<g class="stroked-text"><desc>VSS</desc>
<path d="M32753 33280
L32886 33680
L33020 33280
" />
<path d="M33134 33661
L33191 33680
L33286 33680
L33324 33661
L33343 33642
L33362 33604
L33362 33566
L33343 33528
L33324 33509
L33286 33490
L33210 33471
L33172 33452
L33153 33433
L33134 33395
L33134 33357
L33153 33319
L33172 33300
L33210 33280
L33305 33280
L33362 33300
" />
<path d="M33515 33661
L33572 33680
L33667 33680
L33705 33661
L33724 33642
L33743 33604
L33743 33566
L33724 33528
L33705 33509
L33667 33490
L33591 33471
L33553 33452
L33534 33433
L33515 33395
L33515 33357
L33534 33319
L33553 33300
L33591 33280
L33686 33280
L33743 33300
" />
</g></g>
<g style="fill:#840000; fill-opacity:0.0; 
stroke:#840000; stroke-width:60.000000; stroke-opacity:1; 
stroke-linecap:round; stroke-linejoin:round;">
<text x="35250.000000" y="33400.000000"
textLength="440.944882" font-size="533.307087" lengthAdjust="spacingAndGlyphs"
text-anchor="middle" opacity="0">4</text>
<g class="stroked-text"><desc>4</desc>
<path d="M35326 33114
L35326 33380
" />
<path d="M35230 32961
L35135 33247
L35383 33247
" />
</g></g>
<g style="fill:#008484; fill-opacity:0.0; 
stroke:#008484; stroke-width:60.000000; stroke-opacity:1; 
stroke-linecap:round; stroke-linejoin:round;">
<text x="29250.000000" y="27293.346457"
textLength="1060.000000" font-size="666.653543" lengthAdjust="spacingAndGlyphs"
text-anchor="middle" opacity="0">U1</text>
<g class="stroked-text"><desc>U1</desc>
<path d="M28869 26769
L28869 27174
L28892 27221
L28916 27245
L28964 27269
L29059 27269
L29107 27245
L29130 27221
L29154 27174
L29154 26769
" />
<path d="M29654 27269
L29369 27269
" />
<path d="M29511 27269
L29511 26769
L29464 26840
L29416 26888
L29369 26912
" />
</g><text x="29250.000000" y="28292.125984"
textLength="3893.346457" font-size="666.653543" lengthAdjust="spacingAndGlyphs"
text-anchor="middle" opacity="0">MLX90614</text>
<g class="stroked-text"><desc>MLX90614</desc>
<path d="M27452 28268
L27452 27768
L27619 28125
L27785 27768
L27785 28268
" />
<path d="M28261 28268
L28023 28268
L28023 27768
" />
<path d="M28380 27768
L28714 28268
" />
<path d="M28714 27768
L28380 28268
" />
<path d="M28928 28268
L29023 28268
L29071 28244
L29095 28220
L29142 28149
L29166 28054
L29166 27863
L29142 27815
L29119 27792
L29071 27768
L28976 27768
L28928 27792
L28904 27815
L28880 27863
L28880 27982
L28904 28030
L28928 28054
L28976 28077
L29071 28077
L29119 28054
L29142 28030
L29166 27982
" />
<path d="M29476 27768
L29523 27768
L29571 27792
L29595 27815
L29619 27863
L29642 27958
L29642 28077
L29619 28173
L29595 28220
L29571 28244
L29523 28268
L29476 28268
L29428 28244
L29404 28220
L29380 28173
L29357 28077
L29357 27958
L29380 27863
L29404 27815
L29428 27792
L29476 27768
" />
<path d="M30071 27768
L29976 27768
L29928 27792
L29904 27815
L29857 27887
L29833 27982
L29833 28173
L29857 28220
L29880 28244
L29928 28268
L30023 28268
L30071 28244
L30095 28220
L30119 28173
L30119 28054
L30095 28006
L30071 27982
L30023 27958
L29928 27958
L29880 27982
L29857 28006
L29833 28054
" />
<path d="M30595 28268
L30309 28268
" />
<path d="M30452 28268
L30452 27768
L30404 27839
L30357 27887
L30309 27911
" />
<path d="M31023 27934
L31023 28268
" />
<path d="M30904 27744
L30785 28101
L31095 28101
" />
</g></g>
</g>
<g style="fill:#008484; fill-opacity:0.0; 
stroke:#008484; stroke-width:60.000000; stroke-opacity:1; 
stroke-linecap:round; stroke-linejoin:round;">
<g >
</g>
<g style="fill:#840000; fill-opacity:0.0; 
stroke:#840000; stroke-width:60.000000; stroke-opacity:1; 
stroke-linecap:round; stroke-linejoin:round;">
<circle cx="12750.000000" cy="29200.000000" r="300.000000" /> 
<path d="M12750 29500
L12750 30500
" />
</g>
<g style="fill:#008484; fill-opacity:0.0; 
stroke:#008484; stroke-width:60.000000; stroke-opacity:1; 
stroke-linecap:round; stroke-linejoin:round;">
<text x="13959.803150" y="29249.960630"
textLength="1417.125984" font-size="666.653543" lengthAdjust="spacingAndGlyphs"
text-anchor="middle" opacity="0">TP1</text>
<g class="stroked-text"><desc>TP1</desc>
<path d="M13328 28726
L13614 28726
" />
<path d="M13471 29226
L13471 28726
" />
<path d="M13781 29226
L13781 28726
L13971 28726
L14019 28749
L14043 28773
L14066 28821
L14066 28892
L14043 28940
L14019 28964
L13971 28988
L13781 28988
" />
<path d="M14543 29226
L14257 29226
" />
<path d="M14400 29226
L14400 28726
L14352 28797
L14305 28845
L14257 28868
" />
</g><text x="14995.551181" y="30249.960630"
textLength="3488.582677" font-size="666.653543" lengthAdjust="spacingAndGlyphs"
text-anchor="middle" opacity="0">TestPoint</text>
<g class="stroked-text"><desc>TestPoint</desc>
<path d="M13328 29726
L13614 29726
" />
<path d="M13471 30226
L13471 29726
" />
<path d="M13971 30202
L13924 30226
L13828 30226
L13781 30202
L13757 30154
L13757 29964
L13781 29916
L13828 29892
L13924 29892
L13971 29916
L13995 29964
L13995 30011
L13757 30059
" />
<path d="M14186 30202
L14233 30226
L14328 30226
L14376 30202
L14400 30154
L14400 30130
L14376 30083
L14328 30059
L14257 30059
L14209 30035
L14186 29988
L14186 29964
L14209 29916
L14257 29892
L14328 29892
L14376 29916
" />
<path d="M14543 29892
L14733 29892
" />
<path d="M14614 29726
L14614 30154
L14638 30202
L14686 30226
L14733 30226
" />
<path d="M14900 30226
L14900 29726
L15090 29726
L15138 29749
L15162 29773
L15186 29821
L15186 29892
L15162 29940
L15138 29964
L15090 29988
L14900 29988
" />
<path d="M15471 30226
L15424 30202
L15400 30178
L15376 30130
L15376 29988
L15400 29940
L15424 29916
L15471 29892
L15543 29892
L15590 29916
L15614 29940
L15638 29988
L15638 30130
L15614 30178
L15590 30202
L15543 30226
L15471 30226
" />
<path d="M15852 30226
L15852 29892
" />
<path d="M15852 29726
L15828 29749
L15852 29773
L15876 29749
L15852 29726
L15852 29773
" />
<path d="M16090 29892
L16090 30226
" />
<path d="M16090 29940
L16114 29916
L16162 29892
L16233 29892
L16281 29916
L16305 29964
L16305 30226
" />
<path d="M16471 29892
L16662 29892
" />
<path d="M16543 29726
L16543 30154
L16566 30202
L16614 30226
L16662 30226
" />
</g></g>
</g>
<g style="fill:#008484; fill-opacity:0.0; 
stroke:#008484; stroke-width:60.000000; stroke-opacity:1; 
stroke-linecap:round; stroke-linejoin:round;">
<g >
</g>
<g style="fill:#840000; fill-opacity:0.0; 
stroke:#840000; stroke-width:60.000000; stroke-opacity:1; 
stroke-linecap:round; stroke-linejoin:round;">
<path style="fill:#840000; fill-opacity:0.0; 
stroke:#840000; stroke-width:60.000000; stroke-opacity:1; 
stroke-linecap:round; stroke-linejoin:round;fill:none"
d="M 37750.000000,32750.000000
40750.000000,32750.000000
" /> 
<path style="fill:#840000; fill-opacity:0.0; 
stroke:#840000; stroke-width:60.000000; stroke-opacity:1; 
stroke-linecap:round; stroke-linejoin:round;fill:none"
d="M 37750.000000,31750.000000
40750.000000,31750.000000
" /> 
<path d="M39250 31750
L39250 29750
" />
<g transform="rotate(-90.000000 39150.000000 30750.000000)">
<text x="39150.000000" y="30750.000000"
textLength="440.944882" font-size="533.307087" lengthAdjust="spacingAndGlyphs"
text-anchor="middle" opacity="0">1</text>
</g>
<g class="stroked-text"><desc>1</desc>
<path d="M39130 30635
L39130 30864
" />
<path d="M39130 30750
L38730 30750
L38788 30788
L38826 30826
L38845 30864
" />
</g><path d="M39250 32750
L39250 34750
" />
<g transform="rotate(-90.000000 39150.000000 33750.000000)">
<text x="39150.000000" y="33750.000000"
textLength="440.944882" font-size="533.307087" lengthAdjust="spacingAndGlyphs"
text-anchor="middle" opacity="0">2</text>
</g>
<g class="stroked-text"><desc>2</desc>
<path d="M38769 33864
L38750 33845
L38730 33807
L38730 33711
L38750 33673
L38769 33654
L38807 33635
L38845 33635
L38902 33654
L39130 33883
L39130 33635
" />
</g></g>
<g style="fill:#008484; fill-opacity:0.0; 
stroke:#008484; stroke-width:60.000000; stroke-opacity:1; 
stroke-linecap:round; stroke-linejoin:round;">
<text x="41549.330709" y="32039.960630"
textLength="1036.181102" font-size="666.653543" lengthAdjust="spacingAndGlyphs"
text-anchor="middle" opacity="0">C1</text>
<g class="stroked-text"><desc>C1</desc>
<path d="M41465 31968
L41442 31992
L41370 32016
L41323 32016
L41251 31992
L41204 31944
L41180 31897
L41156 31801
L41156 31730
L41180 31635
L41204 31587
L41251 31539
L41323 31516
L41370 31516
L41442 31539
L41465 31563
" />
<path d="M41942 32016
L41656 32016
" />
<path d="M41799 32016
L41799 31516
L41751 31587
L41704 31635
L41656 31658
" />
</g><text x="42001.732283" y="32949.960630"
textLength="1940.944882" font-size="666.653543" lengthAdjust="spacingAndGlyphs"
text-anchor="middle" opacity="0">100n</text>
<g class="stroked-text"><desc>100n</desc>
<path d="M41442 32926
L41156 32926
" />
<path d="M41299 32926
L41299 32426
L41251 32497
L41204 32545
L41156 32568
" />
<path d="M41751 32426
L41799 32426
L41846 32449
L41870 32473
L41894 32521
L41918 32616
L41918 32735
L41894 32830
L41870 32878
L41846 32902
L41799 32926
L41751 32926
L41704 32902
L41680 32878
L41656 32830
L41632 32735
L41632 32616
L41656 32521
L41680 32473
L41704 32449
L41751 32426
" />
<path d="M42227 32426
L42275 32426
L42323 32449
L42346 32473
L42370 32521
L42394 32616
L42394 32735
L42370 32830
L42346 32878
L42323 32902
L42275 32926
L42227 32926
L42180 32902
L42156 32878
L42132 32830
L42108 32735
L42108 32616
L42132 32521
L42156 32473
L42180 32449
L42227 32426
" />
<path d="M42608 32592
L42608 32926
" />
<path d="M42608 32640
L42632 32616
L42680 32592
L42751 32592
L42799 32616
L42823 32664
L42823 32926
" />
</g></g>
</g>
<g style="fill:#008484; fill-opacity:0.0; 
stroke:#008484; stroke-width:60.000000; stroke-opacity:1; 
stroke-linecap:round; stroke-linejoin:round;">
<g >
</g>
<g style="fill:#840000; fill-opacity:0.0; 
stroke:#840000; stroke-width:60.000000; stroke-opacity:1; 
stroke-linecap:round; stroke-linejoin:round;">
<circle cx="12750.000000" cy="32800.000000" r="300.000000" /> 
<path d="M12750 32500
L12750 31500
" />
</g>
<g style="fill:#008484; fill-opacity:0.0; 
stroke:#008484; stroke-width:60.000000; stroke-opacity:1; 
stroke-linecap:round; stroke-linejoin:round;">
<text x="13959.803150" y="32840.000000"
textLength="1417.125984" font-size="666.653543" lengthAdjust="spacingAndGlyphs"
text-anchor="middle" opacity="0">TP2</text>
<g class="stroked-text"><desc>TP2</desc>
<path d="M13328 32316
L13614 32316
" />
<path d="M13471 32816
L13471 32316
" />
<path d="M13781 32816
L13781 32316
L13971 32316
L14019 32340
L14043 32363
L14066 32411
L14066 32482
L14043 32530
L14019 32554
L13971 32578
L13781 32578
" />
<path d="M14257 32363
L14281 32340
L14328 32316
L14447 32316
L14495 32340
L14519 32363
L14543 32411
L14543 32459
L14519 32530
L14233 32816
L14543 32816
" />
</g><text x="14995.551181" y="33750.000000"
textLength="3488.582677" font-size="666.653543" lengthAdjust="spacingAndGlyphs"
text-anchor="middle" opacity="0">TestPoint</text>
<g class="stroked-text"><desc>TestPoint</desc>
<path d="M13328 33226
L13614 33226
" />
<path d="M13471 33726
L13471 33226
" />
<path d="M13971 33702
L13924 33726
L13828 33726
L13781 33702
L13757 33654
L13757 33464
L13781 33416
L13828 33392
L13924 33392
L13971 33416
L13995 33464
L13995 33511
L13757 33559
" />
<path d="M14186 33702
L14233 33726
L14328 33726
L14376 33702
L14400 33654
L14400 33630
L14376 33583
L14328 33559
L14257 33559
L14209 33535
L14186 33488
L14186 33464
L14209 33416
L14257 33392
L14328 33392
L14376 33416
" />
<path d="M14543 33392
L14733 33392
" />
<path d="M14614 33226
L14614 33654
L14638 33702
L14686 33726
L14733 33726
" />
<path d="M14900 33726
L14900 33226
L15090 33226
L15138 33250
L15162 33273
L15186 33321
L15186 33392
L15162 33440
L15138 33464
L15090 33488
L14900 33488
" />
<path d="M15471 33726
L15424 33702
L15400 33678
L15376 33630
L15376 33488
L15400 33440
L15424 33416
L15471 33392
L15543 33392
L15590 33416
L15614 33440
L15638 33488
L15638 33630
L15614 33678
L15590 33702
L15543 33726
L15471 33726
" />
<path d="M15852 33726
L15852 33392
" />
<path d="M15852 33226
L15828 33250
L15852 33273
L15876 33250
L15852 33226
L15852 33273
" />
<path d="M16090 33392
L16090 33726
" />
<path d="M16090 33440
L16114 33416
L16162 33392
L16233 33392
L16281 33416
L16305 33464
L16305 33726
" />
<path d="M16471 33392
L16662 33392
" />
<path d="M16543 33226
L16543 33654
L16566 33702
L16614 33726
L16662 33726
" />
</g></g>
</g>
<g style="fill:#008484; fill-opacity:0.0; 
stroke:#008484; stroke-width:60.000000; stroke-opacity:1; 
stroke-linecap:round; stroke-linejoin:round;">
<g >
</g>
<g style="fill:#840000; fill-opacity:0.0; 
stroke:#840000; stroke-width:60.000000; stroke-opacity:1; 
stroke-linecap:round; stroke-linejoin:round;">
<circle cx="15750.000000" cy="38950.000000" r="300.000000" /> 
<path d="M15750 39250
L15750 40250
" />
</g>
<g style="fill:#008484; fill-opacity:0.0; 
stroke:#008484; stroke-width:60.000000; stroke-opacity:1; 
stroke-linecap:round; stroke-linejoin:round;">
<text x="17039.803150" y="39319.960630"
textLength="1417.125984" font-size="666.653543" lengthAdjust="spacingAndGlyphs"
text-anchor="middle" opacity="0">TP3</text>
<g class="stroked-text"><desc>TP3</desc>
<path d="M16408 38796
L16694 38796
" />
<path d="M16551 39296
L16551 38796
" />
<path d="M16861 39296
L16861 38796
L17051 38796
L17099 38819
L17123 38843
L17146 38891
L17146 38962
L17123 39010
L17099 39034
L17051 39058
L16861 39058
" />
<path d="M17313 38796
L17623 38796
L17456 38986
L17527 38986
L17575 39010
L17599 39034
L17623 39081
L17623 39200
L17599 39248
L17575 39272
L17527 39296
L17385 39296
L17337 39272
L17313 39248
" />
</g><text x="18075.551181" y="40229.960630"
textLength="3488.582677" font-size="666.653543" lengthAdjust="spacingAndGlyphs"
text-anchor="middle" opacity="0">TestPoint</text>
<g class="stroked-text"><desc>TestPoint</desc>
<path d="M16408 39706
L16694 39706
" />
<path d="M16551 40206
L16551 39706
" />
<path d="M17051 40182
L17004 40206
L16908 40206
L16861 40182
L16837 40134
L16837 39944
L16861 39896
L16908 39872
L17004 39872
L17051 39896
L17075 39944
L17075 39991
L16837 40039
" />
<path d="M17266 40182
L17313 40206
L17408 40206
L17456 40182
L17480 40134
L17480 40110
L17456 40063
L17408 40039
L17337 40039
L17289 40015
L17266 39968
L17266 39944
L17289 39896
L17337 39872
L17408 39872
L17456 39896
" />
<path d="M17623 39872
L17813 39872
" />
<path d="M17694 39706
L17694 40134
L17718 40182
L17766 40206
L17813 40206
" />
<path d="M17980 40206
L17980 39706
L18170 39706
L18218 39729
L18242 39753
L18266 39801
L18266 39872
L18242 39920
L18218 39944
L18170 39968
L17980 39968
" />
<path d="M18551 40206
L18504 40182
L18480 40158
L18456 40110
L18456 39968
L18480 39920
L18504 39896
L18551 39872
L18623 39872
L18670 39896
L18694 39920
L18718 39968
L18718 40110
L18694 40158
L18670 40182
L18623 40206
L18551 40206
" />
<path d="M18932 40206
L18932 39872
" />
<path d="M18932 39706
L18908 39729
L18932 39753
L18956 39729
L18932 39706
L18932 39753
" />
<path d="M19170 39872
L19170 40206
" />
<path d="M19170 39920
L19194 39896
L19242 39872
L19313 39872
L19361 39896
L19385 39944
L19385 40206
" />
<path d="M19551 39872
L19742 39872
" />
<path d="M19623 39706
L19623 40134
L19646 40182
L19694 40206
L19742 40206
" />
</g></g>
</g>
<g style="fill:#008484; fill-opacity:0.0; 
stroke:#008484; stroke-width:60.000000; stroke-opacity:1; 
stroke-linecap:round; stroke-linejoin:round;">
<g >
</g>
<g style="fill:#840000; fill-opacity:0.0; 
stroke:#840000; stroke-width:60.000000; stroke-opacity:1; 
stroke-linecap:round; stroke-linejoin:round;">
<circle cx="40550.000000" cy="24250.000000" r="300.000000" /> 
<path d="M40250 24250
L39250 24250
" />
</g>
<g style="fill:#008484; fill-opacity:0.0; 
stroke:#008484; stroke-width:60.000000; stroke-opacity:1; 
stroke-linecap:round; stroke-linejoin:round;">
<text x="41839.803150" y="24039.960630"
textLength="1417.125984" font-size="666.653543" lengthAdjust="spacingAndGlyphs"
text-anchor="middle" opacity="0">TP4</text>
<g class="stroked-text"><desc>TP4</desc>
<path d="M41208 23516
L41494 23516
" />
<path d="M41351 24016
L41351 23516
" />
<path d="M41661 24016
L41661 23516
L41851 23516
L41899 23539
L41923 23563
L41946 23611
L41946 23682
L41923 23730
L41899 23754
L41851 23778
L41661 23778
" />
<path d="M42375 23682
L42375 24016
" />
<path d="M42256 23492
L42137 23849
L42446 23849
" />
</g><text x="42875.551181" y="24949.960630"
textLength="3488.582677" font-size="666.653543" lengthAdjust="spacingAndGlyphs"
text-anchor="middle" opacity="0">TestPoint</text>
<g class="stroked-text"><desc>TestPoint</desc>
<path d="M41208 24426
L41494 24426
" />
<path d="M41351 24926
L41351 24426
" />
<path d="M41851 24902
L41804 24926
L41708 24926
L41661 24902
L41637 24854
L41637 24664
L41661 24616
L41708 24592
L41804 24592
L41851 24616
L41875 24664
L41875 24711
L41637 24759
" />
<path d="M42066 24902
L42113 24926
L42208 24926
L42256 24902
L42280 24854
L42280 24830
L42256 24783
L42208 24759
L42137 24759
L42089 24735
L42066 24688
L42066 24664
L42089 24616
L42137 24592
L42208 24592
L42256 24616
" />
<path d="M42423 24592
L42613 24592
" />
<path d="M42494 24426
L42494 24854
L42518 24902
L42566 24926
L42613 24926
" />
<path d="M42780 24926
L42780 24426
L42970 24426
L43018 24449
L43042 24473
L43066 24521
L43066 24592
L43042 24640
L43018 24664
L42970 24688
L42780 24688
" />
<path d="M43351 24926
L43304 24902
L43280 24878
L43256 24830
L43256 24688
L43280 24640
L43304 24616
L43351 24592
L43423 24592
L43470 24616
L43494 24640
L43518 24688
L43518 24830
L43494 24878
L43470 24902
L43423 24926
L43351 24926
" />
<path d="M43732 24926
L43732 24592
" />
<path d="M43732 24426
L43708 24449
L43732 24473
L43756 24449
L43732 24426
L43732 24473
" />
<path d="M43970 24592
L43970 24926
" />
<path d="M43970 24640
L43994 24616
L44042 24592
L44113 24592
L44161 24616
L44185 24664
L44185 24926
" />
<path d="M44351 24592
L44542 24592
" />
<path d="M44423 24426
L44423 24854
L44446 24902
L44494 24926
L44542 24926
" />
</g></g>
</g>
<g style="fill:#008484; fill-opacity:0.0; 
stroke:#008484; stroke-width:62.519685; stroke-opacity:1; 
stroke-linecap:round; stroke-linejoin:round;">
</g>
<g style="fill:#008484; fill-opacity:0.0; 
stroke:#008484; stroke-width:60.000000; stroke-opacity:1; 
stroke-linecap:round; stroke-linejoin:round;">
</g>
<g style="fill:#000000; fill-opacity:0.0; 
stroke:#000000; stroke-width:60.000000; stroke-opacity:1; 
stroke-linecap:round; stroke-linejoin:round;">
<text x="18650.000000" y="14147.480315"
textLength="1488.582677" font-size="666.653543" lengthAdjust="spacingAndGlyphs"
text-anchor="start" opacity="0">VDD</text>
<g class="stroked-text"><desc>VDD</desc>
<path d="M18727 13623
L18894 14123
L19060 13623
" />
<path d="M19227 14123
L19227 13623
L19346 13623
L19418 13647
L19465 13695
L19489 13742
L19513 13837
L19513 13909
L19489 14004
L19465 14052
L19418 14099
L19346 14123
L19227 14123
" />
<path d="M19727 14123
L19727 13623
L19846 13623
L19918 13647
L19965 13695
L19989 13742
L20013 13837
L20013 13909
L19989 14004
L19965 14052
L19918 14099
L19846 14123
L19727 14123
" />
</g></g>
<g style="fill:#000000; fill-opacity:0.0; 
stroke:#000000; stroke-width:62.519685; stroke-opacity:1; 
stroke-linecap:round; stroke-linejoin:round;">
</g>
<g style="fill:#000000; fill-opacity:0.0; 
stroke:#000000; stroke-width:60.000000; stroke-opacity:1; 
stroke-linecap:round; stroke-linejoin:round;">
<text x="18650.000000" y="13147.480315"
textLength="1583.818898" font-size="666.653543" lengthAdjust="spacingAndGlyphs"
text-anchor="start" opacity="0">GND</text>
<g class="stroked-text"><desc>GND</desc>
<path d="M19060 12647
L19013 12623
L18941 12623
L18870 12647
L18822 12695
L18799 12742
L18775 12837
L18775 12909
L18799 13004
L18822 13052
L18870 13099
L18941 13123
L18989 13123
L19060 13099
L19084 13076
L19084 12909
L18989 12909
" />
<path d="M19299 13123
L19299 12623
L19584 13123
L19584 12623
" />
<path d="M19822 13123
L19822 12623
L19941 12623
L20013 12647
L20060 12695
L20084 12742
L20108 12837
L20108 12909
L20084 13004
L20060 13052
L20013 13099
L19941 13123
L19822 13123
" />
</g></g>
<g style="fill:#000000; fill-opacity:0.0; 
stroke:#000000; stroke-width:62.519685; stroke-opacity:1; 
stroke-linecap:round; stroke-linejoin:round;">
</g>
<g style="fill:#000000; fill-opacity:0.0; 
stroke:#000000; stroke-width:60.000000; stroke-opacity:1; 
stroke-linecap:round; stroke-linejoin:round;">
<text x="29750.000000" y="19147.480315"
textLength="1440.944882" font-size="666.653543" lengthAdjust="spacingAndGlyphs"
text-anchor="start" opacity="0">SCL</text>
<g class="stroked-text"><desc>SCL</desc>
<path d="M29875 19099
L29946 19123
L30065 19123
L30113 19099
L30137 19076
L30160 19028
L30160 18980
L30137 18933
L30113 18909
L30065 18885
L29970 18861
L29922 18837
L29899 18814
L29875 18766
L29875 18718
L29899 18671
L29922 18647
L29970 18623
L30089 18623
L30160 18647
" />
<path d="M30660 19076
L30637 19099
L30565 19123
L30518 19123
L30446 19099
L30399 19052
L30375 19004
L30351 18909
L30351 18837
L30375 18742
L30399 18695
L30446 18647
L30518 18623
L30565 18623
L30637 18647
L30660 18671
" />
<path d="M31113 19123
L30875 19123
L30875 18623
" />
</g></g>
<g style="fill:#000000; fill-opacity:0.0; 
stroke:#000000; stroke-width:62.519685; stroke-opacity:1; 
stroke-linecap:round; stroke-linejoin:round;">
</g>
<g style="fill:#000000; fill-opacity:0.0; 
stroke:#000000; stroke-width:60.000000; stroke-opacity:1; 
stroke-linecap:round; stroke-linejoin:round;">
<text x="24250.000000" y="40147.480315"
textLength="1583.818898" font-size="666.653543" lengthAdjust="spacingAndGlyphs"
text-anchor="start" opacity="0">GND</text>
<g class="stroked-text"><desc>GND</desc>
<path d="M24660 39647
L24613 39623
L24541 39623
L24470 39647
L24422 39695
L24399 39742
L24375 39837
L24375 39909
L24399 40004
L24422 40052
L24470 40099
L24541 40123
L24589 40123
L24660 40099
L24684 40076
L24684 39909
L24589 39909
" />
<path d="M24899 40123
L24899 39623
L25184 40123
L25184 39623
" />
<path d="M25422 40123
L25422 39623
L25541 39623
L25613 39647
L25660 39695
L25684 39742
L25708 39837
L25708 39909
L25684 40004
L25660 40052
L25613 40099
L25541 40123
L25422 40123
" />
</g></g>
<g style="fill:#000000; fill-opacity:0.0; 
stroke:#000000; stroke-width:62.519685; stroke-opacity:1; 
stroke-linecap:round; stroke-linejoin:round;">
</g>
<g style="fill:#000000; fill-opacity:0.0; 
stroke:#000000; stroke-width:60.000000; stroke-opacity:1; 
stroke-linecap:round; stroke-linejoin:round;">
<text x="18750.000000" y="15147.480315"
textLength="1464.763780" font-size="666.653543" lengthAdjust="spacingAndGlyphs"
text-anchor="start" opacity="0">SDA</text>
<g class="stroked-text"><desc>SDA</desc>
<path d="M18875 15099
L18946 15123
L19065 15123
L19113 15099
L19137 15076
L19160 15028
L19160 14980
L19137 14933
L19113 14909
L19065 14885
L18970 14861
L18922 14837
L18899 14814
L18875 14766
L18875 14718
L18899 14671
L18922 14647
L18970 14623
L19089 14623
L19160 14647
" />
<path d="M19375 15123
L19375 14623
L19494 14623
L19565 14647
L19613 14695
L19637 14742
L19660 14837
L19660 14909
L19637 15004
L19613 15052
L19565 15099
L19494 15123
L19375 15123
" />
<path d="M19851 14980
L20089 14980
" />
<path d="M19803 15123
L19970 14623
L20137 15123
" />
</g></g>
<g style="fill:#000000; fill-opacity:0.0; 
stroke:#000000; stroke-width:62.519685; stroke-opacity:1; 
stroke-linecap:round; stroke-linejoin:round;">
</g>
<g style="fill:#000000; fill-opacity:0.0; 
stroke:#000000; stroke-width:60.000000; stroke-opacity:1; 
stroke-linecap:round; stroke-linejoin:round;">
<text x="18750.000000" y="16147.480315"
textLength="1440.944882" font-size="666.653543" lengthAdjust="spacingAndGlyphs"
text-anchor="start" opacity="0">SCL</text>
<g class="stroked-text"><desc>SCL</desc>
<path d="M18875 16099
L18946 16123
L19065 16123
L19113 16099
L19137 16076
L19160 16028
L19160 15980
L19137 15933
L19113 15909
L19065 15885
L18970 15861
L18922 15837
L18899 15814
L18875 15766
L18875 15718
L18899 15671
L18922 15647
L18970 15623
L19089 15623
L19160 15647
" />
<path d="M19660 16076
L19637 16099
L19565 16123
L19518 16123
L19446 16099
L19399 16052
L19375 16004
L19351 15909
L19351 15837
L19375 15742
L19399 15695
L19446 15647
L19518 15623
L19565 15623
L19637 15647
L19660 15671
" />
<path d="M20113 16123
L19875 16123
L19875 15623
" />
</g></g>
<g style="fill:#000000; fill-opacity:0.0; 
stroke:#000000; stroke-width:62.519685; stroke-opacity:1; 
stroke-linecap:round; stroke-linejoin:round;">
</g>
<g style="fill:#000000; fill-opacity:0.0; 
stroke:#000000; stroke-width:60.000000; stroke-opacity:1; 
stroke-linecap:round; stroke-linejoin:round;">
<text x="36750.000000" y="29397.480315"
textLength="1488.582677" font-size="666.653543" lengthAdjust="spacingAndGlyphs"
text-anchor="start" opacity="0">VDD</text>
<g class="stroked-text"><desc>VDD</desc>
<path d="M36827 28873
L36994 29373
L37160 28873
" />
<path d="M37327 29373
L37327 28873
L37446 28873
L37518 28897
L37565 28945
L37589 28992
L37613 29087
L37613 29159
L37589 29254
L37565 29302
L37518 29349
L37446 29373
L37327 29373
" />
<path d="M37827 29373
L37827 28873
L37946 28873
L38018 28897
L38065 28945
L38089 28992
L38113 29087
L38113 29159
L38089 29254
L38065 29302
L38018 29349
L37946 29373
L37827 29373
" />
</g></g>
<g style="fill:#000000; fill-opacity:0.0; 
stroke:#000000; stroke-width:62.519685; stroke-opacity:1; 
stroke-linecap:round; stroke-linejoin:round;">
</g>
<g style="fill:#000000; fill-opacity:0.0; 
stroke:#000000; stroke-width:60.000000; stroke-opacity:1; 
stroke-linecap:round; stroke-linejoin:round;">
<text x="40000.000000" y="19147.480315"
textLength="1464.763780" font-size="666.653543" lengthAdjust="spacingAndGlyphs"
text-anchor="start" opacity="0">SDA</text>
<g class="stroked-text"><desc>SDA</desc>
<path d="M40125 19099
L40196 19123
L40315 19123
L40363 19099
L40387 19076
L40410 19028
L40410 18980
L40387 18933
L40363 18909
L40315 18885
L40220 18861
L40172 18837
L40149 18814
L40125 18766
L40125 18718
L40149 18671
L40172 18647
L40220 18623
L40339 18623
L40410 18647
" />
<path d="M40625 19123
L40625 18623
L40744 18623
L40815 18647
L40863 18695
L40887 18742
L40910 18837
L40910 18909
L40887 19004
L40863 19052
L40815 19099
L40744 19123
L40625 19123
" />
<path d="M41101 18980
L41339 18980
" />
<path d="M41053 19123
L41220 18623
L41387 19123
" />
</g></g>
<g style="fill:#000000; fill-opacity:0.0; 
stroke:#000000; stroke-width:62.519685; stroke-opacity:1; 
stroke-linecap:round; stroke-linejoin:round;">
</g>
<g style="fill:#000000; fill-opacity:0.0; 
stroke:#000000; stroke-width:60.000000; stroke-opacity:1; 
stroke-linecap:round; stroke-linejoin:round;">
<text x="35500.000000" y="8647.480315"
textLength="1488.582677" font-size="666.653543" lengthAdjust="spacingAndGlyphs"
text-anchor="start" opacity="0">VDD</text>
<g class="stroked-text"><desc>VDD</desc>
<path d="M35577 8123
L35744 8623
L35910 8123
" />
<path d="M36077 8623
L36077 8123
L36196 8123
L36268 8147
L36315 8195
L36339 8242
L36363 8337
L36363 8409
L36339 8504
L36315 8552
L36268 8599
L36196 8623
L36077 8623
" />
<path d="M36577 8623
L36577 8123
L36696 8123
L36768 8147
L36815 8195
L36839 8242
L36863 8337
L36863 8409
L36839 8504
L36815 8552
L36768 8599
L36696 8623
L36577 8623
" />
</g></g>
<g style="fill:#000000; fill-opacity:0.0; 
stroke:#000000; stroke-width:62.519685; stroke-opacity:1; 
stroke-linecap:round; stroke-linejoin:round;">
</g>
<g style="fill:#000000; fill-opacity:0.0; 
stroke:#000000; stroke-width:60.000000; stroke-opacity:1; 
stroke-linecap:round; stroke-linejoin:round;">
<text x="8750.000000" y="31397.480315"
textLength="1464.763780" font-size="666.653543" lengthAdjust="spacingAndGlyphs"
text-anchor="start" opacity="0">SDA</text>
<g class="stroked-text"><desc>SDA</desc>
<path d="M8875 31349
L8946 31373
L9065 31373
L9113 31349
L9137 31326
L9160 31278
L9160 31230
L9137 31183
L9113 31159
L9065 31135
L8970 31111
L8922 31087
L8899 31064
L8875 31016
L8875 30968
L8899 30921
L8922 30897
L8970 30873
L9089 30873
L9160 30897
" />
<path d="M9375 31373
L9375 30873
L9494 30873
L9565 30897
L9613 30945
L9637 30992
L9660 31087
L9660 31159
L9637 31254
L9613 31302
L9565 31349
L9494 31373
L9375 31373
" />
<path d="M9851 31230
L10089 31230
" />
<path d="M9803 31373
L9970 30873
L10137 31373
" />
</g></g>
<g style="fill:#000000; fill-opacity:0.0; 
stroke:#000000; stroke-width:62.519685; stroke-opacity:1; 
stroke-linecap:round; stroke-linejoin:round;">
</g>
<g style="fill:#000000; fill-opacity:0.0; 
stroke:#000000; stroke-width:60.000000; stroke-opacity:1; 
stroke-linecap:round; stroke-linejoin:round;">
<text x="8750.000000" y="30397.480315"
textLength="1440.944882" font-size="666.653543" lengthAdjust="spacingAndGlyphs"
text-anchor="start" opacity="0">SCL</text>
<g class="stroked-text"><desc>SCL</desc>
<path d="M8875 30349
L8946 30373
L9065 30373
L9113 30349
L9137 30326
L9160 30278
L9160 30230
L9137 30183
L9113 30159
L9065 30135
L8970 30111
L8922 30087
L8899 30064
L8875 30016
L8875 29968
L8899 29921
L8922 29897
L8970 29873
L9089 29873
L9160 29897
" />
<path d="M9660 30326
L9637 30349
L9565 30373
L9518 30373
L9446 30349
L9399 30302
L9375 30254
L9351 30159
L9351 30087
L9375 29992
L9399 29945
L9446 29897
L9518 29873
L9565 29873
L9637 29897
L9660 29921
" />
<path d="M10113 30373
L9875 30373
L9875 29873
" />
</g></g>
<g style="fill:#008400; fill-opacity:0.0; 
stroke:#008400; stroke-width:60.000000; stroke-opacity:1; 
stroke-linecap:round; stroke-linejoin:round;">
<path d="M14750 13250
L22250 13250
" />
<path d="M14750 14250
L22250 14250
" />
<path d="M12750 31500
L22250 31500
" />
<path d="M12750 30500
L22250 30500
" />
<path d="M14750 15250
L22250 15250
" />
<path d="M15750 40250
L39250 40250
" />
<path d="M12750 30500
L8250 30500
" />
<path d="M37000 18250
L37000 19250
" />
<path d="M37000 19250
L42000 19250
" />
<path d="M36250 29500
L39250 29500
" />
<path d="M29000 19250
L33000 19250
" />
<path d="M36250 33500
L36250 35250
" />
<path d="M39250 34750
L39250 35250
" />
<path d="M33000 18250
L33000 19250
" />
<path d="M39250 29500
L39250 29750
" />
<path d="M12750 31500
L8250 31500
" />
<path d="M39250 24250
L39250 29500
" />
<path d="M39250 35250
L39250 40250
" />
<path d="M14750 16250
L22250 16250
" />
<path d="M35000 9750
L35000 8750
" />
<path d="M37000 11250
L37000 15250
" />
<path d="M35000 8750
L37500 8750
" />
<path d="M33000 11250
L33000 15250
" />
<path d="M36250 35250
L39250 35250
" />
</g>
<g style="fill:#008400; fill-opacity:1.0; 
stroke:#008400; stroke-width:60.000000; stroke-opacity:1; 
stroke-linecap:round; stroke-linejoin:round;">
<circle cx="12750.000000" cy="31500.000000" r="180.000000" /> 
<circle cx="12750.000000" cy="30500.000000" r="180.000000" /> 
<circle cx="39250.000000" cy="35250.000000" r="180.000000" /> 
<circle cx="39250.000000" cy="29500.000000" r="180.000000" /> 
</g> 
</svg>
